G04 #@! TF.GenerationSoftware,KiCad,Pcbnew,7.0.10*
G04 #@! TF.CreationDate,2024-06-01T12:23:42+09:00*
G04 #@! TF.ProjectId,simple_megarom_cartridge,73696d70-6c65-45f6-9d65-6761726f6d5f,rev?*
G04 #@! TF.SameCoordinates,Original*
G04 #@! TF.FileFunction,Legend,Bot*
G04 #@! TF.FilePolarity,Positive*
%FSLAX46Y46*%
G04 Gerber Fmt 4.6, Leading zero omitted, Abs format (unit mm)*
G04 Created by KiCad (PCBNEW 7.0.10) date 2024-06-01 12:23:42*
%MOMM*%
%LPD*%
G01*
G04 APERTURE LIST*
%ADD10C,0.150000*%
%ADD11C,0.300000*%
G04 APERTURE END LIST*
D10*
X51333500Y-55207000D02*
X91084500Y-55207000D01*
X91084500Y-65240000D01*
X51333500Y-65240000D01*
X51333500Y-55207000D01*
G36*
X51333500Y-55207000D02*
G01*
X91084500Y-55207000D01*
X91084500Y-65240000D01*
X51333500Y-65240000D01*
X51333500Y-55207000D01*
G37*
X90827077Y-53695819D02*
X90255649Y-53695819D01*
X90541363Y-54695819D02*
X90541363Y-53695819D01*
X89922315Y-54695819D02*
X89922315Y-53695819D01*
X89588982Y-53695819D02*
X89017554Y-53695819D01*
X89303268Y-54695819D02*
X89303268Y-53695819D01*
X88208030Y-54695819D02*
X88684220Y-54695819D01*
X88684220Y-54695819D02*
X88684220Y-53695819D01*
X87874696Y-54172009D02*
X87541363Y-54172009D01*
X87398506Y-54695819D02*
X87874696Y-54695819D01*
X87874696Y-54695819D02*
X87874696Y-53695819D01*
X87874696Y-53695819D02*
X87398506Y-53695819D01*
D11*
X66646632Y-101300828D02*
X66646632Y-102300828D01*
X67003774Y-100729400D02*
X67360917Y-101800828D01*
X67360917Y-101800828D02*
X66432346Y-101800828D01*
X65789489Y-102300828D02*
X65503775Y-102300828D01*
X65503775Y-102300828D02*
X65360918Y-102229400D01*
X65360918Y-102229400D02*
X65289489Y-102157971D01*
X65289489Y-102157971D02*
X65146632Y-101943685D01*
X65146632Y-101943685D02*
X65075203Y-101657971D01*
X65075203Y-101657971D02*
X65075203Y-101086542D01*
X65075203Y-101086542D02*
X65146632Y-100943685D01*
X65146632Y-100943685D02*
X65218061Y-100872257D01*
X65218061Y-100872257D02*
X65360918Y-100800828D01*
X65360918Y-100800828D02*
X65646632Y-100800828D01*
X65646632Y-100800828D02*
X65789489Y-100872257D01*
X65789489Y-100872257D02*
X65860918Y-100943685D01*
X65860918Y-100943685D02*
X65932346Y-101086542D01*
X65932346Y-101086542D02*
X65932346Y-101443685D01*
X65932346Y-101443685D02*
X65860918Y-101586542D01*
X65860918Y-101586542D02*
X65789489Y-101657971D01*
X65789489Y-101657971D02*
X65646632Y-101729400D01*
X65646632Y-101729400D02*
X65360918Y-101729400D01*
X65360918Y-101729400D02*
X65218061Y-101657971D01*
X65218061Y-101657971D02*
X65146632Y-101586542D01*
X65146632Y-101586542D02*
X65075203Y-101443685D01*
X133728774Y-102159828D02*
X134585917Y-102159828D01*
X134157346Y-102159828D02*
X134157346Y-100659828D01*
X134157346Y-100659828D02*
X134300203Y-100874114D01*
X134300203Y-100874114D02*
X134443060Y-101016971D01*
X134443060Y-101016971D02*
X134585917Y-101088400D01*
M02*
