G04 #@! TF.GenerationSoftware,KiCad,Pcbnew,7.0.10*
G04 #@! TF.CreationDate,2024-06-01T12:23:42+09:00*
G04 #@! TF.ProjectId,simple_megarom_cartridge,73696d70-6c65-45f6-9d65-6761726f6d5f,rev?*
G04 #@! TF.SameCoordinates,Original*
G04 #@! TF.FileFunction,Copper,L2,Bot*
G04 #@! TF.FilePolarity,Positive*
%FSLAX46Y46*%
G04 Gerber Fmt 4.6, Leading zero omitted, Abs format (unit mm)*
G04 Created by KiCad (PCBNEW 7.0.10) date 2024-06-01 12:23:42*
%MOMM*%
%LPD*%
G01*
G04 APERTURE LIST*
G04 Aperture macros list*
%AMFreePoly0*
4,1,18,0.123607,0.380423,0.235114,0.323607,0.323607,0.235114,0.380423,0.123607,0.400000,0.000000,0.400000,-1.500000,0.850000,-1.500000,0.850000,-10.500000,-0.850000,-10.500000,-0.850000,-1.500000,-0.400000,-1.500000,-0.400000,0.000000,-0.380423,0.123607,-0.323607,0.235114,-0.235114,0.323607,-0.123607,0.380423,0.000000,0.400000,0.123607,0.380423,0.123607,0.380423,$1*%
G04 Aperture macros list end*
G04 #@! TA.AperFunction,ComponentPad*
%ADD10C,1.600000*%
G04 #@! TD*
G04 #@! TA.AperFunction,ComponentPad*
%ADD11R,1.600000X1.600000*%
G04 #@! TD*
G04 #@! TA.AperFunction,ComponentPad*
%ADD12O,1.600000X1.600000*%
G04 #@! TD*
G04 #@! TA.AperFunction,SMDPad,CuDef*
%ADD13FreePoly0,0.000000*%
G04 #@! TD*
G04 #@! TA.AperFunction,ComponentPad*
%ADD14C,1.400000*%
G04 #@! TD*
G04 #@! TA.AperFunction,ComponentPad*
%ADD15O,1.400000X1.400000*%
G04 #@! TD*
G04 #@! TA.AperFunction,ComponentPad*
%ADD16R,1.700000X1.700000*%
G04 #@! TD*
G04 #@! TA.AperFunction,ComponentPad*
%ADD17O,1.700000X1.700000*%
G04 #@! TD*
G04 #@! TA.AperFunction,ViaPad*
%ADD18C,0.800000*%
G04 #@! TD*
G04 #@! TA.AperFunction,Conductor*
%ADD19C,0.800000*%
G04 #@! TD*
G04 #@! TA.AperFunction,Conductor*
%ADD20C,0.250000*%
G04 #@! TD*
G04 APERTURE END LIST*
D10*
X140932000Y-88989000D03*
X140932000Y-83989000D03*
D11*
X132169000Y-55207000D03*
D12*
X129629000Y-55207000D03*
X127089000Y-55207000D03*
X124549000Y-55207000D03*
X122009000Y-55207000D03*
X119469000Y-55207000D03*
X116929000Y-55207000D03*
X114389000Y-55207000D03*
X111849000Y-55207000D03*
X109309000Y-55207000D03*
X106769000Y-55207000D03*
X104229000Y-55207000D03*
X101689000Y-55207000D03*
X99149000Y-55207000D03*
X96609000Y-55207000D03*
X94069000Y-55207000D03*
X94069000Y-70447000D03*
X96609000Y-70447000D03*
X99149000Y-70447000D03*
X101689000Y-70447000D03*
X104229000Y-70447000D03*
X106769000Y-70447000D03*
X109309000Y-70447000D03*
X111849000Y-70447000D03*
X114389000Y-70447000D03*
X116929000Y-70447000D03*
X119469000Y-70447000D03*
X122009000Y-70447000D03*
X124549000Y-70447000D03*
X127089000Y-70447000D03*
X129629000Y-70447000D03*
X132169000Y-70447000D03*
D13*
X130894600Y-104325600D03*
X128354600Y-104325600D03*
X125814600Y-104325600D03*
X123274600Y-104325600D03*
X120734600Y-104325600D03*
X118194600Y-104325600D03*
X115654600Y-104325600D03*
X113114600Y-104325600D03*
X110574600Y-104325600D03*
X108034600Y-104325600D03*
X105494600Y-104325600D03*
X102954600Y-104325600D03*
X100414600Y-104325600D03*
X97874600Y-104325600D03*
X95334600Y-104325600D03*
X92794600Y-104325600D03*
X90254600Y-104325600D03*
X87714600Y-104325600D03*
X85174600Y-104325600D03*
X82634600Y-104325600D03*
X80094600Y-104325600D03*
X77554600Y-104325600D03*
X75014600Y-104325600D03*
X72474600Y-104325600D03*
X69934600Y-104325600D03*
D10*
X82385000Y-77987000D03*
X82385000Y-72987000D03*
D11*
X137122000Y-81369000D03*
D12*
X134582000Y-81369000D03*
X132042000Y-81369000D03*
X129502000Y-81369000D03*
X126962000Y-81369000D03*
X124422000Y-81369000D03*
X121882000Y-81369000D03*
X119342000Y-81369000D03*
X119342000Y-88989000D03*
X121882000Y-88989000D03*
X124422000Y-88989000D03*
X126962000Y-88989000D03*
X129502000Y-88989000D03*
X132042000Y-88989000D03*
X134582000Y-88989000D03*
X137122000Y-88989000D03*
D11*
X80099000Y-89029000D03*
D10*
X80099000Y-91529000D03*
D14*
X76416000Y-87465000D03*
D15*
X76416000Y-82385000D03*
D14*
X68796000Y-87465000D03*
D15*
X68796000Y-82385000D03*
D14*
X71336000Y-87465000D03*
D15*
X71336000Y-82385000D03*
D14*
X73876000Y-87465000D03*
D15*
X73876000Y-82385000D03*
D10*
X136106000Y-70447000D03*
X136106000Y-65447000D03*
D14*
X66256000Y-87465000D03*
D15*
X66256000Y-82385000D03*
D16*
X143345000Y-57874000D03*
D17*
X143345000Y-55334000D03*
X143345000Y-52794000D03*
D11*
X78956000Y-70447000D03*
D12*
X76416000Y-70447000D03*
X73876000Y-70447000D03*
X71336000Y-70447000D03*
X68796000Y-70447000D03*
X66256000Y-70447000D03*
X63716000Y-70447000D03*
X61176000Y-70447000D03*
X58636000Y-70447000D03*
X56096000Y-70447000D03*
X56096000Y-78067000D03*
X58636000Y-78067000D03*
X61176000Y-78067000D03*
X63716000Y-78067000D03*
X66256000Y-78067000D03*
X68796000Y-78067000D03*
X71336000Y-78067000D03*
X73876000Y-78067000D03*
X76416000Y-78067000D03*
X78956000Y-78067000D03*
D18*
X84925000Y-69304000D03*
X88798495Y-65430505D03*
X76669992Y-96609008D03*
X88989000Y-77178000D03*
X119596000Y-68034000D03*
X128232000Y-72352000D03*
X127343000Y-102832000D03*
X70828000Y-102705000D03*
X66129000Y-89624000D03*
X89751000Y-101943000D03*
X135852000Y-79464000D03*
X50889000Y-72098000D03*
X132169000Y-102578000D03*
X131915000Y-98514000D03*
X141186000Y-68796000D03*
X83274000Y-99022000D03*
X84290000Y-51270000D03*
X140805000Y-51016000D03*
X128994000Y-68034000D03*
X141186000Y-64859000D03*
X111595000Y-51143000D03*
X51270000Y-51143000D03*
X57620000Y-102197000D03*
X116929000Y-101308000D03*
X51397000Y-89243000D03*
X54953000Y-68288000D03*
X72479000Y-91021000D03*
X95466000Y-72225000D03*
X134328000Y-57112000D03*
X129629000Y-57112000D03*
X132423000Y-72352000D03*
X143472000Y-99530000D03*
X119342000Y-102832000D03*
X87465000Y-69304000D03*
X136487000Y-77051000D03*
X139027000Y-62192000D03*
X124930000Y-62192000D03*
X96736000Y-87465000D03*
X81750000Y-82385000D03*
X93792300Y-60287000D03*
X83147000Y-63335000D03*
X81750000Y-84036000D03*
X106625200Y-63438100D03*
X135344000Y-93561000D03*
X111976000Y-92672000D03*
X109326800Y-92672000D03*
X111341000Y-98260000D03*
X112484000Y-97117000D03*
X108601700Y-72708400D03*
X117241000Y-91401990D03*
X140805000Y-61049000D03*
X130899000Y-91910000D03*
X104392100Y-71875300D03*
X108582600Y-69085000D03*
X107426400Y-87465000D03*
X102959000Y-59017000D03*
X101181000Y-59017000D03*
X100419000Y-87464998D03*
X98133000Y-59017000D03*
X77940000Y-58382000D03*
X86156200Y-78498900D03*
X84531000Y-81242000D03*
X85306002Y-79234600D03*
X82606500Y-102911300D03*
X81750000Y-86451600D03*
D19*
X72474600Y-104325600D02*
X72474600Y-100804400D01*
X75014600Y-104326000D02*
X75014200Y-104326000D01*
X84925000Y-69304000D02*
X88798495Y-65430505D01*
X75014200Y-104326000D02*
X72474600Y-104326000D01*
X72474600Y-100804400D02*
X76669992Y-96609008D01*
D20*
X75014200Y-104326000D02*
X75014600Y-104325600D01*
D19*
X72474600Y-104326000D02*
X72474600Y-104325600D01*
D20*
X77576800Y-104303500D02*
X77576700Y-104303500D01*
D19*
X77720001Y-102959000D02*
X77720001Y-91650001D01*
X66256000Y-87465000D02*
X54191000Y-87465000D01*
X132042000Y-88989000D02*
X134582000Y-88989000D01*
X80094200Y-104326000D02*
X77554600Y-104326000D01*
X80094600Y-104326000D02*
X80094200Y-104326000D01*
X95974000Y-51524000D02*
X111214000Y-51524000D01*
X134582000Y-88989000D02*
X134582000Y-87084000D01*
X77554600Y-104326000D02*
X77576800Y-104303500D01*
X76543000Y-87465000D02*
X73876000Y-87465000D01*
X119342000Y-83782000D02*
X121247000Y-85687000D01*
X119342000Y-81369000D02*
X119342000Y-83782000D01*
X139027000Y-73495000D02*
X136233000Y-76289000D01*
X136233000Y-76289000D02*
X121882000Y-76289000D01*
X56096000Y-70447000D02*
X56096000Y-63208000D01*
X52413000Y-72860000D02*
X54826000Y-70447000D01*
X73876000Y-87465000D02*
X71336000Y-87465000D01*
X80099000Y-104321200D02*
X80099000Y-102959000D01*
X111214000Y-51524000D02*
X111595000Y-51143000D01*
X121882000Y-76289000D02*
X119342000Y-78829000D01*
X68796000Y-87465000D02*
X66256000Y-87465000D01*
X77720001Y-91650001D02*
X77599000Y-91529000D01*
X134582000Y-87084000D02*
X137677000Y-83989000D01*
X139027000Y-67011000D02*
X139027000Y-73495000D01*
X64097000Y-55207000D02*
X94069000Y-55207000D01*
D20*
X80094200Y-104326000D02*
X80094600Y-104325600D01*
D19*
X139027000Y-56096000D02*
X139027000Y-62192000D01*
X111976000Y-51524000D02*
X134455000Y-51524000D01*
X137677000Y-83989000D02*
X140932000Y-83989000D01*
X56096000Y-63208000D02*
X64097000Y-55207000D01*
X52413000Y-85687000D02*
X52413000Y-72860000D01*
X71336000Y-87465000D02*
X68796000Y-87465000D01*
X94069000Y-53429000D02*
X95974000Y-51524000D01*
X134455000Y-51524000D02*
X139027000Y-56096000D01*
X128105000Y-85687000D02*
X129502000Y-87084000D01*
X94069000Y-55207000D02*
X94069000Y-53429000D01*
X121247000Y-85687000D02*
X128105000Y-85687000D01*
X111595000Y-51143000D02*
X111976000Y-51524000D01*
X54191000Y-87465000D02*
X52413000Y-85687000D01*
X74765000Y-55207000D02*
X74765000Y-61684000D01*
X139027000Y-65447000D02*
X136106000Y-65447000D01*
D20*
X80094200Y-104326000D02*
X80099000Y-104321200D01*
D19*
X82385000Y-69304000D02*
X82385000Y-73067000D01*
X74765000Y-61684000D02*
X82385000Y-69304000D01*
X77599000Y-91529000D02*
X77599000Y-88521000D01*
X80099000Y-102959000D02*
X77720001Y-102959000D01*
X139027000Y-62192000D02*
X139027000Y-67011000D01*
X77576800Y-104303500D02*
X77720001Y-104160299D01*
X129502000Y-88989000D02*
X132042000Y-88989000D01*
X77599000Y-88521000D02*
X76543000Y-87465000D01*
X129502000Y-87084000D02*
X129502000Y-88989000D01*
X54826000Y-70447000D02*
X56096000Y-70447000D01*
X77720001Y-104160299D02*
X77720001Y-102959000D01*
D20*
X77576700Y-104303500D02*
X77554600Y-104325600D01*
D19*
X77599000Y-91529000D02*
X80099000Y-91529000D01*
X119342000Y-78829000D02*
X119342000Y-81369000D01*
D20*
X76416000Y-78067000D02*
X76416000Y-82385000D01*
X76416000Y-82385000D02*
X81750000Y-82385000D01*
X93792300Y-60287000D02*
X86195000Y-60287000D01*
X86195000Y-60287000D02*
X83147000Y-63335000D01*
X73876000Y-78067000D02*
X73876000Y-82385000D01*
X71336000Y-78067000D02*
X71336000Y-82385000D01*
X68796000Y-78067000D02*
X68796000Y-82385000D01*
X70447000Y-84036000D02*
X81750000Y-84036000D01*
X68796000Y-82385000D02*
X70447000Y-84036000D01*
X106625200Y-69178100D02*
X106769000Y-69321900D01*
X106769000Y-70447000D02*
X106769000Y-69321900D01*
X106625200Y-63438100D02*
X106625200Y-69178100D01*
X136995000Y-78321000D02*
X133058000Y-78321000D01*
X133058000Y-78321000D02*
X132042000Y-79337000D01*
X140043000Y-75273000D02*
X136995000Y-78321000D01*
X140678000Y-52794000D02*
X140043000Y-53429000D01*
X132042000Y-79337000D02*
X132042000Y-81369000D01*
X140043000Y-53429000D02*
X140043000Y-75273000D01*
X143345000Y-52794000D02*
X140678000Y-52794000D01*
X126419200Y-93561000D02*
X135344000Y-93561000D01*
X126419200Y-93561000D02*
X115654600Y-104325600D01*
X111849000Y-70447000D02*
X111849000Y-92545000D01*
X111849000Y-92545000D02*
X111976000Y-92672000D01*
X110574600Y-96867400D02*
X110574600Y-104325600D01*
X115495700Y-91946300D02*
X110574600Y-96867400D01*
X116929000Y-70447000D02*
X115495700Y-71880300D01*
X115495700Y-71880300D02*
X115495700Y-91946300D01*
X114389000Y-92291000D02*
X108034600Y-98645400D01*
X114389000Y-70447000D02*
X114389000Y-92291000D01*
X108034600Y-98645400D02*
X108034600Y-104325600D01*
X109309000Y-70447000D02*
X109326800Y-70464800D01*
X109326800Y-70464800D02*
X109326800Y-92672000D01*
X113263700Y-63952300D02*
X122009000Y-55207000D01*
X113263700Y-92654300D02*
X113263700Y-63952300D01*
X105494600Y-100423400D02*
X113263700Y-92654300D01*
X105494600Y-104325600D02*
X105494600Y-100423400D01*
X127038000Y-53545400D02*
X128214200Y-54721600D01*
X111341000Y-96863000D02*
X111341000Y-98260000D01*
X128214200Y-55881800D02*
X118199000Y-65897000D01*
X121130600Y-53545400D02*
X127038000Y-53545400D01*
X115945700Y-74371900D02*
X115945700Y-92258300D01*
X118199000Y-72118600D02*
X115945700Y-74371900D01*
X119469000Y-55207000D02*
X121130600Y-53545400D01*
X128214200Y-54721600D02*
X128214200Y-55881800D01*
X115945700Y-92258300D02*
X111341000Y-96863000D01*
X118199000Y-65897000D02*
X118199000Y-72118600D01*
X122481100Y-54031100D02*
X123423900Y-54973900D01*
X110513100Y-65962900D02*
X120739000Y-55737000D01*
X102954600Y-104325600D02*
X102954600Y-100296400D01*
X123423900Y-54973900D02*
X123423900Y-55207000D01*
X123423900Y-55207000D02*
X124549000Y-55207000D01*
X121531200Y-54031100D02*
X122481100Y-54031100D01*
X120739000Y-54823300D02*
X121531200Y-54031100D01*
X102954600Y-100296400D02*
X110513100Y-92737900D01*
X110513100Y-92737900D02*
X110513100Y-65962900D01*
X120739000Y-55737000D02*
X120739000Y-54823300D01*
X119469000Y-70447000D02*
X119469000Y-71578370D01*
X119469000Y-71578370D02*
X116395700Y-74651670D01*
X116395700Y-93205300D02*
X112484000Y-97117000D01*
X116395700Y-74651670D02*
X116395700Y-93205300D01*
X100414600Y-101613384D02*
X108601700Y-93426284D01*
X100414600Y-104325600D02*
X100414600Y-101613384D01*
X108601700Y-93426284D02*
X108601700Y-72708400D01*
X122009000Y-70447000D02*
X117241001Y-75214999D01*
X117241001Y-75214999D02*
X117241000Y-91401990D01*
X105392800Y-56583200D02*
X106769000Y-55207000D01*
X97874600Y-104325600D02*
X97874600Y-101566400D01*
X105392800Y-94048200D02*
X105392800Y-56583200D01*
X97874600Y-101566400D02*
X105392800Y-94048200D01*
X130899000Y-91910000D02*
X135979000Y-91910000D01*
X142507000Y-62751000D02*
X140805000Y-61049000D01*
X142507000Y-85382000D02*
X142507000Y-62751000D01*
X135979000Y-91910000D02*
X142507000Y-85382000D01*
X108582600Y-69085000D02*
X108582600Y-59598500D01*
X95334600Y-101566400D02*
X95334600Y-104325600D01*
X104392100Y-92508900D02*
X95334600Y-101566400D01*
X104392100Y-71875300D02*
X104392100Y-92508900D01*
X108582600Y-59598500D02*
X111849000Y-56332100D01*
X111849000Y-55207000D02*
X111849000Y-56332100D01*
X107857500Y-69385300D02*
X107894200Y-69422000D01*
X109309000Y-55207000D02*
X107857500Y-56658500D01*
X107857500Y-56658500D02*
X107857500Y-69385300D01*
X107894200Y-69422000D02*
X107894200Y-71850900D01*
X107426400Y-72318700D02*
X107426400Y-87465000D01*
X107894200Y-71850900D02*
X107426400Y-72318700D01*
X102959000Y-92799000D02*
X102959000Y-59017000D01*
X92794600Y-102963400D02*
X102959000Y-92799000D01*
X92794600Y-104325600D02*
X92794600Y-102963400D01*
X101181000Y-59017000D02*
X100419000Y-59779000D01*
X100419000Y-59779000D02*
X100419000Y-87464998D01*
X97739400Y-68779600D02*
X99149000Y-67370000D01*
X84164812Y-74765000D02*
X90150212Y-68779600D01*
X97739400Y-95351600D02*
X97739400Y-68779600D01*
X90254600Y-102836400D02*
X97739400Y-95351600D01*
X73876000Y-70447000D02*
X78194000Y-74765000D01*
X90254600Y-104325600D02*
X90254600Y-102836400D01*
X99149000Y-67370000D02*
X99149000Y-55207000D01*
X78194000Y-74765000D02*
X84164812Y-74765000D01*
X90150212Y-68779600D02*
X97739400Y-68779600D01*
X78702000Y-74257000D02*
X84036416Y-74257000D01*
X76416000Y-70447000D02*
X76416000Y-71971000D01*
X76416000Y-71971000D02*
X78702000Y-74257000D01*
X98133000Y-60160416D02*
X98133000Y-59017000D01*
X84036416Y-74257000D02*
X98133000Y-60160416D01*
X72733000Y-75781000D02*
X87714600Y-75781000D01*
X87714600Y-74896400D02*
X87714600Y-75781000D01*
X94069000Y-70447000D02*
X92164000Y-70447000D01*
X68796000Y-71844000D02*
X72733000Y-75781000D01*
X92164000Y-70447000D02*
X87714600Y-74896400D01*
X87714600Y-75781000D02*
X87714600Y-104325600D01*
X68796000Y-70447000D02*
X68796000Y-71844000D01*
X93434000Y-58382000D02*
X77940000Y-58382000D01*
X96609000Y-55207000D02*
X93434000Y-58382000D01*
X85174600Y-104325600D02*
X86195000Y-103305200D01*
X86195000Y-78537700D02*
X86156200Y-78498900D01*
X63716000Y-70447000D02*
X69558000Y-76289000D01*
X69558000Y-76289000D02*
X83909000Y-76289000D01*
X86118900Y-78498900D02*
X86156200Y-78498900D01*
X86195000Y-103305200D02*
X86195000Y-78537700D01*
X83909000Y-76289000D02*
X86118900Y-78498900D01*
X72606000Y-70089200D02*
X72606000Y-72479000D01*
X84293208Y-75273000D02*
X90260308Y-69305900D01*
X72606000Y-72479000D02*
X75400000Y-75273000D01*
X90260308Y-69305900D02*
X95467900Y-69305900D01*
X71439800Y-68923000D02*
X72606000Y-70089200D01*
X95467900Y-69305900D02*
X96609000Y-70447000D01*
X66256000Y-70447000D02*
X67780000Y-68923000D01*
X67780000Y-68923000D02*
X71439800Y-68923000D01*
X75400000Y-75273000D02*
X84293208Y-75273000D01*
X64986000Y-77640800D02*
X64986000Y-83782000D01*
X84544000Y-85306000D02*
X84544000Y-99948400D01*
X82634600Y-104325600D02*
X81881400Y-103572400D01*
X84531000Y-81242000D02*
X84544000Y-81255000D01*
X81881400Y-102611000D02*
X84544000Y-99948400D01*
X84544000Y-81255000D02*
X84544000Y-85306000D01*
X66510000Y-85306000D02*
X84544000Y-85306000D01*
X64986000Y-83782000D02*
X66510000Y-85306000D01*
X81881400Y-103572400D02*
X81881400Y-102611000D01*
X58636000Y-70447000D02*
X58636000Y-71290800D01*
X58636000Y-71290800D02*
X64986000Y-77640800D01*
X61176000Y-70447000D02*
X67526000Y-76797000D01*
X82868402Y-76797000D02*
X85306002Y-79234600D01*
X85306000Y-100211800D02*
X85306000Y-79234602D01*
X85306000Y-79234602D02*
X85306002Y-79234600D01*
X67526000Y-76797000D02*
X82868402Y-76797000D01*
X82606500Y-102911300D02*
X85306000Y-100211800D01*
X56096000Y-78067000D02*
X64469000Y-86440000D01*
X81738400Y-86440000D02*
X81750000Y-86451600D01*
X64469000Y-86440000D02*
X81738400Y-86440000D01*
G04 #@! TA.AperFunction,Conductor*
G36*
X144615595Y-50273684D02*
G01*
X144651871Y-50309307D01*
X144848174Y-50603761D01*
X144868982Y-50670460D01*
X144869000Y-50672544D01*
X144869000Y-52321837D01*
X144849315Y-52388876D01*
X144796511Y-52434631D01*
X144727353Y-52444575D01*
X144663797Y-52415550D01*
X144626023Y-52356772D01*
X144625225Y-52353930D01*
X144618905Y-52330344D01*
X144618904Y-52330343D01*
X144618903Y-52330337D01*
X144519035Y-52116171D01*
X144518652Y-52115623D01*
X144383494Y-51922597D01*
X144216402Y-51755506D01*
X144216395Y-51755501D01*
X144022834Y-51619967D01*
X144022830Y-51619965D01*
X144022828Y-51619964D01*
X143808663Y-51520097D01*
X143808659Y-51520096D01*
X143808655Y-51520094D01*
X143580413Y-51458938D01*
X143580403Y-51458936D01*
X143345001Y-51438341D01*
X143344999Y-51438341D01*
X143109596Y-51458936D01*
X143109586Y-51458938D01*
X142881344Y-51520094D01*
X142881335Y-51520098D01*
X142667171Y-51619964D01*
X142667169Y-51619965D01*
X142473597Y-51755505D01*
X142306505Y-51922597D01*
X142171348Y-52115623D01*
X142116771Y-52159248D01*
X142069773Y-52168500D01*
X140760743Y-52168500D01*
X140745122Y-52166775D01*
X140745095Y-52167061D01*
X140737333Y-52166326D01*
X140670113Y-52168439D01*
X140666219Y-52168500D01*
X140638650Y-52168500D01*
X140634673Y-52169002D01*
X140623042Y-52169917D01*
X140579374Y-52171289D01*
X140579368Y-52171290D01*
X140560126Y-52176880D01*
X140541087Y-52180823D01*
X140521217Y-52183334D01*
X140521203Y-52183337D01*
X140480598Y-52199413D01*
X140469554Y-52203194D01*
X140427614Y-52215379D01*
X140427610Y-52215381D01*
X140410366Y-52225579D01*
X140392905Y-52234133D01*
X140374274Y-52241510D01*
X140374262Y-52241517D01*
X140338933Y-52267185D01*
X140329173Y-52273596D01*
X140291580Y-52295829D01*
X140277414Y-52309995D01*
X140262624Y-52322627D01*
X140246414Y-52334404D01*
X140246411Y-52334407D01*
X140218573Y-52368058D01*
X140210711Y-52376697D01*
X139659208Y-52928199D01*
X139646951Y-52938020D01*
X139647134Y-52938241D01*
X139641122Y-52943214D01*
X139595098Y-52992223D01*
X139592391Y-52995016D01*
X139572889Y-53014517D01*
X139572875Y-53014534D01*
X139570407Y-53017715D01*
X139562843Y-53026570D01*
X139532937Y-53058418D01*
X139532936Y-53058420D01*
X139523284Y-53075976D01*
X139512610Y-53092226D01*
X139500329Y-53108061D01*
X139500324Y-53108068D01*
X139482975Y-53148158D01*
X139477838Y-53158644D01*
X139456803Y-53196906D01*
X139451822Y-53216307D01*
X139445521Y-53234710D01*
X139437562Y-53253102D01*
X139437561Y-53253105D01*
X139430728Y-53296243D01*
X139428360Y-53307674D01*
X139417501Y-53349971D01*
X139417500Y-53349982D01*
X139417500Y-53370016D01*
X139415973Y-53389415D01*
X139412840Y-53409194D01*
X139412840Y-53409195D01*
X139416950Y-53452674D01*
X139417500Y-53464343D01*
X139417500Y-74962547D01*
X139397815Y-75029586D01*
X139381181Y-75050228D01*
X136772228Y-77659181D01*
X136710905Y-77692666D01*
X136684547Y-77695500D01*
X133140743Y-77695500D01*
X133125122Y-77693775D01*
X133125096Y-77694061D01*
X133117334Y-77693327D01*
X133117333Y-77693327D01*
X133055109Y-77695282D01*
X133050127Y-77695439D01*
X133046232Y-77695500D01*
X133018647Y-77695500D01*
X133014661Y-77696003D01*
X133003033Y-77696918D01*
X132959373Y-77698290D01*
X132940129Y-77703881D01*
X132921079Y-77707825D01*
X132901211Y-77710334D01*
X132901210Y-77710334D01*
X132860599Y-77726413D01*
X132849554Y-77730194D01*
X132807614Y-77742379D01*
X132807610Y-77742381D01*
X132790366Y-77752579D01*
X132772905Y-77761133D01*
X132754274Y-77768510D01*
X132754262Y-77768517D01*
X132718933Y-77794185D01*
X132709173Y-77800596D01*
X132671580Y-77822829D01*
X132657414Y-77836995D01*
X132642624Y-77849627D01*
X132626414Y-77861404D01*
X132626411Y-77861407D01*
X132598573Y-77895058D01*
X132590711Y-77903697D01*
X131658208Y-78836199D01*
X131645951Y-78846020D01*
X131646134Y-78846241D01*
X131640122Y-78851214D01*
X131594098Y-78900223D01*
X131591391Y-78903016D01*
X131571889Y-78922517D01*
X131571875Y-78922534D01*
X131569407Y-78925715D01*
X131561843Y-78934570D01*
X131531937Y-78966418D01*
X131531936Y-78966420D01*
X131522284Y-78983976D01*
X131511610Y-79000226D01*
X131499329Y-79016061D01*
X131499324Y-79016068D01*
X131481975Y-79056158D01*
X131476838Y-79066642D01*
X131476616Y-79067047D01*
X131455803Y-79104906D01*
X131450822Y-79124307D01*
X131444521Y-79142710D01*
X131436562Y-79161102D01*
X131436561Y-79161105D01*
X131429728Y-79204243D01*
X131427360Y-79215674D01*
X131416501Y-79257971D01*
X131416500Y-79257982D01*
X131416500Y-79278016D01*
X131414973Y-79297415D01*
X131411840Y-79317194D01*
X131411840Y-79317195D01*
X131415950Y-79360674D01*
X131416500Y-79372343D01*
X131416500Y-80154811D01*
X131396815Y-80221850D01*
X131363623Y-80256386D01*
X131202859Y-80368953D01*
X131041954Y-80529858D01*
X130911432Y-80716265D01*
X130911431Y-80716267D01*
X130884382Y-80774275D01*
X130838209Y-80826714D01*
X130771016Y-80845866D01*
X130704135Y-80825650D01*
X130659618Y-80774275D01*
X130632686Y-80716520D01*
X130632568Y-80716266D01*
X130502047Y-80529861D01*
X130502045Y-80529858D01*
X130341141Y-80368954D01*
X130154734Y-80238432D01*
X130154732Y-80238431D01*
X129948497Y-80142261D01*
X129948488Y-80142258D01*
X129728697Y-80083366D01*
X129728693Y-80083365D01*
X129728692Y-80083365D01*
X129728691Y-80083364D01*
X129728686Y-80083364D01*
X129502002Y-80063532D01*
X129501998Y-80063532D01*
X129275313Y-80083364D01*
X129275302Y-80083366D01*
X129055511Y-80142258D01*
X129055502Y-80142261D01*
X128849267Y-80238431D01*
X128849265Y-80238432D01*
X128662858Y-80368954D01*
X128501954Y-80529858D01*
X128371432Y-80716265D01*
X128371431Y-80716267D01*
X128344382Y-80774275D01*
X128298209Y-80826714D01*
X128231016Y-80845866D01*
X128164135Y-80825650D01*
X128119618Y-80774275D01*
X128092686Y-80716520D01*
X128092568Y-80716266D01*
X127962047Y-80529861D01*
X127962045Y-80529858D01*
X127801141Y-80368954D01*
X127614734Y-80238432D01*
X127614732Y-80238431D01*
X127408497Y-80142261D01*
X127408488Y-80142258D01*
X127188697Y-80083366D01*
X127188693Y-80083365D01*
X127188692Y-80083365D01*
X127188691Y-80083364D01*
X127188686Y-80083364D01*
X126962002Y-80063532D01*
X126961998Y-80063532D01*
X126735313Y-80083364D01*
X126735302Y-80083366D01*
X126515511Y-80142258D01*
X126515502Y-80142261D01*
X126309267Y-80238431D01*
X126309265Y-80238432D01*
X126122858Y-80368954D01*
X125961954Y-80529858D01*
X125831432Y-80716265D01*
X125831431Y-80716267D01*
X125804382Y-80774275D01*
X125758209Y-80826714D01*
X125691016Y-80845866D01*
X125624135Y-80825650D01*
X125579618Y-80774275D01*
X125552686Y-80716520D01*
X125552568Y-80716266D01*
X125422047Y-80529861D01*
X125422045Y-80529858D01*
X125261141Y-80368954D01*
X125074734Y-80238432D01*
X125074732Y-80238431D01*
X124868497Y-80142261D01*
X124868488Y-80142258D01*
X124648697Y-80083366D01*
X124648693Y-80083365D01*
X124648692Y-80083365D01*
X124648691Y-80083364D01*
X124648686Y-80083364D01*
X124422002Y-80063532D01*
X124421998Y-80063532D01*
X124195313Y-80083364D01*
X124195302Y-80083366D01*
X123975511Y-80142258D01*
X123975502Y-80142261D01*
X123769267Y-80238431D01*
X123769265Y-80238432D01*
X123582858Y-80368954D01*
X123421954Y-80529858D01*
X123291432Y-80716265D01*
X123291431Y-80716267D01*
X123264382Y-80774275D01*
X123218209Y-80826714D01*
X123151016Y-80845866D01*
X123084135Y-80825650D01*
X123039618Y-80774275D01*
X123012686Y-80716520D01*
X123012568Y-80716266D01*
X122882047Y-80529861D01*
X122882045Y-80529858D01*
X122721141Y-80368954D01*
X122534734Y-80238432D01*
X122534732Y-80238431D01*
X122328497Y-80142261D01*
X122328488Y-80142258D01*
X122108697Y-80083366D01*
X122108693Y-80083365D01*
X122108692Y-80083365D01*
X122108691Y-80083364D01*
X122108686Y-80083364D01*
X121882002Y-80063532D01*
X121881998Y-80063532D01*
X121655313Y-80083364D01*
X121655302Y-80083366D01*
X121435511Y-80142258D01*
X121435502Y-80142261D01*
X121229267Y-80238431D01*
X121229265Y-80238432D01*
X121042858Y-80368954D01*
X120881954Y-80529858D01*
X120755970Y-80709785D01*
X120751432Y-80716266D01*
X120751315Y-80716518D01*
X120724106Y-80774867D01*
X120677933Y-80827306D01*
X120610739Y-80846457D01*
X120543858Y-80826241D01*
X120499342Y-80774865D01*
X120472135Y-80716520D01*
X120472134Y-80716518D01*
X120341657Y-80530179D01*
X120180820Y-80369342D01*
X119994482Y-80238865D01*
X119788328Y-80142734D01*
X119592000Y-80090127D01*
X119592000Y-81053314D01*
X119580045Y-81041359D01*
X119467148Y-80983835D01*
X119373481Y-80969000D01*
X119310519Y-80969000D01*
X119216852Y-80983835D01*
X119103955Y-81041359D01*
X119092000Y-81053314D01*
X119092000Y-80090127D01*
X118895671Y-80142734D01*
X118689517Y-80238865D01*
X118503179Y-80369342D01*
X118342342Y-80530179D01*
X118211865Y-80716517D01*
X118115734Y-80922673D01*
X118115731Y-80922679D01*
X118110275Y-80943044D01*
X118073910Y-81002704D01*
X118011063Y-81033233D01*
X117941687Y-81024938D01*
X117887809Y-80980453D01*
X117866535Y-80913901D01*
X117866500Y-80910950D01*
X117866500Y-75525451D01*
X117886185Y-75458412D01*
X117902819Y-75437770D01*
X119752633Y-73587956D01*
X121594179Y-71746410D01*
X121655500Y-71712927D01*
X121713947Y-71714317D01*
X121782308Y-71732635D01*
X121939780Y-71746412D01*
X122008998Y-71752468D01*
X122009000Y-71752468D01*
X122009002Y-71752468D01*
X122065807Y-71747498D01*
X122235692Y-71732635D01*
X122455496Y-71673739D01*
X122661734Y-71577568D01*
X122848139Y-71447047D01*
X123009047Y-71286139D01*
X123139568Y-71099734D01*
X123166618Y-71041724D01*
X123212790Y-70989285D01*
X123279983Y-70970133D01*
X123346865Y-70990348D01*
X123391382Y-71041725D01*
X123418429Y-71099728D01*
X123418432Y-71099734D01*
X123548954Y-71286141D01*
X123709858Y-71447045D01*
X123709861Y-71447047D01*
X123896266Y-71577568D01*
X124102504Y-71673739D01*
X124102509Y-71673740D01*
X124102511Y-71673741D01*
X124141743Y-71684253D01*
X124322308Y-71732635D01*
X124479780Y-71746412D01*
X124548998Y-71752468D01*
X124549000Y-71752468D01*
X124549002Y-71752468D01*
X124605807Y-71747498D01*
X124775692Y-71732635D01*
X124995496Y-71673739D01*
X125201734Y-71577568D01*
X125388139Y-71447047D01*
X125549047Y-71286139D01*
X125679568Y-71099734D01*
X125706618Y-71041724D01*
X125752790Y-70989285D01*
X125819983Y-70970133D01*
X125886865Y-70990348D01*
X125931382Y-71041725D01*
X125958429Y-71099728D01*
X125958432Y-71099734D01*
X126088954Y-71286141D01*
X126249858Y-71447045D01*
X126249861Y-71447047D01*
X126436266Y-71577568D01*
X126642504Y-71673739D01*
X126642509Y-71673740D01*
X126642511Y-71673741D01*
X126681743Y-71684253D01*
X126862308Y-71732635D01*
X127019780Y-71746412D01*
X127088998Y-71752468D01*
X127089000Y-71752468D01*
X127089002Y-71752468D01*
X127145807Y-71747498D01*
X127315692Y-71732635D01*
X127535496Y-71673739D01*
X127741734Y-71577568D01*
X127928139Y-71447047D01*
X128089047Y-71286139D01*
X128219568Y-71099734D01*
X128246618Y-71041724D01*
X128292790Y-70989285D01*
X128359983Y-70970133D01*
X128426865Y-70990348D01*
X128471382Y-71041725D01*
X128498429Y-71099728D01*
X128498432Y-71099734D01*
X128628954Y-71286141D01*
X128789858Y-71447045D01*
X128789861Y-71447047D01*
X128976266Y-71577568D01*
X129182504Y-71673739D01*
X129182509Y-71673740D01*
X129182511Y-71673741D01*
X129221743Y-71684253D01*
X129402308Y-71732635D01*
X129559780Y-71746412D01*
X129628998Y-71752468D01*
X129629000Y-71752468D01*
X129629002Y-71752468D01*
X129685807Y-71747498D01*
X129855692Y-71732635D01*
X130075496Y-71673739D01*
X130281734Y-71577568D01*
X130468139Y-71447047D01*
X130629047Y-71286139D01*
X130759568Y-71099734D01*
X130786618Y-71041724D01*
X130832790Y-70989285D01*
X130899983Y-70970133D01*
X130966865Y-70990348D01*
X131011382Y-71041725D01*
X131038429Y-71099728D01*
X131038432Y-71099734D01*
X131168954Y-71286141D01*
X131329858Y-71447045D01*
X131329861Y-71447047D01*
X131516266Y-71577568D01*
X131722504Y-71673739D01*
X131722509Y-71673740D01*
X131722511Y-71673741D01*
X131761743Y-71684253D01*
X131942308Y-71732635D01*
X132099780Y-71746412D01*
X132168998Y-71752468D01*
X132169000Y-71752468D01*
X132169002Y-71752468D01*
X132225807Y-71747498D01*
X132395692Y-71732635D01*
X132615496Y-71673739D01*
X132821734Y-71577568D01*
X133008139Y-71447047D01*
X133169047Y-71286139D01*
X133299568Y-71099734D01*
X133395739Y-70893496D01*
X133454635Y-70673692D01*
X133474468Y-70447001D01*
X134800532Y-70447001D01*
X134820364Y-70673686D01*
X134820366Y-70673697D01*
X134879258Y-70893488D01*
X134879261Y-70893497D01*
X134975431Y-71099732D01*
X134975432Y-71099734D01*
X135105954Y-71286141D01*
X135266858Y-71447045D01*
X135266861Y-71447047D01*
X135453266Y-71577568D01*
X135659504Y-71673739D01*
X135659509Y-71673740D01*
X135659511Y-71673741D01*
X135698743Y-71684253D01*
X135879308Y-71732635D01*
X136036780Y-71746412D01*
X136105998Y-71752468D01*
X136106000Y-71752468D01*
X136106002Y-71752468D01*
X136162807Y-71747498D01*
X136332692Y-71732635D01*
X136552496Y-71673739D01*
X136758734Y-71577568D01*
X136945139Y-71447047D01*
X137106047Y-71286139D01*
X137236568Y-71099734D01*
X137332739Y-70893496D01*
X137391635Y-70673692D01*
X137411468Y-70447000D01*
X137391635Y-70220308D01*
X137337091Y-70016746D01*
X137332741Y-70000511D01*
X137332738Y-70000502D01*
X137325568Y-69985126D01*
X137236568Y-69794266D01*
X137106047Y-69607861D01*
X137106045Y-69607858D01*
X136945141Y-69446954D01*
X136758734Y-69316432D01*
X136758732Y-69316431D01*
X136552497Y-69220261D01*
X136552488Y-69220258D01*
X136332697Y-69161366D01*
X136332693Y-69161365D01*
X136332692Y-69161365D01*
X136332691Y-69161364D01*
X136332686Y-69161364D01*
X136106002Y-69141532D01*
X136105998Y-69141532D01*
X135879313Y-69161364D01*
X135879302Y-69161366D01*
X135659511Y-69220258D01*
X135659502Y-69220261D01*
X135453267Y-69316431D01*
X135453265Y-69316432D01*
X135266858Y-69446954D01*
X135105954Y-69607858D01*
X134975432Y-69794265D01*
X134975431Y-69794267D01*
X134879261Y-70000502D01*
X134879258Y-70000511D01*
X134820366Y-70220302D01*
X134820364Y-70220313D01*
X134800532Y-70446998D01*
X134800532Y-70447001D01*
X133474468Y-70447001D01*
X133474468Y-70447000D01*
X133454635Y-70220308D01*
X133400091Y-70016746D01*
X133395741Y-70000511D01*
X133395738Y-70000502D01*
X133388568Y-69985126D01*
X133299568Y-69794266D01*
X133169047Y-69607861D01*
X133169045Y-69607858D01*
X133008141Y-69446954D01*
X132821734Y-69316432D01*
X132821732Y-69316431D01*
X132615497Y-69220261D01*
X132615488Y-69220258D01*
X132395697Y-69161366D01*
X132395693Y-69161365D01*
X132395692Y-69161365D01*
X132395691Y-69161364D01*
X132395686Y-69161364D01*
X132169002Y-69141532D01*
X132168998Y-69141532D01*
X131942313Y-69161364D01*
X131942302Y-69161366D01*
X131722511Y-69220258D01*
X131722502Y-69220261D01*
X131516267Y-69316431D01*
X131516265Y-69316432D01*
X131329858Y-69446954D01*
X131168954Y-69607858D01*
X131038432Y-69794265D01*
X131038431Y-69794267D01*
X131011382Y-69852275D01*
X130965209Y-69904714D01*
X130898016Y-69923866D01*
X130831135Y-69903650D01*
X130786618Y-69852275D01*
X130783988Y-69846635D01*
X130759568Y-69794266D01*
X130629047Y-69607861D01*
X130629045Y-69607858D01*
X130468141Y-69446954D01*
X130281734Y-69316432D01*
X130281732Y-69316431D01*
X130075497Y-69220261D01*
X130075488Y-69220258D01*
X129855697Y-69161366D01*
X129855693Y-69161365D01*
X129855692Y-69161365D01*
X129855691Y-69161364D01*
X129855686Y-69161364D01*
X129629002Y-69141532D01*
X129628998Y-69141532D01*
X129402313Y-69161364D01*
X129402302Y-69161366D01*
X129182511Y-69220258D01*
X129182502Y-69220261D01*
X128976267Y-69316431D01*
X128976265Y-69316432D01*
X128789858Y-69446954D01*
X128628954Y-69607858D01*
X128498432Y-69794265D01*
X128498431Y-69794267D01*
X128471382Y-69852275D01*
X128425209Y-69904714D01*
X128358016Y-69923866D01*
X128291135Y-69903650D01*
X128246618Y-69852275D01*
X128243988Y-69846635D01*
X128219568Y-69794266D01*
X128089047Y-69607861D01*
X128089045Y-69607858D01*
X127928141Y-69446954D01*
X127741734Y-69316432D01*
X127741732Y-69316431D01*
X127535497Y-69220261D01*
X127535488Y-69220258D01*
X127315697Y-69161366D01*
X127315693Y-69161365D01*
X127315692Y-69161365D01*
X127315691Y-69161364D01*
X127315686Y-69161364D01*
X127089002Y-69141532D01*
X127088998Y-69141532D01*
X126862313Y-69161364D01*
X126862302Y-69161366D01*
X126642511Y-69220258D01*
X126642502Y-69220261D01*
X126436267Y-69316431D01*
X126436265Y-69316432D01*
X126249858Y-69446954D01*
X126088954Y-69607858D01*
X125958432Y-69794265D01*
X125958431Y-69794267D01*
X125931382Y-69852275D01*
X125885209Y-69904714D01*
X125818016Y-69923866D01*
X125751135Y-69903650D01*
X125706618Y-69852275D01*
X125703988Y-69846635D01*
X125679568Y-69794266D01*
X125549047Y-69607861D01*
X125549045Y-69607858D01*
X125388141Y-69446954D01*
X125201734Y-69316432D01*
X125201732Y-69316431D01*
X124995497Y-69220261D01*
X124995488Y-69220258D01*
X124775697Y-69161366D01*
X124775693Y-69161365D01*
X124775692Y-69161365D01*
X124775691Y-69161364D01*
X124775686Y-69161364D01*
X124549002Y-69141532D01*
X124548998Y-69141532D01*
X124322313Y-69161364D01*
X124322302Y-69161366D01*
X124102511Y-69220258D01*
X124102502Y-69220261D01*
X123896267Y-69316431D01*
X123896265Y-69316432D01*
X123709858Y-69446954D01*
X123548954Y-69607858D01*
X123418432Y-69794265D01*
X123418431Y-69794267D01*
X123391382Y-69852275D01*
X123345209Y-69904714D01*
X123278016Y-69923866D01*
X123211135Y-69903650D01*
X123166618Y-69852275D01*
X123163988Y-69846635D01*
X123139568Y-69794266D01*
X123009047Y-69607861D01*
X123009045Y-69607858D01*
X122848141Y-69446954D01*
X122661734Y-69316432D01*
X122661732Y-69316431D01*
X122455497Y-69220261D01*
X122455488Y-69220258D01*
X122235697Y-69161366D01*
X122235693Y-69161365D01*
X122235692Y-69161365D01*
X122235691Y-69161364D01*
X122235686Y-69161364D01*
X122009002Y-69141532D01*
X122008998Y-69141532D01*
X121782313Y-69161364D01*
X121782302Y-69161366D01*
X121562511Y-69220258D01*
X121562502Y-69220261D01*
X121356267Y-69316431D01*
X121356265Y-69316432D01*
X121169858Y-69446954D01*
X121008954Y-69607858D01*
X120878432Y-69794265D01*
X120878431Y-69794267D01*
X120851382Y-69852275D01*
X120805209Y-69904714D01*
X120738016Y-69923866D01*
X120671135Y-69903650D01*
X120626618Y-69852275D01*
X120623988Y-69846635D01*
X120599568Y-69794266D01*
X120469047Y-69607861D01*
X120469045Y-69607858D01*
X120308141Y-69446954D01*
X120121734Y-69316432D01*
X120121732Y-69316431D01*
X119915497Y-69220261D01*
X119915488Y-69220258D01*
X119695697Y-69161366D01*
X119695693Y-69161365D01*
X119695692Y-69161365D01*
X119695691Y-69161364D01*
X119695686Y-69161364D01*
X119469002Y-69141532D01*
X119468998Y-69141532D01*
X119242313Y-69161364D01*
X119242302Y-69161366D01*
X119022511Y-69220258D01*
X119022501Y-69220262D01*
X119000901Y-69230334D01*
X118931824Y-69240824D01*
X118868040Y-69212302D01*
X118829803Y-69153824D01*
X118824500Y-69117950D01*
X118824500Y-66207451D01*
X118844185Y-66140412D01*
X118860814Y-66119775D01*
X119533587Y-65447002D01*
X134801034Y-65447002D01*
X134820858Y-65673599D01*
X134820860Y-65673610D01*
X134879730Y-65893317D01*
X134879735Y-65893331D01*
X134975863Y-66099478D01*
X135026974Y-66172472D01*
X135708046Y-65491400D01*
X135720835Y-65572148D01*
X135778359Y-65685045D01*
X135867955Y-65774641D01*
X135980852Y-65832165D01*
X136061599Y-65844953D01*
X135380526Y-66526025D01*
X135453513Y-66577132D01*
X135453521Y-66577136D01*
X135659668Y-66673264D01*
X135659682Y-66673269D01*
X135879389Y-66732139D01*
X135879400Y-66732141D01*
X136105998Y-66751966D01*
X136106002Y-66751966D01*
X136332599Y-66732141D01*
X136332610Y-66732139D01*
X136552317Y-66673269D01*
X136552331Y-66673264D01*
X136758478Y-66577136D01*
X136831471Y-66526024D01*
X136150400Y-65844953D01*
X136231148Y-65832165D01*
X136344045Y-65774641D01*
X136433641Y-65685045D01*
X136491165Y-65572148D01*
X136503953Y-65491400D01*
X137185024Y-66172471D01*
X137236136Y-66099478D01*
X137332264Y-65893331D01*
X137332269Y-65893317D01*
X137391139Y-65673610D01*
X137391141Y-65673599D01*
X137410966Y-65447002D01*
X137410966Y-65446997D01*
X137391141Y-65220400D01*
X137391139Y-65220389D01*
X137332269Y-65000682D01*
X137332264Y-65000668D01*
X137236136Y-64794521D01*
X137236132Y-64794513D01*
X137185025Y-64721526D01*
X136503953Y-65402598D01*
X136491165Y-65321852D01*
X136433641Y-65208955D01*
X136344045Y-65119359D01*
X136231148Y-65061835D01*
X136150401Y-65049046D01*
X136831472Y-64367974D01*
X136758478Y-64316863D01*
X136552331Y-64220735D01*
X136552317Y-64220730D01*
X136332610Y-64161860D01*
X136332599Y-64161858D01*
X136106002Y-64142034D01*
X136105998Y-64142034D01*
X135879400Y-64161858D01*
X135879389Y-64161860D01*
X135659682Y-64220730D01*
X135659673Y-64220734D01*
X135453516Y-64316866D01*
X135453512Y-64316868D01*
X135380526Y-64367973D01*
X135380526Y-64367974D01*
X136061599Y-65049046D01*
X135980852Y-65061835D01*
X135867955Y-65119359D01*
X135778359Y-65208955D01*
X135720835Y-65321852D01*
X135708046Y-65402598D01*
X135026974Y-64721526D01*
X135026973Y-64721526D01*
X134975868Y-64794512D01*
X134975866Y-64794516D01*
X134879734Y-65000673D01*
X134879730Y-65000682D01*
X134820860Y-65220389D01*
X134820858Y-65220400D01*
X134801034Y-65446997D01*
X134801034Y-65447002D01*
X119533587Y-65447002D01*
X128597986Y-56382602D01*
X128610248Y-56372780D01*
X128610065Y-56372559D01*
X128616068Y-56367591D01*
X128616077Y-56367586D01*
X128662134Y-56318539D01*
X128664782Y-56315806D01*
X128684320Y-56296270D01*
X128686770Y-56293110D01*
X128694358Y-56284224D01*
X128702446Y-56275612D01*
X128762689Y-56240222D01*
X128832503Y-56243020D01*
X128863956Y-56258928D01*
X128976266Y-56337568D01*
X129182504Y-56433739D01*
X129402308Y-56492635D01*
X129559780Y-56506412D01*
X129628998Y-56512468D01*
X129629000Y-56512468D01*
X129629002Y-56512468D01*
X129698220Y-56506412D01*
X129855692Y-56492635D01*
X130075496Y-56433739D01*
X130281734Y-56337568D01*
X130468139Y-56207047D01*
X130629047Y-56046139D01*
X130646272Y-56021539D01*
X130700848Y-55977913D01*
X130770346Y-55970718D01*
X130832701Y-56002239D01*
X130868116Y-56062468D01*
X130871138Y-56079406D01*
X130874908Y-56114483D01*
X130925202Y-56249328D01*
X130925206Y-56249335D01*
X131011452Y-56364544D01*
X131011455Y-56364547D01*
X131126664Y-56450793D01*
X131126671Y-56450797D01*
X131261517Y-56501091D01*
X131261516Y-56501091D01*
X131268444Y-56501835D01*
X131321127Y-56507500D01*
X133016872Y-56507499D01*
X133076483Y-56501091D01*
X133211331Y-56450796D01*
X133326546Y-56364546D01*
X133412796Y-56249331D01*
X133463091Y-56114483D01*
X133469500Y-56054873D01*
X133469499Y-54359128D01*
X133463091Y-54299517D01*
X133459546Y-54290013D01*
X133412797Y-54164671D01*
X133412793Y-54164664D01*
X133326547Y-54049455D01*
X133326544Y-54049452D01*
X133211335Y-53963206D01*
X133211328Y-53963202D01*
X133076482Y-53912908D01*
X133076483Y-53912908D01*
X133016883Y-53906501D01*
X133016881Y-53906500D01*
X133016873Y-53906500D01*
X133016864Y-53906500D01*
X131321129Y-53906500D01*
X131321123Y-53906501D01*
X131261516Y-53912908D01*
X131126671Y-53963202D01*
X131126664Y-53963206D01*
X131011455Y-54049452D01*
X131011452Y-54049455D01*
X130925206Y-54164664D01*
X130925202Y-54164671D01*
X130874908Y-54299516D01*
X130871137Y-54334596D01*
X130844398Y-54399146D01*
X130787006Y-54438994D01*
X130717180Y-54441487D01*
X130657092Y-54405834D01*
X130646273Y-54392462D01*
X130629045Y-54367858D01*
X130468141Y-54206954D01*
X130281734Y-54076432D01*
X130281732Y-54076431D01*
X130075497Y-53980261D01*
X130075488Y-53980258D01*
X129855697Y-53921366D01*
X129855693Y-53921365D01*
X129855692Y-53921365D01*
X129855691Y-53921364D01*
X129855686Y-53921364D01*
X129629002Y-53901532D01*
X129628998Y-53901532D01*
X129402313Y-53921364D01*
X129402302Y-53921366D01*
X129182511Y-53980258D01*
X129182502Y-53980261D01*
X128976267Y-54076431D01*
X128976265Y-54076432D01*
X128789861Y-54206952D01*
X128774680Y-54222133D01*
X128713356Y-54255616D01*
X128643664Y-54250630D01*
X128599320Y-54222130D01*
X127538803Y-53161612D01*
X127528980Y-53149350D01*
X127528759Y-53149534D01*
X127523786Y-53143522D01*
X127474776Y-53097499D01*
X127471977Y-53094786D01*
X127452477Y-53075285D01*
X127452471Y-53075280D01*
X127449286Y-53072809D01*
X127440434Y-53065248D01*
X127408582Y-53035338D01*
X127408580Y-53035336D01*
X127408577Y-53035335D01*
X127391029Y-53025688D01*
X127374763Y-53015004D01*
X127374135Y-53014517D01*
X127358936Y-53002727D01*
X127358935Y-53002726D01*
X127358932Y-53002724D01*
X127318849Y-52985378D01*
X127308363Y-52980241D01*
X127270094Y-52959203D01*
X127270092Y-52959202D01*
X127250693Y-52954222D01*
X127232281Y-52947918D01*
X127213898Y-52939962D01*
X127213892Y-52939960D01*
X127170760Y-52933129D01*
X127159322Y-52930761D01*
X127117020Y-52919900D01*
X127117019Y-52919900D01*
X127096984Y-52919900D01*
X127077586Y-52918373D01*
X127070162Y-52917197D01*
X127057805Y-52915240D01*
X127057804Y-52915240D01*
X127014325Y-52919350D01*
X127002656Y-52919900D01*
X121213337Y-52919900D01*
X121197720Y-52918176D01*
X121197693Y-52918462D01*
X121189931Y-52917727D01*
X121122744Y-52919839D01*
X121118850Y-52919900D01*
X121091250Y-52919900D01*
X121087562Y-52920365D01*
X121087249Y-52920405D01*
X121075631Y-52921318D01*
X121031973Y-52922690D01*
X121031972Y-52922690D01*
X121012729Y-52928281D01*
X120993679Y-52932225D01*
X120973811Y-52934734D01*
X120973810Y-52934735D01*
X120933200Y-52950813D01*
X120922153Y-52954595D01*
X120880210Y-52966781D01*
X120880209Y-52966782D01*
X120862967Y-52976979D01*
X120845499Y-52985537D01*
X120826869Y-52992913D01*
X120826866Y-52992915D01*
X120791539Y-53018581D01*
X120781780Y-53024992D01*
X120744179Y-53047230D01*
X120730008Y-53061400D01*
X120715223Y-53074028D01*
X120699012Y-53085807D01*
X120671171Y-53119459D01*
X120663311Y-53128096D01*
X119883821Y-53907586D01*
X119822498Y-53941071D01*
X119764048Y-53939680D01*
X119695697Y-53921366D01*
X119695693Y-53921365D01*
X119695692Y-53921365D01*
X119582346Y-53911448D01*
X119469001Y-53901532D01*
X119468998Y-53901532D01*
X119242313Y-53921364D01*
X119242302Y-53921366D01*
X119022511Y-53980258D01*
X119022502Y-53980261D01*
X118816267Y-54076431D01*
X118816265Y-54076432D01*
X118629858Y-54206954D01*
X118468954Y-54367858D01*
X118338432Y-54554265D01*
X118338431Y-54554267D01*
X118311382Y-54612275D01*
X118265209Y-54664714D01*
X118198016Y-54683866D01*
X118131135Y-54663650D01*
X118086618Y-54612275D01*
X118059686Y-54554520D01*
X118059568Y-54554266D01*
X117929047Y-54367861D01*
X117929045Y-54367858D01*
X117768141Y-54206954D01*
X117581734Y-54076432D01*
X117581732Y-54076431D01*
X117375497Y-53980261D01*
X117375488Y-53980258D01*
X117155697Y-53921366D01*
X117155693Y-53921365D01*
X117155692Y-53921365D01*
X117155691Y-53921364D01*
X117155686Y-53921364D01*
X116929002Y-53901532D01*
X116928998Y-53901532D01*
X116702313Y-53921364D01*
X116702302Y-53921366D01*
X116482511Y-53980258D01*
X116482502Y-53980261D01*
X116276267Y-54076431D01*
X116276265Y-54076432D01*
X116089858Y-54206954D01*
X115928954Y-54367858D01*
X115798432Y-54554265D01*
X115798431Y-54554267D01*
X115771382Y-54612275D01*
X115725209Y-54664714D01*
X115658016Y-54683866D01*
X115591135Y-54663650D01*
X115546618Y-54612275D01*
X115519686Y-54554520D01*
X115519568Y-54554266D01*
X115389047Y-54367861D01*
X115389045Y-54367858D01*
X115228141Y-54206954D01*
X115041734Y-54076432D01*
X115041732Y-54076431D01*
X114835497Y-53980261D01*
X114835488Y-53980258D01*
X114615697Y-53921366D01*
X114615693Y-53921365D01*
X114615692Y-53921365D01*
X114615691Y-53921364D01*
X114615686Y-53921364D01*
X114389002Y-53901532D01*
X114388998Y-53901532D01*
X114162313Y-53921364D01*
X114162302Y-53921366D01*
X113942511Y-53980258D01*
X113942502Y-53980261D01*
X113736267Y-54076431D01*
X113736265Y-54076432D01*
X113549858Y-54206954D01*
X113388954Y-54367858D01*
X113258432Y-54554265D01*
X113258431Y-54554267D01*
X113231382Y-54612275D01*
X113185209Y-54664714D01*
X113118016Y-54683866D01*
X113051135Y-54663650D01*
X113006618Y-54612275D01*
X112979686Y-54554520D01*
X112979568Y-54554266D01*
X112849047Y-54367861D01*
X112849045Y-54367858D01*
X112688141Y-54206954D01*
X112501734Y-54076432D01*
X112501732Y-54076431D01*
X112295497Y-53980261D01*
X112295488Y-53980258D01*
X112075697Y-53921366D01*
X112075693Y-53921365D01*
X112075692Y-53921365D01*
X112075691Y-53921364D01*
X112075686Y-53921364D01*
X111849002Y-53901532D01*
X111848998Y-53901532D01*
X111622313Y-53921364D01*
X111622302Y-53921366D01*
X111402511Y-53980258D01*
X111402502Y-53980261D01*
X111196267Y-54076431D01*
X111196265Y-54076432D01*
X111009858Y-54206954D01*
X110848954Y-54367858D01*
X110718432Y-54554265D01*
X110718431Y-54554267D01*
X110691382Y-54612275D01*
X110645209Y-54664714D01*
X110578016Y-54683866D01*
X110511135Y-54663650D01*
X110466618Y-54612275D01*
X110439686Y-54554520D01*
X110439568Y-54554266D01*
X110309047Y-54367861D01*
X110309045Y-54367858D01*
X110148141Y-54206954D01*
X109961734Y-54076432D01*
X109961732Y-54076431D01*
X109755497Y-53980261D01*
X109755488Y-53980258D01*
X109535697Y-53921366D01*
X109535693Y-53921365D01*
X109535692Y-53921365D01*
X109535691Y-53921364D01*
X109535686Y-53921364D01*
X109309002Y-53901532D01*
X109308998Y-53901532D01*
X109082313Y-53921364D01*
X109082302Y-53921366D01*
X108862511Y-53980258D01*
X108862502Y-53980261D01*
X108656267Y-54076431D01*
X108656265Y-54076432D01*
X108469858Y-54206954D01*
X108308954Y-54367858D01*
X108178432Y-54554265D01*
X108178431Y-54554267D01*
X108151382Y-54612275D01*
X108105209Y-54664714D01*
X108038016Y-54683866D01*
X107971135Y-54663650D01*
X107926618Y-54612275D01*
X107899686Y-54554520D01*
X107899568Y-54554266D01*
X107769047Y-54367861D01*
X107769045Y-54367858D01*
X107608141Y-54206954D01*
X107421734Y-54076432D01*
X107421732Y-54076431D01*
X107215497Y-53980261D01*
X107215488Y-53980258D01*
X106995697Y-53921366D01*
X106995693Y-53921365D01*
X106995692Y-53921365D01*
X106995691Y-53921364D01*
X106995686Y-53921364D01*
X106769002Y-53901532D01*
X106768998Y-53901532D01*
X106542313Y-53921364D01*
X106542302Y-53921366D01*
X106322511Y-53980258D01*
X106322502Y-53980261D01*
X106116267Y-54076431D01*
X106116265Y-54076432D01*
X105929858Y-54206954D01*
X105768954Y-54367858D01*
X105638432Y-54554265D01*
X105638431Y-54554267D01*
X105611382Y-54612275D01*
X105565209Y-54664714D01*
X105498016Y-54683866D01*
X105431135Y-54663650D01*
X105386618Y-54612275D01*
X105359686Y-54554520D01*
X105359568Y-54554266D01*
X105229047Y-54367861D01*
X105229045Y-54367858D01*
X105068141Y-54206954D01*
X104881734Y-54076432D01*
X104881732Y-54076431D01*
X104675497Y-53980261D01*
X104675488Y-53980258D01*
X104455697Y-53921366D01*
X104455693Y-53921365D01*
X104455692Y-53921365D01*
X104455691Y-53921364D01*
X104455686Y-53921364D01*
X104229002Y-53901532D01*
X104228998Y-53901532D01*
X104002313Y-53921364D01*
X104002302Y-53921366D01*
X103782511Y-53980258D01*
X103782502Y-53980261D01*
X103576267Y-54076431D01*
X103576265Y-54076432D01*
X103389858Y-54206954D01*
X103228954Y-54367858D01*
X103098432Y-54554265D01*
X103098431Y-54554267D01*
X103071382Y-54612275D01*
X103025209Y-54664714D01*
X102958016Y-54683866D01*
X102891135Y-54663650D01*
X102846618Y-54612275D01*
X102819686Y-54554520D01*
X102819568Y-54554266D01*
X102689047Y-54367861D01*
X102689045Y-54367858D01*
X102528141Y-54206954D01*
X102341734Y-54076432D01*
X102341732Y-54076431D01*
X102135497Y-53980261D01*
X102135488Y-53980258D01*
X101915697Y-53921366D01*
X101915693Y-53921365D01*
X101915692Y-53921365D01*
X101915691Y-53921364D01*
X101915686Y-53921364D01*
X101689002Y-53901532D01*
X101688998Y-53901532D01*
X101462313Y-53921364D01*
X101462302Y-53921366D01*
X101242511Y-53980258D01*
X101242502Y-53980261D01*
X101036267Y-54076431D01*
X101036265Y-54076432D01*
X100849858Y-54206954D01*
X100688954Y-54367858D01*
X100558432Y-54554265D01*
X100558431Y-54554267D01*
X100531382Y-54612275D01*
X100485209Y-54664714D01*
X100418016Y-54683866D01*
X100351135Y-54663650D01*
X100306618Y-54612275D01*
X100279686Y-54554520D01*
X100279568Y-54554266D01*
X100149047Y-54367861D01*
X100149045Y-54367858D01*
X99988141Y-54206954D01*
X99801734Y-54076432D01*
X99801732Y-54076431D01*
X99595497Y-53980261D01*
X99595488Y-53980258D01*
X99375697Y-53921366D01*
X99375693Y-53921365D01*
X99375692Y-53921365D01*
X99375691Y-53921364D01*
X99375686Y-53921364D01*
X99149002Y-53901532D01*
X99148998Y-53901532D01*
X98922313Y-53921364D01*
X98922302Y-53921366D01*
X98702511Y-53980258D01*
X98702502Y-53980261D01*
X98496267Y-54076431D01*
X98496265Y-54076432D01*
X98309858Y-54206954D01*
X98148954Y-54367858D01*
X98018432Y-54554265D01*
X98018431Y-54554267D01*
X97991382Y-54612275D01*
X97945209Y-54664714D01*
X97878016Y-54683866D01*
X97811135Y-54663650D01*
X97766618Y-54612275D01*
X97739686Y-54554520D01*
X97739568Y-54554266D01*
X97609047Y-54367861D01*
X97609045Y-54367858D01*
X97448141Y-54206954D01*
X97261734Y-54076432D01*
X97261732Y-54076431D01*
X97055497Y-53980261D01*
X97055488Y-53980258D01*
X96835697Y-53921366D01*
X96835693Y-53921365D01*
X96835692Y-53921365D01*
X96835691Y-53921364D01*
X96835686Y-53921364D01*
X96609002Y-53901532D01*
X96608998Y-53901532D01*
X96382313Y-53921364D01*
X96382302Y-53921366D01*
X96162511Y-53980258D01*
X96162502Y-53980261D01*
X95956267Y-54076431D01*
X95956265Y-54076432D01*
X95769858Y-54206954D01*
X95608954Y-54367858D01*
X95542617Y-54462599D01*
X95478432Y-54554266D01*
X95478315Y-54554518D01*
X95451106Y-54612867D01*
X95404933Y-54665306D01*
X95337739Y-54684457D01*
X95270858Y-54664241D01*
X95226342Y-54612865D01*
X95199135Y-54554520D01*
X95199134Y-54554518D01*
X95068657Y-54368179D01*
X94907820Y-54207342D01*
X94721482Y-54076865D01*
X94515328Y-53980734D01*
X94319000Y-53928127D01*
X94319000Y-54891314D01*
X94307045Y-54879359D01*
X94194148Y-54821835D01*
X94100481Y-54807000D01*
X94037519Y-54807000D01*
X93943852Y-54821835D01*
X93830955Y-54879359D01*
X93819000Y-54891314D01*
X93819000Y-53928127D01*
X93622671Y-53980734D01*
X93416517Y-54076865D01*
X93230179Y-54207342D01*
X93069342Y-54368179D01*
X92938865Y-54554517D01*
X92842734Y-54760673D01*
X92842730Y-54760682D01*
X92790127Y-54956999D01*
X92790128Y-54957000D01*
X93753314Y-54957000D01*
X93741359Y-54968955D01*
X93683835Y-55081852D01*
X93664014Y-55207000D01*
X93683835Y-55332148D01*
X93741359Y-55445045D01*
X93753314Y-55457000D01*
X92790128Y-55457000D01*
X92842730Y-55653317D01*
X92842734Y-55653326D01*
X92938865Y-55859482D01*
X93069342Y-56045820D01*
X93230179Y-56206657D01*
X93416517Y-56337134D01*
X93622673Y-56433265D01*
X93622682Y-56433269D01*
X93818999Y-56485872D01*
X93819000Y-56485871D01*
X93819000Y-55522686D01*
X93830955Y-55534641D01*
X93943852Y-55592165D01*
X94037519Y-55607000D01*
X94100481Y-55607000D01*
X94194148Y-55592165D01*
X94307045Y-55534641D01*
X94319000Y-55522686D01*
X94319000Y-56510308D01*
X94319623Y-56511162D01*
X94323778Y-56580908D01*
X94290615Y-56640791D01*
X93211228Y-57720181D01*
X93149905Y-57753666D01*
X93123547Y-57756500D01*
X78643748Y-57756500D01*
X78576709Y-57736815D01*
X78551600Y-57715474D01*
X78545873Y-57709114D01*
X78545869Y-57709110D01*
X78392734Y-57597851D01*
X78392729Y-57597848D01*
X78219807Y-57520857D01*
X78219802Y-57520855D01*
X78074001Y-57489865D01*
X78034646Y-57481500D01*
X77845354Y-57481500D01*
X77812897Y-57488398D01*
X77660197Y-57520855D01*
X77660192Y-57520857D01*
X77487270Y-57597848D01*
X77487265Y-57597851D01*
X77334129Y-57709111D01*
X77207466Y-57849785D01*
X77112821Y-58013715D01*
X77112818Y-58013722D01*
X77066636Y-58155857D01*
X77054326Y-58193744D01*
X77034540Y-58382000D01*
X77054326Y-58570256D01*
X77054327Y-58570259D01*
X77112818Y-58750277D01*
X77112821Y-58750284D01*
X77207467Y-58914216D01*
X77312234Y-59030571D01*
X77334129Y-59054888D01*
X77487265Y-59166148D01*
X77487270Y-59166151D01*
X77660192Y-59243142D01*
X77660197Y-59243144D01*
X77845354Y-59282500D01*
X77845355Y-59282500D01*
X78034644Y-59282500D01*
X78034646Y-59282500D01*
X78219803Y-59243144D01*
X78392730Y-59166151D01*
X78545871Y-59054888D01*
X78548788Y-59051647D01*
X78551600Y-59048526D01*
X78611087Y-59011879D01*
X78643748Y-59007500D01*
X93351257Y-59007500D01*
X93366877Y-59009224D01*
X93366904Y-59008939D01*
X93374660Y-59009671D01*
X93374667Y-59009673D01*
X93441873Y-59007561D01*
X93445768Y-59007500D01*
X93473346Y-59007500D01*
X93473350Y-59007500D01*
X93477324Y-59006997D01*
X93488963Y-59006080D01*
X93532627Y-59004709D01*
X93551869Y-58999117D01*
X93570912Y-58995174D01*
X93590792Y-58992664D01*
X93631401Y-58976585D01*
X93642444Y-58972803D01*
X93684390Y-58960618D01*
X93701629Y-58950422D01*
X93719103Y-58941862D01*
X93737727Y-58934488D01*
X93737727Y-58934487D01*
X93737732Y-58934486D01*
X93773083Y-58908800D01*
X93782814Y-58902408D01*
X93820420Y-58880170D01*
X93834589Y-58865999D01*
X93849379Y-58853368D01*
X93865587Y-58841594D01*
X93893438Y-58807926D01*
X93901279Y-58799309D01*
X96194179Y-56506410D01*
X96255500Y-56472927D01*
X96313947Y-56474317D01*
X96382308Y-56492635D01*
X96539780Y-56506412D01*
X96608998Y-56512468D01*
X96609000Y-56512468D01*
X96609002Y-56512468D01*
X96678220Y-56506412D01*
X96835692Y-56492635D01*
X97055496Y-56433739D01*
X97261734Y-56337568D01*
X97448139Y-56207047D01*
X97609047Y-56046139D01*
X97739568Y-55859734D01*
X97766618Y-55801724D01*
X97812790Y-55749285D01*
X97879983Y-55730133D01*
X97946865Y-55750348D01*
X97991381Y-55801724D01*
X97998848Y-55817737D01*
X98018429Y-55859728D01*
X98018432Y-55859734D01*
X98148954Y-56046141D01*
X98309858Y-56207045D01*
X98470623Y-56319613D01*
X98514248Y-56374189D01*
X98523500Y-56421188D01*
X98523500Y-58026258D01*
X98503815Y-58093297D01*
X98451011Y-58139052D01*
X98381853Y-58148996D01*
X98373720Y-58147548D01*
X98227647Y-58116500D01*
X98227646Y-58116500D01*
X98038354Y-58116500D01*
X98005897Y-58123398D01*
X97853197Y-58155855D01*
X97853192Y-58155857D01*
X97680270Y-58232848D01*
X97680265Y-58232851D01*
X97527129Y-58344111D01*
X97400466Y-58484785D01*
X97305821Y-58648715D01*
X97305818Y-58648722D01*
X97254085Y-58807942D01*
X97247326Y-58828744D01*
X97227540Y-59017000D01*
X97247326Y-59205256D01*
X97247327Y-59205259D01*
X97305818Y-59385277D01*
X97305821Y-59385284D01*
X97400467Y-59549216D01*
X97424367Y-59575759D01*
X97475650Y-59632715D01*
X97505880Y-59695706D01*
X97507500Y-59715687D01*
X97507500Y-59849963D01*
X97487815Y-59917002D01*
X97471181Y-59937644D01*
X83813644Y-73595181D01*
X83752321Y-73628666D01*
X83725963Y-73631500D01*
X83713497Y-73631500D01*
X83646458Y-73611815D01*
X83600703Y-73559011D01*
X83590759Y-73489853D01*
X83601115Y-73455094D01*
X83611267Y-73433321D01*
X83611269Y-73433317D01*
X83670139Y-73213610D01*
X83670141Y-73213599D01*
X83689966Y-72987002D01*
X83689966Y-72986997D01*
X83670141Y-72760400D01*
X83670139Y-72760389D01*
X83611269Y-72540682D01*
X83611264Y-72540668D01*
X83515136Y-72334521D01*
X83515132Y-72334513D01*
X83464025Y-72261526D01*
X82782953Y-72942597D01*
X82770165Y-72861852D01*
X82712641Y-72748955D01*
X82623045Y-72659359D01*
X82510148Y-72601835D01*
X82429401Y-72589046D01*
X83110472Y-71907974D01*
X83037478Y-71856863D01*
X82831331Y-71760735D01*
X82831317Y-71760730D01*
X82611610Y-71701860D01*
X82611599Y-71701858D01*
X82385002Y-71682034D01*
X82384998Y-71682034D01*
X82158400Y-71701858D01*
X82158389Y-71701860D01*
X81938682Y-71760730D01*
X81938673Y-71760734D01*
X81732516Y-71856866D01*
X81732512Y-71856868D01*
X81659526Y-71907973D01*
X81659526Y-71907974D01*
X82340599Y-72589046D01*
X82259852Y-72601835D01*
X82146955Y-72659359D01*
X82057359Y-72748955D01*
X81999835Y-72861852D01*
X81987046Y-72942598D01*
X81305974Y-72261526D01*
X81305973Y-72261526D01*
X81254868Y-72334512D01*
X81254866Y-72334516D01*
X81158734Y-72540673D01*
X81158730Y-72540682D01*
X81099860Y-72760389D01*
X81099858Y-72760400D01*
X81080034Y-72986997D01*
X81080034Y-72987002D01*
X81099858Y-73213599D01*
X81099860Y-73213610D01*
X81158730Y-73433317D01*
X81158732Y-73433321D01*
X81168885Y-73455094D01*
X81179377Y-73524172D01*
X81150858Y-73587956D01*
X81092382Y-73626196D01*
X81056503Y-73631500D01*
X79012453Y-73631500D01*
X78945414Y-73611815D01*
X78924772Y-73595181D01*
X77078196Y-71748605D01*
X77044711Y-71687282D01*
X77049695Y-71617590D01*
X77091567Y-71561657D01*
X77094754Y-71559349D01*
X77139855Y-71527768D01*
X77255139Y-71447047D01*
X77416047Y-71286139D01*
X77433272Y-71261539D01*
X77487848Y-71217913D01*
X77557346Y-71210718D01*
X77619701Y-71242239D01*
X77655116Y-71302468D01*
X77658138Y-71319406D01*
X77661908Y-71354483D01*
X77712202Y-71489328D01*
X77712206Y-71489335D01*
X77798452Y-71604544D01*
X77798455Y-71604547D01*
X77913664Y-71690793D01*
X77913671Y-71690797D01*
X78048517Y-71741091D01*
X78048516Y-71741091D01*
X78055444Y-71741835D01*
X78108127Y-71747500D01*
X79803872Y-71747499D01*
X79863483Y-71741091D01*
X79998331Y-71690796D01*
X80113546Y-71604546D01*
X80199796Y-71489331D01*
X80250091Y-71354483D01*
X80256500Y-71294873D01*
X80256499Y-69599128D01*
X80250091Y-69539517D01*
X80249657Y-69538354D01*
X80199797Y-69404671D01*
X80199793Y-69404664D01*
X80124437Y-69304002D01*
X84019540Y-69304002D01*
X84021005Y-69317945D01*
X84021514Y-69337389D01*
X84020780Y-69351386D01*
X84031388Y-69418367D01*
X84032234Y-69424798D01*
X84039325Y-69492248D01*
X84039326Y-69492255D01*
X84043661Y-69505599D01*
X84048199Y-69524504D01*
X84050392Y-69538348D01*
X84050394Y-69538354D01*
X84074690Y-69601648D01*
X84076857Y-69607766D01*
X84097820Y-69672283D01*
X84104827Y-69684418D01*
X84113206Y-69701985D01*
X84118227Y-69715067D01*
X84155164Y-69771946D01*
X84158549Y-69777470D01*
X84192467Y-69836216D01*
X84192469Y-69836219D01*
X84192470Y-69836220D01*
X84201848Y-69846635D01*
X84213697Y-69862077D01*
X84221326Y-69873826D01*
X84269274Y-69921773D01*
X84273744Y-69926483D01*
X84319129Y-69976888D01*
X84330468Y-69985126D01*
X84345265Y-69997764D01*
X84355176Y-70007675D01*
X84412054Y-70044612D01*
X84417388Y-70048277D01*
X84472270Y-70088151D01*
X84484418Y-70093559D01*
X84485073Y-70093851D01*
X84502174Y-70103137D01*
X84513925Y-70110768D01*
X84513930Y-70110771D01*
X84526860Y-70115734D01*
X84577243Y-70135074D01*
X84583234Y-70137555D01*
X84645197Y-70165144D01*
X84658918Y-70168060D01*
X84677564Y-70173583D01*
X84690650Y-70178607D01*
X84757653Y-70189218D01*
X84763988Y-70190393D01*
X84830354Y-70204500D01*
X84844373Y-70204500D01*
X84863772Y-70206027D01*
X84877612Y-70208219D01*
X84945337Y-70204670D01*
X84951826Y-70204500D01*
X85019643Y-70204500D01*
X85019646Y-70204500D01*
X85033359Y-70201584D01*
X85052647Y-70199046D01*
X85066646Y-70198313D01*
X85132200Y-70180747D01*
X85138442Y-70179249D01*
X85204803Y-70165144D01*
X85217604Y-70159443D01*
X85235954Y-70152946D01*
X85235964Y-70152943D01*
X85249488Y-70149320D01*
X85309948Y-70118512D01*
X85315752Y-70115744D01*
X85377730Y-70088151D01*
X85389059Y-70079918D01*
X85405656Y-70069747D01*
X85418149Y-70063383D01*
X85470866Y-70020691D01*
X85475983Y-70016764D01*
X85530871Y-69976888D01*
X85576273Y-69926462D01*
X85580706Y-69921791D01*
X89378232Y-66124265D01*
X89393020Y-66111635D01*
X89404366Y-66103393D01*
X89449759Y-66052977D01*
X89454191Y-66048306D01*
X89468614Y-66033885D01*
X89481440Y-66018045D01*
X89485612Y-66013159D01*
X89531028Y-65962721D01*
X89538033Y-65950585D01*
X89549065Y-65934536D01*
X89550841Y-65932343D01*
X89557878Y-65923654D01*
X89588680Y-65863198D01*
X89591743Y-65857556D01*
X89625674Y-65798789D01*
X89630004Y-65785461D01*
X89637455Y-65767474D01*
X89643814Y-65754995D01*
X89643814Y-65754994D01*
X89643815Y-65754993D01*
X89661375Y-65689452D01*
X89663194Y-65683309D01*
X89684169Y-65618761D01*
X89685634Y-65604812D01*
X89689179Y-65585688D01*
X89692807Y-65572151D01*
X89696357Y-65504409D01*
X89696861Y-65497999D01*
X89703955Y-65430505D01*
X89702489Y-65416569D01*
X89701980Y-65397111D01*
X89702028Y-65396199D01*
X89702714Y-65383117D01*
X89692103Y-65316126D01*
X89691261Y-65309735D01*
X89684169Y-65242249D01*
X89679835Y-65228913D01*
X89675294Y-65209992D01*
X89673103Y-65196160D01*
X89673102Y-65196156D01*
X89648799Y-65132845D01*
X89646632Y-65126724D01*
X89625676Y-65062227D01*
X89625675Y-65062226D01*
X89625674Y-65062221D01*
X89618659Y-65050072D01*
X89610288Y-65032520D01*
X89605266Y-65019435D01*
X89568311Y-64962530D01*
X89564941Y-64957028D01*
X89531030Y-64898292D01*
X89531028Y-64898289D01*
X89521646Y-64887870D01*
X89509797Y-64872427D01*
X89502170Y-64860681D01*
X89454219Y-64812730D01*
X89449750Y-64808021D01*
X89404367Y-64757618D01*
X89404366Y-64757617D01*
X89393020Y-64749374D01*
X89378229Y-64736740D01*
X89368323Y-64726834D01*
X89368320Y-64726831D01*
X89368317Y-64726829D01*
X89368310Y-64726823D01*
X89311431Y-64689886D01*
X89306102Y-64686224D01*
X89251225Y-64646354D01*
X89238418Y-64640652D01*
X89221327Y-64631372D01*
X89209566Y-64623734D01*
X89209563Y-64623733D01*
X89146253Y-64599431D01*
X89140254Y-64596946D01*
X89078301Y-64569362D01*
X89078293Y-64569359D01*
X89064571Y-64566442D01*
X89045925Y-64560918D01*
X89032853Y-64555900D01*
X89032837Y-64555896D01*
X88965868Y-64545289D01*
X88959487Y-64544107D01*
X88947575Y-64541575D01*
X88893141Y-64530005D01*
X88893138Y-64530005D01*
X88879122Y-64530005D01*
X88859723Y-64528478D01*
X88845884Y-64526286D01*
X88845883Y-64526286D01*
X88804058Y-64528478D01*
X88778165Y-64529835D01*
X88771675Y-64530005D01*
X88703848Y-64530005D01*
X88690129Y-64532920D01*
X88670853Y-64535458D01*
X88656849Y-64536192D01*
X88656846Y-64536193D01*
X88591346Y-64553743D01*
X88585037Y-64555258D01*
X88518689Y-64569361D01*
X88518688Y-64569362D01*
X88505880Y-64575064D01*
X88487556Y-64581553D01*
X88474007Y-64585184D01*
X88474005Y-64585185D01*
X88413576Y-64615975D01*
X88407720Y-64618768D01*
X88345765Y-64646353D01*
X88334422Y-64654594D01*
X88317847Y-64664751D01*
X88305352Y-64671118D01*
X88305344Y-64671123D01*
X88252640Y-64713802D01*
X88247492Y-64717752D01*
X88192622Y-64757617D01*
X88192622Y-64757618D01*
X88147238Y-64808021D01*
X88142771Y-64812728D01*
X84345263Y-68610236D01*
X84330474Y-68622869D01*
X84319126Y-68631114D01*
X84273751Y-68681508D01*
X84269288Y-68686211D01*
X84254891Y-68700609D01*
X84254875Y-68700627D01*
X84242058Y-68716452D01*
X84237852Y-68721376D01*
X84192469Y-68771781D01*
X84192466Y-68771785D01*
X84185458Y-68783923D01*
X84174444Y-68799948D01*
X84165626Y-68810837D01*
X84165616Y-68810853D01*
X84134819Y-68871294D01*
X84131722Y-68876997D01*
X84097821Y-68935713D01*
X84093487Y-68949053D01*
X84086045Y-68967020D01*
X84079680Y-68979512D01*
X84062126Y-69045018D01*
X84060284Y-69051234D01*
X84039326Y-69115742D01*
X84039325Y-69115745D01*
X84037860Y-69129686D01*
X84034315Y-69148812D01*
X84030686Y-69162352D01*
X84027137Y-69230083D01*
X84026628Y-69236553D01*
X84019540Y-69304000D01*
X84019540Y-69304002D01*
X80124437Y-69304002D01*
X80113547Y-69289455D01*
X80113544Y-69289452D01*
X79998335Y-69203206D01*
X79998328Y-69203202D01*
X79863482Y-69152908D01*
X79863483Y-69152908D01*
X79803883Y-69146501D01*
X79803881Y-69146500D01*
X79803873Y-69146500D01*
X79803864Y-69146500D01*
X78108129Y-69146500D01*
X78108123Y-69146501D01*
X78048516Y-69152908D01*
X77913671Y-69203202D01*
X77913664Y-69203206D01*
X77798455Y-69289452D01*
X77798452Y-69289455D01*
X77712206Y-69404664D01*
X77712202Y-69404671D01*
X77661908Y-69539516D01*
X77658137Y-69574596D01*
X77631398Y-69639146D01*
X77574006Y-69678994D01*
X77504180Y-69681487D01*
X77444092Y-69645834D01*
X77433273Y-69632462D01*
X77416045Y-69607858D01*
X77255141Y-69446954D01*
X77068734Y-69316432D01*
X77068732Y-69316431D01*
X76862497Y-69220261D01*
X76862488Y-69220258D01*
X76642697Y-69161366D01*
X76642693Y-69161365D01*
X76642692Y-69161365D01*
X76642691Y-69161364D01*
X76642686Y-69161364D01*
X76416002Y-69141532D01*
X76415998Y-69141532D01*
X76189313Y-69161364D01*
X76189302Y-69161366D01*
X75969511Y-69220258D01*
X75969502Y-69220261D01*
X75763267Y-69316431D01*
X75763265Y-69316432D01*
X75576858Y-69446954D01*
X75415954Y-69607858D01*
X75285432Y-69794265D01*
X75285431Y-69794267D01*
X75258382Y-69852275D01*
X75212209Y-69904714D01*
X75145016Y-69923866D01*
X75078135Y-69903650D01*
X75033618Y-69852275D01*
X75030988Y-69846635D01*
X75006568Y-69794266D01*
X74876047Y-69607861D01*
X74876045Y-69607858D01*
X74715141Y-69446954D01*
X74528734Y-69316432D01*
X74528732Y-69316431D01*
X74322497Y-69220261D01*
X74322488Y-69220258D01*
X74102697Y-69161366D01*
X74102693Y-69161365D01*
X74102692Y-69161365D01*
X74102691Y-69161364D01*
X74102686Y-69161364D01*
X73876002Y-69141532D01*
X73875998Y-69141532D01*
X73649313Y-69161364D01*
X73649302Y-69161366D01*
X73429511Y-69220258D01*
X73429502Y-69220261D01*
X73223267Y-69316431D01*
X73223265Y-69316432D01*
X73036859Y-69446953D01*
X73030274Y-69453538D01*
X72968947Y-69487017D01*
X72899256Y-69482026D01*
X72854920Y-69453529D01*
X71940603Y-68539212D01*
X71930780Y-68526950D01*
X71930559Y-68527134D01*
X71925586Y-68521122D01*
X71876576Y-68475099D01*
X71873777Y-68472386D01*
X71854277Y-68452885D01*
X71854271Y-68452880D01*
X71851086Y-68450409D01*
X71842234Y-68442848D01*
X71810382Y-68412938D01*
X71810380Y-68412936D01*
X71810377Y-68412935D01*
X71792829Y-68403288D01*
X71776563Y-68392604D01*
X71760732Y-68380324D01*
X71720649Y-68362978D01*
X71710163Y-68357841D01*
X71671894Y-68336803D01*
X71671892Y-68336802D01*
X71652493Y-68331822D01*
X71634081Y-68325518D01*
X71615698Y-68317562D01*
X71615692Y-68317560D01*
X71572560Y-68310729D01*
X71561122Y-68308361D01*
X71518820Y-68297500D01*
X71518819Y-68297500D01*
X71498784Y-68297500D01*
X71479386Y-68295973D01*
X71471962Y-68294797D01*
X71459605Y-68292840D01*
X71459604Y-68292840D01*
X71416125Y-68296950D01*
X71404456Y-68297500D01*
X67862737Y-68297500D01*
X67847120Y-68295776D01*
X67847093Y-68296062D01*
X67839331Y-68295327D01*
X67772144Y-68297439D01*
X67768250Y-68297500D01*
X67740650Y-68297500D01*
X67736962Y-68297965D01*
X67736649Y-68298005D01*
X67725031Y-68298918D01*
X67681372Y-68300290D01*
X67681369Y-68300291D01*
X67662126Y-68305881D01*
X67643083Y-68309825D01*
X67623204Y-68312336D01*
X67623203Y-68312337D01*
X67582593Y-68328415D01*
X67571548Y-68332197D01*
X67529608Y-68344383D01*
X67529604Y-68344385D01*
X67512365Y-68354580D01*
X67494898Y-68363137D01*
X67476269Y-68370512D01*
X67476267Y-68370514D01*
X67440926Y-68396189D01*
X67431168Y-68402599D01*
X67393580Y-68424828D01*
X67379408Y-68439000D01*
X67364623Y-68451628D01*
X67348412Y-68463407D01*
X67320571Y-68497059D01*
X67312711Y-68505696D01*
X66670821Y-69147586D01*
X66609498Y-69181071D01*
X66551048Y-69179680D01*
X66482697Y-69161366D01*
X66482693Y-69161365D01*
X66482692Y-69161365D01*
X66337702Y-69148680D01*
X66256001Y-69141532D01*
X66255998Y-69141532D01*
X66029313Y-69161364D01*
X66029302Y-69161366D01*
X65809511Y-69220258D01*
X65809502Y-69220261D01*
X65603267Y-69316431D01*
X65603265Y-69316432D01*
X65416858Y-69446954D01*
X65255954Y-69607858D01*
X65125432Y-69794265D01*
X65125431Y-69794267D01*
X65098382Y-69852275D01*
X65052209Y-69904714D01*
X64985016Y-69923866D01*
X64918135Y-69903650D01*
X64873618Y-69852275D01*
X64870988Y-69846635D01*
X64846568Y-69794266D01*
X64716047Y-69607861D01*
X64716045Y-69607858D01*
X64555141Y-69446954D01*
X64368734Y-69316432D01*
X64368732Y-69316431D01*
X64162497Y-69220261D01*
X64162488Y-69220258D01*
X63942697Y-69161366D01*
X63942693Y-69161365D01*
X63942692Y-69161365D01*
X63942691Y-69161364D01*
X63942686Y-69161364D01*
X63716002Y-69141532D01*
X63715998Y-69141532D01*
X63489313Y-69161364D01*
X63489302Y-69161366D01*
X63269511Y-69220258D01*
X63269502Y-69220261D01*
X63063267Y-69316431D01*
X63063265Y-69316432D01*
X62876858Y-69446954D01*
X62715954Y-69607858D01*
X62585432Y-69794265D01*
X62585431Y-69794267D01*
X62558382Y-69852275D01*
X62512209Y-69904714D01*
X62445016Y-69923866D01*
X62378135Y-69903650D01*
X62333618Y-69852275D01*
X62330988Y-69846635D01*
X62306568Y-69794266D01*
X62176047Y-69607861D01*
X62176045Y-69607858D01*
X62015141Y-69446954D01*
X61828734Y-69316432D01*
X61828732Y-69316431D01*
X61622497Y-69220261D01*
X61622488Y-69220258D01*
X61402697Y-69161366D01*
X61402693Y-69161365D01*
X61402692Y-69161365D01*
X61402691Y-69161364D01*
X61402686Y-69161364D01*
X61176002Y-69141532D01*
X61175998Y-69141532D01*
X60949313Y-69161364D01*
X60949302Y-69161366D01*
X60729511Y-69220258D01*
X60729502Y-69220261D01*
X60523267Y-69316431D01*
X60523265Y-69316432D01*
X60336858Y-69446954D01*
X60175954Y-69607858D01*
X60045432Y-69794265D01*
X60045431Y-69794267D01*
X60018382Y-69852275D01*
X59972209Y-69904714D01*
X59905016Y-69923866D01*
X59838135Y-69903650D01*
X59793618Y-69852275D01*
X59790988Y-69846635D01*
X59766568Y-69794266D01*
X59636047Y-69607861D01*
X59636045Y-69607858D01*
X59475141Y-69446954D01*
X59288734Y-69316432D01*
X59288732Y-69316431D01*
X59082497Y-69220261D01*
X59082488Y-69220258D01*
X58862697Y-69161366D01*
X58862693Y-69161365D01*
X58862692Y-69161365D01*
X58862691Y-69161364D01*
X58862686Y-69161364D01*
X58636002Y-69141532D01*
X58635998Y-69141532D01*
X58409313Y-69161364D01*
X58409302Y-69161366D01*
X58189511Y-69220258D01*
X58189502Y-69220261D01*
X57983267Y-69316431D01*
X57983265Y-69316432D01*
X57796858Y-69446954D01*
X57635954Y-69607858D01*
X57517186Y-69777479D01*
X57505432Y-69794266D01*
X57485869Y-69836220D01*
X57478106Y-69852867D01*
X57431933Y-69905306D01*
X57364739Y-69924457D01*
X57297858Y-69904241D01*
X57253342Y-69852865D01*
X57226135Y-69794520D01*
X57226134Y-69794518D01*
X57095657Y-69608179D01*
X56934820Y-69447342D01*
X56748482Y-69316865D01*
X56542328Y-69220734D01*
X56346000Y-69168127D01*
X56346000Y-70131314D01*
X56334045Y-70119359D01*
X56221148Y-70061835D01*
X56127481Y-70047000D01*
X56064519Y-70047000D01*
X55970852Y-70061835D01*
X55857955Y-70119359D01*
X55846000Y-70131314D01*
X55846000Y-69168127D01*
X55649671Y-69220734D01*
X55443517Y-69316865D01*
X55257179Y-69447342D01*
X55096342Y-69608179D01*
X54965865Y-69794517D01*
X54869734Y-70000673D01*
X54869730Y-70000682D01*
X54817127Y-70196999D01*
X54817128Y-70197000D01*
X55780314Y-70197000D01*
X55768359Y-70208955D01*
X55710835Y-70321852D01*
X55691014Y-70447000D01*
X55710835Y-70572148D01*
X55768359Y-70685045D01*
X55780314Y-70697000D01*
X54817128Y-70697000D01*
X54869730Y-70893317D01*
X54869734Y-70893326D01*
X54965865Y-71099482D01*
X55096342Y-71285820D01*
X55257179Y-71446657D01*
X55443517Y-71577134D01*
X55649673Y-71673265D01*
X55649682Y-71673269D01*
X55845999Y-71725872D01*
X55846000Y-71725871D01*
X55846000Y-70762686D01*
X55857955Y-70774641D01*
X55970852Y-70832165D01*
X56064519Y-70847000D01*
X56127481Y-70847000D01*
X56221148Y-70832165D01*
X56334045Y-70774641D01*
X56346000Y-70762686D01*
X56346000Y-71725872D01*
X56542317Y-71673269D01*
X56542326Y-71673265D01*
X56748482Y-71577134D01*
X56934820Y-71446657D01*
X57095657Y-71285820D01*
X57226132Y-71099484D01*
X57253341Y-71041134D01*
X57299513Y-70988695D01*
X57366707Y-70969542D01*
X57433588Y-70989757D01*
X57478105Y-71041132D01*
X57494054Y-71075334D01*
X57505431Y-71099732D01*
X57505432Y-71099734D01*
X57635954Y-71286141D01*
X57796858Y-71447045D01*
X57796861Y-71447047D01*
X57983266Y-71577568D01*
X58069094Y-71617590D01*
X58080522Y-71622919D01*
X58132961Y-71669091D01*
X58134841Y-71672166D01*
X58137830Y-71677220D01*
X58137831Y-71677221D01*
X58137833Y-71677224D01*
X58151990Y-71691380D01*
X58164627Y-71706175D01*
X58176406Y-71722387D01*
X58208740Y-71749136D01*
X58210057Y-71750225D01*
X58218698Y-71758088D01*
X63165673Y-76705064D01*
X63199158Y-76766387D01*
X63194174Y-76836079D01*
X63152302Y-76892012D01*
X63130399Y-76905126D01*
X63063268Y-76936430D01*
X63063265Y-76936432D01*
X62876858Y-77066954D01*
X62715954Y-77227858D01*
X62585432Y-77414265D01*
X62585431Y-77414267D01*
X62558382Y-77472275D01*
X62512209Y-77524714D01*
X62445016Y-77543866D01*
X62378135Y-77523650D01*
X62333618Y-77472275D01*
X62312881Y-77427804D01*
X62306568Y-77414266D01*
X62176047Y-77227861D01*
X62176045Y-77227858D01*
X62015141Y-77066954D01*
X61828734Y-76936432D01*
X61828732Y-76936431D01*
X61622497Y-76840261D01*
X61622488Y-76840258D01*
X61402697Y-76781366D01*
X61402693Y-76781365D01*
X61402692Y-76781365D01*
X61402691Y-76781364D01*
X61402686Y-76781364D01*
X61176002Y-76761532D01*
X61175998Y-76761532D01*
X60949313Y-76781364D01*
X60949302Y-76781366D01*
X60729511Y-76840258D01*
X60729502Y-76840261D01*
X60523267Y-76936431D01*
X60523265Y-76936432D01*
X60336858Y-77066954D01*
X60175954Y-77227858D01*
X60045432Y-77414265D01*
X60045431Y-77414267D01*
X60018382Y-77472275D01*
X59972209Y-77524714D01*
X59905016Y-77543866D01*
X59838135Y-77523650D01*
X59793618Y-77472275D01*
X59772881Y-77427804D01*
X59766568Y-77414266D01*
X59636047Y-77227861D01*
X59636045Y-77227858D01*
X59475141Y-77066954D01*
X59288734Y-76936432D01*
X59288732Y-76936431D01*
X59082497Y-76840261D01*
X59082488Y-76840258D01*
X58862697Y-76781366D01*
X58862693Y-76781365D01*
X58862692Y-76781365D01*
X58862691Y-76781364D01*
X58862686Y-76781364D01*
X58636002Y-76761532D01*
X58635998Y-76761532D01*
X58409313Y-76781364D01*
X58409302Y-76781366D01*
X58189511Y-76840258D01*
X58189502Y-76840261D01*
X57983267Y-76936431D01*
X57983265Y-76936432D01*
X57796858Y-77066954D01*
X57635954Y-77227858D01*
X57505432Y-77414265D01*
X57505431Y-77414267D01*
X57478382Y-77472275D01*
X57432209Y-77524714D01*
X57365016Y-77543866D01*
X57298135Y-77523650D01*
X57253618Y-77472275D01*
X57232881Y-77427804D01*
X57226568Y-77414266D01*
X57096047Y-77227861D01*
X57096045Y-77227858D01*
X56935141Y-77066954D01*
X56748734Y-76936432D01*
X56748732Y-76936431D01*
X56542497Y-76840261D01*
X56542488Y-76840258D01*
X56322697Y-76781366D01*
X56322693Y-76781365D01*
X56322692Y-76781365D01*
X56322691Y-76781364D01*
X56322686Y-76781364D01*
X56096002Y-76761532D01*
X56095998Y-76761532D01*
X55869313Y-76781364D01*
X55869302Y-76781366D01*
X55649511Y-76840258D01*
X55649502Y-76840261D01*
X55443267Y-76936431D01*
X55443265Y-76936432D01*
X55256858Y-77066954D01*
X55095954Y-77227858D01*
X54965432Y-77414265D01*
X54965431Y-77414267D01*
X54869261Y-77620502D01*
X54869258Y-77620511D01*
X54810366Y-77840302D01*
X54810364Y-77840313D01*
X54790532Y-78066998D01*
X54790532Y-78067001D01*
X54810364Y-78293686D01*
X54810366Y-78293697D01*
X54869258Y-78513488D01*
X54869261Y-78513497D01*
X54965431Y-78719732D01*
X54965432Y-78719734D01*
X55095954Y-78906141D01*
X55256858Y-79067045D01*
X55256861Y-79067047D01*
X55443266Y-79197568D01*
X55649504Y-79293739D01*
X55869308Y-79352635D01*
X56026791Y-79366413D01*
X56095998Y-79372468D01*
X56096000Y-79372468D01*
X56096002Y-79372468D01*
X56164306Y-79366492D01*
X56322692Y-79352635D01*
X56391048Y-79334319D01*
X56460897Y-79335982D01*
X56510822Y-79366413D01*
X63968197Y-86823788D01*
X63978022Y-86836051D01*
X63978243Y-86835869D01*
X63983211Y-86841874D01*
X63983213Y-86841876D01*
X63983214Y-86841877D01*
X63991102Y-86849284D01*
X64032222Y-86887899D01*
X64035021Y-86890612D01*
X64054522Y-86910114D01*
X64054526Y-86910117D01*
X64054529Y-86910120D01*
X64057702Y-86912581D01*
X64066574Y-86920159D01*
X64098418Y-86950062D01*
X64115976Y-86959714D01*
X64132235Y-86970395D01*
X64148064Y-86982673D01*
X64188155Y-87000021D01*
X64198626Y-87005151D01*
X64221180Y-87017550D01*
X64236902Y-87026194D01*
X64236904Y-87026195D01*
X64236908Y-87026197D01*
X64256316Y-87031180D01*
X64274719Y-87037481D01*
X64293101Y-87045436D01*
X64293102Y-87045436D01*
X64293104Y-87045437D01*
X64336250Y-87052270D01*
X64347672Y-87054636D01*
X64389981Y-87065500D01*
X64410016Y-87065500D01*
X64429414Y-87067026D01*
X64449194Y-87070159D01*
X64449195Y-87070160D01*
X64449195Y-87070159D01*
X64449196Y-87070160D01*
X64492675Y-87066050D01*
X64504344Y-87065500D01*
X64957838Y-87065500D01*
X65024877Y-87085185D01*
X65070632Y-87137989D01*
X65080576Y-87207147D01*
X65077104Y-87223434D01*
X65071379Y-87243553D01*
X65071378Y-87243556D01*
X65050859Y-87464999D01*
X65050859Y-87465000D01*
X65071378Y-87686439D01*
X65132240Y-87900350D01*
X65231369Y-88099428D01*
X65247137Y-88120308D01*
X65247138Y-88120308D01*
X65905012Y-87462434D01*
X65902372Y-87494302D01*
X65931047Y-87607538D01*
X65994936Y-87705327D01*
X66087115Y-87777072D01*
X66197595Y-87815000D01*
X66285005Y-87815000D01*
X66371216Y-87800614D01*
X66473947Y-87745019D01*
X66553060Y-87659079D01*
X66599982Y-87552108D01*
X66607380Y-87462827D01*
X67264861Y-88120308D01*
X67280631Y-88099425D01*
X67280633Y-88099422D01*
X67379760Y-87900349D01*
X67406733Y-87805548D01*
X67444012Y-87746454D01*
X67507322Y-87716896D01*
X67576561Y-87726258D01*
X67629748Y-87771567D01*
X67645267Y-87805548D01*
X67672239Y-87900349D01*
X67771369Y-88099428D01*
X67787137Y-88120308D01*
X67787138Y-88120308D01*
X68445012Y-87462434D01*
X68442372Y-87494302D01*
X68471047Y-87607538D01*
X68534936Y-87705327D01*
X68627115Y-87777072D01*
X68737595Y-87815000D01*
X68825005Y-87815000D01*
X68911216Y-87800614D01*
X69013947Y-87745019D01*
X69093060Y-87659079D01*
X69139982Y-87552108D01*
X69147380Y-87462827D01*
X69804861Y-88120308D01*
X69820631Y-88099425D01*
X69820633Y-88099422D01*
X69919760Y-87900349D01*
X69946733Y-87805548D01*
X69984012Y-87746454D01*
X70047322Y-87716896D01*
X70116561Y-87726258D01*
X70169748Y-87771567D01*
X70185267Y-87805548D01*
X70212239Y-87900349D01*
X70311369Y-88099428D01*
X70327137Y-88120308D01*
X70327138Y-88120308D01*
X70985012Y-87462434D01*
X70982372Y-87494302D01*
X71011047Y-87607538D01*
X71074936Y-87705327D01*
X71167115Y-87777072D01*
X71277595Y-87815000D01*
X71365005Y-87815000D01*
X71451216Y-87800614D01*
X71553947Y-87745019D01*
X71633060Y-87659079D01*
X71679982Y-87552108D01*
X71687380Y-87462827D01*
X72344861Y-88120308D01*
X72360631Y-88099425D01*
X72360633Y-88099422D01*
X72459760Y-87900349D01*
X72486733Y-87805548D01*
X72524012Y-87746454D01*
X72587322Y-87716896D01*
X72656561Y-87726258D01*
X72709748Y-87771567D01*
X72725267Y-87805548D01*
X72752239Y-87900349D01*
X72851369Y-88099428D01*
X72867137Y-88120308D01*
X72867138Y-88120308D01*
X73525012Y-87462434D01*
X73522372Y-87494302D01*
X73551047Y-87607538D01*
X73614936Y-87705327D01*
X73707115Y-87777072D01*
X73817595Y-87815000D01*
X73905005Y-87815000D01*
X73991216Y-87800614D01*
X74093947Y-87745019D01*
X74173060Y-87659079D01*
X74219982Y-87552108D01*
X74227380Y-87462827D01*
X74884861Y-88120308D01*
X74900631Y-88099425D01*
X74900633Y-88099422D01*
X74999760Y-87900349D01*
X75026733Y-87805548D01*
X75064012Y-87746454D01*
X75127322Y-87716896D01*
X75196561Y-87726258D01*
X75249748Y-87771567D01*
X75265267Y-87805548D01*
X75292239Y-87900349D01*
X75391369Y-88099428D01*
X75407137Y-88120308D01*
X75407138Y-88120308D01*
X76065012Y-87462434D01*
X76062372Y-87494302D01*
X76091047Y-87607538D01*
X76154936Y-87705327D01*
X76247115Y-87777072D01*
X76357595Y-87815000D01*
X76445005Y-87815000D01*
X76531216Y-87800614D01*
X76633947Y-87745019D01*
X76713060Y-87659079D01*
X76759982Y-87552108D01*
X76767380Y-87462827D01*
X77424861Y-88120308D01*
X77440631Y-88099425D01*
X77440633Y-88099422D01*
X77539759Y-87900350D01*
X77600621Y-87686439D01*
X77621141Y-87465000D01*
X77621141Y-87464999D01*
X77600621Y-87243556D01*
X77600620Y-87243553D01*
X77594896Y-87223434D01*
X77595483Y-87153567D01*
X77633750Y-87095108D01*
X77697547Y-87066618D01*
X77714162Y-87065500D01*
X81035807Y-87065500D01*
X81102846Y-87085185D01*
X81127957Y-87106528D01*
X81144123Y-87124483D01*
X81144130Y-87124489D01*
X81297265Y-87235748D01*
X81297270Y-87235751D01*
X81470192Y-87312742D01*
X81470197Y-87312744D01*
X81655354Y-87352100D01*
X81655355Y-87352100D01*
X81844644Y-87352100D01*
X81844646Y-87352100D01*
X82029803Y-87312744D01*
X82202730Y-87235751D01*
X82355871Y-87124488D01*
X82482533Y-86983816D01*
X82577179Y-86819884D01*
X82635674Y-86639856D01*
X82655460Y-86451600D01*
X82635674Y-86263344D01*
X82607574Y-86176863D01*
X82580592Y-86093818D01*
X82578597Y-86023977D01*
X82614677Y-85964144D01*
X82677378Y-85933316D01*
X82698523Y-85931500D01*
X83794500Y-85931500D01*
X83861539Y-85951185D01*
X83907294Y-86003989D01*
X83918500Y-86055500D01*
X83918500Y-99637946D01*
X83898815Y-99704985D01*
X83882181Y-99725627D01*
X81497608Y-102110199D01*
X81485351Y-102120020D01*
X81485534Y-102120241D01*
X81479522Y-102125214D01*
X81433498Y-102174223D01*
X81430791Y-102177016D01*
X81411289Y-102196517D01*
X81411275Y-102196534D01*
X81408807Y-102199715D01*
X81401243Y-102208570D01*
X81371337Y-102240418D01*
X81371336Y-102240420D01*
X81361684Y-102257976D01*
X81351010Y-102274226D01*
X81338729Y-102290061D01*
X81338724Y-102290068D01*
X81321375Y-102330158D01*
X81316238Y-102340644D01*
X81295203Y-102378906D01*
X81290222Y-102398307D01*
X81283921Y-102416710D01*
X81275962Y-102435102D01*
X81275961Y-102435105D01*
X81269128Y-102478243D01*
X81266760Y-102489674D01*
X81255901Y-102531971D01*
X81255900Y-102531982D01*
X81255900Y-102552016D01*
X81254373Y-102571413D01*
X81251240Y-102591196D01*
X81253053Y-102610376D01*
X81255350Y-102634674D01*
X81255900Y-102646343D01*
X81255900Y-103470000D01*
X81236215Y-103537039D01*
X81183411Y-103582794D01*
X81131900Y-103594000D01*
X80666720Y-103594000D01*
X80599681Y-103574315D01*
X80595274Y-103571349D01*
X80561972Y-103547873D01*
X80449086Y-103490354D01*
X80436127Y-103483983D01*
X80344601Y-103455682D01*
X80344600Y-103455683D01*
X80344600Y-103594000D01*
X79844600Y-103594000D01*
X79844600Y-103454745D01*
X79740122Y-103490350D01*
X79627197Y-103547888D01*
X79614470Y-103554603D01*
X79594882Y-103569267D01*
X79529417Y-103593684D01*
X79520571Y-103594000D01*
X78126720Y-103594000D01*
X78059681Y-103574315D01*
X78055274Y-103571349D01*
X78021972Y-103547873D01*
X77909086Y-103490354D01*
X77896127Y-103483983D01*
X77804601Y-103455682D01*
X77804600Y-103455683D01*
X77804600Y-103594000D01*
X77304600Y-103594000D01*
X77304600Y-103454745D01*
X77200122Y-103490350D01*
X77087197Y-103547888D01*
X77074470Y-103554603D01*
X77054882Y-103569267D01*
X76989417Y-103593684D01*
X76980571Y-103594000D01*
X75587588Y-103594000D01*
X75520549Y-103574315D01*
X75516143Y-103571349D01*
X75491766Y-103554165D01*
X75482205Y-103547424D01*
X75369315Y-103489904D01*
X75357271Y-103483983D01*
X75356346Y-103483528D01*
X75348477Y-103481095D01*
X75283277Y-103460935D01*
X75218847Y-103441013D01*
X75218844Y-103441012D01*
X75218832Y-103441009D01*
X75093753Y-103421199D01*
X75079405Y-103419136D01*
X74935504Y-103421191D01*
X74935499Y-103421192D01*
X74922843Y-103423196D01*
X74917941Y-103423973D01*
X74898544Y-103425500D01*
X73499100Y-103425500D01*
X73432061Y-103405815D01*
X73386306Y-103353011D01*
X73375100Y-103301500D01*
X73375100Y-101228760D01*
X73394785Y-101161721D01*
X73411414Y-101141084D01*
X77249729Y-97302768D01*
X77264517Y-97290138D01*
X77275863Y-97281896D01*
X77321256Y-97231480D01*
X77325688Y-97226809D01*
X77340111Y-97212388D01*
X77352937Y-97196548D01*
X77357109Y-97191662D01*
X77402525Y-97141224D01*
X77409530Y-97129088D01*
X77420562Y-97113039D01*
X77429373Y-97102159D01*
X77429375Y-97102157D01*
X77460177Y-97041701D01*
X77463240Y-97036059D01*
X77497171Y-96977292D01*
X77501501Y-96963964D01*
X77508952Y-96945977D01*
X77515311Y-96933498D01*
X77515311Y-96933497D01*
X77515312Y-96933496D01*
X77532872Y-96867955D01*
X77534691Y-96861812D01*
X77555666Y-96797264D01*
X77557131Y-96783315D01*
X77560676Y-96764191D01*
X77564304Y-96750654D01*
X77567854Y-96682912D01*
X77568358Y-96676502D01*
X77575452Y-96609008D01*
X77573986Y-96595072D01*
X77573477Y-96575614D01*
X77574211Y-96561620D01*
X77563600Y-96494629D01*
X77562758Y-96488238D01*
X77555666Y-96420752D01*
X77551332Y-96407416D01*
X77546791Y-96388495D01*
X77544600Y-96374663D01*
X77544599Y-96374659D01*
X77526402Y-96327255D01*
X77520291Y-96311336D01*
X77518129Y-96305227D01*
X77497173Y-96240730D01*
X77497172Y-96240729D01*
X77497171Y-96240724D01*
X77490156Y-96228575D01*
X77481785Y-96211023D01*
X77476763Y-96197938D01*
X77439808Y-96141033D01*
X77436438Y-96135531D01*
X77402527Y-96076795D01*
X77402525Y-96076792D01*
X77393143Y-96066373D01*
X77381294Y-96050930D01*
X77373667Y-96039184D01*
X77325716Y-95991233D01*
X77321247Y-95986524D01*
X77275864Y-95936121D01*
X77275863Y-95936120D01*
X77264517Y-95927877D01*
X77249726Y-95915243D01*
X77239820Y-95905337D01*
X77239817Y-95905334D01*
X77239814Y-95905332D01*
X77239807Y-95905326D01*
X77182928Y-95868389D01*
X77177599Y-95864727D01*
X77122722Y-95824857D01*
X77109915Y-95819155D01*
X77092824Y-95809875D01*
X77081063Y-95802237D01*
X77081060Y-95802236D01*
X77017750Y-95777934D01*
X77011751Y-95775449D01*
X76949798Y-95747865D01*
X76949790Y-95747862D01*
X76936068Y-95744945D01*
X76917422Y-95739421D01*
X76904350Y-95734403D01*
X76904334Y-95734399D01*
X76837365Y-95723792D01*
X76830984Y-95722610D01*
X76819072Y-95720078D01*
X76764638Y-95708508D01*
X76764635Y-95708508D01*
X76750619Y-95708508D01*
X76731220Y-95706981D01*
X76717381Y-95704789D01*
X76717380Y-95704789D01*
X76675555Y-95706981D01*
X76649662Y-95708338D01*
X76643172Y-95708508D01*
X76575345Y-95708508D01*
X76561626Y-95711423D01*
X76542350Y-95713961D01*
X76528346Y-95714695D01*
X76528343Y-95714696D01*
X76462843Y-95732246D01*
X76456534Y-95733761D01*
X76390186Y-95747864D01*
X76390185Y-95747865D01*
X76377377Y-95753567D01*
X76359053Y-95760056D01*
X76345504Y-95763687D01*
X76345502Y-95763688D01*
X76285073Y-95794478D01*
X76279217Y-95797271D01*
X76217262Y-95824856D01*
X76205919Y-95833097D01*
X76189344Y-95843254D01*
X76176849Y-95849621D01*
X76176841Y-95849626D01*
X76124137Y-95892305D01*
X76118989Y-95896255D01*
X76064119Y-95936120D01*
X76064119Y-95936121D01*
X76018735Y-95986524D01*
X76014268Y-95991231D01*
X71894863Y-100110636D01*
X71880074Y-100123269D01*
X71868726Y-100131514D01*
X71823351Y-100181908D01*
X71818888Y-100186611D01*
X71804491Y-100201009D01*
X71804475Y-100201027D01*
X71791658Y-100216852D01*
X71787452Y-100221776D01*
X71742069Y-100272181D01*
X71742066Y-100272185D01*
X71735058Y-100284323D01*
X71724044Y-100300348D01*
X71715226Y-100311237D01*
X71715216Y-100311253D01*
X71684419Y-100371694D01*
X71681322Y-100377397D01*
X71647421Y-100436113D01*
X71643087Y-100449453D01*
X71635645Y-100467420D01*
X71629280Y-100479912D01*
X71611726Y-100545418D01*
X71609884Y-100551634D01*
X71588926Y-100616142D01*
X71588925Y-100616145D01*
X71587460Y-100630086D01*
X71583915Y-100649212D01*
X71580286Y-100662752D01*
X71576736Y-100730491D01*
X71576228Y-100736952D01*
X71574100Y-100757211D01*
X71574100Y-100777574D01*
X71573930Y-100784063D01*
X71570381Y-100851787D01*
X71572573Y-100865625D01*
X71574100Y-100885026D01*
X71574100Y-103470000D01*
X71554415Y-103537039D01*
X71501611Y-103582794D01*
X71450100Y-103594000D01*
X70507588Y-103594000D01*
X70440549Y-103574315D01*
X70436143Y-103571349D01*
X70411766Y-103554165D01*
X70402205Y-103547424D01*
X70289315Y-103489904D01*
X70277271Y-103483983D01*
X70276346Y-103483528D01*
X70268477Y-103481095D01*
X70203277Y-103460935D01*
X70138847Y-103441013D01*
X70138844Y-103441012D01*
X70138832Y-103441009D01*
X70013753Y-103421199D01*
X69999405Y-103419136D01*
X69855507Y-103421191D01*
X69730353Y-103441013D01*
X69716122Y-103443476D01*
X69579893Y-103489900D01*
X69466951Y-103547447D01*
X69454232Y-103554158D01*
X69454220Y-103554165D01*
X69442620Y-103562849D01*
X69434048Y-103569266D01*
X69368586Y-103593684D01*
X69359738Y-103594000D01*
X68085362Y-103594000D01*
X68018323Y-103574315D01*
X67997681Y-103557681D01*
X67526000Y-103086000D01*
X57036362Y-103086000D01*
X56969323Y-103066315D01*
X56948681Y-103049681D01*
X56640319Y-102741319D01*
X56606834Y-102679996D01*
X56604000Y-102653638D01*
X56604000Y-94500000D01*
X69744473Y-94500000D01*
X69764563Y-94832136D01*
X69764563Y-94832141D01*
X69764564Y-94832142D01*
X69824544Y-95159441D01*
X69824545Y-95159445D01*
X69824546Y-95159449D01*
X69923530Y-95477104D01*
X69923534Y-95477116D01*
X69923537Y-95477123D01*
X70060102Y-95780557D01*
X70223548Y-96050930D01*
X70232251Y-96065326D01*
X70437460Y-96327255D01*
X70672744Y-96562539D01*
X70934673Y-96767748D01*
X70934678Y-96767751D01*
X70934682Y-96767754D01*
X71219443Y-96939898D01*
X71522877Y-97076463D01*
X71522890Y-97076467D01*
X71522895Y-97076469D01*
X71691767Y-97129091D01*
X71840559Y-97175456D01*
X72167858Y-97235436D01*
X72416894Y-97250500D01*
X72416907Y-97250500D01*
X72583093Y-97250500D01*
X72583106Y-97250500D01*
X72832142Y-97235436D01*
X73159441Y-97175456D01*
X73477123Y-97076463D01*
X73780557Y-96939898D01*
X74065318Y-96767754D01*
X74069878Y-96764182D01*
X74177722Y-96679691D01*
X74327252Y-96562542D01*
X74562542Y-96327252D01*
X74712746Y-96135531D01*
X74767748Y-96065326D01*
X74767748Y-96065324D01*
X74767754Y-96065318D01*
X74939898Y-95780557D01*
X75076463Y-95477123D01*
X75175456Y-95159441D01*
X75235436Y-94832142D01*
X75255527Y-94500000D01*
X75235436Y-94167858D01*
X75175456Y-93840559D01*
X75112738Y-93639289D01*
X75076469Y-93522895D01*
X75076467Y-93522890D01*
X75076463Y-93522877D01*
X74939898Y-93219443D01*
X74767754Y-92934682D01*
X74767751Y-92934678D01*
X74767748Y-92934673D01*
X74562539Y-92672744D01*
X74327255Y-92437460D01*
X74065326Y-92232251D01*
X74065318Y-92232246D01*
X73780557Y-92060102D01*
X73477123Y-91923537D01*
X73477116Y-91923534D01*
X73477104Y-91923530D01*
X73159449Y-91824546D01*
X73159445Y-91824545D01*
X73159441Y-91824544D01*
X72832142Y-91764564D01*
X72832141Y-91764563D01*
X72832136Y-91764563D01*
X72583114Y-91749500D01*
X72583106Y-91749500D01*
X72416894Y-91749500D01*
X72416885Y-91749500D01*
X72167863Y-91764563D01*
X72104786Y-91776122D01*
X71840559Y-91824544D01*
X71840556Y-91824544D01*
X71840550Y-91824546D01*
X71522895Y-91923530D01*
X71522879Y-91923536D01*
X71522877Y-91923537D01*
X71499172Y-91934206D01*
X71219447Y-92060100D01*
X71219445Y-92060101D01*
X70934673Y-92232251D01*
X70672744Y-92437460D01*
X70437460Y-92672744D01*
X70232251Y-92934673D01*
X70181703Y-93018290D01*
X70060102Y-93219443D01*
X69962010Y-93437395D01*
X69923536Y-93522880D01*
X69923530Y-93522895D01*
X69824546Y-93840550D01*
X69824544Y-93840556D01*
X69824544Y-93840559D01*
X69791897Y-94018707D01*
X69764563Y-94167863D01*
X69744473Y-94500000D01*
X56604000Y-94500000D01*
X56604000Y-91529002D01*
X78794034Y-91529002D01*
X78813858Y-91755599D01*
X78813860Y-91755610D01*
X78872730Y-91975317D01*
X78872735Y-91975331D01*
X78968863Y-92181478D01*
X79019974Y-92254472D01*
X79701046Y-91573400D01*
X79713835Y-91654148D01*
X79771359Y-91767045D01*
X79860955Y-91856641D01*
X79973852Y-91914165D01*
X80054599Y-91926953D01*
X79373526Y-92608025D01*
X79446513Y-92659132D01*
X79446521Y-92659136D01*
X79652668Y-92755264D01*
X79652682Y-92755269D01*
X79872389Y-92814139D01*
X79872400Y-92814141D01*
X80098998Y-92833966D01*
X80099002Y-92833966D01*
X80325599Y-92814141D01*
X80325610Y-92814139D01*
X80545317Y-92755269D01*
X80545331Y-92755264D01*
X80751478Y-92659136D01*
X80824471Y-92608024D01*
X80143400Y-91926953D01*
X80224148Y-91914165D01*
X80337045Y-91856641D01*
X80426641Y-91767045D01*
X80484165Y-91654148D01*
X80496953Y-91573400D01*
X81178024Y-92254471D01*
X81229136Y-92181478D01*
X81325264Y-91975331D01*
X81325269Y-91975317D01*
X81384139Y-91755610D01*
X81384141Y-91755599D01*
X81403966Y-91529002D01*
X81403966Y-91528997D01*
X81384141Y-91302400D01*
X81384139Y-91302389D01*
X81325269Y-91082682D01*
X81325264Y-91082668D01*
X81229136Y-90876521D01*
X81229132Y-90876513D01*
X81178025Y-90803526D01*
X80496953Y-91484598D01*
X80484165Y-91403852D01*
X80426641Y-91290955D01*
X80337045Y-91201359D01*
X80224148Y-91143835D01*
X80143401Y-91131046D01*
X80829645Y-90444801D01*
X80839492Y-90395807D01*
X80888107Y-90345624D01*
X80943633Y-90330981D01*
X80943576Y-90329900D01*
X80943571Y-90329854D01*
X80943573Y-90329853D01*
X80943564Y-90329676D01*
X80946857Y-90329499D01*
X80946872Y-90329499D01*
X81006483Y-90323091D01*
X81141331Y-90272796D01*
X81256546Y-90186546D01*
X81342796Y-90071331D01*
X81393091Y-89936483D01*
X81399500Y-89876873D01*
X81399499Y-88181128D01*
X81393091Y-88121517D01*
X81384852Y-88099428D01*
X81342797Y-87986671D01*
X81342793Y-87986664D01*
X81256547Y-87871455D01*
X81256544Y-87871452D01*
X81141335Y-87785206D01*
X81141328Y-87785202D01*
X81006482Y-87734908D01*
X81006483Y-87734908D01*
X80946883Y-87728501D01*
X80946881Y-87728500D01*
X80946873Y-87728500D01*
X80946864Y-87728500D01*
X79251129Y-87728500D01*
X79251123Y-87728501D01*
X79191516Y-87734908D01*
X79056671Y-87785202D01*
X79056664Y-87785206D01*
X78941455Y-87871452D01*
X78941452Y-87871455D01*
X78855206Y-87986664D01*
X78855202Y-87986671D01*
X78804908Y-88121517D01*
X78801827Y-88150179D01*
X78798501Y-88181123D01*
X78798500Y-88181135D01*
X78798500Y-89876870D01*
X78798501Y-89876876D01*
X78804908Y-89936483D01*
X78855202Y-90071328D01*
X78855206Y-90071335D01*
X78941452Y-90186544D01*
X78941455Y-90186547D01*
X79056664Y-90272793D01*
X79056671Y-90272797D01*
X79101618Y-90289561D01*
X79191517Y-90323091D01*
X79251127Y-90329500D01*
X79251153Y-90329499D01*
X79254453Y-90329678D01*
X79254372Y-90331183D01*
X79315672Y-90349112D01*
X79361483Y-90401867D01*
X79369016Y-90445464D01*
X80054599Y-91131046D01*
X79973852Y-91143835D01*
X79860955Y-91201359D01*
X79771359Y-91290955D01*
X79713835Y-91403852D01*
X79701046Y-91484598D01*
X79019974Y-90803526D01*
X79019973Y-90803526D01*
X78968868Y-90876512D01*
X78968866Y-90876516D01*
X78872734Y-91082673D01*
X78872730Y-91082682D01*
X78813860Y-91302389D01*
X78813858Y-91302400D01*
X78794034Y-91528997D01*
X78794034Y-91529002D01*
X56604000Y-91529002D01*
X56604000Y-90894000D01*
X55969000Y-90259000D01*
X50686362Y-90259000D01*
X50619323Y-90239315D01*
X50598681Y-90222681D01*
X50290319Y-89914319D01*
X50256834Y-89852996D01*
X50254000Y-89826638D01*
X50254000Y-88471880D01*
X65602672Y-88471880D01*
X65718821Y-88543797D01*
X65718822Y-88543798D01*
X65926195Y-88624134D01*
X66144807Y-88665000D01*
X66367193Y-88665000D01*
X66585809Y-88624133D01*
X66793168Y-88543801D01*
X66793181Y-88543795D01*
X66909324Y-88471880D01*
X68142672Y-88471880D01*
X68258821Y-88543797D01*
X68258822Y-88543798D01*
X68466195Y-88624134D01*
X68684807Y-88665000D01*
X68907193Y-88665000D01*
X69125809Y-88624133D01*
X69333168Y-88543801D01*
X69333181Y-88543795D01*
X69449324Y-88471880D01*
X70682672Y-88471880D01*
X70798821Y-88543797D01*
X70798822Y-88543798D01*
X71006195Y-88624134D01*
X71224807Y-88665000D01*
X71447193Y-88665000D01*
X71665809Y-88624133D01*
X71873168Y-88543801D01*
X71873181Y-88543795D01*
X71989324Y-88471880D01*
X73222672Y-88471880D01*
X73338821Y-88543797D01*
X73338822Y-88543798D01*
X73546195Y-88624134D01*
X73764807Y-88665000D01*
X73987193Y-88665000D01*
X74205809Y-88624133D01*
X74413168Y-88543801D01*
X74413181Y-88543795D01*
X74529324Y-88471880D01*
X75762672Y-88471880D01*
X75878821Y-88543797D01*
X75878822Y-88543798D01*
X76086195Y-88624134D01*
X76304807Y-88665000D01*
X76527193Y-88665000D01*
X76745809Y-88624133D01*
X76953168Y-88543801D01*
X76953181Y-88543795D01*
X77069326Y-88471879D01*
X76416001Y-87818553D01*
X76416000Y-87818553D01*
X75762672Y-88471879D01*
X75762672Y-88471880D01*
X74529324Y-88471880D01*
X74529326Y-88471879D01*
X73876001Y-87818553D01*
X73876000Y-87818553D01*
X73222672Y-88471879D01*
X73222672Y-88471880D01*
X71989324Y-88471880D01*
X71989326Y-88471879D01*
X71336001Y-87818553D01*
X71336000Y-87818553D01*
X70682672Y-88471879D01*
X70682672Y-88471880D01*
X69449324Y-88471880D01*
X69449326Y-88471879D01*
X68796001Y-87818553D01*
X68796000Y-87818553D01*
X68142672Y-88471879D01*
X68142672Y-88471880D01*
X66909324Y-88471880D01*
X66909326Y-88471879D01*
X66256001Y-87818553D01*
X66256000Y-87818553D01*
X65602672Y-88471879D01*
X65602672Y-88471880D01*
X50254000Y-88471880D01*
X50254000Y-63335000D01*
X82241540Y-63335000D01*
X82261326Y-63523256D01*
X82261327Y-63523259D01*
X82319818Y-63703277D01*
X82319821Y-63703284D01*
X82414467Y-63867216D01*
X82541129Y-64007888D01*
X82694265Y-64119148D01*
X82694270Y-64119151D01*
X82867192Y-64196142D01*
X82867197Y-64196144D01*
X83052354Y-64235500D01*
X83052355Y-64235500D01*
X83241644Y-64235500D01*
X83241646Y-64235500D01*
X83426803Y-64196144D01*
X83599730Y-64119151D01*
X83752871Y-64007888D01*
X83879533Y-63867216D01*
X83974179Y-63703284D01*
X84032674Y-63523256D01*
X84050321Y-63355344D01*
X84076904Y-63290734D01*
X84085951Y-63280638D01*
X86417772Y-60948819D01*
X86479095Y-60915334D01*
X86505453Y-60912500D01*
X93088552Y-60912500D01*
X93155591Y-60932185D01*
X93180700Y-60953526D01*
X93186426Y-60959885D01*
X93186430Y-60959889D01*
X93339565Y-61071148D01*
X93339570Y-61071151D01*
X93512492Y-61148142D01*
X93512497Y-61148144D01*
X93697654Y-61187500D01*
X93697655Y-61187500D01*
X93886944Y-61187500D01*
X93886946Y-61187500D01*
X94072103Y-61148144D01*
X94245030Y-61071151D01*
X94398171Y-60959888D01*
X94524833Y-60819216D01*
X94619479Y-60655284D01*
X94677974Y-60475256D01*
X94697760Y-60287000D01*
X94677974Y-60098744D01*
X94619479Y-59918716D01*
X94524833Y-59754784D01*
X94398171Y-59614112D01*
X94398170Y-59614111D01*
X94245034Y-59502851D01*
X94245029Y-59502848D01*
X94072107Y-59425857D01*
X94072102Y-59425855D01*
X93926301Y-59394865D01*
X93886946Y-59386500D01*
X93697654Y-59386500D01*
X93665197Y-59393398D01*
X93512497Y-59425855D01*
X93512492Y-59425857D01*
X93339570Y-59502848D01*
X93339565Y-59502851D01*
X93186430Y-59614110D01*
X93186426Y-59614114D01*
X93180700Y-59620474D01*
X93121213Y-59657121D01*
X93088552Y-59661500D01*
X86277743Y-59661500D01*
X86262122Y-59659775D01*
X86262096Y-59660061D01*
X86254334Y-59659327D01*
X86254333Y-59659327D01*
X86192109Y-59661282D01*
X86187127Y-59661439D01*
X86183232Y-59661500D01*
X86155647Y-59661500D01*
X86151661Y-59662003D01*
X86140033Y-59662918D01*
X86096373Y-59664290D01*
X86077129Y-59669881D01*
X86058079Y-59673825D01*
X86038211Y-59676334D01*
X86038210Y-59676334D01*
X85997599Y-59692413D01*
X85986554Y-59696194D01*
X85944614Y-59708379D01*
X85944610Y-59708381D01*
X85927366Y-59718579D01*
X85909905Y-59727133D01*
X85891274Y-59734510D01*
X85891262Y-59734517D01*
X85855933Y-59760185D01*
X85846173Y-59766596D01*
X85808580Y-59788829D01*
X85794414Y-59802995D01*
X85779624Y-59815627D01*
X85763414Y-59827404D01*
X85763411Y-59827407D01*
X85735573Y-59861058D01*
X85727711Y-59869697D01*
X83199228Y-62398181D01*
X83137905Y-62431666D01*
X83111547Y-62434500D01*
X83052354Y-62434500D01*
X83019897Y-62441398D01*
X82867197Y-62473855D01*
X82867192Y-62473857D01*
X82694270Y-62550848D01*
X82694265Y-62550851D01*
X82541129Y-62662111D01*
X82414466Y-62802785D01*
X82319821Y-62966715D01*
X82319818Y-62966722D01*
X82289039Y-63061452D01*
X82261326Y-63146744D01*
X82241540Y-63335000D01*
X50254000Y-63335000D01*
X50254000Y-51067362D01*
X50273685Y-51000323D01*
X50290319Y-50979681D01*
X50852752Y-50417247D01*
X50914073Y-50383764D01*
X50940257Y-50380930D01*
X144548529Y-50254090D01*
X144615595Y-50273684D01*
G37*
G04 #@! TD.AperFunction*
G04 #@! TA.AperFunction,Conductor*
G36*
X95406865Y-70990348D02*
G01*
X95451382Y-71041725D01*
X95478429Y-71099728D01*
X95478432Y-71099734D01*
X95608954Y-71286141D01*
X95769858Y-71447045D01*
X95769861Y-71447047D01*
X95956266Y-71577568D01*
X96162504Y-71673739D01*
X96162509Y-71673740D01*
X96162511Y-71673741D01*
X96201743Y-71684253D01*
X96382308Y-71732635D01*
X96539780Y-71746412D01*
X96608998Y-71752468D01*
X96609000Y-71752468D01*
X96609002Y-71752468D01*
X96665807Y-71747498D01*
X96835692Y-71732635D01*
X96957808Y-71699914D01*
X97027656Y-71701577D01*
X97085519Y-71740739D01*
X97113023Y-71804968D01*
X97113900Y-71819689D01*
X97113900Y-95041146D01*
X97094215Y-95108185D01*
X97077581Y-95128827D01*
X89870808Y-102335599D01*
X89858551Y-102345420D01*
X89858734Y-102345641D01*
X89852722Y-102350614D01*
X89806698Y-102399623D01*
X89803991Y-102402416D01*
X89784489Y-102421917D01*
X89784475Y-102421934D01*
X89782007Y-102425115D01*
X89774443Y-102433970D01*
X89744537Y-102465818D01*
X89744536Y-102465820D01*
X89734884Y-102483376D01*
X89724210Y-102499626D01*
X89711929Y-102515461D01*
X89711924Y-102515468D01*
X89694575Y-102555558D01*
X89689438Y-102566044D01*
X89668403Y-102604306D01*
X89663422Y-102623707D01*
X89657121Y-102642110D01*
X89649162Y-102660502D01*
X89649161Y-102660505D01*
X89642328Y-102703643D01*
X89639960Y-102715074D01*
X89629101Y-102757371D01*
X89629100Y-102757382D01*
X89629100Y-102777416D01*
X89627573Y-102796815D01*
X89624440Y-102816594D01*
X89624440Y-102816595D01*
X89628550Y-102860074D01*
X89629100Y-102871743D01*
X89629100Y-103470000D01*
X89609415Y-103537039D01*
X89556611Y-103582794D01*
X89505100Y-103594000D01*
X88464100Y-103594000D01*
X88397061Y-103574315D01*
X88351306Y-103521511D01*
X88340100Y-103470000D01*
X88340100Y-75851844D01*
X88342297Y-75828606D01*
X88343827Y-75820586D01*
X88340345Y-75765241D01*
X88340100Y-75757455D01*
X88340100Y-75206852D01*
X88359785Y-75139813D01*
X88376419Y-75119171D01*
X92386772Y-71108819D01*
X92448095Y-71075334D01*
X92474453Y-71072500D01*
X92854812Y-71072500D01*
X92921851Y-71092185D01*
X92956387Y-71125377D01*
X93068954Y-71286141D01*
X93229858Y-71447045D01*
X93229861Y-71447047D01*
X93416266Y-71577568D01*
X93622504Y-71673739D01*
X93622509Y-71673740D01*
X93622511Y-71673741D01*
X93661743Y-71684253D01*
X93842308Y-71732635D01*
X93999780Y-71746412D01*
X94068998Y-71752468D01*
X94069000Y-71752468D01*
X94069002Y-71752468D01*
X94125807Y-71747498D01*
X94295692Y-71732635D01*
X94515496Y-71673739D01*
X94721734Y-71577568D01*
X94908139Y-71447047D01*
X95069047Y-71286139D01*
X95199568Y-71099734D01*
X95226618Y-71041724D01*
X95272790Y-70989285D01*
X95339983Y-70970133D01*
X95406865Y-70990348D01*
G37*
G04 #@! TD.AperFunction*
G04 #@! TA.AperFunction,Conductor*
G36*
X134832000Y-90267872D02*
G01*
X135028317Y-90215269D01*
X135028326Y-90215265D01*
X135234482Y-90119134D01*
X135420820Y-89988657D01*
X135581657Y-89827820D01*
X135712132Y-89641484D01*
X135739341Y-89583134D01*
X135785513Y-89530695D01*
X135852707Y-89511542D01*
X135919588Y-89531757D01*
X135964106Y-89583133D01*
X135991431Y-89641732D01*
X135991432Y-89641734D01*
X136121954Y-89828141D01*
X136282858Y-89989045D01*
X136282861Y-89989047D01*
X136469266Y-90119568D01*
X136592184Y-90176886D01*
X136644622Y-90223057D01*
X136663774Y-90290251D01*
X136643558Y-90357132D01*
X136627459Y-90376948D01*
X135756228Y-91248181D01*
X135694905Y-91281666D01*
X135668547Y-91284500D01*
X131602748Y-91284500D01*
X131535709Y-91264815D01*
X131510600Y-91243474D01*
X131504873Y-91237114D01*
X131504869Y-91237110D01*
X131351734Y-91125851D01*
X131351729Y-91125848D01*
X131178807Y-91048857D01*
X131178802Y-91048855D01*
X131033001Y-91017865D01*
X130993646Y-91009500D01*
X130804354Y-91009500D01*
X130771897Y-91016398D01*
X130619197Y-91048855D01*
X130619192Y-91048857D01*
X130446270Y-91125848D01*
X130446265Y-91125851D01*
X130293129Y-91237111D01*
X130166466Y-91377785D01*
X130071821Y-91541715D01*
X130071818Y-91541722D01*
X130035289Y-91654148D01*
X130013326Y-91721744D01*
X129993540Y-91910000D01*
X130013326Y-92098256D01*
X130013327Y-92098259D01*
X130071818Y-92278277D01*
X130071821Y-92278284D01*
X130166467Y-92442216D01*
X130260995Y-92547200D01*
X130293129Y-92582888D01*
X130446265Y-92694148D01*
X130446267Y-92694149D01*
X130446270Y-92694151D01*
X130455412Y-92698221D01*
X130508649Y-92743472D01*
X130528969Y-92810322D01*
X130509923Y-92877545D01*
X130457556Y-92923800D01*
X130404975Y-92935500D01*
X126501937Y-92935500D01*
X126486320Y-92933776D01*
X126486293Y-92934062D01*
X126478531Y-92933327D01*
X126411344Y-92935439D01*
X126407450Y-92935500D01*
X126379850Y-92935500D01*
X126376162Y-92935965D01*
X126375849Y-92936005D01*
X126364231Y-92936918D01*
X126320577Y-92938290D01*
X126320567Y-92938292D01*
X126301334Y-92943879D01*
X126282294Y-92947822D01*
X126262417Y-92950334D01*
X126262410Y-92950335D01*
X126262408Y-92950336D01*
X126262406Y-92950336D01*
X126262405Y-92950337D01*
X126221784Y-92966419D01*
X126210737Y-92970201D01*
X126168811Y-92982382D01*
X126168808Y-92982383D01*
X126151563Y-92992581D01*
X126134101Y-93001135D01*
X126115472Y-93008511D01*
X126115467Y-93008514D01*
X126080126Y-93034189D01*
X126070368Y-93040599D01*
X126032780Y-93062828D01*
X126018608Y-93077000D01*
X126003823Y-93089628D01*
X125987612Y-93101407D01*
X125959771Y-93135059D01*
X125951911Y-93143696D01*
X115711436Y-103384171D01*
X115650113Y-103417656D01*
X115625526Y-103420477D01*
X115575507Y-103421191D01*
X115450353Y-103441013D01*
X115436122Y-103443476D01*
X115299893Y-103489900D01*
X115186951Y-103547447D01*
X115174232Y-103554158D01*
X115174220Y-103554165D01*
X115162620Y-103562849D01*
X115154048Y-103569266D01*
X115088586Y-103593684D01*
X115079738Y-103594000D01*
X113687588Y-103594000D01*
X113620549Y-103574315D01*
X113616143Y-103571349D01*
X113591766Y-103554165D01*
X113582205Y-103547424D01*
X113469315Y-103489904D01*
X113457271Y-103483983D01*
X113456346Y-103483528D01*
X113448477Y-103481095D01*
X113383277Y-103460935D01*
X113318847Y-103441013D01*
X113318844Y-103441012D01*
X113318832Y-103441009D01*
X113193753Y-103421199D01*
X113179405Y-103419136D01*
X113035507Y-103421191D01*
X112910353Y-103441013D01*
X112896122Y-103443476D01*
X112759893Y-103489900D01*
X112646951Y-103547447D01*
X112634232Y-103554158D01*
X112634220Y-103554165D01*
X112622620Y-103562849D01*
X112614048Y-103569266D01*
X112548586Y-103593684D01*
X112539738Y-103594000D01*
X111324100Y-103594000D01*
X111257061Y-103574315D01*
X111211306Y-103521511D01*
X111200100Y-103470000D01*
X111200100Y-99284500D01*
X111219785Y-99217461D01*
X111272589Y-99171706D01*
X111324100Y-99160500D01*
X111435644Y-99160500D01*
X111435646Y-99160500D01*
X111620803Y-99121144D01*
X111793730Y-99044151D01*
X111946871Y-98932888D01*
X112073533Y-98792216D01*
X112168179Y-98628284D01*
X112226674Y-98448256D01*
X112246460Y-98260000D01*
X112234964Y-98150624D01*
X112247533Y-98081897D01*
X112295265Y-98030873D01*
X112363006Y-98013755D01*
X112384054Y-98016373D01*
X112389354Y-98017500D01*
X112389360Y-98017500D01*
X112578644Y-98017500D01*
X112578646Y-98017500D01*
X112763803Y-97978144D01*
X112936730Y-97901151D01*
X113089871Y-97789888D01*
X113216533Y-97649216D01*
X113311179Y-97485284D01*
X113369674Y-97305256D01*
X113387321Y-97137345D01*
X113413905Y-97072732D01*
X113422952Y-97062636D01*
X116779488Y-93706101D01*
X116791742Y-93696286D01*
X116791559Y-93696064D01*
X116797568Y-93691091D01*
X116797577Y-93691086D01*
X116843649Y-93642022D01*
X116846266Y-93639323D01*
X116865820Y-93619771D01*
X116868276Y-93616603D01*
X116875856Y-93607727D01*
X116905762Y-93575882D01*
X116915413Y-93558324D01*
X116926096Y-93542061D01*
X116938373Y-93526236D01*
X116955721Y-93486144D01*
X116960851Y-93475671D01*
X116981897Y-93437392D01*
X116986880Y-93417980D01*
X116993181Y-93399580D01*
X117001137Y-93381196D01*
X117007970Y-93338048D01*
X117010333Y-93326638D01*
X117021200Y-93284319D01*
X117021200Y-93264283D01*
X117022727Y-93244882D01*
X117022971Y-93243342D01*
X117025860Y-93225104D01*
X117021750Y-93181624D01*
X117021200Y-93169955D01*
X117021200Y-92426490D01*
X117040885Y-92359451D01*
X117093689Y-92313696D01*
X117145200Y-92302490D01*
X117335644Y-92302490D01*
X117335646Y-92302490D01*
X117520803Y-92263134D01*
X117693730Y-92186141D01*
X117846871Y-92074878D01*
X117973533Y-91934206D01*
X118068179Y-91770274D01*
X118126674Y-91590246D01*
X118146460Y-91401990D01*
X118126674Y-91213734D01*
X118068179Y-91033706D01*
X117973533Y-90869774D01*
X117968561Y-90864252D01*
X117898350Y-90786274D01*
X117868120Y-90723282D01*
X117866500Y-90703302D01*
X117866500Y-89448982D01*
X117886185Y-89381943D01*
X117938989Y-89336188D01*
X118008147Y-89326244D01*
X118071703Y-89355269D01*
X118109477Y-89414047D01*
X118110275Y-89416889D01*
X118115258Y-89435488D01*
X118115261Y-89435497D01*
X118211431Y-89641732D01*
X118211432Y-89641734D01*
X118341954Y-89828141D01*
X118502858Y-89989045D01*
X118502861Y-89989047D01*
X118689266Y-90119568D01*
X118895504Y-90215739D01*
X119115308Y-90274635D01*
X119277230Y-90288801D01*
X119341998Y-90294468D01*
X119342000Y-90294468D01*
X119342002Y-90294468D01*
X119398673Y-90289509D01*
X119568692Y-90274635D01*
X119788496Y-90215739D01*
X119994734Y-90119568D01*
X120181139Y-89989047D01*
X120342047Y-89828139D01*
X120472568Y-89641734D01*
X120499618Y-89583724D01*
X120545790Y-89531285D01*
X120612983Y-89512133D01*
X120679865Y-89532348D01*
X120724382Y-89583725D01*
X120751429Y-89641728D01*
X120751432Y-89641734D01*
X120881954Y-89828141D01*
X121042858Y-89989045D01*
X121042861Y-89989047D01*
X121229266Y-90119568D01*
X121435504Y-90215739D01*
X121655308Y-90274635D01*
X121817230Y-90288801D01*
X121881998Y-90294468D01*
X121882000Y-90294468D01*
X121882002Y-90294468D01*
X121938673Y-90289509D01*
X122108692Y-90274635D01*
X122328496Y-90215739D01*
X122534734Y-90119568D01*
X122721139Y-89989047D01*
X122882047Y-89828139D01*
X123012568Y-89641734D01*
X123039618Y-89583724D01*
X123085790Y-89531285D01*
X123152983Y-89512133D01*
X123219865Y-89532348D01*
X123264382Y-89583725D01*
X123291429Y-89641728D01*
X123291432Y-89641734D01*
X123421954Y-89828141D01*
X123582858Y-89989045D01*
X123582861Y-89989047D01*
X123769266Y-90119568D01*
X123975504Y-90215739D01*
X124195308Y-90274635D01*
X124357230Y-90288801D01*
X124421998Y-90294468D01*
X124422000Y-90294468D01*
X124422002Y-90294468D01*
X124478673Y-90289509D01*
X124648692Y-90274635D01*
X124868496Y-90215739D01*
X125074734Y-90119568D01*
X125261139Y-89989047D01*
X125422047Y-89828139D01*
X125552568Y-89641734D01*
X125579618Y-89583724D01*
X125625790Y-89531285D01*
X125692983Y-89512133D01*
X125759865Y-89532348D01*
X125804382Y-89583725D01*
X125831429Y-89641728D01*
X125831432Y-89641734D01*
X125961954Y-89828141D01*
X126122858Y-89989045D01*
X126122861Y-89989047D01*
X126309266Y-90119568D01*
X126515504Y-90215739D01*
X126735308Y-90274635D01*
X126897230Y-90288801D01*
X126961998Y-90294468D01*
X126962000Y-90294468D01*
X126962002Y-90294468D01*
X127018673Y-90289509D01*
X127188692Y-90274635D01*
X127408496Y-90215739D01*
X127614734Y-90119568D01*
X127801139Y-89989047D01*
X127962047Y-89828139D01*
X128092568Y-89641734D01*
X128119895Y-89583129D01*
X128166064Y-89530695D01*
X128233257Y-89511542D01*
X128300139Y-89531757D01*
X128344657Y-89583133D01*
X128371865Y-89641482D01*
X128502342Y-89827820D01*
X128663179Y-89988657D01*
X128849517Y-90119134D01*
X129055673Y-90215265D01*
X129055682Y-90215269D01*
X129251999Y-90267872D01*
X129252000Y-90267871D01*
X129252000Y-89304686D01*
X129263955Y-89316641D01*
X129376852Y-89374165D01*
X129470519Y-89389000D01*
X129533481Y-89389000D01*
X129627148Y-89374165D01*
X129740045Y-89316641D01*
X129752000Y-89304686D01*
X129752000Y-90267872D01*
X129948317Y-90215269D01*
X129948326Y-90215265D01*
X130154482Y-90119134D01*
X130340820Y-89988657D01*
X130501657Y-89827820D01*
X130632134Y-89641481D01*
X130632135Y-89641479D01*
X130659618Y-89582543D01*
X130705790Y-89530103D01*
X130772983Y-89510951D01*
X130839864Y-89531166D01*
X130884382Y-89582543D01*
X130911864Y-89641479D01*
X130911865Y-89641481D01*
X131042342Y-89827820D01*
X131203179Y-89988657D01*
X131389517Y-90119134D01*
X131595673Y-90215265D01*
X131595682Y-90215269D01*
X131791999Y-90267872D01*
X131792000Y-90267871D01*
X131792000Y-89304686D01*
X131803955Y-89316641D01*
X131916852Y-89374165D01*
X132010519Y-89389000D01*
X132073481Y-89389000D01*
X132167148Y-89374165D01*
X132280045Y-89316641D01*
X132292000Y-89304686D01*
X132292000Y-90267872D01*
X132488317Y-90215269D01*
X132488326Y-90215265D01*
X132694482Y-90119134D01*
X132880820Y-89988657D01*
X133041657Y-89827820D01*
X133172134Y-89641481D01*
X133172135Y-89641479D01*
X133199618Y-89582543D01*
X133245790Y-89530103D01*
X133312983Y-89510951D01*
X133379864Y-89531166D01*
X133424382Y-89582543D01*
X133451864Y-89641479D01*
X133451865Y-89641481D01*
X133582342Y-89827820D01*
X133743179Y-89988657D01*
X133929517Y-90119134D01*
X134135673Y-90215265D01*
X134135682Y-90215269D01*
X134331999Y-90267872D01*
X134332000Y-90267871D01*
X134332000Y-89304686D01*
X134343955Y-89316641D01*
X134456852Y-89374165D01*
X134550519Y-89389000D01*
X134613481Y-89389000D01*
X134707148Y-89374165D01*
X134820045Y-89316641D01*
X134832000Y-89304686D01*
X134832000Y-90267872D01*
G37*
G04 #@! TD.AperFunction*
G04 #@! TA.AperFunction,Conductor*
G36*
X142136812Y-53439185D02*
G01*
X142171348Y-53472377D01*
X142306501Y-53665396D01*
X142306506Y-53665402D01*
X142473597Y-53832493D01*
X142473603Y-53832498D01*
X142659158Y-53962425D01*
X142702783Y-54017002D01*
X142709977Y-54086500D01*
X142678454Y-54148855D01*
X142659158Y-54165575D01*
X142473597Y-54295505D01*
X142306505Y-54462597D01*
X142170965Y-54656169D01*
X142170964Y-54656171D01*
X142071098Y-54870335D01*
X142071094Y-54870344D01*
X142009938Y-55098586D01*
X142009936Y-55098596D01*
X141989341Y-55333999D01*
X141989341Y-55334000D01*
X142009936Y-55569403D01*
X142009938Y-55569413D01*
X142071094Y-55797655D01*
X142071096Y-55797659D01*
X142071097Y-55797663D01*
X142100675Y-55861092D01*
X142170965Y-56011830D01*
X142170967Y-56011834D01*
X142206422Y-56062468D01*
X142306501Y-56205396D01*
X142306506Y-56205402D01*
X142428430Y-56327326D01*
X142461915Y-56388649D01*
X142456931Y-56458341D01*
X142415059Y-56514274D01*
X142384083Y-56531189D01*
X142252669Y-56580203D01*
X142252664Y-56580206D01*
X142137455Y-56666452D01*
X142137452Y-56666455D01*
X142051206Y-56781664D01*
X142051202Y-56781671D01*
X142000908Y-56916517D01*
X141994501Y-56976116D01*
X141994500Y-56976135D01*
X141994500Y-58771870D01*
X141994501Y-58771876D01*
X142000908Y-58831483D01*
X142051202Y-58966328D01*
X142051206Y-58966335D01*
X142137452Y-59081544D01*
X142137455Y-59081547D01*
X142252664Y-59167793D01*
X142252671Y-59167797D01*
X142387517Y-59218091D01*
X142387516Y-59218091D01*
X142394444Y-59218835D01*
X142447127Y-59224500D01*
X144242872Y-59224499D01*
X144302483Y-59218091D01*
X144437331Y-59167796D01*
X144552546Y-59081546D01*
X144604699Y-59011879D01*
X144644112Y-58959231D01*
X144646382Y-58960930D01*
X144685565Y-58921743D01*
X144753837Y-58906886D01*
X144819303Y-58931298D01*
X144861179Y-58987229D01*
X144869000Y-59030571D01*
X144869000Y-102399638D01*
X144849315Y-102466677D01*
X144832681Y-102487319D01*
X144397319Y-102922681D01*
X144335996Y-102956166D01*
X144309638Y-102959000D01*
X133311999Y-102959000D01*
X132713319Y-103557681D01*
X132651996Y-103591166D01*
X132625638Y-103594000D01*
X131467588Y-103594000D01*
X131400549Y-103574315D01*
X131396143Y-103571349D01*
X131371766Y-103554165D01*
X131362205Y-103547424D01*
X131249315Y-103489904D01*
X131237271Y-103483983D01*
X131236346Y-103483528D01*
X131228477Y-103481095D01*
X131163277Y-103460935D01*
X131098847Y-103441013D01*
X131098844Y-103441012D01*
X131098832Y-103441009D01*
X130973753Y-103421199D01*
X130959405Y-103419136D01*
X130815507Y-103421191D01*
X130690353Y-103441013D01*
X130676122Y-103443476D01*
X130539893Y-103489900D01*
X130426951Y-103547447D01*
X130414232Y-103554158D01*
X130414220Y-103554165D01*
X130402620Y-103562849D01*
X130394048Y-103569266D01*
X130328586Y-103593684D01*
X130319738Y-103594000D01*
X128927588Y-103594000D01*
X128860549Y-103574315D01*
X128856143Y-103571349D01*
X128831766Y-103554165D01*
X128822205Y-103547424D01*
X128709315Y-103489904D01*
X128697271Y-103483983D01*
X128696346Y-103483528D01*
X128688477Y-103481095D01*
X128623277Y-103460935D01*
X128558847Y-103441013D01*
X128558844Y-103441012D01*
X128558832Y-103441009D01*
X128433753Y-103421199D01*
X128419405Y-103419136D01*
X128275507Y-103421191D01*
X128150353Y-103441013D01*
X128136122Y-103443476D01*
X127999893Y-103489900D01*
X127886951Y-103547447D01*
X127874232Y-103554158D01*
X127874220Y-103554165D01*
X127862620Y-103562849D01*
X127854048Y-103569266D01*
X127788586Y-103593684D01*
X127779738Y-103594000D01*
X126387588Y-103594000D01*
X126320549Y-103574315D01*
X126316143Y-103571349D01*
X126291766Y-103554165D01*
X126282205Y-103547424D01*
X126169315Y-103489904D01*
X126157271Y-103483983D01*
X126156346Y-103483528D01*
X126148477Y-103481095D01*
X126083277Y-103460935D01*
X126018847Y-103441013D01*
X126018844Y-103441012D01*
X126018832Y-103441009D01*
X125893753Y-103421199D01*
X125879405Y-103419136D01*
X125735507Y-103421191D01*
X125610353Y-103441013D01*
X125596122Y-103443476D01*
X125459893Y-103489900D01*
X125346951Y-103547447D01*
X125334232Y-103554158D01*
X125334220Y-103554165D01*
X125322620Y-103562849D01*
X125314048Y-103569266D01*
X125248586Y-103593684D01*
X125239738Y-103594000D01*
X123847588Y-103594000D01*
X123780549Y-103574315D01*
X123776143Y-103571349D01*
X123751766Y-103554165D01*
X123742205Y-103547424D01*
X123629315Y-103489904D01*
X123617271Y-103483983D01*
X123616346Y-103483528D01*
X123608477Y-103481095D01*
X123543277Y-103460935D01*
X123478847Y-103441013D01*
X123478844Y-103441012D01*
X123478832Y-103441009D01*
X123353753Y-103421199D01*
X123339405Y-103419136D01*
X123195507Y-103421191D01*
X123070353Y-103441013D01*
X123056122Y-103443476D01*
X122919893Y-103489900D01*
X122806951Y-103547447D01*
X122794232Y-103554158D01*
X122794220Y-103554165D01*
X122782620Y-103562849D01*
X122774048Y-103569266D01*
X122708586Y-103593684D01*
X122699738Y-103594000D01*
X121307588Y-103594000D01*
X121240549Y-103574315D01*
X121236143Y-103571349D01*
X121211766Y-103554165D01*
X121202205Y-103547424D01*
X121089315Y-103489904D01*
X121077271Y-103483983D01*
X121076346Y-103483528D01*
X121068477Y-103481095D01*
X121003277Y-103460935D01*
X120938847Y-103441013D01*
X120938844Y-103441012D01*
X120938832Y-103441009D01*
X120813753Y-103421199D01*
X120799405Y-103419136D01*
X120655507Y-103421191D01*
X120530353Y-103441013D01*
X120516122Y-103443476D01*
X120379893Y-103489900D01*
X120266951Y-103547447D01*
X120254232Y-103554158D01*
X120254220Y-103554165D01*
X120242620Y-103562849D01*
X120234048Y-103569266D01*
X120168586Y-103593684D01*
X120159738Y-103594000D01*
X118767588Y-103594000D01*
X118700549Y-103574315D01*
X118696143Y-103571349D01*
X118671766Y-103554165D01*
X118662205Y-103547424D01*
X118549315Y-103489904D01*
X118537271Y-103483983D01*
X118536346Y-103483528D01*
X118528477Y-103481095D01*
X118463277Y-103460935D01*
X118398847Y-103441013D01*
X118398844Y-103441012D01*
X118398832Y-103441009D01*
X118273753Y-103421199D01*
X118259405Y-103419136D01*
X118115507Y-103421191D01*
X117990353Y-103441013D01*
X117976122Y-103443476D01*
X117839893Y-103489900D01*
X117726951Y-103547447D01*
X117714232Y-103554158D01*
X117714220Y-103554165D01*
X117702620Y-103562849D01*
X117694048Y-103569266D01*
X117628586Y-103593684D01*
X117619738Y-103594000D01*
X117570152Y-103594000D01*
X117503113Y-103574315D01*
X117457358Y-103521511D01*
X117447414Y-103452353D01*
X117476439Y-103388797D01*
X117482471Y-103382319D01*
X121411791Y-99453000D01*
X125624473Y-99453000D01*
X125644563Y-99785136D01*
X125644563Y-99785141D01*
X125644564Y-99785142D01*
X125704544Y-100112441D01*
X125704545Y-100112445D01*
X125704546Y-100112449D01*
X125803530Y-100430104D01*
X125803534Y-100430116D01*
X125803537Y-100430123D01*
X125940102Y-100733557D01*
X126112246Y-101018318D01*
X126112251Y-101018326D01*
X126317460Y-101280255D01*
X126552744Y-101515539D01*
X126814673Y-101720748D01*
X126814678Y-101720751D01*
X126814682Y-101720754D01*
X127099443Y-101892898D01*
X127402877Y-102029463D01*
X127402890Y-102029467D01*
X127402895Y-102029469D01*
X127614665Y-102095458D01*
X127720559Y-102128456D01*
X128047858Y-102188436D01*
X128296894Y-102203500D01*
X128296907Y-102203500D01*
X128463093Y-102203500D01*
X128463106Y-102203500D01*
X128712142Y-102188436D01*
X129039441Y-102128456D01*
X129357123Y-102029463D01*
X129660557Y-101892898D01*
X129945318Y-101720754D01*
X130207252Y-101515542D01*
X130442542Y-101280252D01*
X130602844Y-101075641D01*
X130647748Y-101018326D01*
X130647748Y-101018324D01*
X130647754Y-101018318D01*
X130819898Y-100733557D01*
X130956463Y-100430123D01*
X131055456Y-100112441D01*
X131115436Y-99785142D01*
X131135527Y-99453000D01*
X131115436Y-99120858D01*
X131055456Y-98793559D01*
X131003955Y-98628284D01*
X130956469Y-98475895D01*
X130956467Y-98475890D01*
X130956463Y-98475877D01*
X130819898Y-98172443D01*
X130647754Y-97887682D01*
X130647751Y-97887678D01*
X130647748Y-97887673D01*
X130442539Y-97625744D01*
X130207255Y-97390460D01*
X129945326Y-97185251D01*
X129929118Y-97175453D01*
X129660557Y-97013102D01*
X129357123Y-96876537D01*
X129357116Y-96876534D01*
X129357104Y-96876530D01*
X129039449Y-96777546D01*
X129039445Y-96777545D01*
X129039441Y-96777544D01*
X128712142Y-96717564D01*
X128712141Y-96717563D01*
X128712136Y-96717563D01*
X128463114Y-96702500D01*
X128463106Y-96702500D01*
X128296894Y-96702500D01*
X128296885Y-96702500D01*
X128047863Y-96717563D01*
X128047858Y-96717564D01*
X127720559Y-96777544D01*
X127720556Y-96777544D01*
X127720550Y-96777546D01*
X127402895Y-96876530D01*
X127402879Y-96876536D01*
X127402877Y-96876537D01*
X127099443Y-97013102D01*
X127052105Y-97041719D01*
X126814673Y-97185251D01*
X126552744Y-97390460D01*
X126317460Y-97625744D01*
X126112251Y-97887673D01*
X126095821Y-97914852D01*
X125940102Y-98172443D01*
X125815969Y-98448256D01*
X125803536Y-98475880D01*
X125803530Y-98475895D01*
X125704546Y-98793550D01*
X125644563Y-99120863D01*
X125624473Y-99453000D01*
X121411791Y-99453000D01*
X121647330Y-99217461D01*
X126641972Y-94222819D01*
X126703295Y-94189334D01*
X126729653Y-94186500D01*
X134640252Y-94186500D01*
X134707291Y-94206185D01*
X134732400Y-94227526D01*
X134738126Y-94233885D01*
X134738130Y-94233889D01*
X134891265Y-94345148D01*
X134891270Y-94345151D01*
X135064192Y-94422142D01*
X135064197Y-94422144D01*
X135249354Y-94461500D01*
X135249355Y-94461500D01*
X135438644Y-94461500D01*
X135438646Y-94461500D01*
X135623803Y-94422144D01*
X135796730Y-94345151D01*
X135949871Y-94233888D01*
X136076533Y-94093216D01*
X136171179Y-93929284D01*
X136229674Y-93749256D01*
X136249460Y-93561000D01*
X136229674Y-93372744D01*
X136171179Y-93192716D01*
X136076533Y-93028784D01*
X135949871Y-92888112D01*
X135949870Y-92888111D01*
X135796734Y-92776851D01*
X135796732Y-92776850D01*
X135796730Y-92776849D01*
X135787587Y-92772778D01*
X135734351Y-92727528D01*
X135714031Y-92660678D01*
X135733077Y-92593455D01*
X135785444Y-92547200D01*
X135838025Y-92535500D01*
X135896257Y-92535500D01*
X135911877Y-92537224D01*
X135911904Y-92536939D01*
X135919660Y-92537671D01*
X135919667Y-92537673D01*
X135986873Y-92535561D01*
X135990768Y-92535500D01*
X136018346Y-92535500D01*
X136018350Y-92535500D01*
X136022324Y-92534997D01*
X136033963Y-92534080D01*
X136077627Y-92532709D01*
X136096869Y-92527117D01*
X136115912Y-92523174D01*
X136135792Y-92520664D01*
X136176401Y-92504585D01*
X136187444Y-92500803D01*
X136229390Y-92488618D01*
X136246629Y-92478422D01*
X136264103Y-92469862D01*
X136282727Y-92462488D01*
X136282727Y-92462487D01*
X136282732Y-92462486D01*
X136318083Y-92436800D01*
X136327814Y-92430408D01*
X136365420Y-92408170D01*
X136379586Y-92394003D01*
X136394381Y-92381368D01*
X136397619Y-92379014D01*
X136410587Y-92369594D01*
X136438439Y-92335926D01*
X136446279Y-92327310D01*
X139475802Y-89297786D01*
X139537123Y-89264303D01*
X139606815Y-89269287D01*
X139662748Y-89311159D01*
X139683256Y-89353375D01*
X139705259Y-89435490D01*
X139705261Y-89435497D01*
X139801431Y-89641732D01*
X139801432Y-89641734D01*
X139931954Y-89828141D01*
X140092858Y-89989045D01*
X140092861Y-89989047D01*
X140279266Y-90119568D01*
X140485504Y-90215739D01*
X140705308Y-90274635D01*
X140867230Y-90288801D01*
X140931998Y-90294468D01*
X140932000Y-90294468D01*
X140932002Y-90294468D01*
X140988673Y-90289509D01*
X141158692Y-90274635D01*
X141378496Y-90215739D01*
X141584734Y-90119568D01*
X141771139Y-89989047D01*
X141932047Y-89828139D01*
X142062568Y-89641734D01*
X142158739Y-89435496D01*
X142217635Y-89215692D01*
X142237468Y-88989000D01*
X142217635Y-88762308D01*
X142159086Y-88543798D01*
X142158741Y-88542511D01*
X142158738Y-88542502D01*
X142152450Y-88529017D01*
X142062568Y-88336266D01*
X141953940Y-88181128D01*
X141932045Y-88149858D01*
X141771141Y-87988954D01*
X141584734Y-87858432D01*
X141584732Y-87858431D01*
X141378497Y-87762261D01*
X141378490Y-87762259D01*
X141296375Y-87740256D01*
X141236714Y-87703890D01*
X141206186Y-87641043D01*
X141214481Y-87571668D01*
X141240785Y-87532803D01*
X142890787Y-85882801D01*
X142903042Y-85872986D01*
X142902859Y-85872764D01*
X142908868Y-85867791D01*
X142908877Y-85867786D01*
X142954949Y-85818722D01*
X142957566Y-85816023D01*
X142977120Y-85796471D01*
X142979576Y-85793303D01*
X142987156Y-85784427D01*
X143017062Y-85752582D01*
X143026713Y-85735024D01*
X143037396Y-85718761D01*
X143049673Y-85702936D01*
X143067021Y-85662844D01*
X143072151Y-85652371D01*
X143093197Y-85614092D01*
X143098180Y-85594680D01*
X143104481Y-85576280D01*
X143112437Y-85557896D01*
X143119270Y-85514748D01*
X143121633Y-85503338D01*
X143132500Y-85461019D01*
X143132500Y-85440983D01*
X143134027Y-85421582D01*
X143137160Y-85401804D01*
X143133050Y-85358324D01*
X143132500Y-85346655D01*
X143132500Y-62833737D01*
X143134224Y-62818123D01*
X143133938Y-62818096D01*
X143134672Y-62810333D01*
X143132561Y-62743143D01*
X143132500Y-62739249D01*
X143132500Y-62711651D01*
X143132500Y-62711650D01*
X143131997Y-62707670D01*
X143131080Y-62696021D01*
X143129758Y-62653949D01*
X143129709Y-62652372D01*
X143124120Y-62633137D01*
X143120174Y-62614084D01*
X143117664Y-62594208D01*
X143101578Y-62553581D01*
X143097803Y-62542554D01*
X143085617Y-62500610D01*
X143075421Y-62483369D01*
X143066860Y-62465893D01*
X143059486Y-62447269D01*
X143059485Y-62447267D01*
X143033809Y-62411926D01*
X143027412Y-62402190D01*
X143005170Y-62364579D01*
X143005167Y-62364576D01*
X143005165Y-62364573D01*
X142991005Y-62350413D01*
X142978370Y-62335620D01*
X142966593Y-62319412D01*
X142932945Y-62291576D01*
X142924304Y-62283713D01*
X141743960Y-61103369D01*
X141710475Y-61042046D01*
X141708323Y-61028668D01*
X141690674Y-60860744D01*
X141632179Y-60680716D01*
X141537533Y-60516784D01*
X141410871Y-60376112D01*
X141410870Y-60376111D01*
X141257734Y-60264851D01*
X141257729Y-60264848D01*
X141084807Y-60187857D01*
X141084802Y-60187855D01*
X140939001Y-60156865D01*
X140899646Y-60148500D01*
X140792500Y-60148500D01*
X140725461Y-60128815D01*
X140679706Y-60076011D01*
X140668500Y-60024500D01*
X140668500Y-53739452D01*
X140688185Y-53672413D01*
X140704819Y-53651771D01*
X140900771Y-53455819D01*
X140962094Y-53422334D01*
X140988452Y-53419500D01*
X142069773Y-53419500D01*
X142136812Y-53439185D01*
G37*
G04 #@! TD.AperFunction*
G04 #@! TA.AperFunction,Conductor*
G36*
X131714359Y-88750955D02*
G01*
X131656835Y-88863852D01*
X131637014Y-88989000D01*
X131656835Y-89114148D01*
X131714359Y-89227045D01*
X131726314Y-89239000D01*
X129817686Y-89239000D01*
X129829641Y-89227045D01*
X129887165Y-89114148D01*
X129906986Y-88989000D01*
X129887165Y-88863852D01*
X129829641Y-88750955D01*
X129817686Y-88739000D01*
X131726314Y-88739000D01*
X131714359Y-88750955D01*
G37*
G04 #@! TD.AperFunction*
G04 #@! TA.AperFunction,Conductor*
G36*
X134254359Y-88750955D02*
G01*
X134196835Y-88863852D01*
X134177014Y-88989000D01*
X134196835Y-89114148D01*
X134254359Y-89227045D01*
X134266314Y-89239000D01*
X132357686Y-89239000D01*
X132369641Y-89227045D01*
X132427165Y-89114148D01*
X132446986Y-88989000D01*
X132427165Y-88863852D01*
X132369641Y-88750955D01*
X132357686Y-88739000D01*
X134266314Y-88739000D01*
X134254359Y-88750955D01*
G37*
G04 #@! TD.AperFunction*
G04 #@! TA.AperFunction,Conductor*
G36*
X140873703Y-62002739D02*
G01*
X140880181Y-62008771D01*
X141845181Y-62973771D01*
X141878666Y-63035094D01*
X141881500Y-63061452D01*
X141881500Y-82828638D01*
X141861815Y-82895677D01*
X141809011Y-82941432D01*
X141739853Y-82951376D01*
X141686376Y-82930213D01*
X141584482Y-82858866D01*
X141378326Y-82762734D01*
X141378317Y-82762730D01*
X141158610Y-82703860D01*
X141158599Y-82703858D01*
X140932002Y-82684034D01*
X140931998Y-82684034D01*
X140705400Y-82703858D01*
X140705389Y-82703860D01*
X140485682Y-82762730D01*
X140485673Y-82762734D01*
X140279516Y-82858866D01*
X140279512Y-82858868D01*
X140206526Y-82909973D01*
X140206526Y-82909974D01*
X140887599Y-83591046D01*
X140806852Y-83603835D01*
X140693955Y-83661359D01*
X140604359Y-83750955D01*
X140546835Y-83863852D01*
X140534046Y-83944598D01*
X139852974Y-83263526D01*
X139852973Y-83263526D01*
X139801868Y-83336512D01*
X139801866Y-83336516D01*
X139705734Y-83542673D01*
X139705730Y-83542682D01*
X139646860Y-83762389D01*
X139646858Y-83762400D01*
X139627034Y-83988997D01*
X139627034Y-83989002D01*
X139646858Y-84215599D01*
X139646860Y-84215610D01*
X139705730Y-84435317D01*
X139705735Y-84435331D01*
X139801863Y-84641478D01*
X139852974Y-84714472D01*
X140534046Y-84033400D01*
X140546835Y-84114148D01*
X140604359Y-84227045D01*
X140693955Y-84316641D01*
X140806852Y-84374165D01*
X140887597Y-84386953D01*
X140206526Y-85068025D01*
X140279513Y-85119132D01*
X140279521Y-85119136D01*
X140485668Y-85215264D01*
X140485682Y-85215269D01*
X140705389Y-85274139D01*
X140705400Y-85274141D01*
X140931998Y-85293966D01*
X140932002Y-85293966D01*
X141158599Y-85274141D01*
X141158610Y-85274139D01*
X141378317Y-85215269D01*
X141378326Y-85215266D01*
X141510738Y-85153521D01*
X141579815Y-85143029D01*
X141643599Y-85171548D01*
X141681839Y-85230025D01*
X141682394Y-85299892D01*
X141650824Y-85353584D01*
X138509948Y-88494459D01*
X138448625Y-88527944D01*
X138378933Y-88522960D01*
X138323000Y-88481088D01*
X138309887Y-88459186D01*
X138252568Y-88336266D01*
X138143940Y-88181128D01*
X138122045Y-88149858D01*
X137961141Y-87988954D01*
X137774734Y-87858432D01*
X137774732Y-87858431D01*
X137568497Y-87762261D01*
X137568488Y-87762258D01*
X137348697Y-87703366D01*
X137348693Y-87703365D01*
X137348692Y-87703365D01*
X137348691Y-87703364D01*
X137348686Y-87703364D01*
X137122002Y-87683532D01*
X137121998Y-87683532D01*
X136895313Y-87703364D01*
X136895302Y-87703366D01*
X136675511Y-87762258D01*
X136675502Y-87762261D01*
X136469267Y-87858431D01*
X136469265Y-87858432D01*
X136282858Y-87988954D01*
X136121954Y-88149858D01*
X135998519Y-88326144D01*
X135991432Y-88336266D01*
X135991315Y-88336518D01*
X135964106Y-88394867D01*
X135917933Y-88447306D01*
X135850739Y-88466457D01*
X135783858Y-88446241D01*
X135739342Y-88394865D01*
X135712135Y-88336520D01*
X135712134Y-88336518D01*
X135581657Y-88150179D01*
X135420820Y-87989342D01*
X135234482Y-87858865D01*
X135028328Y-87762734D01*
X134832000Y-87710127D01*
X134832000Y-88673314D01*
X134820045Y-88661359D01*
X134707148Y-88603835D01*
X134613481Y-88589000D01*
X134550519Y-88589000D01*
X134456852Y-88603835D01*
X134343955Y-88661359D01*
X134332000Y-88673314D01*
X134332000Y-87710127D01*
X134135671Y-87762734D01*
X133929517Y-87858865D01*
X133743179Y-87989342D01*
X133582342Y-88150179D01*
X133451865Y-88336517D01*
X133424382Y-88395457D01*
X133378210Y-88447896D01*
X133311016Y-88467048D01*
X133244135Y-88446832D01*
X133199618Y-88395457D01*
X133172134Y-88336517D01*
X133041657Y-88150179D01*
X132880820Y-87989342D01*
X132694482Y-87858865D01*
X132488328Y-87762734D01*
X132292000Y-87710127D01*
X132292000Y-88673314D01*
X132280045Y-88661359D01*
X132167148Y-88603835D01*
X132073481Y-88589000D01*
X132010519Y-88589000D01*
X131916852Y-88603835D01*
X131803955Y-88661359D01*
X131792000Y-88673314D01*
X131792000Y-87710127D01*
X131595671Y-87762734D01*
X131389517Y-87858865D01*
X131203179Y-87989342D01*
X131042342Y-88150179D01*
X130911865Y-88336517D01*
X130884382Y-88395457D01*
X130838210Y-88447896D01*
X130771016Y-88467048D01*
X130704135Y-88446832D01*
X130659618Y-88395457D01*
X130632134Y-88336517D01*
X130501657Y-88150179D01*
X130340820Y-87989342D01*
X130154482Y-87858865D01*
X129948328Y-87762734D01*
X129752000Y-87710127D01*
X129752000Y-88673314D01*
X129740045Y-88661359D01*
X129627148Y-88603835D01*
X129533481Y-88589000D01*
X129470519Y-88589000D01*
X129376852Y-88603835D01*
X129263955Y-88661359D01*
X129252000Y-88673314D01*
X129252000Y-87710127D01*
X129055671Y-87762734D01*
X128849517Y-87858865D01*
X128663179Y-87989342D01*
X128502342Y-88150179D01*
X128371867Y-88336515D01*
X128344657Y-88394867D01*
X128298484Y-88447306D01*
X128231290Y-88466457D01*
X128164409Y-88446241D01*
X128119893Y-88394865D01*
X128092685Y-88336518D01*
X128092568Y-88336266D01*
X127983940Y-88181128D01*
X127962045Y-88149858D01*
X127801141Y-87988954D01*
X127614734Y-87858432D01*
X127614732Y-87858431D01*
X127408497Y-87762261D01*
X127408488Y-87762258D01*
X127188697Y-87703366D01*
X127188693Y-87703365D01*
X127188692Y-87703365D01*
X127188691Y-87703364D01*
X127188686Y-87703364D01*
X126962002Y-87683532D01*
X126961998Y-87683532D01*
X126735313Y-87703364D01*
X126735302Y-87703366D01*
X126515511Y-87762258D01*
X126515502Y-87762261D01*
X126309267Y-87858431D01*
X126309265Y-87858432D01*
X126122858Y-87988954D01*
X125961954Y-88149858D01*
X125831432Y-88336265D01*
X125831431Y-88336267D01*
X125804382Y-88394275D01*
X125758209Y-88446714D01*
X125691016Y-88465866D01*
X125624135Y-88445650D01*
X125579618Y-88394275D01*
X125552686Y-88336520D01*
X125552568Y-88336266D01*
X125443940Y-88181128D01*
X125422045Y-88149858D01*
X125261141Y-87988954D01*
X125074734Y-87858432D01*
X125074732Y-87858431D01*
X124868497Y-87762261D01*
X124868488Y-87762258D01*
X124648697Y-87703366D01*
X124648693Y-87703365D01*
X124648692Y-87703365D01*
X124648691Y-87703364D01*
X124648686Y-87703364D01*
X124422002Y-87683532D01*
X124421998Y-87683532D01*
X124195313Y-87703364D01*
X124195302Y-87703366D01*
X123975511Y-87762258D01*
X123975502Y-87762261D01*
X123769267Y-87858431D01*
X123769265Y-87858432D01*
X123582858Y-87988954D01*
X123421954Y-88149858D01*
X123291432Y-88336265D01*
X123291431Y-88336267D01*
X123264382Y-88394275D01*
X123218209Y-88446714D01*
X123151016Y-88465866D01*
X123084135Y-88445650D01*
X123039618Y-88394275D01*
X123012686Y-88336520D01*
X123012568Y-88336266D01*
X122903940Y-88181128D01*
X122882045Y-88149858D01*
X122721141Y-87988954D01*
X122534734Y-87858432D01*
X122534732Y-87858431D01*
X122328497Y-87762261D01*
X122328488Y-87762258D01*
X122108697Y-87703366D01*
X122108693Y-87703365D01*
X122108692Y-87703365D01*
X122108691Y-87703364D01*
X122108686Y-87703364D01*
X121882002Y-87683532D01*
X121881998Y-87683532D01*
X121655313Y-87703364D01*
X121655302Y-87703366D01*
X121435511Y-87762258D01*
X121435502Y-87762261D01*
X121229267Y-87858431D01*
X121229265Y-87858432D01*
X121042858Y-87988954D01*
X120881954Y-88149858D01*
X120751432Y-88336265D01*
X120751431Y-88336267D01*
X120724382Y-88394275D01*
X120678209Y-88446714D01*
X120611016Y-88465866D01*
X120544135Y-88445650D01*
X120499618Y-88394275D01*
X120472686Y-88336520D01*
X120472568Y-88336266D01*
X120363940Y-88181128D01*
X120342045Y-88149858D01*
X120181141Y-87988954D01*
X119994734Y-87858432D01*
X119994732Y-87858431D01*
X119788497Y-87762261D01*
X119788488Y-87762258D01*
X119568697Y-87703366D01*
X119568693Y-87703365D01*
X119568692Y-87703365D01*
X119568691Y-87703364D01*
X119568686Y-87703364D01*
X119342002Y-87683532D01*
X119341998Y-87683532D01*
X119115313Y-87703364D01*
X119115302Y-87703366D01*
X118895511Y-87762258D01*
X118895502Y-87762261D01*
X118689267Y-87858431D01*
X118689265Y-87858432D01*
X118502858Y-87988954D01*
X118341954Y-88149858D01*
X118211432Y-88336265D01*
X118211431Y-88336267D01*
X118115261Y-88542502D01*
X118115259Y-88542509D01*
X118110275Y-88561111D01*
X118073909Y-88620772D01*
X118011062Y-88651300D01*
X117941687Y-88643005D01*
X117887809Y-88598519D01*
X117866535Y-88531967D01*
X117866500Y-88529017D01*
X117866500Y-81827049D01*
X117886185Y-81760010D01*
X117938989Y-81714255D01*
X118008147Y-81704311D01*
X118071703Y-81733336D01*
X118109477Y-81792114D01*
X118110275Y-81794956D01*
X118115730Y-81815317D01*
X118115734Y-81815326D01*
X118211865Y-82021482D01*
X118342342Y-82207820D01*
X118503179Y-82368657D01*
X118689517Y-82499134D01*
X118895673Y-82595265D01*
X118895682Y-82595269D01*
X119091999Y-82647872D01*
X119092000Y-82647871D01*
X119092000Y-81684686D01*
X119103955Y-81696641D01*
X119216852Y-81754165D01*
X119310519Y-81769000D01*
X119373481Y-81769000D01*
X119467148Y-81754165D01*
X119580045Y-81696641D01*
X119592000Y-81684686D01*
X119592000Y-82647872D01*
X119788317Y-82595269D01*
X119788326Y-82595265D01*
X119994482Y-82499134D01*
X120180820Y-82368657D01*
X120341657Y-82207820D01*
X120472132Y-82021484D01*
X120499341Y-81963134D01*
X120545513Y-81910695D01*
X120612707Y-81891542D01*
X120679588Y-81911757D01*
X120724106Y-81963133D01*
X120751431Y-82021732D01*
X120751432Y-82021734D01*
X120881954Y-82208141D01*
X121042858Y-82369045D01*
X121042861Y-82369047D01*
X121229266Y-82499568D01*
X121435504Y-82595739D01*
X121655308Y-82654635D01*
X121808391Y-82668028D01*
X121881998Y-82674468D01*
X121882000Y-82674468D01*
X121882002Y-82674468D01*
X121938807Y-82669498D01*
X122108692Y-82654635D01*
X122328496Y-82595739D01*
X122534734Y-82499568D01*
X122721139Y-82369047D01*
X122882047Y-82208139D01*
X123012568Y-82021734D01*
X123039618Y-81963724D01*
X123085790Y-81911285D01*
X123152983Y-81892133D01*
X123219865Y-81912348D01*
X123264382Y-81963725D01*
X123291429Y-82021728D01*
X123291432Y-82021734D01*
X123421954Y-82208141D01*
X123582858Y-82369045D01*
X123582861Y-82369047D01*
X123769266Y-82499568D01*
X123975504Y-82595739D01*
X124195308Y-82654635D01*
X124348391Y-82668028D01*
X124421998Y-82674468D01*
X124422000Y-82674468D01*
X124422002Y-82674468D01*
X124478807Y-82669498D01*
X124648692Y-82654635D01*
X124868496Y-82595739D01*
X125074734Y-82499568D01*
X125261139Y-82369047D01*
X125422047Y-82208139D01*
X125552568Y-82021734D01*
X125579618Y-81963724D01*
X125625790Y-81911285D01*
X125692983Y-81892133D01*
X125759865Y-81912348D01*
X125804382Y-81963725D01*
X125831429Y-82021728D01*
X125831432Y-82021734D01*
X125961954Y-82208141D01*
X126122858Y-82369045D01*
X126122861Y-82369047D01*
X126309266Y-82499568D01*
X126515504Y-82595739D01*
X126735308Y-82654635D01*
X126888391Y-82668028D01*
X126961998Y-82674468D01*
X126962000Y-82674468D01*
X126962002Y-82674468D01*
X127018807Y-82669498D01*
X127188692Y-82654635D01*
X127408496Y-82595739D01*
X127614734Y-82499568D01*
X127801139Y-82369047D01*
X127962047Y-82208139D01*
X128092568Y-82021734D01*
X128119618Y-81963724D01*
X128165790Y-81911285D01*
X128232983Y-81892133D01*
X128299865Y-81912348D01*
X128344382Y-81963725D01*
X128371429Y-82021728D01*
X128371432Y-82021734D01*
X128501954Y-82208141D01*
X128662858Y-82369045D01*
X128662861Y-82369047D01*
X128849266Y-82499568D01*
X129055504Y-82595739D01*
X129275308Y-82654635D01*
X129428391Y-82668028D01*
X129501998Y-82674468D01*
X129502000Y-82674468D01*
X129502002Y-82674468D01*
X129558807Y-82669498D01*
X129728692Y-82654635D01*
X129948496Y-82595739D01*
X130154734Y-82499568D01*
X130341139Y-82369047D01*
X130502047Y-82208139D01*
X130632568Y-82021734D01*
X130659618Y-81963724D01*
X130705790Y-81911285D01*
X130772983Y-81892133D01*
X130839865Y-81912348D01*
X130884382Y-81963725D01*
X130911429Y-82021728D01*
X130911432Y-82021734D01*
X131041954Y-82208141D01*
X131202858Y-82369045D01*
X131202861Y-82369047D01*
X131389266Y-82499568D01*
X131595504Y-82595739D01*
X131815308Y-82654635D01*
X131968391Y-82668028D01*
X132041998Y-82674468D01*
X132042000Y-82674468D01*
X132042002Y-82674468D01*
X132098807Y-82669498D01*
X132268692Y-82654635D01*
X132488496Y-82595739D01*
X132694734Y-82499568D01*
X132881139Y-82369047D01*
X133042047Y-82208139D01*
X133172568Y-82021734D01*
X133199618Y-81963724D01*
X133245790Y-81911285D01*
X133312983Y-81892133D01*
X133379865Y-81912348D01*
X133424382Y-81963725D01*
X133451429Y-82021728D01*
X133451432Y-82021734D01*
X133581954Y-82208141D01*
X133742858Y-82369045D01*
X133742861Y-82369047D01*
X133929266Y-82499568D01*
X134135504Y-82595739D01*
X134355308Y-82654635D01*
X134508391Y-82668028D01*
X134581998Y-82674468D01*
X134582000Y-82674468D01*
X134582002Y-82674468D01*
X134638807Y-82669498D01*
X134808692Y-82654635D01*
X135028496Y-82595739D01*
X135234734Y-82499568D01*
X135421139Y-82369047D01*
X135582047Y-82208139D01*
X135599272Y-82183539D01*
X135653848Y-82139913D01*
X135723346Y-82132718D01*
X135785701Y-82164239D01*
X135821116Y-82224468D01*
X135824138Y-82241406D01*
X135827908Y-82276483D01*
X135878202Y-82411328D01*
X135878206Y-82411335D01*
X135964452Y-82526544D01*
X135964455Y-82526547D01*
X136079664Y-82612793D01*
X136079671Y-82612797D01*
X136214517Y-82663091D01*
X136214516Y-82663091D01*
X136221444Y-82663835D01*
X136274127Y-82669500D01*
X137969872Y-82669499D01*
X138029483Y-82663091D01*
X138164331Y-82612796D01*
X138279546Y-82526546D01*
X138365796Y-82411331D01*
X138416091Y-82276483D01*
X138422500Y-82216873D01*
X138422499Y-80521128D01*
X138416091Y-80461517D01*
X138386006Y-80380856D01*
X138365797Y-80326671D01*
X138365793Y-80326664D01*
X138279547Y-80211455D01*
X138279544Y-80211452D01*
X138164335Y-80125206D01*
X138164328Y-80125202D01*
X138029482Y-80074908D01*
X138029483Y-80074908D01*
X137969883Y-80068501D01*
X137969881Y-80068500D01*
X137969873Y-80068500D01*
X137969864Y-80068500D01*
X136274129Y-80068500D01*
X136274123Y-80068501D01*
X136214516Y-80074908D01*
X136079671Y-80125202D01*
X136079664Y-80125206D01*
X135964455Y-80211452D01*
X135964452Y-80211455D01*
X135878206Y-80326664D01*
X135878202Y-80326671D01*
X135827908Y-80461516D01*
X135824137Y-80496596D01*
X135797398Y-80561146D01*
X135740006Y-80600994D01*
X135670180Y-80603487D01*
X135610092Y-80567834D01*
X135599273Y-80554462D01*
X135582045Y-80529858D01*
X135421141Y-80368954D01*
X135234734Y-80238432D01*
X135234732Y-80238431D01*
X135028497Y-80142261D01*
X135028488Y-80142258D01*
X134808697Y-80083366D01*
X134808693Y-80083365D01*
X134808692Y-80083365D01*
X134808691Y-80083364D01*
X134808686Y-80083364D01*
X134582002Y-80063532D01*
X134581998Y-80063532D01*
X134355313Y-80083364D01*
X134355302Y-80083366D01*
X134135511Y-80142258D01*
X134135502Y-80142261D01*
X133929267Y-80238431D01*
X133929265Y-80238432D01*
X133742858Y-80368954D01*
X133581954Y-80529858D01*
X133451432Y-80716265D01*
X133451431Y-80716267D01*
X133424382Y-80774275D01*
X133378209Y-80826714D01*
X133311016Y-80845866D01*
X133244135Y-80825650D01*
X133199618Y-80774275D01*
X133172686Y-80716520D01*
X133172568Y-80716266D01*
X133042047Y-80529861D01*
X133042045Y-80529858D01*
X132881140Y-80368953D01*
X132720377Y-80256386D01*
X132676752Y-80201809D01*
X132667500Y-80154811D01*
X132667500Y-79647452D01*
X132687185Y-79580413D01*
X132703819Y-79559771D01*
X133280772Y-78982819D01*
X133342095Y-78949334D01*
X133368453Y-78946500D01*
X136912257Y-78946500D01*
X136927877Y-78948224D01*
X136927904Y-78947939D01*
X136935660Y-78948671D01*
X136935667Y-78948673D01*
X137002873Y-78946561D01*
X137006768Y-78946500D01*
X137034346Y-78946500D01*
X137034350Y-78946500D01*
X137038324Y-78945997D01*
X137049963Y-78945080D01*
X137093627Y-78943709D01*
X137112869Y-78938117D01*
X137131912Y-78934174D01*
X137151792Y-78931664D01*
X137192401Y-78915585D01*
X137203444Y-78911803D01*
X137245390Y-78899618D01*
X137262629Y-78889422D01*
X137280103Y-78880862D01*
X137298727Y-78873488D01*
X137298727Y-78873487D01*
X137298732Y-78873486D01*
X137334083Y-78847800D01*
X137343814Y-78841408D01*
X137381420Y-78819170D01*
X137395589Y-78804999D01*
X137410379Y-78792368D01*
X137426587Y-78780594D01*
X137454438Y-78746926D01*
X137462279Y-78738309D01*
X140426788Y-75773801D01*
X140439042Y-75763986D01*
X140438859Y-75763764D01*
X140444868Y-75758791D01*
X140444877Y-75758786D01*
X140490949Y-75709722D01*
X140493566Y-75707023D01*
X140513120Y-75687471D01*
X140515576Y-75684303D01*
X140523156Y-75675427D01*
X140553062Y-75643582D01*
X140562715Y-75626020D01*
X140573389Y-75609770D01*
X140585673Y-75593936D01*
X140603019Y-75553850D01*
X140608157Y-75543362D01*
X140629196Y-75505093D01*
X140629197Y-75505092D01*
X140634177Y-75485691D01*
X140640478Y-75467288D01*
X140648438Y-75448896D01*
X140655272Y-75405741D01*
X140657635Y-75394331D01*
X140668500Y-75352019D01*
X140668500Y-75331983D01*
X140670027Y-75312582D01*
X140673160Y-75292804D01*
X140669050Y-75249324D01*
X140668500Y-75237655D01*
X140668500Y-62096452D01*
X140688185Y-62029413D01*
X140740989Y-61983658D01*
X140810147Y-61973714D01*
X140873703Y-62002739D01*
G37*
G04 #@! TD.AperFunction*
M02*
