G04 #@! TF.GenerationSoftware,KiCad,Pcbnew,7.0.10*
G04 #@! TF.CreationDate,2024-06-01T12:23:42+09:00*
G04 #@! TF.ProjectId,simple_megarom_cartridge,73696d70-6c65-45f6-9d65-6761726f6d5f,rev?*
G04 #@! TF.SameCoordinates,Original*
G04 #@! TF.FileFunction,Legend,Top*
G04 #@! TF.FilePolarity,Positive*
%FSLAX46Y46*%
G04 Gerber Fmt 4.6, Leading zero omitted, Abs format (unit mm)*
G04 Created by KiCad (PCBNEW 7.0.10) date 2024-06-01 12:23:42*
%MOMM*%
%LPD*%
G01*
G04 APERTURE LIST*
%ADD10C,0.150000*%
%ADD11C,0.300000*%
%ADD12C,0.120000*%
G04 APERTURE END LIST*
D10*
X140678000Y-55334000D02*
X140678000Y-53937000D01*
X140678000Y-55334000D02*
X139535000Y-55334000D01*
X140678000Y-56731000D02*
X140678000Y-55334000D01*
X138919255Y-57505819D02*
X139109731Y-57505819D01*
X139109731Y-57505819D02*
X139204969Y-57553438D01*
X139204969Y-57553438D02*
X139300207Y-57648676D01*
X139300207Y-57648676D02*
X139347826Y-57839152D01*
X139347826Y-57839152D02*
X139347826Y-58172485D01*
X139347826Y-58172485D02*
X139300207Y-58362961D01*
X139300207Y-58362961D02*
X139204969Y-58458200D01*
X139204969Y-58458200D02*
X139109731Y-58505819D01*
X139109731Y-58505819D02*
X138919255Y-58505819D01*
X138919255Y-58505819D02*
X138824017Y-58458200D01*
X138824017Y-58458200D02*
X138728779Y-58362961D01*
X138728779Y-58362961D02*
X138681160Y-58172485D01*
X138681160Y-58172485D02*
X138681160Y-57839152D01*
X138681160Y-57839152D02*
X138728779Y-57648676D01*
X138728779Y-57648676D02*
X138824017Y-57553438D01*
X138824017Y-57553438D02*
X138919255Y-57505819D01*
X140109731Y-57982009D02*
X139776398Y-57982009D01*
X139776398Y-58505819D02*
X139776398Y-57505819D01*
X139776398Y-57505819D02*
X140252588Y-57505819D01*
X140966874Y-57982009D02*
X140633541Y-57982009D01*
X140633541Y-58505819D02*
X140633541Y-57505819D01*
X140633541Y-57505819D02*
X141109731Y-57505819D01*
X64211541Y-75412819D02*
X64878207Y-75412819D01*
X64878207Y-75412819D02*
X64449636Y-76412819D01*
X65687731Y-75746152D02*
X65687731Y-76412819D01*
X65449636Y-75365200D02*
X65211541Y-76079485D01*
X65211541Y-76079485D02*
X65830588Y-76079485D01*
X66211541Y-76412819D02*
X66211541Y-75412819D01*
X66211541Y-75889009D02*
X66782969Y-75889009D01*
X66782969Y-76412819D02*
X66782969Y-75412819D01*
X67830588Y-76317580D02*
X67782969Y-76365200D01*
X67782969Y-76365200D02*
X67640112Y-76412819D01*
X67640112Y-76412819D02*
X67544874Y-76412819D01*
X67544874Y-76412819D02*
X67402017Y-76365200D01*
X67402017Y-76365200D02*
X67306779Y-76269961D01*
X67306779Y-76269961D02*
X67259160Y-76174723D01*
X67259160Y-76174723D02*
X67211541Y-75984247D01*
X67211541Y-75984247D02*
X67211541Y-75841390D01*
X67211541Y-75841390D02*
X67259160Y-75650914D01*
X67259160Y-75650914D02*
X67306779Y-75555676D01*
X67306779Y-75555676D02*
X67402017Y-75460438D01*
X67402017Y-75460438D02*
X67544874Y-75412819D01*
X67544874Y-75412819D02*
X67640112Y-75412819D01*
X67640112Y-75412819D02*
X67782969Y-75460438D01*
X67782969Y-75460438D02*
X67830588Y-75508057D01*
X68735350Y-75412819D02*
X68259160Y-75412819D01*
X68259160Y-75412819D02*
X68211541Y-75889009D01*
X68211541Y-75889009D02*
X68259160Y-75841390D01*
X68259160Y-75841390D02*
X68354398Y-75793771D01*
X68354398Y-75793771D02*
X68592493Y-75793771D01*
X68592493Y-75793771D02*
X68687731Y-75841390D01*
X68687731Y-75841390D02*
X68735350Y-75889009D01*
X68735350Y-75889009D02*
X68782969Y-75984247D01*
X68782969Y-75984247D02*
X68782969Y-76222342D01*
X68782969Y-76222342D02*
X68735350Y-76317580D01*
X68735350Y-76317580D02*
X68687731Y-76365200D01*
X68687731Y-76365200D02*
X68592493Y-76412819D01*
X68592493Y-76412819D02*
X68354398Y-76412819D01*
X68354398Y-76412819D02*
X68259160Y-76365200D01*
X68259160Y-76365200D02*
X68211541Y-76317580D01*
X69116303Y-75412819D02*
X69782969Y-75412819D01*
X69782969Y-75412819D02*
X69354398Y-76412819D01*
X70592493Y-75746152D02*
X70592493Y-76412819D01*
X70354398Y-75365200D02*
X70116303Y-76079485D01*
X70116303Y-76079485D02*
X70735350Y-76079485D01*
X91929207Y-75265819D02*
X91595874Y-74789628D01*
X91357779Y-75265819D02*
X91357779Y-74265819D01*
X91357779Y-74265819D02*
X91738731Y-74265819D01*
X91738731Y-74265819D02*
X91833969Y-74313438D01*
X91833969Y-74313438D02*
X91881588Y-74361057D01*
X91881588Y-74361057D02*
X91929207Y-74456295D01*
X91929207Y-74456295D02*
X91929207Y-74599152D01*
X91929207Y-74599152D02*
X91881588Y-74694390D01*
X91881588Y-74694390D02*
X91833969Y-74742009D01*
X91833969Y-74742009D02*
X91738731Y-74789628D01*
X91738731Y-74789628D02*
X91357779Y-74789628D01*
X92357779Y-75265819D02*
X92357779Y-74265819D01*
X92357779Y-74265819D02*
X92595874Y-74265819D01*
X92595874Y-74265819D02*
X92738731Y-74313438D01*
X92738731Y-74313438D02*
X92833969Y-74408676D01*
X92833969Y-74408676D02*
X92881588Y-74503914D01*
X92881588Y-74503914D02*
X92929207Y-74694390D01*
X92929207Y-74694390D02*
X92929207Y-74837247D01*
X92929207Y-74837247D02*
X92881588Y-75027723D01*
X92881588Y-75027723D02*
X92833969Y-75122961D01*
X92833969Y-75122961D02*
X92738731Y-75218200D01*
X92738731Y-75218200D02*
X92595874Y-75265819D01*
X92595874Y-75265819D02*
X92357779Y-75265819D01*
X93357779Y-75170580D02*
X93405398Y-75218200D01*
X93405398Y-75218200D02*
X93357779Y-75265819D01*
X93357779Y-75265819D02*
X93310160Y-75218200D01*
X93310160Y-75218200D02*
X93357779Y-75170580D01*
X93357779Y-75170580D02*
X93357779Y-75265819D01*
X93357779Y-74646771D02*
X93405398Y-74694390D01*
X93405398Y-74694390D02*
X93357779Y-74742009D01*
X93357779Y-74742009D02*
X93310160Y-74694390D01*
X93310160Y-74694390D02*
X93357779Y-74646771D01*
X93357779Y-74646771D02*
X93357779Y-74742009D01*
X95024445Y-74599152D02*
X95024445Y-75265819D01*
X94786350Y-74218200D02*
X94548255Y-74932485D01*
X94548255Y-74932485D02*
X95167302Y-74932485D01*
X95738731Y-74265819D02*
X95833969Y-74265819D01*
X95833969Y-74265819D02*
X95929207Y-74313438D01*
X95929207Y-74313438D02*
X95976826Y-74361057D01*
X95976826Y-74361057D02*
X96024445Y-74456295D01*
X96024445Y-74456295D02*
X96072064Y-74646771D01*
X96072064Y-74646771D02*
X96072064Y-74884866D01*
X96072064Y-74884866D02*
X96024445Y-75075342D01*
X96024445Y-75075342D02*
X95976826Y-75170580D01*
X95976826Y-75170580D02*
X95929207Y-75218200D01*
X95929207Y-75218200D02*
X95833969Y-75265819D01*
X95833969Y-75265819D02*
X95738731Y-75265819D01*
X95738731Y-75265819D02*
X95643493Y-75218200D01*
X95643493Y-75218200D02*
X95595874Y-75170580D01*
X95595874Y-75170580D02*
X95548255Y-75075342D01*
X95548255Y-75075342D02*
X95500636Y-74884866D01*
X95500636Y-74884866D02*
X95500636Y-74646771D01*
X95500636Y-74646771D02*
X95548255Y-74456295D01*
X95548255Y-74456295D02*
X95595874Y-74361057D01*
X95595874Y-74361057D02*
X95643493Y-74313438D01*
X95643493Y-74313438D02*
X95738731Y-74265819D01*
X96691112Y-74265819D02*
X96786350Y-74265819D01*
X96786350Y-74265819D02*
X96881588Y-74313438D01*
X96881588Y-74313438D02*
X96929207Y-74361057D01*
X96929207Y-74361057D02*
X96976826Y-74456295D01*
X96976826Y-74456295D02*
X97024445Y-74646771D01*
X97024445Y-74646771D02*
X97024445Y-74884866D01*
X97024445Y-74884866D02*
X96976826Y-75075342D01*
X96976826Y-75075342D02*
X96929207Y-75170580D01*
X96929207Y-75170580D02*
X96881588Y-75218200D01*
X96881588Y-75218200D02*
X96786350Y-75265819D01*
X96786350Y-75265819D02*
X96691112Y-75265819D01*
X96691112Y-75265819D02*
X96595874Y-75218200D01*
X96595874Y-75218200D02*
X96548255Y-75170580D01*
X96548255Y-75170580D02*
X96500636Y-75075342D01*
X96500636Y-75075342D02*
X96453017Y-74884866D01*
X96453017Y-74884866D02*
X96453017Y-74646771D01*
X96453017Y-74646771D02*
X96500636Y-74456295D01*
X96500636Y-74456295D02*
X96548255Y-74361057D01*
X96548255Y-74361057D02*
X96595874Y-74313438D01*
X96595874Y-74313438D02*
X96691112Y-74265819D01*
X97643493Y-74265819D02*
X97738731Y-74265819D01*
X97738731Y-74265819D02*
X97833969Y-74313438D01*
X97833969Y-74313438D02*
X97881588Y-74361057D01*
X97881588Y-74361057D02*
X97929207Y-74456295D01*
X97929207Y-74456295D02*
X97976826Y-74646771D01*
X97976826Y-74646771D02*
X97976826Y-74884866D01*
X97976826Y-74884866D02*
X97929207Y-75075342D01*
X97929207Y-75075342D02*
X97881588Y-75170580D01*
X97881588Y-75170580D02*
X97833969Y-75218200D01*
X97833969Y-75218200D02*
X97738731Y-75265819D01*
X97738731Y-75265819D02*
X97643493Y-75265819D01*
X97643493Y-75265819D02*
X97548255Y-75218200D01*
X97548255Y-75218200D02*
X97500636Y-75170580D01*
X97500636Y-75170580D02*
X97453017Y-75075342D01*
X97453017Y-75075342D02*
X97405398Y-74884866D01*
X97405398Y-74884866D02*
X97405398Y-74646771D01*
X97405398Y-74646771D02*
X97453017Y-74456295D01*
X97453017Y-74456295D02*
X97500636Y-74361057D01*
X97500636Y-74361057D02*
X97548255Y-74313438D01*
X97548255Y-74313438D02*
X97643493Y-74265819D01*
X98405398Y-74884866D02*
X99167303Y-74884866D01*
X99548255Y-74265819D02*
X100214921Y-74265819D01*
X100214921Y-74265819D02*
X99786350Y-75265819D01*
X100929207Y-74742009D02*
X100595874Y-74742009D01*
X100595874Y-75265819D02*
X100595874Y-74265819D01*
X100595874Y-74265819D02*
X101072064Y-74265819D01*
X101786350Y-74742009D02*
X101453017Y-74742009D01*
X101453017Y-75265819D02*
X101453017Y-74265819D01*
X101453017Y-74265819D02*
X101929207Y-74265819D01*
X102643493Y-74742009D02*
X102310160Y-74742009D01*
X102310160Y-75265819D02*
X102310160Y-74265819D01*
X102310160Y-74265819D02*
X102786350Y-74265819D01*
X103167303Y-75170580D02*
X103214922Y-75218200D01*
X103214922Y-75218200D02*
X103167303Y-75265819D01*
X103167303Y-75265819D02*
X103119684Y-75218200D01*
X103119684Y-75218200D02*
X103167303Y-75170580D01*
X103167303Y-75170580D02*
X103167303Y-75265819D01*
X103167303Y-74646771D02*
X103214922Y-74694390D01*
X103214922Y-74694390D02*
X103167303Y-74742009D01*
X103167303Y-74742009D02*
X103119684Y-74694390D01*
X103119684Y-74694390D02*
X103167303Y-74646771D01*
X103167303Y-74646771D02*
X103167303Y-74742009D01*
X104738731Y-74742009D02*
X104881588Y-74789628D01*
X104881588Y-74789628D02*
X104929207Y-74837247D01*
X104929207Y-74837247D02*
X104976826Y-74932485D01*
X104976826Y-74932485D02*
X104976826Y-75075342D01*
X104976826Y-75075342D02*
X104929207Y-75170580D01*
X104929207Y-75170580D02*
X104881588Y-75218200D01*
X104881588Y-75218200D02*
X104786350Y-75265819D01*
X104786350Y-75265819D02*
X104405398Y-75265819D01*
X104405398Y-75265819D02*
X104405398Y-74265819D01*
X104405398Y-74265819D02*
X104738731Y-74265819D01*
X104738731Y-74265819D02*
X104833969Y-74313438D01*
X104833969Y-74313438D02*
X104881588Y-74361057D01*
X104881588Y-74361057D02*
X104929207Y-74456295D01*
X104929207Y-74456295D02*
X104929207Y-74551533D01*
X104929207Y-74551533D02*
X104881588Y-74646771D01*
X104881588Y-74646771D02*
X104833969Y-74694390D01*
X104833969Y-74694390D02*
X104738731Y-74742009D01*
X104738731Y-74742009D02*
X104405398Y-74742009D01*
X105833969Y-75265819D02*
X105833969Y-74742009D01*
X105833969Y-74742009D02*
X105786350Y-74646771D01*
X105786350Y-74646771D02*
X105691112Y-74599152D01*
X105691112Y-74599152D02*
X105500636Y-74599152D01*
X105500636Y-74599152D02*
X105405398Y-74646771D01*
X105833969Y-75218200D02*
X105738731Y-75265819D01*
X105738731Y-75265819D02*
X105500636Y-75265819D01*
X105500636Y-75265819D02*
X105405398Y-75218200D01*
X105405398Y-75218200D02*
X105357779Y-75122961D01*
X105357779Y-75122961D02*
X105357779Y-75027723D01*
X105357779Y-75027723D02*
X105405398Y-74932485D01*
X105405398Y-74932485D02*
X105500636Y-74884866D01*
X105500636Y-74884866D02*
X105738731Y-74884866D01*
X105738731Y-74884866D02*
X105833969Y-74837247D01*
X106310160Y-74599152D02*
X106310160Y-75265819D01*
X106310160Y-74694390D02*
X106357779Y-74646771D01*
X106357779Y-74646771D02*
X106453017Y-74599152D01*
X106453017Y-74599152D02*
X106595874Y-74599152D01*
X106595874Y-74599152D02*
X106691112Y-74646771D01*
X106691112Y-74646771D02*
X106738731Y-74742009D01*
X106738731Y-74742009D02*
X106738731Y-75265819D01*
X107214922Y-75265819D02*
X107214922Y-74265819D01*
X107310160Y-74884866D02*
X107595874Y-75265819D01*
X107595874Y-74599152D02*
X107214922Y-74980104D01*
X108214922Y-74265819D02*
X108310160Y-74265819D01*
X108310160Y-74265819D02*
X108405398Y-74313438D01*
X108405398Y-74313438D02*
X108453017Y-74361057D01*
X108453017Y-74361057D02*
X108500636Y-74456295D01*
X108500636Y-74456295D02*
X108548255Y-74646771D01*
X108548255Y-74646771D02*
X108548255Y-74884866D01*
X108548255Y-74884866D02*
X108500636Y-75075342D01*
X108500636Y-75075342D02*
X108453017Y-75170580D01*
X108453017Y-75170580D02*
X108405398Y-75218200D01*
X108405398Y-75218200D02*
X108310160Y-75265819D01*
X108310160Y-75265819D02*
X108214922Y-75265819D01*
X108214922Y-75265819D02*
X108119684Y-75218200D01*
X108119684Y-75218200D02*
X108072065Y-75170580D01*
X108072065Y-75170580D02*
X108024446Y-75075342D01*
X108024446Y-75075342D02*
X107976827Y-74884866D01*
X107976827Y-74884866D02*
X107976827Y-74646771D01*
X107976827Y-74646771D02*
X108024446Y-74456295D01*
X108024446Y-74456295D02*
X108072065Y-74361057D01*
X108072065Y-74361057D02*
X108119684Y-74313438D01*
X108119684Y-74313438D02*
X108214922Y-74265819D01*
X110024446Y-75646771D02*
X109976827Y-75599152D01*
X109976827Y-75599152D02*
X109881589Y-75456295D01*
X109881589Y-75456295D02*
X109833970Y-75361057D01*
X109833970Y-75361057D02*
X109786351Y-75218200D01*
X109786351Y-75218200D02*
X109738732Y-74980104D01*
X109738732Y-74980104D02*
X109738732Y-74789628D01*
X109738732Y-74789628D02*
X109786351Y-74551533D01*
X109786351Y-74551533D02*
X109833970Y-74408676D01*
X109833970Y-74408676D02*
X109881589Y-74313438D01*
X109881589Y-74313438D02*
X109976827Y-74170580D01*
X109976827Y-74170580D02*
X110024446Y-74122961D01*
X110738732Y-74742009D02*
X110405399Y-74742009D01*
X110405399Y-75265819D02*
X110405399Y-74265819D01*
X110405399Y-74265819D02*
X110881589Y-74265819D01*
X111262542Y-75265819D02*
X111262542Y-74599152D01*
X111262542Y-74265819D02*
X111214923Y-74313438D01*
X111214923Y-74313438D02*
X111262542Y-74361057D01*
X111262542Y-74361057D02*
X111310161Y-74313438D01*
X111310161Y-74313438D02*
X111262542Y-74265819D01*
X111262542Y-74265819D02*
X111262542Y-74361057D01*
X111643494Y-75265819D02*
X112167303Y-74599152D01*
X111643494Y-74599152D02*
X112167303Y-75265819D01*
X112929208Y-75218200D02*
X112833970Y-75265819D01*
X112833970Y-75265819D02*
X112643494Y-75265819D01*
X112643494Y-75265819D02*
X112548256Y-75218200D01*
X112548256Y-75218200D02*
X112500637Y-75122961D01*
X112500637Y-75122961D02*
X112500637Y-74742009D01*
X112500637Y-74742009D02*
X112548256Y-74646771D01*
X112548256Y-74646771D02*
X112643494Y-74599152D01*
X112643494Y-74599152D02*
X112833970Y-74599152D01*
X112833970Y-74599152D02*
X112929208Y-74646771D01*
X112929208Y-74646771D02*
X112976827Y-74742009D01*
X112976827Y-74742009D02*
X112976827Y-74837247D01*
X112976827Y-74837247D02*
X112500637Y-74932485D01*
X113833970Y-75265819D02*
X113833970Y-74265819D01*
X113833970Y-75218200D02*
X113738732Y-75265819D01*
X113738732Y-75265819D02*
X113548256Y-75265819D01*
X113548256Y-75265819D02*
X113453018Y-75218200D01*
X113453018Y-75218200D02*
X113405399Y-75170580D01*
X113405399Y-75170580D02*
X113357780Y-75075342D01*
X113357780Y-75075342D02*
X113357780Y-74789628D01*
X113357780Y-74789628D02*
X113405399Y-74694390D01*
X113405399Y-74694390D02*
X113453018Y-74646771D01*
X113453018Y-74646771D02*
X113548256Y-74599152D01*
X113548256Y-74599152D02*
X113738732Y-74599152D01*
X113738732Y-74599152D02*
X113833970Y-74646771D01*
X115024447Y-74599152D02*
X115738732Y-74599152D01*
X115310161Y-74170580D02*
X115024447Y-75456295D01*
X115643494Y-75027723D02*
X114929209Y-75027723D01*
X115357780Y-75456295D02*
X115643494Y-74170580D01*
X116262542Y-74265819D02*
X116357780Y-74265819D01*
X116357780Y-74265819D02*
X116453018Y-74313438D01*
X116453018Y-74313438D02*
X116500637Y-74361057D01*
X116500637Y-74361057D02*
X116548256Y-74456295D01*
X116548256Y-74456295D02*
X116595875Y-74646771D01*
X116595875Y-74646771D02*
X116595875Y-74884866D01*
X116595875Y-74884866D02*
X116548256Y-75075342D01*
X116548256Y-75075342D02*
X116500637Y-75170580D01*
X116500637Y-75170580D02*
X116453018Y-75218200D01*
X116453018Y-75218200D02*
X116357780Y-75265819D01*
X116357780Y-75265819D02*
X116262542Y-75265819D01*
X116262542Y-75265819D02*
X116167304Y-75218200D01*
X116167304Y-75218200D02*
X116119685Y-75170580D01*
X116119685Y-75170580D02*
X116072066Y-75075342D01*
X116072066Y-75075342D02*
X116024447Y-74884866D01*
X116024447Y-74884866D02*
X116024447Y-74646771D01*
X116024447Y-74646771D02*
X116072066Y-74456295D01*
X116072066Y-74456295D02*
X116119685Y-74361057D01*
X116119685Y-74361057D02*
X116167304Y-74313438D01*
X116167304Y-74313438D02*
X116262542Y-74265819D01*
X116929209Y-75646771D02*
X116976828Y-75599152D01*
X116976828Y-75599152D02*
X117072066Y-75456295D01*
X117072066Y-75456295D02*
X117119685Y-75361057D01*
X117119685Y-75361057D02*
X117167304Y-75218200D01*
X117167304Y-75218200D02*
X117214923Y-74980104D01*
X117214923Y-74980104D02*
X117214923Y-74789628D01*
X117214923Y-74789628D02*
X117167304Y-74551533D01*
X117167304Y-74551533D02*
X117119685Y-74408676D01*
X117119685Y-74408676D02*
X117072066Y-74313438D01*
X117072066Y-74313438D02*
X116976828Y-74170580D01*
X116976828Y-74170580D02*
X116929209Y-74122961D01*
X91929207Y-76875819D02*
X91595874Y-76399628D01*
X91357779Y-76875819D02*
X91357779Y-75875819D01*
X91357779Y-75875819D02*
X91738731Y-75875819D01*
X91738731Y-75875819D02*
X91833969Y-75923438D01*
X91833969Y-75923438D02*
X91881588Y-75971057D01*
X91881588Y-75971057D02*
X91929207Y-76066295D01*
X91929207Y-76066295D02*
X91929207Y-76209152D01*
X91929207Y-76209152D02*
X91881588Y-76304390D01*
X91881588Y-76304390D02*
X91833969Y-76352009D01*
X91833969Y-76352009D02*
X91738731Y-76399628D01*
X91738731Y-76399628D02*
X91357779Y-76399628D01*
X92357779Y-76875819D02*
X92357779Y-75875819D01*
X92357779Y-75875819D02*
X92595874Y-75875819D01*
X92595874Y-75875819D02*
X92738731Y-75923438D01*
X92738731Y-75923438D02*
X92833969Y-76018676D01*
X92833969Y-76018676D02*
X92881588Y-76113914D01*
X92881588Y-76113914D02*
X92929207Y-76304390D01*
X92929207Y-76304390D02*
X92929207Y-76447247D01*
X92929207Y-76447247D02*
X92881588Y-76637723D01*
X92881588Y-76637723D02*
X92833969Y-76732961D01*
X92833969Y-76732961D02*
X92738731Y-76828200D01*
X92738731Y-76828200D02*
X92595874Y-76875819D01*
X92595874Y-76875819D02*
X92357779Y-76875819D01*
X93357779Y-76780580D02*
X93405398Y-76828200D01*
X93405398Y-76828200D02*
X93357779Y-76875819D01*
X93357779Y-76875819D02*
X93310160Y-76828200D01*
X93310160Y-76828200D02*
X93357779Y-76780580D01*
X93357779Y-76780580D02*
X93357779Y-76875819D01*
X93357779Y-76256771D02*
X93405398Y-76304390D01*
X93405398Y-76304390D02*
X93357779Y-76352009D01*
X93357779Y-76352009D02*
X93310160Y-76304390D01*
X93310160Y-76304390D02*
X93357779Y-76256771D01*
X93357779Y-76256771D02*
X93357779Y-76352009D01*
X94738731Y-76304390D02*
X94643493Y-76256771D01*
X94643493Y-76256771D02*
X94595874Y-76209152D01*
X94595874Y-76209152D02*
X94548255Y-76113914D01*
X94548255Y-76113914D02*
X94548255Y-76066295D01*
X94548255Y-76066295D02*
X94595874Y-75971057D01*
X94595874Y-75971057D02*
X94643493Y-75923438D01*
X94643493Y-75923438D02*
X94738731Y-75875819D01*
X94738731Y-75875819D02*
X94929207Y-75875819D01*
X94929207Y-75875819D02*
X95024445Y-75923438D01*
X95024445Y-75923438D02*
X95072064Y-75971057D01*
X95072064Y-75971057D02*
X95119683Y-76066295D01*
X95119683Y-76066295D02*
X95119683Y-76113914D01*
X95119683Y-76113914D02*
X95072064Y-76209152D01*
X95072064Y-76209152D02*
X95024445Y-76256771D01*
X95024445Y-76256771D02*
X94929207Y-76304390D01*
X94929207Y-76304390D02*
X94738731Y-76304390D01*
X94738731Y-76304390D02*
X94643493Y-76352009D01*
X94643493Y-76352009D02*
X94595874Y-76399628D01*
X94595874Y-76399628D02*
X94548255Y-76494866D01*
X94548255Y-76494866D02*
X94548255Y-76685342D01*
X94548255Y-76685342D02*
X94595874Y-76780580D01*
X94595874Y-76780580D02*
X94643493Y-76828200D01*
X94643493Y-76828200D02*
X94738731Y-76875819D01*
X94738731Y-76875819D02*
X94929207Y-76875819D01*
X94929207Y-76875819D02*
X95024445Y-76828200D01*
X95024445Y-76828200D02*
X95072064Y-76780580D01*
X95072064Y-76780580D02*
X95119683Y-76685342D01*
X95119683Y-76685342D02*
X95119683Y-76494866D01*
X95119683Y-76494866D02*
X95072064Y-76399628D01*
X95072064Y-76399628D02*
X95024445Y-76352009D01*
X95024445Y-76352009D02*
X94929207Y-76304390D01*
X95738731Y-75875819D02*
X95833969Y-75875819D01*
X95833969Y-75875819D02*
X95929207Y-75923438D01*
X95929207Y-75923438D02*
X95976826Y-75971057D01*
X95976826Y-75971057D02*
X96024445Y-76066295D01*
X96024445Y-76066295D02*
X96072064Y-76256771D01*
X96072064Y-76256771D02*
X96072064Y-76494866D01*
X96072064Y-76494866D02*
X96024445Y-76685342D01*
X96024445Y-76685342D02*
X95976826Y-76780580D01*
X95976826Y-76780580D02*
X95929207Y-76828200D01*
X95929207Y-76828200D02*
X95833969Y-76875819D01*
X95833969Y-76875819D02*
X95738731Y-76875819D01*
X95738731Y-76875819D02*
X95643493Y-76828200D01*
X95643493Y-76828200D02*
X95595874Y-76780580D01*
X95595874Y-76780580D02*
X95548255Y-76685342D01*
X95548255Y-76685342D02*
X95500636Y-76494866D01*
X95500636Y-76494866D02*
X95500636Y-76256771D01*
X95500636Y-76256771D02*
X95548255Y-76066295D01*
X95548255Y-76066295D02*
X95595874Y-75971057D01*
X95595874Y-75971057D02*
X95643493Y-75923438D01*
X95643493Y-75923438D02*
X95738731Y-75875819D01*
X96691112Y-75875819D02*
X96786350Y-75875819D01*
X96786350Y-75875819D02*
X96881588Y-75923438D01*
X96881588Y-75923438D02*
X96929207Y-75971057D01*
X96929207Y-75971057D02*
X96976826Y-76066295D01*
X96976826Y-76066295D02*
X97024445Y-76256771D01*
X97024445Y-76256771D02*
X97024445Y-76494866D01*
X97024445Y-76494866D02*
X96976826Y-76685342D01*
X96976826Y-76685342D02*
X96929207Y-76780580D01*
X96929207Y-76780580D02*
X96881588Y-76828200D01*
X96881588Y-76828200D02*
X96786350Y-76875819D01*
X96786350Y-76875819D02*
X96691112Y-76875819D01*
X96691112Y-76875819D02*
X96595874Y-76828200D01*
X96595874Y-76828200D02*
X96548255Y-76780580D01*
X96548255Y-76780580D02*
X96500636Y-76685342D01*
X96500636Y-76685342D02*
X96453017Y-76494866D01*
X96453017Y-76494866D02*
X96453017Y-76256771D01*
X96453017Y-76256771D02*
X96500636Y-76066295D01*
X96500636Y-76066295D02*
X96548255Y-75971057D01*
X96548255Y-75971057D02*
X96595874Y-75923438D01*
X96595874Y-75923438D02*
X96691112Y-75875819D01*
X97643493Y-75875819D02*
X97738731Y-75875819D01*
X97738731Y-75875819D02*
X97833969Y-75923438D01*
X97833969Y-75923438D02*
X97881588Y-75971057D01*
X97881588Y-75971057D02*
X97929207Y-76066295D01*
X97929207Y-76066295D02*
X97976826Y-76256771D01*
X97976826Y-76256771D02*
X97976826Y-76494866D01*
X97976826Y-76494866D02*
X97929207Y-76685342D01*
X97929207Y-76685342D02*
X97881588Y-76780580D01*
X97881588Y-76780580D02*
X97833969Y-76828200D01*
X97833969Y-76828200D02*
X97738731Y-76875819D01*
X97738731Y-76875819D02*
X97643493Y-76875819D01*
X97643493Y-76875819D02*
X97548255Y-76828200D01*
X97548255Y-76828200D02*
X97500636Y-76780580D01*
X97500636Y-76780580D02*
X97453017Y-76685342D01*
X97453017Y-76685342D02*
X97405398Y-76494866D01*
X97405398Y-76494866D02*
X97405398Y-76256771D01*
X97405398Y-76256771D02*
X97453017Y-76066295D01*
X97453017Y-76066295D02*
X97500636Y-75971057D01*
X97500636Y-75971057D02*
X97548255Y-75923438D01*
X97548255Y-75923438D02*
X97643493Y-75875819D01*
X98405398Y-76494866D02*
X99167303Y-76494866D01*
X99976826Y-76352009D02*
X100119683Y-76399628D01*
X100119683Y-76399628D02*
X100167302Y-76447247D01*
X100167302Y-76447247D02*
X100214921Y-76542485D01*
X100214921Y-76542485D02*
X100214921Y-76685342D01*
X100214921Y-76685342D02*
X100167302Y-76780580D01*
X100167302Y-76780580D02*
X100119683Y-76828200D01*
X100119683Y-76828200D02*
X100024445Y-76875819D01*
X100024445Y-76875819D02*
X99643493Y-76875819D01*
X99643493Y-76875819D02*
X99643493Y-75875819D01*
X99643493Y-75875819D02*
X99976826Y-75875819D01*
X99976826Y-75875819D02*
X100072064Y-75923438D01*
X100072064Y-75923438D02*
X100119683Y-75971057D01*
X100119683Y-75971057D02*
X100167302Y-76066295D01*
X100167302Y-76066295D02*
X100167302Y-76161533D01*
X100167302Y-76161533D02*
X100119683Y-76256771D01*
X100119683Y-76256771D02*
X100072064Y-76304390D01*
X100072064Y-76304390D02*
X99976826Y-76352009D01*
X99976826Y-76352009D02*
X99643493Y-76352009D01*
X100976826Y-76352009D02*
X100643493Y-76352009D01*
X100643493Y-76875819D02*
X100643493Y-75875819D01*
X100643493Y-75875819D02*
X101119683Y-75875819D01*
X101833969Y-76352009D02*
X101500636Y-76352009D01*
X101500636Y-76875819D02*
X101500636Y-75875819D01*
X101500636Y-75875819D02*
X101976826Y-75875819D01*
X102691112Y-76352009D02*
X102357779Y-76352009D01*
X102357779Y-76875819D02*
X102357779Y-75875819D01*
X102357779Y-75875819D02*
X102833969Y-75875819D01*
X103214922Y-76780580D02*
X103262541Y-76828200D01*
X103262541Y-76828200D02*
X103214922Y-76875819D01*
X103214922Y-76875819D02*
X103167303Y-76828200D01*
X103167303Y-76828200D02*
X103214922Y-76780580D01*
X103214922Y-76780580D02*
X103214922Y-76875819D01*
X103214922Y-76256771D02*
X103262541Y-76304390D01*
X103262541Y-76304390D02*
X103214922Y-76352009D01*
X103214922Y-76352009D02*
X103167303Y-76304390D01*
X103167303Y-76304390D02*
X103214922Y-76256771D01*
X103214922Y-76256771D02*
X103214922Y-76352009D01*
X104786350Y-76352009D02*
X104929207Y-76399628D01*
X104929207Y-76399628D02*
X104976826Y-76447247D01*
X104976826Y-76447247D02*
X105024445Y-76542485D01*
X105024445Y-76542485D02*
X105024445Y-76685342D01*
X105024445Y-76685342D02*
X104976826Y-76780580D01*
X104976826Y-76780580D02*
X104929207Y-76828200D01*
X104929207Y-76828200D02*
X104833969Y-76875819D01*
X104833969Y-76875819D02*
X104453017Y-76875819D01*
X104453017Y-76875819D02*
X104453017Y-75875819D01*
X104453017Y-75875819D02*
X104786350Y-75875819D01*
X104786350Y-75875819D02*
X104881588Y-75923438D01*
X104881588Y-75923438D02*
X104929207Y-75971057D01*
X104929207Y-75971057D02*
X104976826Y-76066295D01*
X104976826Y-76066295D02*
X104976826Y-76161533D01*
X104976826Y-76161533D02*
X104929207Y-76256771D01*
X104929207Y-76256771D02*
X104881588Y-76304390D01*
X104881588Y-76304390D02*
X104786350Y-76352009D01*
X104786350Y-76352009D02*
X104453017Y-76352009D01*
X105881588Y-76875819D02*
X105881588Y-76352009D01*
X105881588Y-76352009D02*
X105833969Y-76256771D01*
X105833969Y-76256771D02*
X105738731Y-76209152D01*
X105738731Y-76209152D02*
X105548255Y-76209152D01*
X105548255Y-76209152D02*
X105453017Y-76256771D01*
X105881588Y-76828200D02*
X105786350Y-76875819D01*
X105786350Y-76875819D02*
X105548255Y-76875819D01*
X105548255Y-76875819D02*
X105453017Y-76828200D01*
X105453017Y-76828200D02*
X105405398Y-76732961D01*
X105405398Y-76732961D02*
X105405398Y-76637723D01*
X105405398Y-76637723D02*
X105453017Y-76542485D01*
X105453017Y-76542485D02*
X105548255Y-76494866D01*
X105548255Y-76494866D02*
X105786350Y-76494866D01*
X105786350Y-76494866D02*
X105881588Y-76447247D01*
X106357779Y-76209152D02*
X106357779Y-76875819D01*
X106357779Y-76304390D02*
X106405398Y-76256771D01*
X106405398Y-76256771D02*
X106500636Y-76209152D01*
X106500636Y-76209152D02*
X106643493Y-76209152D01*
X106643493Y-76209152D02*
X106738731Y-76256771D01*
X106738731Y-76256771D02*
X106786350Y-76352009D01*
X106786350Y-76352009D02*
X106786350Y-76875819D01*
X107262541Y-76875819D02*
X107262541Y-75875819D01*
X107357779Y-76494866D02*
X107643493Y-76875819D01*
X107643493Y-76209152D02*
X107262541Y-76590104D01*
X108595874Y-76875819D02*
X108024446Y-76875819D01*
X108310160Y-76875819D02*
X108310160Y-75875819D01*
X108310160Y-75875819D02*
X108214922Y-76018676D01*
X108214922Y-76018676D02*
X108119684Y-76113914D01*
X108119684Y-76113914D02*
X108024446Y-76161533D01*
X110072065Y-77256771D02*
X110024446Y-77209152D01*
X110024446Y-77209152D02*
X109929208Y-77066295D01*
X109929208Y-77066295D02*
X109881589Y-76971057D01*
X109881589Y-76971057D02*
X109833970Y-76828200D01*
X109833970Y-76828200D02*
X109786351Y-76590104D01*
X109786351Y-76590104D02*
X109786351Y-76399628D01*
X109786351Y-76399628D02*
X109833970Y-76161533D01*
X109833970Y-76161533D02*
X109881589Y-76018676D01*
X109881589Y-76018676D02*
X109929208Y-75923438D01*
X109929208Y-75923438D02*
X110024446Y-75780580D01*
X110024446Y-75780580D02*
X110072065Y-75732961D01*
X110405399Y-76209152D02*
X111119684Y-76209152D01*
X110691113Y-75780580D02*
X110405399Y-77066295D01*
X111024446Y-76637723D02*
X110310161Y-76637723D01*
X110738732Y-77066295D02*
X111024446Y-75780580D01*
X111643494Y-75875819D02*
X111738732Y-75875819D01*
X111738732Y-75875819D02*
X111833970Y-75923438D01*
X111833970Y-75923438D02*
X111881589Y-75971057D01*
X111881589Y-75971057D02*
X111929208Y-76066295D01*
X111929208Y-76066295D02*
X111976827Y-76256771D01*
X111976827Y-76256771D02*
X111976827Y-76494866D01*
X111976827Y-76494866D02*
X111929208Y-76685342D01*
X111929208Y-76685342D02*
X111881589Y-76780580D01*
X111881589Y-76780580D02*
X111833970Y-76828200D01*
X111833970Y-76828200D02*
X111738732Y-76875819D01*
X111738732Y-76875819D02*
X111643494Y-76875819D01*
X111643494Y-76875819D02*
X111548256Y-76828200D01*
X111548256Y-76828200D02*
X111500637Y-76780580D01*
X111500637Y-76780580D02*
X111453018Y-76685342D01*
X111453018Y-76685342D02*
X111405399Y-76494866D01*
X111405399Y-76494866D02*
X111405399Y-76256771D01*
X111405399Y-76256771D02*
X111453018Y-76066295D01*
X111453018Y-76066295D02*
X111500637Y-75971057D01*
X111500637Y-75971057D02*
X111548256Y-75923438D01*
X111548256Y-75923438D02*
X111643494Y-75875819D01*
X112405399Y-76494866D02*
X113167304Y-76494866D01*
X113595875Y-76209152D02*
X114310160Y-76209152D01*
X113881589Y-75780580D02*
X113595875Y-77066295D01*
X114214922Y-76637723D02*
X113500637Y-76637723D01*
X113929208Y-77066295D02*
X114214922Y-75780580D01*
X114548256Y-75875819D02*
X115167303Y-75875819D01*
X115167303Y-75875819D02*
X114833970Y-76256771D01*
X114833970Y-76256771D02*
X114976827Y-76256771D01*
X114976827Y-76256771D02*
X115072065Y-76304390D01*
X115072065Y-76304390D02*
X115119684Y-76352009D01*
X115119684Y-76352009D02*
X115167303Y-76447247D01*
X115167303Y-76447247D02*
X115167303Y-76685342D01*
X115167303Y-76685342D02*
X115119684Y-76780580D01*
X115119684Y-76780580D02*
X115072065Y-76828200D01*
X115072065Y-76828200D02*
X114976827Y-76875819D01*
X114976827Y-76875819D02*
X114691113Y-76875819D01*
X114691113Y-76875819D02*
X114595875Y-76828200D01*
X114595875Y-76828200D02*
X114548256Y-76780580D01*
X116119684Y-76875819D02*
X115548256Y-76875819D01*
X115833970Y-76875819D02*
X115833970Y-75875819D01*
X115833970Y-75875819D02*
X115738732Y-76018676D01*
X115738732Y-76018676D02*
X115643494Y-76113914D01*
X115643494Y-76113914D02*
X115548256Y-76161533D01*
X116453018Y-77256771D02*
X116500637Y-77209152D01*
X116500637Y-77209152D02*
X116595875Y-77066295D01*
X116595875Y-77066295D02*
X116643494Y-76971057D01*
X116643494Y-76971057D02*
X116691113Y-76828200D01*
X116691113Y-76828200D02*
X116738732Y-76590104D01*
X116738732Y-76590104D02*
X116738732Y-76399628D01*
X116738732Y-76399628D02*
X116691113Y-76161533D01*
X116691113Y-76161533D02*
X116643494Y-76018676D01*
X116643494Y-76018676D02*
X116595875Y-75923438D01*
X116595875Y-75923438D02*
X116500637Y-75780580D01*
X116500637Y-75780580D02*
X116453018Y-75732961D01*
X91262541Y-77485819D02*
X91500636Y-78485819D01*
X91500636Y-78485819D02*
X91691112Y-77771533D01*
X91691112Y-77771533D02*
X91881588Y-78485819D01*
X91881588Y-78485819D02*
X92119684Y-77485819D01*
X93072064Y-78485819D02*
X92738731Y-78009628D01*
X92500636Y-78485819D02*
X92500636Y-77485819D01*
X92500636Y-77485819D02*
X92881588Y-77485819D01*
X92881588Y-77485819D02*
X92976826Y-77533438D01*
X92976826Y-77533438D02*
X93024445Y-77581057D01*
X93024445Y-77581057D02*
X93072064Y-77676295D01*
X93072064Y-77676295D02*
X93072064Y-77819152D01*
X93072064Y-77819152D02*
X93024445Y-77914390D01*
X93024445Y-77914390D02*
X92976826Y-77962009D01*
X92976826Y-77962009D02*
X92881588Y-78009628D01*
X92881588Y-78009628D02*
X92500636Y-78009628D01*
X93500636Y-78390580D02*
X93548255Y-78438200D01*
X93548255Y-78438200D02*
X93500636Y-78485819D01*
X93500636Y-78485819D02*
X93453017Y-78438200D01*
X93453017Y-78438200D02*
X93500636Y-78390580D01*
X93500636Y-78390580D02*
X93500636Y-78485819D01*
X93500636Y-77866771D02*
X93548255Y-77914390D01*
X93548255Y-77914390D02*
X93500636Y-77962009D01*
X93500636Y-77962009D02*
X93453017Y-77914390D01*
X93453017Y-77914390D02*
X93500636Y-77866771D01*
X93500636Y-77866771D02*
X93500636Y-77962009D01*
X95167302Y-77819152D02*
X95167302Y-78485819D01*
X94929207Y-77438200D02*
X94691112Y-78152485D01*
X94691112Y-78152485D02*
X95310159Y-78152485D01*
X95881588Y-77485819D02*
X95976826Y-77485819D01*
X95976826Y-77485819D02*
X96072064Y-77533438D01*
X96072064Y-77533438D02*
X96119683Y-77581057D01*
X96119683Y-77581057D02*
X96167302Y-77676295D01*
X96167302Y-77676295D02*
X96214921Y-77866771D01*
X96214921Y-77866771D02*
X96214921Y-78104866D01*
X96214921Y-78104866D02*
X96167302Y-78295342D01*
X96167302Y-78295342D02*
X96119683Y-78390580D01*
X96119683Y-78390580D02*
X96072064Y-78438200D01*
X96072064Y-78438200D02*
X95976826Y-78485819D01*
X95976826Y-78485819D02*
X95881588Y-78485819D01*
X95881588Y-78485819D02*
X95786350Y-78438200D01*
X95786350Y-78438200D02*
X95738731Y-78390580D01*
X95738731Y-78390580D02*
X95691112Y-78295342D01*
X95691112Y-78295342D02*
X95643493Y-78104866D01*
X95643493Y-78104866D02*
X95643493Y-77866771D01*
X95643493Y-77866771D02*
X95691112Y-77676295D01*
X95691112Y-77676295D02*
X95738731Y-77581057D01*
X95738731Y-77581057D02*
X95786350Y-77533438D01*
X95786350Y-77533438D02*
X95881588Y-77485819D01*
X96833969Y-77485819D02*
X96929207Y-77485819D01*
X96929207Y-77485819D02*
X97024445Y-77533438D01*
X97024445Y-77533438D02*
X97072064Y-77581057D01*
X97072064Y-77581057D02*
X97119683Y-77676295D01*
X97119683Y-77676295D02*
X97167302Y-77866771D01*
X97167302Y-77866771D02*
X97167302Y-78104866D01*
X97167302Y-78104866D02*
X97119683Y-78295342D01*
X97119683Y-78295342D02*
X97072064Y-78390580D01*
X97072064Y-78390580D02*
X97024445Y-78438200D01*
X97024445Y-78438200D02*
X96929207Y-78485819D01*
X96929207Y-78485819D02*
X96833969Y-78485819D01*
X96833969Y-78485819D02*
X96738731Y-78438200D01*
X96738731Y-78438200D02*
X96691112Y-78390580D01*
X96691112Y-78390580D02*
X96643493Y-78295342D01*
X96643493Y-78295342D02*
X96595874Y-78104866D01*
X96595874Y-78104866D02*
X96595874Y-77866771D01*
X96595874Y-77866771D02*
X96643493Y-77676295D01*
X96643493Y-77676295D02*
X96691112Y-77581057D01*
X96691112Y-77581057D02*
X96738731Y-77533438D01*
X96738731Y-77533438D02*
X96833969Y-77485819D01*
X97786350Y-77485819D02*
X97881588Y-77485819D01*
X97881588Y-77485819D02*
X97976826Y-77533438D01*
X97976826Y-77533438D02*
X98024445Y-77581057D01*
X98024445Y-77581057D02*
X98072064Y-77676295D01*
X98072064Y-77676295D02*
X98119683Y-77866771D01*
X98119683Y-77866771D02*
X98119683Y-78104866D01*
X98119683Y-78104866D02*
X98072064Y-78295342D01*
X98072064Y-78295342D02*
X98024445Y-78390580D01*
X98024445Y-78390580D02*
X97976826Y-78438200D01*
X97976826Y-78438200D02*
X97881588Y-78485819D01*
X97881588Y-78485819D02*
X97786350Y-78485819D01*
X97786350Y-78485819D02*
X97691112Y-78438200D01*
X97691112Y-78438200D02*
X97643493Y-78390580D01*
X97643493Y-78390580D02*
X97595874Y-78295342D01*
X97595874Y-78295342D02*
X97548255Y-78104866D01*
X97548255Y-78104866D02*
X97548255Y-77866771D01*
X97548255Y-77866771D02*
X97595874Y-77676295D01*
X97595874Y-77676295D02*
X97643493Y-77581057D01*
X97643493Y-77581057D02*
X97691112Y-77533438D01*
X97691112Y-77533438D02*
X97786350Y-77485819D01*
X98548255Y-78104866D02*
X99310160Y-78104866D01*
X99691112Y-77485819D02*
X100357778Y-77485819D01*
X100357778Y-77485819D02*
X99929207Y-78485819D01*
X101072064Y-77962009D02*
X100738731Y-77962009D01*
X100738731Y-78485819D02*
X100738731Y-77485819D01*
X100738731Y-77485819D02*
X101214921Y-77485819D01*
X101929207Y-77962009D02*
X101595874Y-77962009D01*
X101595874Y-78485819D02*
X101595874Y-77485819D01*
X101595874Y-77485819D02*
X102072064Y-77485819D01*
X102786350Y-77962009D02*
X102453017Y-77962009D01*
X102453017Y-78485819D02*
X102453017Y-77485819D01*
X102453017Y-77485819D02*
X102929207Y-77485819D01*
X103310160Y-78390580D02*
X103357779Y-78438200D01*
X103357779Y-78438200D02*
X103310160Y-78485819D01*
X103310160Y-78485819D02*
X103262541Y-78438200D01*
X103262541Y-78438200D02*
X103310160Y-78390580D01*
X103310160Y-78390580D02*
X103310160Y-78485819D01*
X103310160Y-77866771D02*
X103357779Y-77914390D01*
X103357779Y-77914390D02*
X103310160Y-77962009D01*
X103310160Y-77962009D02*
X103262541Y-77914390D01*
X103262541Y-77914390D02*
X103310160Y-77866771D01*
X103310160Y-77866771D02*
X103310160Y-77962009D01*
X104881588Y-77962009D02*
X105024445Y-78009628D01*
X105024445Y-78009628D02*
X105072064Y-78057247D01*
X105072064Y-78057247D02*
X105119683Y-78152485D01*
X105119683Y-78152485D02*
X105119683Y-78295342D01*
X105119683Y-78295342D02*
X105072064Y-78390580D01*
X105072064Y-78390580D02*
X105024445Y-78438200D01*
X105024445Y-78438200D02*
X104929207Y-78485819D01*
X104929207Y-78485819D02*
X104548255Y-78485819D01*
X104548255Y-78485819D02*
X104548255Y-77485819D01*
X104548255Y-77485819D02*
X104881588Y-77485819D01*
X104881588Y-77485819D02*
X104976826Y-77533438D01*
X104976826Y-77533438D02*
X105024445Y-77581057D01*
X105024445Y-77581057D02*
X105072064Y-77676295D01*
X105072064Y-77676295D02*
X105072064Y-77771533D01*
X105072064Y-77771533D02*
X105024445Y-77866771D01*
X105024445Y-77866771D02*
X104976826Y-77914390D01*
X104976826Y-77914390D02*
X104881588Y-77962009D01*
X104881588Y-77962009D02*
X104548255Y-77962009D01*
X105976826Y-78485819D02*
X105976826Y-77962009D01*
X105976826Y-77962009D02*
X105929207Y-77866771D01*
X105929207Y-77866771D02*
X105833969Y-77819152D01*
X105833969Y-77819152D02*
X105643493Y-77819152D01*
X105643493Y-77819152D02*
X105548255Y-77866771D01*
X105976826Y-78438200D02*
X105881588Y-78485819D01*
X105881588Y-78485819D02*
X105643493Y-78485819D01*
X105643493Y-78485819D02*
X105548255Y-78438200D01*
X105548255Y-78438200D02*
X105500636Y-78342961D01*
X105500636Y-78342961D02*
X105500636Y-78247723D01*
X105500636Y-78247723D02*
X105548255Y-78152485D01*
X105548255Y-78152485D02*
X105643493Y-78104866D01*
X105643493Y-78104866D02*
X105881588Y-78104866D01*
X105881588Y-78104866D02*
X105976826Y-78057247D01*
X106453017Y-77819152D02*
X106453017Y-78485819D01*
X106453017Y-77914390D02*
X106500636Y-77866771D01*
X106500636Y-77866771D02*
X106595874Y-77819152D01*
X106595874Y-77819152D02*
X106738731Y-77819152D01*
X106738731Y-77819152D02*
X106833969Y-77866771D01*
X106833969Y-77866771D02*
X106881588Y-77962009D01*
X106881588Y-77962009D02*
X106881588Y-78485819D01*
X107357779Y-78485819D02*
X107357779Y-77485819D01*
X107453017Y-78104866D02*
X107738731Y-78485819D01*
X107738731Y-77819152D02*
X107357779Y-78200104D01*
X108691112Y-78485819D02*
X108119684Y-78485819D01*
X108405398Y-78485819D02*
X108405398Y-77485819D01*
X108405398Y-77485819D02*
X108310160Y-77628676D01*
X108310160Y-77628676D02*
X108214922Y-77723914D01*
X108214922Y-77723914D02*
X108119684Y-77771533D01*
X109833970Y-78438200D02*
X109976827Y-78485819D01*
X109976827Y-78485819D02*
X110214922Y-78485819D01*
X110214922Y-78485819D02*
X110310160Y-78438200D01*
X110310160Y-78438200D02*
X110357779Y-78390580D01*
X110357779Y-78390580D02*
X110405398Y-78295342D01*
X110405398Y-78295342D02*
X110405398Y-78200104D01*
X110405398Y-78200104D02*
X110357779Y-78104866D01*
X110357779Y-78104866D02*
X110310160Y-78057247D01*
X110310160Y-78057247D02*
X110214922Y-78009628D01*
X110214922Y-78009628D02*
X110024446Y-77962009D01*
X110024446Y-77962009D02*
X109929208Y-77914390D01*
X109929208Y-77914390D02*
X109881589Y-77866771D01*
X109881589Y-77866771D02*
X109833970Y-77771533D01*
X109833970Y-77771533D02*
X109833970Y-77676295D01*
X109833970Y-77676295D02*
X109881589Y-77581057D01*
X109881589Y-77581057D02*
X109929208Y-77533438D01*
X109929208Y-77533438D02*
X110024446Y-77485819D01*
X110024446Y-77485819D02*
X110262541Y-77485819D01*
X110262541Y-77485819D02*
X110405398Y-77533438D01*
X111214922Y-78438200D02*
X111119684Y-78485819D01*
X111119684Y-78485819D02*
X110929208Y-78485819D01*
X110929208Y-78485819D02*
X110833970Y-78438200D01*
X110833970Y-78438200D02*
X110786351Y-78342961D01*
X110786351Y-78342961D02*
X110786351Y-77962009D01*
X110786351Y-77962009D02*
X110833970Y-77866771D01*
X110833970Y-77866771D02*
X110929208Y-77819152D01*
X110929208Y-77819152D02*
X111119684Y-77819152D01*
X111119684Y-77819152D02*
X111214922Y-77866771D01*
X111214922Y-77866771D02*
X111262541Y-77962009D01*
X111262541Y-77962009D02*
X111262541Y-78057247D01*
X111262541Y-78057247D02*
X110786351Y-78152485D01*
X111833970Y-78485819D02*
X111738732Y-78438200D01*
X111738732Y-78438200D02*
X111691113Y-78342961D01*
X111691113Y-78342961D02*
X111691113Y-77485819D01*
X112595875Y-78438200D02*
X112500637Y-78485819D01*
X112500637Y-78485819D02*
X112310161Y-78485819D01*
X112310161Y-78485819D02*
X112214923Y-78438200D01*
X112214923Y-78438200D02*
X112167304Y-78342961D01*
X112167304Y-78342961D02*
X112167304Y-77962009D01*
X112167304Y-77962009D02*
X112214923Y-77866771D01*
X112214923Y-77866771D02*
X112310161Y-77819152D01*
X112310161Y-77819152D02*
X112500637Y-77819152D01*
X112500637Y-77819152D02*
X112595875Y-77866771D01*
X112595875Y-77866771D02*
X112643494Y-77962009D01*
X112643494Y-77962009D02*
X112643494Y-78057247D01*
X112643494Y-78057247D02*
X112167304Y-78152485D01*
X113500637Y-78438200D02*
X113405399Y-78485819D01*
X113405399Y-78485819D02*
X113214923Y-78485819D01*
X113214923Y-78485819D02*
X113119685Y-78438200D01*
X113119685Y-78438200D02*
X113072066Y-78390580D01*
X113072066Y-78390580D02*
X113024447Y-78295342D01*
X113024447Y-78295342D02*
X113024447Y-78009628D01*
X113024447Y-78009628D02*
X113072066Y-77914390D01*
X113072066Y-77914390D02*
X113119685Y-77866771D01*
X113119685Y-77866771D02*
X113214923Y-77819152D01*
X113214923Y-77819152D02*
X113405399Y-77819152D01*
X113405399Y-77819152D02*
X113500637Y-77866771D01*
X113786352Y-77819152D02*
X114167304Y-77819152D01*
X113929209Y-77485819D02*
X113929209Y-78342961D01*
X113929209Y-78342961D02*
X113976828Y-78438200D01*
X113976828Y-78438200D02*
X114072066Y-78485819D01*
X114072066Y-78485819D02*
X114167304Y-78485819D01*
X91262541Y-79095819D02*
X91500636Y-80095819D01*
X91500636Y-80095819D02*
X91691112Y-79381533D01*
X91691112Y-79381533D02*
X91881588Y-80095819D01*
X91881588Y-80095819D02*
X92119684Y-79095819D01*
X93072064Y-80095819D02*
X92738731Y-79619628D01*
X92500636Y-80095819D02*
X92500636Y-79095819D01*
X92500636Y-79095819D02*
X92881588Y-79095819D01*
X92881588Y-79095819D02*
X92976826Y-79143438D01*
X92976826Y-79143438D02*
X93024445Y-79191057D01*
X93024445Y-79191057D02*
X93072064Y-79286295D01*
X93072064Y-79286295D02*
X93072064Y-79429152D01*
X93072064Y-79429152D02*
X93024445Y-79524390D01*
X93024445Y-79524390D02*
X92976826Y-79572009D01*
X92976826Y-79572009D02*
X92881588Y-79619628D01*
X92881588Y-79619628D02*
X92500636Y-79619628D01*
X93500636Y-80000580D02*
X93548255Y-80048200D01*
X93548255Y-80048200D02*
X93500636Y-80095819D01*
X93500636Y-80095819D02*
X93453017Y-80048200D01*
X93453017Y-80048200D02*
X93500636Y-80000580D01*
X93500636Y-80000580D02*
X93500636Y-80095819D01*
X93500636Y-79476771D02*
X93548255Y-79524390D01*
X93548255Y-79524390D02*
X93500636Y-79572009D01*
X93500636Y-79572009D02*
X93453017Y-79524390D01*
X93453017Y-79524390D02*
X93500636Y-79476771D01*
X93500636Y-79476771D02*
X93500636Y-79572009D01*
X94881588Y-79524390D02*
X94786350Y-79476771D01*
X94786350Y-79476771D02*
X94738731Y-79429152D01*
X94738731Y-79429152D02*
X94691112Y-79333914D01*
X94691112Y-79333914D02*
X94691112Y-79286295D01*
X94691112Y-79286295D02*
X94738731Y-79191057D01*
X94738731Y-79191057D02*
X94786350Y-79143438D01*
X94786350Y-79143438D02*
X94881588Y-79095819D01*
X94881588Y-79095819D02*
X95072064Y-79095819D01*
X95072064Y-79095819D02*
X95167302Y-79143438D01*
X95167302Y-79143438D02*
X95214921Y-79191057D01*
X95214921Y-79191057D02*
X95262540Y-79286295D01*
X95262540Y-79286295D02*
X95262540Y-79333914D01*
X95262540Y-79333914D02*
X95214921Y-79429152D01*
X95214921Y-79429152D02*
X95167302Y-79476771D01*
X95167302Y-79476771D02*
X95072064Y-79524390D01*
X95072064Y-79524390D02*
X94881588Y-79524390D01*
X94881588Y-79524390D02*
X94786350Y-79572009D01*
X94786350Y-79572009D02*
X94738731Y-79619628D01*
X94738731Y-79619628D02*
X94691112Y-79714866D01*
X94691112Y-79714866D02*
X94691112Y-79905342D01*
X94691112Y-79905342D02*
X94738731Y-80000580D01*
X94738731Y-80000580D02*
X94786350Y-80048200D01*
X94786350Y-80048200D02*
X94881588Y-80095819D01*
X94881588Y-80095819D02*
X95072064Y-80095819D01*
X95072064Y-80095819D02*
X95167302Y-80048200D01*
X95167302Y-80048200D02*
X95214921Y-80000580D01*
X95214921Y-80000580D02*
X95262540Y-79905342D01*
X95262540Y-79905342D02*
X95262540Y-79714866D01*
X95262540Y-79714866D02*
X95214921Y-79619628D01*
X95214921Y-79619628D02*
X95167302Y-79572009D01*
X95167302Y-79572009D02*
X95072064Y-79524390D01*
X95881588Y-79095819D02*
X95976826Y-79095819D01*
X95976826Y-79095819D02*
X96072064Y-79143438D01*
X96072064Y-79143438D02*
X96119683Y-79191057D01*
X96119683Y-79191057D02*
X96167302Y-79286295D01*
X96167302Y-79286295D02*
X96214921Y-79476771D01*
X96214921Y-79476771D02*
X96214921Y-79714866D01*
X96214921Y-79714866D02*
X96167302Y-79905342D01*
X96167302Y-79905342D02*
X96119683Y-80000580D01*
X96119683Y-80000580D02*
X96072064Y-80048200D01*
X96072064Y-80048200D02*
X95976826Y-80095819D01*
X95976826Y-80095819D02*
X95881588Y-80095819D01*
X95881588Y-80095819D02*
X95786350Y-80048200D01*
X95786350Y-80048200D02*
X95738731Y-80000580D01*
X95738731Y-80000580D02*
X95691112Y-79905342D01*
X95691112Y-79905342D02*
X95643493Y-79714866D01*
X95643493Y-79714866D02*
X95643493Y-79476771D01*
X95643493Y-79476771D02*
X95691112Y-79286295D01*
X95691112Y-79286295D02*
X95738731Y-79191057D01*
X95738731Y-79191057D02*
X95786350Y-79143438D01*
X95786350Y-79143438D02*
X95881588Y-79095819D01*
X96833969Y-79095819D02*
X96929207Y-79095819D01*
X96929207Y-79095819D02*
X97024445Y-79143438D01*
X97024445Y-79143438D02*
X97072064Y-79191057D01*
X97072064Y-79191057D02*
X97119683Y-79286295D01*
X97119683Y-79286295D02*
X97167302Y-79476771D01*
X97167302Y-79476771D02*
X97167302Y-79714866D01*
X97167302Y-79714866D02*
X97119683Y-79905342D01*
X97119683Y-79905342D02*
X97072064Y-80000580D01*
X97072064Y-80000580D02*
X97024445Y-80048200D01*
X97024445Y-80048200D02*
X96929207Y-80095819D01*
X96929207Y-80095819D02*
X96833969Y-80095819D01*
X96833969Y-80095819D02*
X96738731Y-80048200D01*
X96738731Y-80048200D02*
X96691112Y-80000580D01*
X96691112Y-80000580D02*
X96643493Y-79905342D01*
X96643493Y-79905342D02*
X96595874Y-79714866D01*
X96595874Y-79714866D02*
X96595874Y-79476771D01*
X96595874Y-79476771D02*
X96643493Y-79286295D01*
X96643493Y-79286295D02*
X96691112Y-79191057D01*
X96691112Y-79191057D02*
X96738731Y-79143438D01*
X96738731Y-79143438D02*
X96833969Y-79095819D01*
X97786350Y-79095819D02*
X97881588Y-79095819D01*
X97881588Y-79095819D02*
X97976826Y-79143438D01*
X97976826Y-79143438D02*
X98024445Y-79191057D01*
X98024445Y-79191057D02*
X98072064Y-79286295D01*
X98072064Y-79286295D02*
X98119683Y-79476771D01*
X98119683Y-79476771D02*
X98119683Y-79714866D01*
X98119683Y-79714866D02*
X98072064Y-79905342D01*
X98072064Y-79905342D02*
X98024445Y-80000580D01*
X98024445Y-80000580D02*
X97976826Y-80048200D01*
X97976826Y-80048200D02*
X97881588Y-80095819D01*
X97881588Y-80095819D02*
X97786350Y-80095819D01*
X97786350Y-80095819D02*
X97691112Y-80048200D01*
X97691112Y-80048200D02*
X97643493Y-80000580D01*
X97643493Y-80000580D02*
X97595874Y-79905342D01*
X97595874Y-79905342D02*
X97548255Y-79714866D01*
X97548255Y-79714866D02*
X97548255Y-79476771D01*
X97548255Y-79476771D02*
X97595874Y-79286295D01*
X97595874Y-79286295D02*
X97643493Y-79191057D01*
X97643493Y-79191057D02*
X97691112Y-79143438D01*
X97691112Y-79143438D02*
X97786350Y-79095819D01*
X98548255Y-79714866D02*
X99310160Y-79714866D01*
X100119683Y-79572009D02*
X100262540Y-79619628D01*
X100262540Y-79619628D02*
X100310159Y-79667247D01*
X100310159Y-79667247D02*
X100357778Y-79762485D01*
X100357778Y-79762485D02*
X100357778Y-79905342D01*
X100357778Y-79905342D02*
X100310159Y-80000580D01*
X100310159Y-80000580D02*
X100262540Y-80048200D01*
X100262540Y-80048200D02*
X100167302Y-80095819D01*
X100167302Y-80095819D02*
X99786350Y-80095819D01*
X99786350Y-80095819D02*
X99786350Y-79095819D01*
X99786350Y-79095819D02*
X100119683Y-79095819D01*
X100119683Y-79095819D02*
X100214921Y-79143438D01*
X100214921Y-79143438D02*
X100262540Y-79191057D01*
X100262540Y-79191057D02*
X100310159Y-79286295D01*
X100310159Y-79286295D02*
X100310159Y-79381533D01*
X100310159Y-79381533D02*
X100262540Y-79476771D01*
X100262540Y-79476771D02*
X100214921Y-79524390D01*
X100214921Y-79524390D02*
X100119683Y-79572009D01*
X100119683Y-79572009D02*
X99786350Y-79572009D01*
X101119683Y-79572009D02*
X100786350Y-79572009D01*
X100786350Y-80095819D02*
X100786350Y-79095819D01*
X100786350Y-79095819D02*
X101262540Y-79095819D01*
X101976826Y-79572009D02*
X101643493Y-79572009D01*
X101643493Y-80095819D02*
X101643493Y-79095819D01*
X101643493Y-79095819D02*
X102119683Y-79095819D01*
X102833969Y-79572009D02*
X102500636Y-79572009D01*
X102500636Y-80095819D02*
X102500636Y-79095819D01*
X102500636Y-79095819D02*
X102976826Y-79095819D01*
X103357779Y-80000580D02*
X103405398Y-80048200D01*
X103405398Y-80048200D02*
X103357779Y-80095819D01*
X103357779Y-80095819D02*
X103310160Y-80048200D01*
X103310160Y-80048200D02*
X103357779Y-80000580D01*
X103357779Y-80000580D02*
X103357779Y-80095819D01*
X103357779Y-79476771D02*
X103405398Y-79524390D01*
X103405398Y-79524390D02*
X103357779Y-79572009D01*
X103357779Y-79572009D02*
X103310160Y-79524390D01*
X103310160Y-79524390D02*
X103357779Y-79476771D01*
X103357779Y-79476771D02*
X103357779Y-79572009D01*
X104929207Y-79572009D02*
X105072064Y-79619628D01*
X105072064Y-79619628D02*
X105119683Y-79667247D01*
X105119683Y-79667247D02*
X105167302Y-79762485D01*
X105167302Y-79762485D02*
X105167302Y-79905342D01*
X105167302Y-79905342D02*
X105119683Y-80000580D01*
X105119683Y-80000580D02*
X105072064Y-80048200D01*
X105072064Y-80048200D02*
X104976826Y-80095819D01*
X104976826Y-80095819D02*
X104595874Y-80095819D01*
X104595874Y-80095819D02*
X104595874Y-79095819D01*
X104595874Y-79095819D02*
X104929207Y-79095819D01*
X104929207Y-79095819D02*
X105024445Y-79143438D01*
X105024445Y-79143438D02*
X105072064Y-79191057D01*
X105072064Y-79191057D02*
X105119683Y-79286295D01*
X105119683Y-79286295D02*
X105119683Y-79381533D01*
X105119683Y-79381533D02*
X105072064Y-79476771D01*
X105072064Y-79476771D02*
X105024445Y-79524390D01*
X105024445Y-79524390D02*
X104929207Y-79572009D01*
X104929207Y-79572009D02*
X104595874Y-79572009D01*
X106024445Y-80095819D02*
X106024445Y-79572009D01*
X106024445Y-79572009D02*
X105976826Y-79476771D01*
X105976826Y-79476771D02*
X105881588Y-79429152D01*
X105881588Y-79429152D02*
X105691112Y-79429152D01*
X105691112Y-79429152D02*
X105595874Y-79476771D01*
X106024445Y-80048200D02*
X105929207Y-80095819D01*
X105929207Y-80095819D02*
X105691112Y-80095819D01*
X105691112Y-80095819D02*
X105595874Y-80048200D01*
X105595874Y-80048200D02*
X105548255Y-79952961D01*
X105548255Y-79952961D02*
X105548255Y-79857723D01*
X105548255Y-79857723D02*
X105595874Y-79762485D01*
X105595874Y-79762485D02*
X105691112Y-79714866D01*
X105691112Y-79714866D02*
X105929207Y-79714866D01*
X105929207Y-79714866D02*
X106024445Y-79667247D01*
X106500636Y-79429152D02*
X106500636Y-80095819D01*
X106500636Y-79524390D02*
X106548255Y-79476771D01*
X106548255Y-79476771D02*
X106643493Y-79429152D01*
X106643493Y-79429152D02*
X106786350Y-79429152D01*
X106786350Y-79429152D02*
X106881588Y-79476771D01*
X106881588Y-79476771D02*
X106929207Y-79572009D01*
X106929207Y-79572009D02*
X106929207Y-80095819D01*
X107405398Y-80095819D02*
X107405398Y-79095819D01*
X107500636Y-79714866D02*
X107786350Y-80095819D01*
X107786350Y-79429152D02*
X107405398Y-79810104D01*
X108738731Y-80095819D02*
X108167303Y-80095819D01*
X108453017Y-80095819D02*
X108453017Y-79095819D01*
X108453017Y-79095819D02*
X108357779Y-79238676D01*
X108357779Y-79238676D02*
X108262541Y-79333914D01*
X108262541Y-79333914D02*
X108167303Y-79381533D01*
X109833970Y-79095819D02*
X110072065Y-80095819D01*
X110072065Y-80095819D02*
X110262541Y-79381533D01*
X110262541Y-79381533D02*
X110453017Y-80095819D01*
X110453017Y-80095819D02*
X110691113Y-79095819D01*
X111072065Y-80095819D02*
X111072065Y-79429152D01*
X111072065Y-79619628D02*
X111119684Y-79524390D01*
X111119684Y-79524390D02*
X111167303Y-79476771D01*
X111167303Y-79476771D02*
X111262541Y-79429152D01*
X111262541Y-79429152D02*
X111357779Y-79429152D01*
X111691113Y-80095819D02*
X111691113Y-79429152D01*
X111691113Y-79095819D02*
X111643494Y-79143438D01*
X111643494Y-79143438D02*
X111691113Y-79191057D01*
X111691113Y-79191057D02*
X111738732Y-79143438D01*
X111738732Y-79143438D02*
X111691113Y-79095819D01*
X111691113Y-79095819D02*
X111691113Y-79191057D01*
X112024446Y-79429152D02*
X112405398Y-79429152D01*
X112167303Y-79095819D02*
X112167303Y-79952961D01*
X112167303Y-79952961D02*
X112214922Y-80048200D01*
X112214922Y-80048200D02*
X112310160Y-80095819D01*
X112310160Y-80095819D02*
X112405398Y-80095819D01*
X113119684Y-80048200D02*
X113024446Y-80095819D01*
X113024446Y-80095819D02*
X112833970Y-80095819D01*
X112833970Y-80095819D02*
X112738732Y-80048200D01*
X112738732Y-80048200D02*
X112691113Y-79952961D01*
X112691113Y-79952961D02*
X112691113Y-79572009D01*
X112691113Y-79572009D02*
X112738732Y-79476771D01*
X112738732Y-79476771D02*
X112833970Y-79429152D01*
X112833970Y-79429152D02*
X113024446Y-79429152D01*
X113024446Y-79429152D02*
X113119684Y-79476771D01*
X113119684Y-79476771D02*
X113167303Y-79572009D01*
X113167303Y-79572009D02*
X113167303Y-79667247D01*
X113167303Y-79667247D02*
X112691113Y-79762485D01*
X136887207Y-55838819D02*
X136553874Y-55362628D01*
X136315779Y-55838819D02*
X136315779Y-54838819D01*
X136315779Y-54838819D02*
X136696731Y-54838819D01*
X136696731Y-54838819D02*
X136791969Y-54886438D01*
X136791969Y-54886438D02*
X136839588Y-54934057D01*
X136839588Y-54934057D02*
X136887207Y-55029295D01*
X136887207Y-55029295D02*
X136887207Y-55172152D01*
X136887207Y-55172152D02*
X136839588Y-55267390D01*
X136839588Y-55267390D02*
X136791969Y-55315009D01*
X136791969Y-55315009D02*
X136696731Y-55362628D01*
X136696731Y-55362628D02*
X136315779Y-55362628D01*
X137506255Y-54838819D02*
X137696731Y-54838819D01*
X137696731Y-54838819D02*
X137791969Y-54886438D01*
X137791969Y-54886438D02*
X137887207Y-54981676D01*
X137887207Y-54981676D02*
X137934826Y-55172152D01*
X137934826Y-55172152D02*
X137934826Y-55505485D01*
X137934826Y-55505485D02*
X137887207Y-55695961D01*
X137887207Y-55695961D02*
X137791969Y-55791200D01*
X137791969Y-55791200D02*
X137696731Y-55838819D01*
X137696731Y-55838819D02*
X137506255Y-55838819D01*
X137506255Y-55838819D02*
X137411017Y-55791200D01*
X137411017Y-55791200D02*
X137315779Y-55695961D01*
X137315779Y-55695961D02*
X137268160Y-55505485D01*
X137268160Y-55505485D02*
X137268160Y-55172152D01*
X137268160Y-55172152D02*
X137315779Y-54981676D01*
X137315779Y-54981676D02*
X137411017Y-54886438D01*
X137411017Y-54886438D02*
X137506255Y-54838819D01*
X138363398Y-55838819D02*
X138363398Y-54838819D01*
X138363398Y-54838819D02*
X138696731Y-55553104D01*
X138696731Y-55553104D02*
X139030064Y-54838819D01*
X139030064Y-54838819D02*
X139030064Y-55838819D01*
X69577207Y-89747819D02*
X69243874Y-89271628D01*
X69005779Y-89747819D02*
X69005779Y-88747819D01*
X69005779Y-88747819D02*
X69386731Y-88747819D01*
X69386731Y-88747819D02*
X69481969Y-88795438D01*
X69481969Y-88795438D02*
X69529588Y-88843057D01*
X69529588Y-88843057D02*
X69577207Y-88938295D01*
X69577207Y-88938295D02*
X69577207Y-89081152D01*
X69577207Y-89081152D02*
X69529588Y-89176390D01*
X69529588Y-89176390D02*
X69481969Y-89224009D01*
X69481969Y-89224009D02*
X69386731Y-89271628D01*
X69386731Y-89271628D02*
X69005779Y-89271628D01*
X70529588Y-89747819D02*
X69958160Y-89747819D01*
X70243874Y-89747819D02*
X70243874Y-88747819D01*
X70243874Y-88747819D02*
X70148636Y-88890676D01*
X70148636Y-88890676D02*
X70053398Y-88985914D01*
X70053398Y-88985914D02*
X69958160Y-89033533D01*
X70958160Y-89366866D02*
X71720065Y-89366866D01*
X72767683Y-89747819D02*
X72434350Y-89271628D01*
X72196255Y-89747819D02*
X72196255Y-88747819D01*
X72196255Y-88747819D02*
X72577207Y-88747819D01*
X72577207Y-88747819D02*
X72672445Y-88795438D01*
X72672445Y-88795438D02*
X72720064Y-88843057D01*
X72720064Y-88843057D02*
X72767683Y-88938295D01*
X72767683Y-88938295D02*
X72767683Y-89081152D01*
X72767683Y-89081152D02*
X72720064Y-89176390D01*
X72720064Y-89176390D02*
X72672445Y-89224009D01*
X72672445Y-89224009D02*
X72577207Y-89271628D01*
X72577207Y-89271628D02*
X72196255Y-89271628D01*
X73672445Y-88747819D02*
X73196255Y-88747819D01*
X73196255Y-88747819D02*
X73148636Y-89224009D01*
X73148636Y-89224009D02*
X73196255Y-89176390D01*
X73196255Y-89176390D02*
X73291493Y-89128771D01*
X73291493Y-89128771D02*
X73529588Y-89128771D01*
X73529588Y-89128771D02*
X73624826Y-89176390D01*
X73624826Y-89176390D02*
X73672445Y-89224009D01*
X73672445Y-89224009D02*
X73720064Y-89319247D01*
X73720064Y-89319247D02*
X73720064Y-89557342D01*
X73720064Y-89557342D02*
X73672445Y-89652580D01*
X73672445Y-89652580D02*
X73624826Y-89700200D01*
X73624826Y-89700200D02*
X73529588Y-89747819D01*
X73529588Y-89747819D02*
X73291493Y-89747819D01*
X73291493Y-89747819D02*
X73196255Y-89700200D01*
X73196255Y-89700200D02*
X73148636Y-89652580D01*
X58512350Y-60379152D02*
X58512350Y-61045819D01*
X58274255Y-59998200D02*
X58036160Y-60712485D01*
X58036160Y-60712485D02*
X58655207Y-60712485D01*
X59036160Y-61045819D02*
X59036160Y-60045819D01*
X59036160Y-60045819D02*
X59369493Y-60760104D01*
X59369493Y-60760104D02*
X59702826Y-60045819D01*
X59702826Y-60045819D02*
X59702826Y-61045819D01*
X60179017Y-61045819D02*
X60179017Y-60045819D01*
X60179017Y-60426771D02*
X60274255Y-60379152D01*
X60274255Y-60379152D02*
X60464731Y-60379152D01*
X60464731Y-60379152D02*
X60559969Y-60426771D01*
X60559969Y-60426771D02*
X60607588Y-60474390D01*
X60607588Y-60474390D02*
X60655207Y-60569628D01*
X60655207Y-60569628D02*
X60655207Y-60855342D01*
X60655207Y-60855342D02*
X60607588Y-60950580D01*
X60607588Y-60950580D02*
X60559969Y-60998200D01*
X60559969Y-60998200D02*
X60464731Y-61045819D01*
X60464731Y-61045819D02*
X60274255Y-61045819D01*
X60274255Y-61045819D02*
X60179017Y-60998200D01*
X61083779Y-61045819D02*
X61083779Y-60379152D01*
X61083779Y-60045819D02*
X61036160Y-60093438D01*
X61036160Y-60093438D02*
X61083779Y-60141057D01*
X61083779Y-60141057D02*
X61131398Y-60093438D01*
X61131398Y-60093438D02*
X61083779Y-60045819D01*
X61083779Y-60045819D02*
X61083779Y-60141057D01*
X61417112Y-60379152D02*
X61798064Y-60379152D01*
X61559969Y-60045819D02*
X61559969Y-60902961D01*
X61559969Y-60902961D02*
X61607588Y-60998200D01*
X61607588Y-60998200D02*
X61702826Y-61045819D01*
X61702826Y-61045819D02*
X61798064Y-61045819D01*
X62893303Y-61045819D02*
X62893303Y-60045819D01*
X62893303Y-60045819D02*
X63226636Y-60760104D01*
X63226636Y-60760104D02*
X63559969Y-60045819D01*
X63559969Y-60045819D02*
X63559969Y-61045819D01*
X64464731Y-61045819D02*
X64464731Y-60522009D01*
X64464731Y-60522009D02*
X64417112Y-60426771D01*
X64417112Y-60426771D02*
X64321874Y-60379152D01*
X64321874Y-60379152D02*
X64131398Y-60379152D01*
X64131398Y-60379152D02*
X64036160Y-60426771D01*
X64464731Y-60998200D02*
X64369493Y-61045819D01*
X64369493Y-61045819D02*
X64131398Y-61045819D01*
X64131398Y-61045819D02*
X64036160Y-60998200D01*
X64036160Y-60998200D02*
X63988541Y-60902961D01*
X63988541Y-60902961D02*
X63988541Y-60807723D01*
X63988541Y-60807723D02*
X64036160Y-60712485D01*
X64036160Y-60712485D02*
X64131398Y-60664866D01*
X64131398Y-60664866D02*
X64369493Y-60664866D01*
X64369493Y-60664866D02*
X64464731Y-60617247D01*
X64940922Y-60379152D02*
X64940922Y-61379152D01*
X64940922Y-60426771D02*
X65036160Y-60379152D01*
X65036160Y-60379152D02*
X65226636Y-60379152D01*
X65226636Y-60379152D02*
X65321874Y-60426771D01*
X65321874Y-60426771D02*
X65369493Y-60474390D01*
X65369493Y-60474390D02*
X65417112Y-60569628D01*
X65417112Y-60569628D02*
X65417112Y-60855342D01*
X65417112Y-60855342D02*
X65369493Y-60950580D01*
X65369493Y-60950580D02*
X65321874Y-60998200D01*
X65321874Y-60998200D02*
X65226636Y-61045819D01*
X65226636Y-61045819D02*
X65036160Y-61045819D01*
X65036160Y-61045819D02*
X64940922Y-60998200D01*
X65845684Y-60379152D02*
X65845684Y-61379152D01*
X65845684Y-60426771D02*
X65940922Y-60379152D01*
X65940922Y-60379152D02*
X66131398Y-60379152D01*
X66131398Y-60379152D02*
X66226636Y-60426771D01*
X66226636Y-60426771D02*
X66274255Y-60474390D01*
X66274255Y-60474390D02*
X66321874Y-60569628D01*
X66321874Y-60569628D02*
X66321874Y-60855342D01*
X66321874Y-60855342D02*
X66274255Y-60950580D01*
X66274255Y-60950580D02*
X66226636Y-60998200D01*
X66226636Y-60998200D02*
X66131398Y-61045819D01*
X66131398Y-61045819D02*
X65940922Y-61045819D01*
X65940922Y-61045819D02*
X65845684Y-60998200D01*
X67131398Y-60998200D02*
X67036160Y-61045819D01*
X67036160Y-61045819D02*
X66845684Y-61045819D01*
X66845684Y-61045819D02*
X66750446Y-60998200D01*
X66750446Y-60998200D02*
X66702827Y-60902961D01*
X66702827Y-60902961D02*
X66702827Y-60522009D01*
X66702827Y-60522009D02*
X66750446Y-60426771D01*
X66750446Y-60426771D02*
X66845684Y-60379152D01*
X66845684Y-60379152D02*
X67036160Y-60379152D01*
X67036160Y-60379152D02*
X67131398Y-60426771D01*
X67131398Y-60426771D02*
X67179017Y-60522009D01*
X67179017Y-60522009D02*
X67179017Y-60617247D01*
X67179017Y-60617247D02*
X66702827Y-60712485D01*
X67607589Y-61045819D02*
X67607589Y-60379152D01*
X67607589Y-60569628D02*
X67655208Y-60474390D01*
X67655208Y-60474390D02*
X67702827Y-60426771D01*
X67702827Y-60426771D02*
X67798065Y-60379152D01*
X67798065Y-60379152D02*
X67893303Y-60379152D01*
X69131399Y-61045819D02*
X69036161Y-60998200D01*
X69036161Y-60998200D02*
X68988542Y-60902961D01*
X68988542Y-60902961D02*
X68988542Y-60045819D01*
X69512352Y-61045819D02*
X69512352Y-60379152D01*
X69512352Y-60045819D02*
X69464733Y-60093438D01*
X69464733Y-60093438D02*
X69512352Y-60141057D01*
X69512352Y-60141057D02*
X69559971Y-60093438D01*
X69559971Y-60093438D02*
X69512352Y-60045819D01*
X69512352Y-60045819D02*
X69512352Y-60141057D01*
X69988542Y-61045819D02*
X69988542Y-60045819D01*
X70083780Y-60664866D02*
X70369494Y-61045819D01*
X70369494Y-60379152D02*
X69988542Y-60760104D01*
X71179018Y-60998200D02*
X71083780Y-61045819D01*
X71083780Y-61045819D02*
X70893304Y-61045819D01*
X70893304Y-61045819D02*
X70798066Y-60998200D01*
X70798066Y-60998200D02*
X70750447Y-60902961D01*
X70750447Y-60902961D02*
X70750447Y-60522009D01*
X70750447Y-60522009D02*
X70798066Y-60426771D01*
X70798066Y-60426771D02*
X70893304Y-60379152D01*
X70893304Y-60379152D02*
X71083780Y-60379152D01*
X71083780Y-60379152D02*
X71179018Y-60426771D01*
X71179018Y-60426771D02*
X71226637Y-60522009D01*
X71226637Y-60522009D02*
X71226637Y-60617247D01*
X71226637Y-60617247D02*
X70750447Y-60712485D01*
X72369495Y-60760104D02*
X72845685Y-60760104D01*
X72274257Y-61045819D02*
X72607590Y-60045819D01*
X72607590Y-60045819D02*
X72940923Y-61045819D01*
X73226638Y-60998200D02*
X73369495Y-61045819D01*
X73369495Y-61045819D02*
X73607590Y-61045819D01*
X73607590Y-61045819D02*
X73702828Y-60998200D01*
X73702828Y-60998200D02*
X73750447Y-60950580D01*
X73750447Y-60950580D02*
X73798066Y-60855342D01*
X73798066Y-60855342D02*
X73798066Y-60760104D01*
X73798066Y-60760104D02*
X73750447Y-60664866D01*
X73750447Y-60664866D02*
X73702828Y-60617247D01*
X73702828Y-60617247D02*
X73607590Y-60569628D01*
X73607590Y-60569628D02*
X73417114Y-60522009D01*
X73417114Y-60522009D02*
X73321876Y-60474390D01*
X73321876Y-60474390D02*
X73274257Y-60426771D01*
X73274257Y-60426771D02*
X73226638Y-60331533D01*
X73226638Y-60331533D02*
X73226638Y-60236295D01*
X73226638Y-60236295D02*
X73274257Y-60141057D01*
X73274257Y-60141057D02*
X73321876Y-60093438D01*
X73321876Y-60093438D02*
X73417114Y-60045819D01*
X73417114Y-60045819D02*
X73655209Y-60045819D01*
X73655209Y-60045819D02*
X73798066Y-60093438D01*
X74798066Y-60950580D02*
X74750447Y-60998200D01*
X74750447Y-60998200D02*
X74607590Y-61045819D01*
X74607590Y-61045819D02*
X74512352Y-61045819D01*
X74512352Y-61045819D02*
X74369495Y-60998200D01*
X74369495Y-60998200D02*
X74274257Y-60902961D01*
X74274257Y-60902961D02*
X74226638Y-60807723D01*
X74226638Y-60807723D02*
X74179019Y-60617247D01*
X74179019Y-60617247D02*
X74179019Y-60474390D01*
X74179019Y-60474390D02*
X74226638Y-60283914D01*
X74226638Y-60283914D02*
X74274257Y-60188676D01*
X74274257Y-60188676D02*
X74369495Y-60093438D01*
X74369495Y-60093438D02*
X74512352Y-60045819D01*
X74512352Y-60045819D02*
X74607590Y-60045819D01*
X74607590Y-60045819D02*
X74750447Y-60093438D01*
X74750447Y-60093438D02*
X74798066Y-60141057D01*
X75750447Y-61045819D02*
X75179019Y-61045819D01*
X75464733Y-61045819D02*
X75464733Y-60045819D01*
X75464733Y-60045819D02*
X75369495Y-60188676D01*
X75369495Y-60188676D02*
X75274257Y-60283914D01*
X75274257Y-60283914D02*
X75179019Y-60331533D01*
X76607590Y-60045819D02*
X76417114Y-60045819D01*
X76417114Y-60045819D02*
X76321876Y-60093438D01*
X76321876Y-60093438D02*
X76274257Y-60141057D01*
X76274257Y-60141057D02*
X76179019Y-60283914D01*
X76179019Y-60283914D02*
X76131400Y-60474390D01*
X76131400Y-60474390D02*
X76131400Y-60855342D01*
X76131400Y-60855342D02*
X76179019Y-60950580D01*
X76179019Y-60950580D02*
X76226638Y-60998200D01*
X76226638Y-60998200D02*
X76321876Y-61045819D01*
X76321876Y-61045819D02*
X76512352Y-61045819D01*
X76512352Y-61045819D02*
X76607590Y-60998200D01*
X76607590Y-60998200D02*
X76655209Y-60950580D01*
X76655209Y-60950580D02*
X76702828Y-60855342D01*
X76702828Y-60855342D02*
X76702828Y-60617247D01*
X76702828Y-60617247D02*
X76655209Y-60522009D01*
X76655209Y-60522009D02*
X76607590Y-60474390D01*
X76607590Y-60474390D02*
X76512352Y-60426771D01*
X76512352Y-60426771D02*
X76321876Y-60426771D01*
X76321876Y-60426771D02*
X76226638Y-60474390D01*
X76226638Y-60474390D02*
X76179019Y-60522009D01*
X76179019Y-60522009D02*
X76131400Y-60617247D01*
X124663541Y-86334819D02*
X125330207Y-86334819D01*
X125330207Y-86334819D02*
X124901636Y-87334819D01*
X126139731Y-86668152D02*
X126139731Y-87334819D01*
X125901636Y-86287200D02*
X125663541Y-87001485D01*
X125663541Y-87001485D02*
X126282588Y-87001485D01*
X126663541Y-87334819D02*
X126663541Y-86334819D01*
X126663541Y-86811009D02*
X127234969Y-86811009D01*
X127234969Y-87334819D02*
X127234969Y-86334819D01*
X128282588Y-87239580D02*
X128234969Y-87287200D01*
X128234969Y-87287200D02*
X128092112Y-87334819D01*
X128092112Y-87334819D02*
X127996874Y-87334819D01*
X127996874Y-87334819D02*
X127854017Y-87287200D01*
X127854017Y-87287200D02*
X127758779Y-87191961D01*
X127758779Y-87191961D02*
X127711160Y-87096723D01*
X127711160Y-87096723D02*
X127663541Y-86906247D01*
X127663541Y-86906247D02*
X127663541Y-86763390D01*
X127663541Y-86763390D02*
X127711160Y-86572914D01*
X127711160Y-86572914D02*
X127758779Y-86477676D01*
X127758779Y-86477676D02*
X127854017Y-86382438D01*
X127854017Y-86382438D02*
X127996874Y-86334819D01*
X127996874Y-86334819D02*
X128092112Y-86334819D01*
X128092112Y-86334819D02*
X128234969Y-86382438D01*
X128234969Y-86382438D02*
X128282588Y-86430057D01*
X129234969Y-87334819D02*
X128663541Y-87334819D01*
X128949255Y-87334819D02*
X128949255Y-86334819D01*
X128949255Y-86334819D02*
X128854017Y-86477676D01*
X128854017Y-86477676D02*
X128758779Y-86572914D01*
X128758779Y-86572914D02*
X128663541Y-86620533D01*
X129568303Y-86334819D02*
X130187350Y-86334819D01*
X130187350Y-86334819D02*
X129854017Y-86715771D01*
X129854017Y-86715771D02*
X129996874Y-86715771D01*
X129996874Y-86715771D02*
X130092112Y-86763390D01*
X130092112Y-86763390D02*
X130139731Y-86811009D01*
X130139731Y-86811009D02*
X130187350Y-86906247D01*
X130187350Y-86906247D02*
X130187350Y-87144342D01*
X130187350Y-87144342D02*
X130139731Y-87239580D01*
X130139731Y-87239580D02*
X130092112Y-87287200D01*
X130092112Y-87287200D02*
X129996874Y-87334819D01*
X129996874Y-87334819D02*
X129711160Y-87334819D01*
X129711160Y-87334819D02*
X129615922Y-87287200D01*
X129615922Y-87287200D02*
X129568303Y-87239580D01*
X130663541Y-87334819D02*
X130854017Y-87334819D01*
X130854017Y-87334819D02*
X130949255Y-87287200D01*
X130949255Y-87287200D02*
X130996874Y-87239580D01*
X130996874Y-87239580D02*
X131092112Y-87096723D01*
X131092112Y-87096723D02*
X131139731Y-86906247D01*
X131139731Y-86906247D02*
X131139731Y-86525295D01*
X131139731Y-86525295D02*
X131092112Y-86430057D01*
X131092112Y-86430057D02*
X131044493Y-86382438D01*
X131044493Y-86382438D02*
X130949255Y-86334819D01*
X130949255Y-86334819D02*
X130758779Y-86334819D01*
X130758779Y-86334819D02*
X130663541Y-86382438D01*
X130663541Y-86382438D02*
X130615922Y-86430057D01*
X130615922Y-86430057D02*
X130568303Y-86525295D01*
X130568303Y-86525295D02*
X130568303Y-86763390D01*
X130568303Y-86763390D02*
X130615922Y-86858628D01*
X130615922Y-86858628D02*
X130663541Y-86906247D01*
X130663541Y-86906247D02*
X130758779Y-86953866D01*
X130758779Y-86953866D02*
X130949255Y-86953866D01*
X130949255Y-86953866D02*
X131044493Y-86906247D01*
X131044493Y-86906247D02*
X131092112Y-86858628D01*
X131092112Y-86858628D02*
X131139731Y-86763390D01*
X53067207Y-65141580D02*
X53019588Y-65189200D01*
X53019588Y-65189200D02*
X52876731Y-65236819D01*
X52876731Y-65236819D02*
X52781493Y-65236819D01*
X52781493Y-65236819D02*
X52638636Y-65189200D01*
X52638636Y-65189200D02*
X52543398Y-65093961D01*
X52543398Y-65093961D02*
X52495779Y-64998723D01*
X52495779Y-64998723D02*
X52448160Y-64808247D01*
X52448160Y-64808247D02*
X52448160Y-64665390D01*
X52448160Y-64665390D02*
X52495779Y-64474914D01*
X52495779Y-64474914D02*
X52543398Y-64379676D01*
X52543398Y-64379676D02*
X52638636Y-64284438D01*
X52638636Y-64284438D02*
X52781493Y-64236819D01*
X52781493Y-64236819D02*
X52876731Y-64236819D01*
X52876731Y-64236819D02*
X53019588Y-64284438D01*
X53019588Y-64284438D02*
X53067207Y-64332057D01*
X53638636Y-65236819D02*
X53543398Y-65189200D01*
X53543398Y-65189200D02*
X53495779Y-65141580D01*
X53495779Y-65141580D02*
X53448160Y-65046342D01*
X53448160Y-65046342D02*
X53448160Y-64760628D01*
X53448160Y-64760628D02*
X53495779Y-64665390D01*
X53495779Y-64665390D02*
X53543398Y-64617771D01*
X53543398Y-64617771D02*
X53638636Y-64570152D01*
X53638636Y-64570152D02*
X53781493Y-64570152D01*
X53781493Y-64570152D02*
X53876731Y-64617771D01*
X53876731Y-64617771D02*
X53924350Y-64665390D01*
X53924350Y-64665390D02*
X53971969Y-64760628D01*
X53971969Y-64760628D02*
X53971969Y-65046342D01*
X53971969Y-65046342D02*
X53924350Y-65141580D01*
X53924350Y-65141580D02*
X53876731Y-65189200D01*
X53876731Y-65189200D02*
X53781493Y-65236819D01*
X53781493Y-65236819D02*
X53638636Y-65236819D01*
X54400541Y-64570152D02*
X54400541Y-65570152D01*
X54400541Y-64617771D02*
X54495779Y-64570152D01*
X54495779Y-64570152D02*
X54686255Y-64570152D01*
X54686255Y-64570152D02*
X54781493Y-64617771D01*
X54781493Y-64617771D02*
X54829112Y-64665390D01*
X54829112Y-64665390D02*
X54876731Y-64760628D01*
X54876731Y-64760628D02*
X54876731Y-65046342D01*
X54876731Y-65046342D02*
X54829112Y-65141580D01*
X54829112Y-65141580D02*
X54781493Y-65189200D01*
X54781493Y-65189200D02*
X54686255Y-65236819D01*
X54686255Y-65236819D02*
X54495779Y-65236819D01*
X54495779Y-65236819D02*
X54400541Y-65189200D01*
X55210065Y-64570152D02*
X55448160Y-65236819D01*
X55686255Y-64570152D02*
X55448160Y-65236819D01*
X55448160Y-65236819D02*
X55352922Y-65474914D01*
X55352922Y-65474914D02*
X55305303Y-65522533D01*
X55305303Y-65522533D02*
X55210065Y-65570152D01*
X56067208Y-65236819D02*
X56067208Y-64570152D01*
X56067208Y-64760628D02*
X56114827Y-64665390D01*
X56114827Y-64665390D02*
X56162446Y-64617771D01*
X56162446Y-64617771D02*
X56257684Y-64570152D01*
X56257684Y-64570152D02*
X56352922Y-64570152D01*
X56686256Y-65236819D02*
X56686256Y-64570152D01*
X56686256Y-64236819D02*
X56638637Y-64284438D01*
X56638637Y-64284438D02*
X56686256Y-64332057D01*
X56686256Y-64332057D02*
X56733875Y-64284438D01*
X56733875Y-64284438D02*
X56686256Y-64236819D01*
X56686256Y-64236819D02*
X56686256Y-64332057D01*
X57591017Y-64570152D02*
X57591017Y-65379676D01*
X57591017Y-65379676D02*
X57543398Y-65474914D01*
X57543398Y-65474914D02*
X57495779Y-65522533D01*
X57495779Y-65522533D02*
X57400541Y-65570152D01*
X57400541Y-65570152D02*
X57257684Y-65570152D01*
X57257684Y-65570152D02*
X57162446Y-65522533D01*
X57591017Y-65189200D02*
X57495779Y-65236819D01*
X57495779Y-65236819D02*
X57305303Y-65236819D01*
X57305303Y-65236819D02*
X57210065Y-65189200D01*
X57210065Y-65189200D02*
X57162446Y-65141580D01*
X57162446Y-65141580D02*
X57114827Y-65046342D01*
X57114827Y-65046342D02*
X57114827Y-64760628D01*
X57114827Y-64760628D02*
X57162446Y-64665390D01*
X57162446Y-64665390D02*
X57210065Y-64617771D01*
X57210065Y-64617771D02*
X57305303Y-64570152D01*
X57305303Y-64570152D02*
X57495779Y-64570152D01*
X57495779Y-64570152D02*
X57591017Y-64617771D01*
X58067208Y-65236819D02*
X58067208Y-64236819D01*
X58495779Y-65236819D02*
X58495779Y-64713009D01*
X58495779Y-64713009D02*
X58448160Y-64617771D01*
X58448160Y-64617771D02*
X58352922Y-64570152D01*
X58352922Y-64570152D02*
X58210065Y-64570152D01*
X58210065Y-64570152D02*
X58114827Y-64617771D01*
X58114827Y-64617771D02*
X58067208Y-64665390D01*
X58829113Y-64570152D02*
X59210065Y-64570152D01*
X58971970Y-64236819D02*
X58971970Y-65093961D01*
X58971970Y-65093961D02*
X59019589Y-65189200D01*
X59019589Y-65189200D02*
X59114827Y-65236819D01*
X59114827Y-65236819D02*
X59210065Y-65236819D01*
X60591018Y-65617771D02*
X60543399Y-65570152D01*
X60543399Y-65570152D02*
X60448161Y-65427295D01*
X60448161Y-65427295D02*
X60400542Y-65332057D01*
X60400542Y-65332057D02*
X60352923Y-65189200D01*
X60352923Y-65189200D02*
X60305304Y-64951104D01*
X60305304Y-64951104D02*
X60305304Y-64760628D01*
X60305304Y-64760628D02*
X60352923Y-64522533D01*
X60352923Y-64522533D02*
X60400542Y-64379676D01*
X60400542Y-64379676D02*
X60448161Y-64284438D01*
X60448161Y-64284438D02*
X60543399Y-64141580D01*
X60543399Y-64141580D02*
X60591018Y-64093961D01*
X61543399Y-65141580D02*
X61495780Y-65189200D01*
X61495780Y-65189200D02*
X61352923Y-65236819D01*
X61352923Y-65236819D02*
X61257685Y-65236819D01*
X61257685Y-65236819D02*
X61114828Y-65189200D01*
X61114828Y-65189200D02*
X61019590Y-65093961D01*
X61019590Y-65093961D02*
X60971971Y-64998723D01*
X60971971Y-64998723D02*
X60924352Y-64808247D01*
X60924352Y-64808247D02*
X60924352Y-64665390D01*
X60924352Y-64665390D02*
X60971971Y-64474914D01*
X60971971Y-64474914D02*
X61019590Y-64379676D01*
X61019590Y-64379676D02*
X61114828Y-64284438D01*
X61114828Y-64284438D02*
X61257685Y-64236819D01*
X61257685Y-64236819D02*
X61352923Y-64236819D01*
X61352923Y-64236819D02*
X61495780Y-64284438D01*
X61495780Y-64284438D02*
X61543399Y-64332057D01*
X61876733Y-65617771D02*
X61924352Y-65570152D01*
X61924352Y-65570152D02*
X62019590Y-65427295D01*
X62019590Y-65427295D02*
X62067209Y-65332057D01*
X62067209Y-65332057D02*
X62114828Y-65189200D01*
X62114828Y-65189200D02*
X62162447Y-64951104D01*
X62162447Y-64951104D02*
X62162447Y-64760628D01*
X62162447Y-64760628D02*
X62114828Y-64522533D01*
X62114828Y-64522533D02*
X62067209Y-64379676D01*
X62067209Y-64379676D02*
X62019590Y-64284438D01*
X62019590Y-64284438D02*
X61924352Y-64141580D01*
X61924352Y-64141580D02*
X61876733Y-64093961D01*
X62591019Y-64332057D02*
X62638638Y-64284438D01*
X62638638Y-64284438D02*
X62733876Y-64236819D01*
X62733876Y-64236819D02*
X62971971Y-64236819D01*
X62971971Y-64236819D02*
X63067209Y-64284438D01*
X63067209Y-64284438D02*
X63114828Y-64332057D01*
X63114828Y-64332057D02*
X63162447Y-64427295D01*
X63162447Y-64427295D02*
X63162447Y-64522533D01*
X63162447Y-64522533D02*
X63114828Y-64665390D01*
X63114828Y-64665390D02*
X62543400Y-65236819D01*
X62543400Y-65236819D02*
X63162447Y-65236819D01*
X63781495Y-64236819D02*
X63876733Y-64236819D01*
X63876733Y-64236819D02*
X63971971Y-64284438D01*
X63971971Y-64284438D02*
X64019590Y-64332057D01*
X64019590Y-64332057D02*
X64067209Y-64427295D01*
X64067209Y-64427295D02*
X64114828Y-64617771D01*
X64114828Y-64617771D02*
X64114828Y-64855866D01*
X64114828Y-64855866D02*
X64067209Y-65046342D01*
X64067209Y-65046342D02*
X64019590Y-65141580D01*
X64019590Y-65141580D02*
X63971971Y-65189200D01*
X63971971Y-65189200D02*
X63876733Y-65236819D01*
X63876733Y-65236819D02*
X63781495Y-65236819D01*
X63781495Y-65236819D02*
X63686257Y-65189200D01*
X63686257Y-65189200D02*
X63638638Y-65141580D01*
X63638638Y-65141580D02*
X63591019Y-65046342D01*
X63591019Y-65046342D02*
X63543400Y-64855866D01*
X63543400Y-64855866D02*
X63543400Y-64617771D01*
X63543400Y-64617771D02*
X63591019Y-64427295D01*
X63591019Y-64427295D02*
X63638638Y-64332057D01*
X63638638Y-64332057D02*
X63686257Y-64284438D01*
X63686257Y-64284438D02*
X63781495Y-64236819D01*
X64495781Y-64332057D02*
X64543400Y-64284438D01*
X64543400Y-64284438D02*
X64638638Y-64236819D01*
X64638638Y-64236819D02*
X64876733Y-64236819D01*
X64876733Y-64236819D02*
X64971971Y-64284438D01*
X64971971Y-64284438D02*
X65019590Y-64332057D01*
X65019590Y-64332057D02*
X65067209Y-64427295D01*
X65067209Y-64427295D02*
X65067209Y-64522533D01*
X65067209Y-64522533D02*
X65019590Y-64665390D01*
X65019590Y-64665390D02*
X64448162Y-65236819D01*
X64448162Y-65236819D02*
X65067209Y-65236819D01*
X65924352Y-64570152D02*
X65924352Y-65236819D01*
X65686257Y-64189200D02*
X65448162Y-64903485D01*
X65448162Y-64903485D02*
X66067209Y-64903485D01*
X67210067Y-65236819D02*
X67210067Y-64236819D01*
X67210067Y-64713009D02*
X67781495Y-64713009D01*
X67781495Y-65236819D02*
X67781495Y-64236819D01*
X68829114Y-65236819D02*
X68495781Y-64760628D01*
X68257686Y-65236819D02*
X68257686Y-64236819D01*
X68257686Y-64236819D02*
X68638638Y-64236819D01*
X68638638Y-64236819D02*
X68733876Y-64284438D01*
X68733876Y-64284438D02*
X68781495Y-64332057D01*
X68781495Y-64332057D02*
X68829114Y-64427295D01*
X68829114Y-64427295D02*
X68829114Y-64570152D01*
X68829114Y-64570152D02*
X68781495Y-64665390D01*
X68781495Y-64665390D02*
X68733876Y-64713009D01*
X68733876Y-64713009D02*
X68638638Y-64760628D01*
X68638638Y-64760628D02*
X68257686Y-64760628D01*
X69210067Y-64951104D02*
X69686257Y-64951104D01*
X69114829Y-65236819D02*
X69448162Y-64236819D01*
X69448162Y-64236819D02*
X69781495Y-65236819D01*
X70114829Y-65141580D02*
X70162448Y-65189200D01*
X70162448Y-65189200D02*
X70114829Y-65236819D01*
X70114829Y-65236819D02*
X70067210Y-65189200D01*
X70067210Y-65189200D02*
X70114829Y-65141580D01*
X70114829Y-65141580D02*
X70114829Y-65236819D01*
X70114829Y-64855866D02*
X70067210Y-64284438D01*
X70067210Y-64284438D02*
X70114829Y-64236819D01*
X70114829Y-64236819D02*
X70162448Y-64284438D01*
X70162448Y-64284438D02*
X70114829Y-64855866D01*
X70114829Y-64855866D02*
X70114829Y-64236819D01*
X139681255Y-52298819D02*
X139871731Y-52298819D01*
X139871731Y-52298819D02*
X139966969Y-52346438D01*
X139966969Y-52346438D02*
X140062207Y-52441676D01*
X140062207Y-52441676D02*
X140109826Y-52632152D01*
X140109826Y-52632152D02*
X140109826Y-52965485D01*
X140109826Y-52965485D02*
X140062207Y-53155961D01*
X140062207Y-53155961D02*
X139966969Y-53251200D01*
X139966969Y-53251200D02*
X139871731Y-53298819D01*
X139871731Y-53298819D02*
X139681255Y-53298819D01*
X139681255Y-53298819D02*
X139586017Y-53251200D01*
X139586017Y-53251200D02*
X139490779Y-53155961D01*
X139490779Y-53155961D02*
X139443160Y-52965485D01*
X139443160Y-52965485D02*
X139443160Y-52632152D01*
X139443160Y-52632152D02*
X139490779Y-52441676D01*
X139490779Y-52441676D02*
X139586017Y-52346438D01*
X139586017Y-52346438D02*
X139681255Y-52298819D01*
X140538398Y-53298819D02*
X140538398Y-52298819D01*
X140538398Y-52298819D02*
X141109826Y-53298819D01*
X141109826Y-53298819D02*
X141109826Y-52298819D01*
X52448160Y-63411200D02*
X52591017Y-63458819D01*
X52591017Y-63458819D02*
X52829112Y-63458819D01*
X52829112Y-63458819D02*
X52924350Y-63411200D01*
X52924350Y-63411200D02*
X52971969Y-63363580D01*
X52971969Y-63363580D02*
X53019588Y-63268342D01*
X53019588Y-63268342D02*
X53019588Y-63173104D01*
X53019588Y-63173104D02*
X52971969Y-63077866D01*
X52971969Y-63077866D02*
X52924350Y-63030247D01*
X52924350Y-63030247D02*
X52829112Y-62982628D01*
X52829112Y-62982628D02*
X52638636Y-62935009D01*
X52638636Y-62935009D02*
X52543398Y-62887390D01*
X52543398Y-62887390D02*
X52495779Y-62839771D01*
X52495779Y-62839771D02*
X52448160Y-62744533D01*
X52448160Y-62744533D02*
X52448160Y-62649295D01*
X52448160Y-62649295D02*
X52495779Y-62554057D01*
X52495779Y-62554057D02*
X52543398Y-62506438D01*
X52543398Y-62506438D02*
X52638636Y-62458819D01*
X52638636Y-62458819D02*
X52876731Y-62458819D01*
X52876731Y-62458819D02*
X53019588Y-62506438D01*
X53448160Y-63458819D02*
X53448160Y-62792152D01*
X53448160Y-62458819D02*
X53400541Y-62506438D01*
X53400541Y-62506438D02*
X53448160Y-62554057D01*
X53448160Y-62554057D02*
X53495779Y-62506438D01*
X53495779Y-62506438D02*
X53448160Y-62458819D01*
X53448160Y-62458819D02*
X53448160Y-62554057D01*
X53924350Y-63458819D02*
X53924350Y-62792152D01*
X53924350Y-62887390D02*
X53971969Y-62839771D01*
X53971969Y-62839771D02*
X54067207Y-62792152D01*
X54067207Y-62792152D02*
X54210064Y-62792152D01*
X54210064Y-62792152D02*
X54305302Y-62839771D01*
X54305302Y-62839771D02*
X54352921Y-62935009D01*
X54352921Y-62935009D02*
X54352921Y-63458819D01*
X54352921Y-62935009D02*
X54400540Y-62839771D01*
X54400540Y-62839771D02*
X54495778Y-62792152D01*
X54495778Y-62792152D02*
X54638635Y-62792152D01*
X54638635Y-62792152D02*
X54733874Y-62839771D01*
X54733874Y-62839771D02*
X54781493Y-62935009D01*
X54781493Y-62935009D02*
X54781493Y-63458819D01*
X55257683Y-62792152D02*
X55257683Y-63792152D01*
X55257683Y-62839771D02*
X55352921Y-62792152D01*
X55352921Y-62792152D02*
X55543397Y-62792152D01*
X55543397Y-62792152D02*
X55638635Y-62839771D01*
X55638635Y-62839771D02*
X55686254Y-62887390D01*
X55686254Y-62887390D02*
X55733873Y-62982628D01*
X55733873Y-62982628D02*
X55733873Y-63268342D01*
X55733873Y-63268342D02*
X55686254Y-63363580D01*
X55686254Y-63363580D02*
X55638635Y-63411200D01*
X55638635Y-63411200D02*
X55543397Y-63458819D01*
X55543397Y-63458819D02*
X55352921Y-63458819D01*
X55352921Y-63458819D02*
X55257683Y-63411200D01*
X56305302Y-63458819D02*
X56210064Y-63411200D01*
X56210064Y-63411200D02*
X56162445Y-63315961D01*
X56162445Y-63315961D02*
X56162445Y-62458819D01*
X57067207Y-63411200D02*
X56971969Y-63458819D01*
X56971969Y-63458819D02*
X56781493Y-63458819D01*
X56781493Y-63458819D02*
X56686255Y-63411200D01*
X56686255Y-63411200D02*
X56638636Y-63315961D01*
X56638636Y-63315961D02*
X56638636Y-62935009D01*
X56638636Y-62935009D02*
X56686255Y-62839771D01*
X56686255Y-62839771D02*
X56781493Y-62792152D01*
X56781493Y-62792152D02*
X56971969Y-62792152D01*
X56971969Y-62792152D02*
X57067207Y-62839771D01*
X57067207Y-62839771D02*
X57114826Y-62935009D01*
X57114826Y-62935009D02*
X57114826Y-63030247D01*
X57114826Y-63030247D02*
X56638636Y-63125485D01*
X58305303Y-63458819D02*
X58305303Y-62458819D01*
X58305303Y-62458819D02*
X58638636Y-63173104D01*
X58638636Y-63173104D02*
X58971969Y-62458819D01*
X58971969Y-62458819D02*
X58971969Y-63458819D01*
X59829112Y-63411200D02*
X59733874Y-63458819D01*
X59733874Y-63458819D02*
X59543398Y-63458819D01*
X59543398Y-63458819D02*
X59448160Y-63411200D01*
X59448160Y-63411200D02*
X59400541Y-63315961D01*
X59400541Y-63315961D02*
X59400541Y-62935009D01*
X59400541Y-62935009D02*
X59448160Y-62839771D01*
X59448160Y-62839771D02*
X59543398Y-62792152D01*
X59543398Y-62792152D02*
X59733874Y-62792152D01*
X59733874Y-62792152D02*
X59829112Y-62839771D01*
X59829112Y-62839771D02*
X59876731Y-62935009D01*
X59876731Y-62935009D02*
X59876731Y-63030247D01*
X59876731Y-63030247D02*
X59400541Y-63125485D01*
X60733874Y-62792152D02*
X60733874Y-63601676D01*
X60733874Y-63601676D02*
X60686255Y-63696914D01*
X60686255Y-63696914D02*
X60638636Y-63744533D01*
X60638636Y-63744533D02*
X60543398Y-63792152D01*
X60543398Y-63792152D02*
X60400541Y-63792152D01*
X60400541Y-63792152D02*
X60305303Y-63744533D01*
X60733874Y-63411200D02*
X60638636Y-63458819D01*
X60638636Y-63458819D02*
X60448160Y-63458819D01*
X60448160Y-63458819D02*
X60352922Y-63411200D01*
X60352922Y-63411200D02*
X60305303Y-63363580D01*
X60305303Y-63363580D02*
X60257684Y-63268342D01*
X60257684Y-63268342D02*
X60257684Y-62982628D01*
X60257684Y-62982628D02*
X60305303Y-62887390D01*
X60305303Y-62887390D02*
X60352922Y-62839771D01*
X60352922Y-62839771D02*
X60448160Y-62792152D01*
X60448160Y-62792152D02*
X60638636Y-62792152D01*
X60638636Y-62792152D02*
X60733874Y-62839771D01*
X61638636Y-63458819D02*
X61638636Y-62935009D01*
X61638636Y-62935009D02*
X61591017Y-62839771D01*
X61591017Y-62839771D02*
X61495779Y-62792152D01*
X61495779Y-62792152D02*
X61305303Y-62792152D01*
X61305303Y-62792152D02*
X61210065Y-62839771D01*
X61638636Y-63411200D02*
X61543398Y-63458819D01*
X61543398Y-63458819D02*
X61305303Y-63458819D01*
X61305303Y-63458819D02*
X61210065Y-63411200D01*
X61210065Y-63411200D02*
X61162446Y-63315961D01*
X61162446Y-63315961D02*
X61162446Y-63220723D01*
X61162446Y-63220723D02*
X61210065Y-63125485D01*
X61210065Y-63125485D02*
X61305303Y-63077866D01*
X61305303Y-63077866D02*
X61543398Y-63077866D01*
X61543398Y-63077866D02*
X61638636Y-63030247D01*
X62686255Y-63458819D02*
X62352922Y-62982628D01*
X62114827Y-63458819D02*
X62114827Y-62458819D01*
X62114827Y-62458819D02*
X62495779Y-62458819D01*
X62495779Y-62458819D02*
X62591017Y-62506438D01*
X62591017Y-62506438D02*
X62638636Y-62554057D01*
X62638636Y-62554057D02*
X62686255Y-62649295D01*
X62686255Y-62649295D02*
X62686255Y-62792152D01*
X62686255Y-62792152D02*
X62638636Y-62887390D01*
X62638636Y-62887390D02*
X62591017Y-62935009D01*
X62591017Y-62935009D02*
X62495779Y-62982628D01*
X62495779Y-62982628D02*
X62114827Y-62982628D01*
X63305303Y-62458819D02*
X63495779Y-62458819D01*
X63495779Y-62458819D02*
X63591017Y-62506438D01*
X63591017Y-62506438D02*
X63686255Y-62601676D01*
X63686255Y-62601676D02*
X63733874Y-62792152D01*
X63733874Y-62792152D02*
X63733874Y-63125485D01*
X63733874Y-63125485D02*
X63686255Y-63315961D01*
X63686255Y-63315961D02*
X63591017Y-63411200D01*
X63591017Y-63411200D02*
X63495779Y-63458819D01*
X63495779Y-63458819D02*
X63305303Y-63458819D01*
X63305303Y-63458819D02*
X63210065Y-63411200D01*
X63210065Y-63411200D02*
X63114827Y-63315961D01*
X63114827Y-63315961D02*
X63067208Y-63125485D01*
X63067208Y-63125485D02*
X63067208Y-62792152D01*
X63067208Y-62792152D02*
X63114827Y-62601676D01*
X63114827Y-62601676D02*
X63210065Y-62506438D01*
X63210065Y-62506438D02*
X63305303Y-62458819D01*
X64162446Y-63458819D02*
X64162446Y-62458819D01*
X64162446Y-62458819D02*
X64495779Y-63173104D01*
X64495779Y-63173104D02*
X64829112Y-62458819D01*
X64829112Y-62458819D02*
X64829112Y-63458819D01*
X66638636Y-63363580D02*
X66591017Y-63411200D01*
X66591017Y-63411200D02*
X66448160Y-63458819D01*
X66448160Y-63458819D02*
X66352922Y-63458819D01*
X66352922Y-63458819D02*
X66210065Y-63411200D01*
X66210065Y-63411200D02*
X66114827Y-63315961D01*
X66114827Y-63315961D02*
X66067208Y-63220723D01*
X66067208Y-63220723D02*
X66019589Y-63030247D01*
X66019589Y-63030247D02*
X66019589Y-62887390D01*
X66019589Y-62887390D02*
X66067208Y-62696914D01*
X66067208Y-62696914D02*
X66114827Y-62601676D01*
X66114827Y-62601676D02*
X66210065Y-62506438D01*
X66210065Y-62506438D02*
X66352922Y-62458819D01*
X66352922Y-62458819D02*
X66448160Y-62458819D01*
X66448160Y-62458819D02*
X66591017Y-62506438D01*
X66591017Y-62506438D02*
X66638636Y-62554057D01*
X67495779Y-63458819D02*
X67495779Y-62935009D01*
X67495779Y-62935009D02*
X67448160Y-62839771D01*
X67448160Y-62839771D02*
X67352922Y-62792152D01*
X67352922Y-62792152D02*
X67162446Y-62792152D01*
X67162446Y-62792152D02*
X67067208Y-62839771D01*
X67495779Y-63411200D02*
X67400541Y-63458819D01*
X67400541Y-63458819D02*
X67162446Y-63458819D01*
X67162446Y-63458819D02*
X67067208Y-63411200D01*
X67067208Y-63411200D02*
X67019589Y-63315961D01*
X67019589Y-63315961D02*
X67019589Y-63220723D01*
X67019589Y-63220723D02*
X67067208Y-63125485D01*
X67067208Y-63125485D02*
X67162446Y-63077866D01*
X67162446Y-63077866D02*
X67400541Y-63077866D01*
X67400541Y-63077866D02*
X67495779Y-63030247D01*
X67971970Y-63458819D02*
X67971970Y-62792152D01*
X67971970Y-62982628D02*
X68019589Y-62887390D01*
X68019589Y-62887390D02*
X68067208Y-62839771D01*
X68067208Y-62839771D02*
X68162446Y-62792152D01*
X68162446Y-62792152D02*
X68257684Y-62792152D01*
X68448161Y-62792152D02*
X68829113Y-62792152D01*
X68591018Y-62458819D02*
X68591018Y-63315961D01*
X68591018Y-63315961D02*
X68638637Y-63411200D01*
X68638637Y-63411200D02*
X68733875Y-63458819D01*
X68733875Y-63458819D02*
X68829113Y-63458819D01*
X69162447Y-63458819D02*
X69162447Y-62792152D01*
X69162447Y-62982628D02*
X69210066Y-62887390D01*
X69210066Y-62887390D02*
X69257685Y-62839771D01*
X69257685Y-62839771D02*
X69352923Y-62792152D01*
X69352923Y-62792152D02*
X69448161Y-62792152D01*
X69781495Y-63458819D02*
X69781495Y-62792152D01*
X69781495Y-62458819D02*
X69733876Y-62506438D01*
X69733876Y-62506438D02*
X69781495Y-62554057D01*
X69781495Y-62554057D02*
X69829114Y-62506438D01*
X69829114Y-62506438D02*
X69781495Y-62458819D01*
X69781495Y-62458819D02*
X69781495Y-62554057D01*
X70686256Y-63458819D02*
X70686256Y-62458819D01*
X70686256Y-63411200D02*
X70591018Y-63458819D01*
X70591018Y-63458819D02*
X70400542Y-63458819D01*
X70400542Y-63458819D02*
X70305304Y-63411200D01*
X70305304Y-63411200D02*
X70257685Y-63363580D01*
X70257685Y-63363580D02*
X70210066Y-63268342D01*
X70210066Y-63268342D02*
X70210066Y-62982628D01*
X70210066Y-62982628D02*
X70257685Y-62887390D01*
X70257685Y-62887390D02*
X70305304Y-62839771D01*
X70305304Y-62839771D02*
X70400542Y-62792152D01*
X70400542Y-62792152D02*
X70591018Y-62792152D01*
X70591018Y-62792152D02*
X70686256Y-62839771D01*
X71591018Y-62792152D02*
X71591018Y-63601676D01*
X71591018Y-63601676D02*
X71543399Y-63696914D01*
X71543399Y-63696914D02*
X71495780Y-63744533D01*
X71495780Y-63744533D02*
X71400542Y-63792152D01*
X71400542Y-63792152D02*
X71257685Y-63792152D01*
X71257685Y-63792152D02*
X71162447Y-63744533D01*
X71591018Y-63411200D02*
X71495780Y-63458819D01*
X71495780Y-63458819D02*
X71305304Y-63458819D01*
X71305304Y-63458819D02*
X71210066Y-63411200D01*
X71210066Y-63411200D02*
X71162447Y-63363580D01*
X71162447Y-63363580D02*
X71114828Y-63268342D01*
X71114828Y-63268342D02*
X71114828Y-62982628D01*
X71114828Y-62982628D02*
X71162447Y-62887390D01*
X71162447Y-62887390D02*
X71210066Y-62839771D01*
X71210066Y-62839771D02*
X71305304Y-62792152D01*
X71305304Y-62792152D02*
X71495780Y-62792152D01*
X71495780Y-62792152D02*
X71591018Y-62839771D01*
X72448161Y-63411200D02*
X72352923Y-63458819D01*
X72352923Y-63458819D02*
X72162447Y-63458819D01*
X72162447Y-63458819D02*
X72067209Y-63411200D01*
X72067209Y-63411200D02*
X72019590Y-63315961D01*
X72019590Y-63315961D02*
X72019590Y-62935009D01*
X72019590Y-62935009D02*
X72067209Y-62839771D01*
X72067209Y-62839771D02*
X72162447Y-62792152D01*
X72162447Y-62792152D02*
X72352923Y-62792152D01*
X72352923Y-62792152D02*
X72448161Y-62839771D01*
X72448161Y-62839771D02*
X72495780Y-62935009D01*
X72495780Y-62935009D02*
X72495780Y-63030247D01*
X72495780Y-63030247D02*
X72019590Y-63125485D01*
X73591019Y-62792152D02*
X73829114Y-63458819D01*
X73829114Y-63458819D02*
X74067209Y-62792152D01*
X74971971Y-63458819D02*
X74400543Y-63458819D01*
X74686257Y-63458819D02*
X74686257Y-62458819D01*
X74686257Y-62458819D02*
X74591019Y-62601676D01*
X74591019Y-62601676D02*
X74495781Y-62696914D01*
X74495781Y-62696914D02*
X74400543Y-62744533D01*
X75400543Y-63363580D02*
X75448162Y-63411200D01*
X75448162Y-63411200D02*
X75400543Y-63458819D01*
X75400543Y-63458819D02*
X75352924Y-63411200D01*
X75352924Y-63411200D02*
X75400543Y-63363580D01*
X75400543Y-63363580D02*
X75400543Y-63458819D01*
X76067209Y-62458819D02*
X76162447Y-62458819D01*
X76162447Y-62458819D02*
X76257685Y-62506438D01*
X76257685Y-62506438D02*
X76305304Y-62554057D01*
X76305304Y-62554057D02*
X76352923Y-62649295D01*
X76352923Y-62649295D02*
X76400542Y-62839771D01*
X76400542Y-62839771D02*
X76400542Y-63077866D01*
X76400542Y-63077866D02*
X76352923Y-63268342D01*
X76352923Y-63268342D02*
X76305304Y-63363580D01*
X76305304Y-63363580D02*
X76257685Y-63411200D01*
X76257685Y-63411200D02*
X76162447Y-63458819D01*
X76162447Y-63458819D02*
X76067209Y-63458819D01*
X76067209Y-63458819D02*
X75971971Y-63411200D01*
X75971971Y-63411200D02*
X75924352Y-63363580D01*
X75924352Y-63363580D02*
X75876733Y-63268342D01*
X75876733Y-63268342D02*
X75829114Y-63077866D01*
X75829114Y-63077866D02*
X75829114Y-62839771D01*
X75829114Y-62839771D02*
X75876733Y-62649295D01*
X75876733Y-62649295D02*
X75924352Y-62554057D01*
X75924352Y-62554057D02*
X75971971Y-62506438D01*
X75971971Y-62506438D02*
X76067209Y-62458819D01*
X108709160Y-64935200D02*
X108852017Y-64982819D01*
X108852017Y-64982819D02*
X109090112Y-64982819D01*
X109090112Y-64982819D02*
X109185350Y-64935200D01*
X109185350Y-64935200D02*
X109232969Y-64887580D01*
X109232969Y-64887580D02*
X109280588Y-64792342D01*
X109280588Y-64792342D02*
X109280588Y-64697104D01*
X109280588Y-64697104D02*
X109232969Y-64601866D01*
X109232969Y-64601866D02*
X109185350Y-64554247D01*
X109185350Y-64554247D02*
X109090112Y-64506628D01*
X109090112Y-64506628D02*
X108899636Y-64459009D01*
X108899636Y-64459009D02*
X108804398Y-64411390D01*
X108804398Y-64411390D02*
X108756779Y-64363771D01*
X108756779Y-64363771D02*
X108709160Y-64268533D01*
X108709160Y-64268533D02*
X108709160Y-64173295D01*
X108709160Y-64173295D02*
X108756779Y-64078057D01*
X108756779Y-64078057D02*
X108804398Y-64030438D01*
X108804398Y-64030438D02*
X108899636Y-63982819D01*
X108899636Y-63982819D02*
X109137731Y-63982819D01*
X109137731Y-63982819D02*
X109280588Y-64030438D01*
X109661541Y-64935200D02*
X109804398Y-64982819D01*
X109804398Y-64982819D02*
X110042493Y-64982819D01*
X110042493Y-64982819D02*
X110137731Y-64935200D01*
X110137731Y-64935200D02*
X110185350Y-64887580D01*
X110185350Y-64887580D02*
X110232969Y-64792342D01*
X110232969Y-64792342D02*
X110232969Y-64697104D01*
X110232969Y-64697104D02*
X110185350Y-64601866D01*
X110185350Y-64601866D02*
X110137731Y-64554247D01*
X110137731Y-64554247D02*
X110042493Y-64506628D01*
X110042493Y-64506628D02*
X109852017Y-64459009D01*
X109852017Y-64459009D02*
X109756779Y-64411390D01*
X109756779Y-64411390D02*
X109709160Y-64363771D01*
X109709160Y-64363771D02*
X109661541Y-64268533D01*
X109661541Y-64268533D02*
X109661541Y-64173295D01*
X109661541Y-64173295D02*
X109709160Y-64078057D01*
X109709160Y-64078057D02*
X109756779Y-64030438D01*
X109756779Y-64030438D02*
X109852017Y-63982819D01*
X109852017Y-63982819D02*
X110090112Y-63982819D01*
X110090112Y-63982819D02*
X110232969Y-64030438D01*
X110518684Y-63982819D02*
X111090112Y-63982819D01*
X110804398Y-64982819D02*
X110804398Y-63982819D01*
X111328208Y-63982819D02*
X111947255Y-63982819D01*
X111947255Y-63982819D02*
X111613922Y-64363771D01*
X111613922Y-64363771D02*
X111756779Y-64363771D01*
X111756779Y-64363771D02*
X111852017Y-64411390D01*
X111852017Y-64411390D02*
X111899636Y-64459009D01*
X111899636Y-64459009D02*
X111947255Y-64554247D01*
X111947255Y-64554247D02*
X111947255Y-64792342D01*
X111947255Y-64792342D02*
X111899636Y-64887580D01*
X111899636Y-64887580D02*
X111852017Y-64935200D01*
X111852017Y-64935200D02*
X111756779Y-64982819D01*
X111756779Y-64982819D02*
X111471065Y-64982819D01*
X111471065Y-64982819D02*
X111375827Y-64935200D01*
X111375827Y-64935200D02*
X111328208Y-64887580D01*
X112423446Y-64982819D02*
X112613922Y-64982819D01*
X112613922Y-64982819D02*
X112709160Y-64935200D01*
X112709160Y-64935200D02*
X112756779Y-64887580D01*
X112756779Y-64887580D02*
X112852017Y-64744723D01*
X112852017Y-64744723D02*
X112899636Y-64554247D01*
X112899636Y-64554247D02*
X112899636Y-64173295D01*
X112899636Y-64173295D02*
X112852017Y-64078057D01*
X112852017Y-64078057D02*
X112804398Y-64030438D01*
X112804398Y-64030438D02*
X112709160Y-63982819D01*
X112709160Y-63982819D02*
X112518684Y-63982819D01*
X112518684Y-63982819D02*
X112423446Y-64030438D01*
X112423446Y-64030438D02*
X112375827Y-64078057D01*
X112375827Y-64078057D02*
X112328208Y-64173295D01*
X112328208Y-64173295D02*
X112328208Y-64411390D01*
X112328208Y-64411390D02*
X112375827Y-64506628D01*
X112375827Y-64506628D02*
X112423446Y-64554247D01*
X112423446Y-64554247D02*
X112518684Y-64601866D01*
X112518684Y-64601866D02*
X112709160Y-64601866D01*
X112709160Y-64601866D02*
X112804398Y-64554247D01*
X112804398Y-64554247D02*
X112852017Y-64506628D01*
X112852017Y-64506628D02*
X112899636Y-64411390D01*
X113280589Y-64935200D02*
X113423446Y-64982819D01*
X113423446Y-64982819D02*
X113661541Y-64982819D01*
X113661541Y-64982819D02*
X113756779Y-64935200D01*
X113756779Y-64935200D02*
X113804398Y-64887580D01*
X113804398Y-64887580D02*
X113852017Y-64792342D01*
X113852017Y-64792342D02*
X113852017Y-64697104D01*
X113852017Y-64697104D02*
X113804398Y-64601866D01*
X113804398Y-64601866D02*
X113756779Y-64554247D01*
X113756779Y-64554247D02*
X113661541Y-64506628D01*
X113661541Y-64506628D02*
X113471065Y-64459009D01*
X113471065Y-64459009D02*
X113375827Y-64411390D01*
X113375827Y-64411390D02*
X113328208Y-64363771D01*
X113328208Y-64363771D02*
X113280589Y-64268533D01*
X113280589Y-64268533D02*
X113280589Y-64173295D01*
X113280589Y-64173295D02*
X113328208Y-64078057D01*
X113328208Y-64078057D02*
X113375827Y-64030438D01*
X113375827Y-64030438D02*
X113471065Y-63982819D01*
X113471065Y-63982819D02*
X113709160Y-63982819D01*
X113709160Y-63982819D02*
X113852017Y-64030438D01*
X114613922Y-64459009D02*
X114280589Y-64459009D01*
X114280589Y-64982819D02*
X114280589Y-63982819D01*
X114280589Y-63982819D02*
X114756779Y-63982819D01*
X115328208Y-63982819D02*
X115423446Y-63982819D01*
X115423446Y-63982819D02*
X115518684Y-64030438D01*
X115518684Y-64030438D02*
X115566303Y-64078057D01*
X115566303Y-64078057D02*
X115613922Y-64173295D01*
X115613922Y-64173295D02*
X115661541Y-64363771D01*
X115661541Y-64363771D02*
X115661541Y-64601866D01*
X115661541Y-64601866D02*
X115613922Y-64792342D01*
X115613922Y-64792342D02*
X115566303Y-64887580D01*
X115566303Y-64887580D02*
X115518684Y-64935200D01*
X115518684Y-64935200D02*
X115423446Y-64982819D01*
X115423446Y-64982819D02*
X115328208Y-64982819D01*
X115328208Y-64982819D02*
X115232970Y-64935200D01*
X115232970Y-64935200D02*
X115185351Y-64887580D01*
X115185351Y-64887580D02*
X115137732Y-64792342D01*
X115137732Y-64792342D02*
X115090113Y-64601866D01*
X115090113Y-64601866D02*
X115090113Y-64363771D01*
X115090113Y-64363771D02*
X115137732Y-64173295D01*
X115137732Y-64173295D02*
X115185351Y-64078057D01*
X115185351Y-64078057D02*
X115232970Y-64030438D01*
X115232970Y-64030438D02*
X115328208Y-63982819D01*
X116518684Y-64316152D02*
X116518684Y-64982819D01*
X116280589Y-63935200D02*
X116042494Y-64649485D01*
X116042494Y-64649485D02*
X116661541Y-64649485D01*
X117232970Y-63982819D02*
X117328208Y-63982819D01*
X117328208Y-63982819D02*
X117423446Y-64030438D01*
X117423446Y-64030438D02*
X117471065Y-64078057D01*
X117471065Y-64078057D02*
X117518684Y-64173295D01*
X117518684Y-64173295D02*
X117566303Y-64363771D01*
X117566303Y-64363771D02*
X117566303Y-64601866D01*
X117566303Y-64601866D02*
X117518684Y-64792342D01*
X117518684Y-64792342D02*
X117471065Y-64887580D01*
X117471065Y-64887580D02*
X117423446Y-64935200D01*
X117423446Y-64935200D02*
X117328208Y-64982819D01*
X117328208Y-64982819D02*
X117232970Y-64982819D01*
X117232970Y-64982819D02*
X117137732Y-64935200D01*
X117137732Y-64935200D02*
X117090113Y-64887580D01*
X117090113Y-64887580D02*
X117042494Y-64792342D01*
X117042494Y-64792342D02*
X116994875Y-64601866D01*
X116994875Y-64601866D02*
X116994875Y-64363771D01*
X116994875Y-64363771D02*
X117042494Y-64173295D01*
X117042494Y-64173295D02*
X117090113Y-64078057D01*
X117090113Y-64078057D02*
X117137732Y-64030438D01*
X117137732Y-64030438D02*
X117232970Y-63982819D01*
X143432333Y-88967580D02*
X143384714Y-89015200D01*
X143384714Y-89015200D02*
X143241857Y-89062819D01*
X143241857Y-89062819D02*
X143146619Y-89062819D01*
X143146619Y-89062819D02*
X143003762Y-89015200D01*
X143003762Y-89015200D02*
X142908524Y-88919961D01*
X142908524Y-88919961D02*
X142860905Y-88824723D01*
X142860905Y-88824723D02*
X142813286Y-88634247D01*
X142813286Y-88634247D02*
X142813286Y-88491390D01*
X142813286Y-88491390D02*
X142860905Y-88300914D01*
X142860905Y-88300914D02*
X142908524Y-88205676D01*
X142908524Y-88205676D02*
X143003762Y-88110438D01*
X143003762Y-88110438D02*
X143146619Y-88062819D01*
X143146619Y-88062819D02*
X143241857Y-88062819D01*
X143241857Y-88062819D02*
X143384714Y-88110438D01*
X143384714Y-88110438D02*
X143432333Y-88158057D01*
X144289476Y-88396152D02*
X144289476Y-89062819D01*
X144051381Y-88015200D02*
X143813286Y-88729485D01*
X143813286Y-88729485D02*
X144432333Y-88729485D01*
X112230095Y-62281819D02*
X112230095Y-63091342D01*
X112230095Y-63091342D02*
X112277714Y-63186580D01*
X112277714Y-63186580D02*
X112325333Y-63234200D01*
X112325333Y-63234200D02*
X112420571Y-63281819D01*
X112420571Y-63281819D02*
X112611047Y-63281819D01*
X112611047Y-63281819D02*
X112706285Y-63234200D01*
X112706285Y-63234200D02*
X112753904Y-63186580D01*
X112753904Y-63186580D02*
X112801523Y-63091342D01*
X112801523Y-63091342D02*
X112801523Y-62281819D01*
X113706285Y-62615152D02*
X113706285Y-63281819D01*
X113468190Y-62234200D02*
X113230095Y-62948485D01*
X113230095Y-62948485D02*
X113849142Y-62948485D01*
D11*
X138705510Y-101390114D02*
X138205510Y-101390114D01*
X138205510Y-102175828D02*
X138205510Y-100675828D01*
X138205510Y-100675828D02*
X138919796Y-100675828D01*
X139491224Y-102175828D02*
X139491224Y-101175828D01*
X139491224Y-101461542D02*
X139562653Y-101318685D01*
X139562653Y-101318685D02*
X139634082Y-101247257D01*
X139634082Y-101247257D02*
X139776939Y-101175828D01*
X139776939Y-101175828D02*
X139919796Y-101175828D01*
X140634081Y-102175828D02*
X140491224Y-102104400D01*
X140491224Y-102104400D02*
X140419795Y-102032971D01*
X140419795Y-102032971D02*
X140348367Y-101890114D01*
X140348367Y-101890114D02*
X140348367Y-101461542D01*
X140348367Y-101461542D02*
X140419795Y-101318685D01*
X140419795Y-101318685D02*
X140491224Y-101247257D01*
X140491224Y-101247257D02*
X140634081Y-101175828D01*
X140634081Y-101175828D02*
X140848367Y-101175828D01*
X140848367Y-101175828D02*
X140991224Y-101247257D01*
X140991224Y-101247257D02*
X141062653Y-101318685D01*
X141062653Y-101318685D02*
X141134081Y-101461542D01*
X141134081Y-101461542D02*
X141134081Y-101890114D01*
X141134081Y-101890114D02*
X141062653Y-102032971D01*
X141062653Y-102032971D02*
X140991224Y-102104400D01*
X140991224Y-102104400D02*
X140848367Y-102175828D01*
X140848367Y-102175828D02*
X140634081Y-102175828D01*
X141776938Y-101175828D02*
X141776938Y-102175828D01*
X141776938Y-101318685D02*
X141848367Y-101247257D01*
X141848367Y-101247257D02*
X141991224Y-101175828D01*
X141991224Y-101175828D02*
X142205510Y-101175828D01*
X142205510Y-101175828D02*
X142348367Y-101247257D01*
X142348367Y-101247257D02*
X142419796Y-101390114D01*
X142419796Y-101390114D02*
X142419796Y-102175828D01*
X142919796Y-101175828D02*
X143491224Y-101175828D01*
X143134081Y-100675828D02*
X143134081Y-101961542D01*
X143134081Y-101961542D02*
X143205510Y-102104400D01*
X143205510Y-102104400D02*
X143348367Y-102175828D01*
X143348367Y-102175828D02*
X143491224Y-102175828D01*
X66012796Y-100800828D02*
X65298510Y-100800828D01*
X65298510Y-100800828D02*
X65227082Y-101515114D01*
X65227082Y-101515114D02*
X65298510Y-101443685D01*
X65298510Y-101443685D02*
X65441368Y-101372257D01*
X65441368Y-101372257D02*
X65798510Y-101372257D01*
X65798510Y-101372257D02*
X65941368Y-101443685D01*
X65941368Y-101443685D02*
X66012796Y-101515114D01*
X66012796Y-101515114D02*
X66084225Y-101657971D01*
X66084225Y-101657971D02*
X66084225Y-102015114D01*
X66084225Y-102015114D02*
X66012796Y-102157971D01*
X66012796Y-102157971D02*
X65941368Y-102229400D01*
X65941368Y-102229400D02*
X65798510Y-102300828D01*
X65798510Y-102300828D02*
X65441368Y-102300828D01*
X65441368Y-102300828D02*
X65298510Y-102229400D01*
X65298510Y-102229400D02*
X65227082Y-102157971D01*
X67012796Y-100800828D02*
X67155653Y-100800828D01*
X67155653Y-100800828D02*
X67298510Y-100872257D01*
X67298510Y-100872257D02*
X67369939Y-100943685D01*
X67369939Y-100943685D02*
X67441367Y-101086542D01*
X67441367Y-101086542D02*
X67512796Y-101372257D01*
X67512796Y-101372257D02*
X67512796Y-101729400D01*
X67512796Y-101729400D02*
X67441367Y-102015114D01*
X67441367Y-102015114D02*
X67369939Y-102157971D01*
X67369939Y-102157971D02*
X67298510Y-102229400D01*
X67298510Y-102229400D02*
X67155653Y-102300828D01*
X67155653Y-102300828D02*
X67012796Y-102300828D01*
X67012796Y-102300828D02*
X66869939Y-102229400D01*
X66869939Y-102229400D02*
X66798510Y-102157971D01*
X66798510Y-102157971D02*
X66727081Y-102015114D01*
X66727081Y-102015114D02*
X66655653Y-101729400D01*
X66655653Y-101729400D02*
X66655653Y-101372257D01*
X66655653Y-101372257D02*
X66727081Y-101086542D01*
X66727081Y-101086542D02*
X66798510Y-100943685D01*
X66798510Y-100943685D02*
X66869939Y-100872257D01*
X66869939Y-100872257D02*
X67012796Y-100800828D01*
X133877082Y-100827685D02*
X133948510Y-100756257D01*
X133948510Y-100756257D02*
X134091368Y-100684828D01*
X134091368Y-100684828D02*
X134448510Y-100684828D01*
X134448510Y-100684828D02*
X134591368Y-100756257D01*
X134591368Y-100756257D02*
X134662796Y-100827685D01*
X134662796Y-100827685D02*
X134734225Y-100970542D01*
X134734225Y-100970542D02*
X134734225Y-101113400D01*
X134734225Y-101113400D02*
X134662796Y-101327685D01*
X134662796Y-101327685D02*
X133805653Y-102184828D01*
X133805653Y-102184828D02*
X134734225Y-102184828D01*
D10*
X84758333Y-77410580D02*
X84710714Y-77458200D01*
X84710714Y-77458200D02*
X84567857Y-77505819D01*
X84567857Y-77505819D02*
X84472619Y-77505819D01*
X84472619Y-77505819D02*
X84329762Y-77458200D01*
X84329762Y-77458200D02*
X84234524Y-77362961D01*
X84234524Y-77362961D02*
X84186905Y-77267723D01*
X84186905Y-77267723D02*
X84139286Y-77077247D01*
X84139286Y-77077247D02*
X84139286Y-76934390D01*
X84139286Y-76934390D02*
X84186905Y-76743914D01*
X84186905Y-76743914D02*
X84234524Y-76648676D01*
X84234524Y-76648676D02*
X84329762Y-76553438D01*
X84329762Y-76553438D02*
X84472619Y-76505819D01*
X84472619Y-76505819D02*
X84567857Y-76505819D01*
X84567857Y-76505819D02*
X84710714Y-76553438D01*
X84710714Y-76553438D02*
X84758333Y-76601057D01*
X85139286Y-76601057D02*
X85186905Y-76553438D01*
X85186905Y-76553438D02*
X85282143Y-76505819D01*
X85282143Y-76505819D02*
X85520238Y-76505819D01*
X85520238Y-76505819D02*
X85615476Y-76553438D01*
X85615476Y-76553438D02*
X85663095Y-76601057D01*
X85663095Y-76601057D02*
X85710714Y-76696295D01*
X85710714Y-76696295D02*
X85710714Y-76791533D01*
X85710714Y-76791533D02*
X85663095Y-76934390D01*
X85663095Y-76934390D02*
X85091667Y-77505819D01*
X85091667Y-77505819D02*
X85710714Y-77505819D01*
X127343095Y-84633819D02*
X127343095Y-85443342D01*
X127343095Y-85443342D02*
X127390714Y-85538580D01*
X127390714Y-85538580D02*
X127438333Y-85586200D01*
X127438333Y-85586200D02*
X127533571Y-85633819D01*
X127533571Y-85633819D02*
X127724047Y-85633819D01*
X127724047Y-85633819D02*
X127819285Y-85586200D01*
X127819285Y-85586200D02*
X127866904Y-85538580D01*
X127866904Y-85538580D02*
X127914523Y-85443342D01*
X127914523Y-85443342D02*
X127914523Y-84633819D01*
X128866904Y-84633819D02*
X128390714Y-84633819D01*
X128390714Y-84633819D02*
X128343095Y-85110009D01*
X128343095Y-85110009D02*
X128390714Y-85062390D01*
X128390714Y-85062390D02*
X128485952Y-85014771D01*
X128485952Y-85014771D02*
X128724047Y-85014771D01*
X128724047Y-85014771D02*
X128819285Y-85062390D01*
X128819285Y-85062390D02*
X128866904Y-85110009D01*
X128866904Y-85110009D02*
X128914523Y-85205247D01*
X128914523Y-85205247D02*
X128914523Y-85443342D01*
X128914523Y-85443342D02*
X128866904Y-85538580D01*
X128866904Y-85538580D02*
X128819285Y-85586200D01*
X128819285Y-85586200D02*
X128724047Y-85633819D01*
X128724047Y-85633819D02*
X128485952Y-85633819D01*
X128485952Y-85633819D02*
X128390714Y-85586200D01*
X128390714Y-85586200D02*
X128343095Y-85538580D01*
X79805333Y-94174580D02*
X79757714Y-94222200D01*
X79757714Y-94222200D02*
X79614857Y-94269819D01*
X79614857Y-94269819D02*
X79519619Y-94269819D01*
X79519619Y-94269819D02*
X79376762Y-94222200D01*
X79376762Y-94222200D02*
X79281524Y-94126961D01*
X79281524Y-94126961D02*
X79233905Y-94031723D01*
X79233905Y-94031723D02*
X79186286Y-93841247D01*
X79186286Y-93841247D02*
X79186286Y-93698390D01*
X79186286Y-93698390D02*
X79233905Y-93507914D01*
X79233905Y-93507914D02*
X79281524Y-93412676D01*
X79281524Y-93412676D02*
X79376762Y-93317438D01*
X79376762Y-93317438D02*
X79519619Y-93269819D01*
X79519619Y-93269819D02*
X79614857Y-93269819D01*
X79614857Y-93269819D02*
X79757714Y-93317438D01*
X79757714Y-93317438D02*
X79805333Y-93365057D01*
X80710095Y-93269819D02*
X80233905Y-93269819D01*
X80233905Y-93269819D02*
X80186286Y-93746009D01*
X80186286Y-93746009D02*
X80233905Y-93698390D01*
X80233905Y-93698390D02*
X80329143Y-93650771D01*
X80329143Y-93650771D02*
X80567238Y-93650771D01*
X80567238Y-93650771D02*
X80662476Y-93698390D01*
X80662476Y-93698390D02*
X80710095Y-93746009D01*
X80710095Y-93746009D02*
X80757714Y-93841247D01*
X80757714Y-93841247D02*
X80757714Y-94079342D01*
X80757714Y-94079342D02*
X80710095Y-94174580D01*
X80710095Y-94174580D02*
X80662476Y-94222200D01*
X80662476Y-94222200D02*
X80567238Y-94269819D01*
X80567238Y-94269819D02*
X80329143Y-94269819D01*
X80329143Y-94269819D02*
X80233905Y-94222200D01*
X80233905Y-94222200D02*
X80186286Y-94174580D01*
X138479333Y-70425580D02*
X138431714Y-70473200D01*
X138431714Y-70473200D02*
X138288857Y-70520819D01*
X138288857Y-70520819D02*
X138193619Y-70520819D01*
X138193619Y-70520819D02*
X138050762Y-70473200D01*
X138050762Y-70473200D02*
X137955524Y-70377961D01*
X137955524Y-70377961D02*
X137907905Y-70282723D01*
X137907905Y-70282723D02*
X137860286Y-70092247D01*
X137860286Y-70092247D02*
X137860286Y-69949390D01*
X137860286Y-69949390D02*
X137907905Y-69758914D01*
X137907905Y-69758914D02*
X137955524Y-69663676D01*
X137955524Y-69663676D02*
X138050762Y-69568438D01*
X138050762Y-69568438D02*
X138193619Y-69520819D01*
X138193619Y-69520819D02*
X138288857Y-69520819D01*
X138288857Y-69520819D02*
X138431714Y-69568438D01*
X138431714Y-69568438D02*
X138479333Y-69616057D01*
X138812667Y-69520819D02*
X139431714Y-69520819D01*
X139431714Y-69520819D02*
X139098381Y-69901771D01*
X139098381Y-69901771D02*
X139241238Y-69901771D01*
X139241238Y-69901771D02*
X139336476Y-69949390D01*
X139336476Y-69949390D02*
X139384095Y-69997009D01*
X139384095Y-69997009D02*
X139431714Y-70092247D01*
X139431714Y-70092247D02*
X139431714Y-70330342D01*
X139431714Y-70330342D02*
X139384095Y-70425580D01*
X139384095Y-70425580D02*
X139336476Y-70473200D01*
X139336476Y-70473200D02*
X139241238Y-70520819D01*
X139241238Y-70520819D02*
X138955524Y-70520819D01*
X138955524Y-70520819D02*
X138860286Y-70473200D01*
X138860286Y-70473200D02*
X138812667Y-70425580D01*
X142011667Y-60611200D02*
X142154524Y-60658819D01*
X142154524Y-60658819D02*
X142392619Y-60658819D01*
X142392619Y-60658819D02*
X142487857Y-60611200D01*
X142487857Y-60611200D02*
X142535476Y-60563580D01*
X142535476Y-60563580D02*
X142583095Y-60468342D01*
X142583095Y-60468342D02*
X142583095Y-60373104D01*
X142583095Y-60373104D02*
X142535476Y-60277866D01*
X142535476Y-60277866D02*
X142487857Y-60230247D01*
X142487857Y-60230247D02*
X142392619Y-60182628D01*
X142392619Y-60182628D02*
X142202143Y-60135009D01*
X142202143Y-60135009D02*
X142106905Y-60087390D01*
X142106905Y-60087390D02*
X142059286Y-60039771D01*
X142059286Y-60039771D02*
X142011667Y-59944533D01*
X142011667Y-59944533D02*
X142011667Y-59849295D01*
X142011667Y-59849295D02*
X142059286Y-59754057D01*
X142059286Y-59754057D02*
X142106905Y-59706438D01*
X142106905Y-59706438D02*
X142202143Y-59658819D01*
X142202143Y-59658819D02*
X142440238Y-59658819D01*
X142440238Y-59658819D02*
X142583095Y-59706438D01*
X142916429Y-59658819D02*
X143154524Y-60658819D01*
X143154524Y-60658819D02*
X143345000Y-59944533D01*
X143345000Y-59944533D02*
X143535476Y-60658819D01*
X143535476Y-60658819D02*
X143773572Y-59658819D01*
X144678333Y-60658819D02*
X144106905Y-60658819D01*
X144392619Y-60658819D02*
X144392619Y-59658819D01*
X144392619Y-59658819D02*
X144297381Y-59801676D01*
X144297381Y-59801676D02*
X144202143Y-59896914D01*
X144202143Y-59896914D02*
X144106905Y-59944533D01*
X66637095Y-73838819D02*
X66637095Y-74648342D01*
X66637095Y-74648342D02*
X66684714Y-74743580D01*
X66684714Y-74743580D02*
X66732333Y-74791200D01*
X66732333Y-74791200D02*
X66827571Y-74838819D01*
X66827571Y-74838819D02*
X67018047Y-74838819D01*
X67018047Y-74838819D02*
X67113285Y-74791200D01*
X67113285Y-74791200D02*
X67160904Y-74743580D01*
X67160904Y-74743580D02*
X67208523Y-74648342D01*
X67208523Y-74648342D02*
X67208523Y-73838819D01*
X67637095Y-73934057D02*
X67684714Y-73886438D01*
X67684714Y-73886438D02*
X67779952Y-73838819D01*
X67779952Y-73838819D02*
X68018047Y-73838819D01*
X68018047Y-73838819D02*
X68113285Y-73886438D01*
X68113285Y-73886438D02*
X68160904Y-73934057D01*
X68160904Y-73934057D02*
X68208523Y-74029295D01*
X68208523Y-74029295D02*
X68208523Y-74124533D01*
X68208523Y-74124533D02*
X68160904Y-74267390D01*
X68160904Y-74267390D02*
X67589476Y-74838819D01*
X67589476Y-74838819D02*
X68208523Y-74838819D01*
D12*
X139562000Y-89109000D02*
X139877000Y-89109000D01*
X139562000Y-89109000D02*
X139562000Y-83869000D01*
X141987000Y-89109000D02*
X142302000Y-89109000D01*
X142302000Y-89109000D02*
X142302000Y-83869000D01*
X139562000Y-83869000D02*
X139877000Y-83869000D01*
X141987000Y-83869000D02*
X142302000Y-83869000D01*
X133499000Y-56367000D02*
X92739000Y-56367000D01*
X92739000Y-56367000D02*
X92739000Y-69287000D01*
X133499000Y-61827000D02*
X133499000Y-56367000D01*
X133499000Y-69287000D02*
X133499000Y-63827000D01*
X92739000Y-69287000D02*
X133499000Y-69287000D01*
X133499000Y-61827000D02*
G75*
G03*
X133499000Y-63827000I0J-1000000D01*
G01*
G36*
X54118413Y-55629729D02*
G01*
X54166696Y-55633546D01*
X54208988Y-55639502D01*
X54227755Y-55643554D01*
X54268827Y-55656729D01*
X54309751Y-55674587D01*
X54346807Y-55695179D01*
X54376272Y-55716558D01*
X54386948Y-55726880D01*
X54403976Y-55748840D01*
X54410316Y-55766547D01*
X54406621Y-55782761D01*
X54401944Y-55790187D01*
X54396467Y-55800975D01*
X54397704Y-55813269D01*
X54401944Y-55824581D01*
X54410802Y-55861530D01*
X54407649Y-55897740D01*
X54393719Y-55930919D01*
X54370243Y-55958776D01*
X54338453Y-55979018D01*
X54314677Y-55986838D01*
X54293568Y-55988144D01*
X54261662Y-55985351D01*
X54226590Y-55979711D01*
X54189193Y-55974033D01*
X54148630Y-55970033D01*
X54108034Y-55967802D01*
X54070535Y-55967428D01*
X54039265Y-55969000D01*
X54017354Y-55972609D01*
X54014185Y-55973653D01*
X54001116Y-55981349D01*
X53982216Y-55995777D01*
X53961023Y-56014182D01*
X53955418Y-56019426D01*
X53934861Y-56038300D01*
X53916456Y-56053981D01*
X53903409Y-56063774D01*
X53901089Y-56065125D01*
X53872165Y-56074033D01*
X53839441Y-56075847D01*
X53817999Y-56072386D01*
X53782906Y-56056602D01*
X53756825Y-56031365D01*
X53744994Y-56011411D01*
X53732885Y-55973199D01*
X53733879Y-55936116D01*
X53743824Y-55908297D01*
X53758632Y-55885761D01*
X53781151Y-55858769D01*
X53808219Y-55830579D01*
X53836670Y-55804449D01*
X53863341Y-55783637D01*
X53867793Y-55780651D01*
X53884383Y-55769588D01*
X53891246Y-55764024D01*
X53887789Y-55763969D01*
X53873418Y-55769434D01*
X53847539Y-55780430D01*
X53846107Y-55781050D01*
X53811125Y-55796193D01*
X53792774Y-55782530D01*
X53773432Y-55762464D01*
X53771609Y-55756896D01*
X53904422Y-55756896D01*
X53907755Y-55760229D01*
X53911089Y-55756896D01*
X53907755Y-55753563D01*
X53904422Y-55756896D01*
X53771609Y-55756896D01*
X53766403Y-55740993D01*
X53772122Y-55719582D01*
X53773436Y-55717464D01*
X53790252Y-55700909D01*
X53818097Y-55684048D01*
X53854722Y-55667782D01*
X53897879Y-55653009D01*
X53945317Y-55640628D01*
X53984422Y-55633117D01*
X54022597Y-55629314D01*
X54068820Y-55628251D01*
X54118413Y-55629729D01*
G37*
G36*
X54855903Y-56083675D02*
G01*
X54882908Y-56094983D01*
X54908136Y-56115604D01*
X54933638Y-56146992D01*
X54946562Y-56166283D01*
X54963410Y-56188904D01*
X54981711Y-56203897D01*
X55004883Y-56212940D01*
X55036340Y-56217711D01*
X55053662Y-56218887D01*
X55094968Y-56218893D01*
X55135559Y-56215049D01*
X55172389Y-56207959D01*
X55202413Y-56198232D01*
X55222586Y-56186471D01*
X55224214Y-56184939D01*
X55237681Y-56169214D01*
X55251634Y-56149865D01*
X55253444Y-56147054D01*
X55279412Y-56116877D01*
X55310887Y-56097593D01*
X55345534Y-56089448D01*
X55381017Y-56092688D01*
X55415001Y-56107559D01*
X55439111Y-56127543D01*
X55460509Y-56158798D01*
X55470163Y-56194065D01*
X55468540Y-56232000D01*
X55456107Y-56271261D01*
X55433330Y-56310503D01*
X55400677Y-56348383D01*
X55358613Y-56383558D01*
X55347494Y-56391232D01*
X55301473Y-56415724D01*
X55245921Y-56435316D01*
X55183898Y-56449496D01*
X55118465Y-56457749D01*
X55052681Y-56459561D01*
X54989609Y-56454418D01*
X54980066Y-56452931D01*
X54925628Y-56439114D01*
X54873998Y-56417208D01*
X54841210Y-56397317D01*
X54809221Y-56374574D01*
X54784013Y-56390487D01*
X54738973Y-56413530D01*
X54690226Y-56427349D01*
X54634775Y-56432653D01*
X54607118Y-56432461D01*
X54575402Y-56431111D01*
X54552277Y-56428746D01*
X54532999Y-56424174D01*
X54512827Y-56416202D01*
X54487019Y-56403639D01*
X54481665Y-56400928D01*
X54434632Y-56372364D01*
X54395699Y-56339256D01*
X54365430Y-56303007D01*
X54344387Y-56265022D01*
X54333133Y-56226703D01*
X54332231Y-56189454D01*
X54342244Y-56154679D01*
X54363735Y-56123781D01*
X54368601Y-56118987D01*
X54400503Y-56097336D01*
X54435387Y-56087533D01*
X54470886Y-56089215D01*
X54504633Y-56102015D01*
X54534263Y-56125568D01*
X54550550Y-56147051D01*
X54571565Y-56175275D01*
X54593500Y-56191968D01*
X54617409Y-56197081D01*
X54644345Y-56190569D01*
X54675363Y-56172384D01*
X54711514Y-56142481D01*
X54714444Y-56139780D01*
X54742766Y-56114415D01*
X54764901Y-56097314D01*
X54783703Y-56086942D01*
X54802027Y-56081763D01*
X54822726Y-56080240D01*
X54825070Y-56080229D01*
X54855903Y-56083675D01*
G37*
G36*
X55859814Y-55635932D02*
G01*
X55911089Y-55647120D01*
X55946637Y-55657989D01*
X55984644Y-55671087D01*
X56022401Y-55685322D01*
X56057201Y-55699600D01*
X56086338Y-55712831D01*
X56107105Y-55723921D01*
X56114567Y-55729223D01*
X56131169Y-55750532D01*
X56134650Y-55772591D01*
X56124915Y-55794720D01*
X56123846Y-55796113D01*
X56112334Y-55808146D01*
X56099844Y-55812501D01*
X56081803Y-55811646D01*
X56063977Y-55807722D01*
X56038053Y-55799664D01*
X56008095Y-55788807D01*
X55988786Y-55781050D01*
X55954958Y-55767271D01*
X55931526Y-55758531D01*
X55918848Y-55754848D01*
X55917279Y-55756240D01*
X55927178Y-55762722D01*
X55948899Y-55774314D01*
X55959478Y-55779639D01*
X56018409Y-55812693D01*
X56064322Y-55846686D01*
X56097162Y-55881535D01*
X56116870Y-55917153D01*
X56123389Y-55953456D01*
X56116661Y-55990359D01*
X56111096Y-56003546D01*
X56095004Y-56028452D01*
X56074894Y-56048363D01*
X56071726Y-56050598D01*
X56043028Y-56063798D01*
X56009881Y-56070400D01*
X55978409Y-56069420D01*
X55969011Y-56067132D01*
X55953141Y-56059472D01*
X55933049Y-56046409D01*
X55921218Y-56037359D01*
X55868570Y-56002194D01*
X55807852Y-55975211D01*
X55742023Y-55957098D01*
X55674040Y-55948545D01*
X55606862Y-55950240D01*
X55571089Y-55955840D01*
X55526491Y-55962076D01*
X55490429Y-55959692D01*
X55460800Y-55948113D01*
X55435504Y-55926759D01*
X55426738Y-55916154D01*
X55412640Y-55888912D01*
X55405388Y-55856134D01*
X55405547Y-55823076D01*
X55413682Y-55794993D01*
X55413698Y-55794962D01*
X55421238Y-55775315D01*
X55424421Y-55756956D01*
X55424422Y-55756789D01*
X55425485Y-55749118D01*
X55893311Y-55749118D01*
X55894226Y-55753081D01*
X55897755Y-55753563D01*
X55903243Y-55751123D01*
X55902200Y-55749118D01*
X55894288Y-55748320D01*
X55893311Y-55749118D01*
X55425485Y-55749118D01*
X55426254Y-55743563D01*
X55871089Y-55743563D01*
X55874422Y-55746896D01*
X55877755Y-55743563D01*
X55874422Y-55740229D01*
X55871089Y-55743563D01*
X55426254Y-55743563D01*
X55427157Y-55737046D01*
X55436781Y-55720963D01*
X55455418Y-55706058D01*
X55479250Y-55692808D01*
X55549163Y-55663769D01*
X55625350Y-55643227D01*
X55704637Y-55631516D01*
X55783849Y-55628972D01*
X55859814Y-55635932D01*
G37*
G36*
X56314288Y-56023223D02*
G01*
X56322371Y-56040642D01*
X56334560Y-56067735D01*
X56350286Y-56103211D01*
X56368978Y-56145779D01*
X56390063Y-56194146D01*
X56412973Y-56247023D01*
X56424204Y-56273056D01*
X56533564Y-56526896D01*
X56603993Y-56527318D01*
X56643963Y-56528058D01*
X56689347Y-56529667D01*
X56732280Y-56531843D01*
X56745436Y-56532696D01*
X56778253Y-56535317D01*
X56801046Y-56538289D01*
X56817119Y-56542419D01*
X56829775Y-56548517D01*
X56840498Y-56555993D01*
X56859298Y-56574300D01*
X56875688Y-56596633D01*
X56878552Y-56601791D01*
X56889099Y-56636079D01*
X56888228Y-56671766D01*
X56876960Y-56705676D01*
X56856313Y-56734631D01*
X56829610Y-56754317D01*
X56821423Y-56758140D01*
X56812449Y-56761195D01*
X56801133Y-56763582D01*
X56785924Y-56765400D01*
X56765268Y-56766747D01*
X56737613Y-56767721D01*
X56701408Y-56768423D01*
X56655098Y-56768950D01*
X56597131Y-56769401D01*
X56591948Y-56769436D01*
X56527874Y-56770018D01*
X56475373Y-56770853D01*
X56432687Y-56772026D01*
X56398058Y-56773623D01*
X56369726Y-56775729D01*
X56345933Y-56778428D01*
X56324921Y-56781805D01*
X56321089Y-56782532D01*
X56244236Y-56799983D01*
X56179594Y-56820339D01*
X56126257Y-56844108D01*
X56083321Y-56871795D01*
X56049881Y-56903905D01*
X56025031Y-56940946D01*
X56020178Y-56950770D01*
X56005067Y-56991733D01*
X55999489Y-57027976D01*
X56003652Y-57057720D01*
X56006809Y-57065066D01*
X56021699Y-57085430D01*
X56046430Y-57109806D01*
X56078748Y-57136596D01*
X56116395Y-57164204D01*
X56157118Y-57191032D01*
X56198662Y-57215483D01*
X56238770Y-57235960D01*
X56262620Y-57246233D01*
X56309433Y-57262183D01*
X56367504Y-57277979D01*
X56434762Y-57293257D01*
X56509133Y-57307653D01*
X56588546Y-57320802D01*
X56670926Y-57332341D01*
X56754202Y-57341906D01*
X56836301Y-57349131D01*
X56856143Y-57350513D01*
X56895713Y-57354120D01*
X56925103Y-57359336D01*
X56947428Y-57366767D01*
X56952756Y-57369286D01*
X56984062Y-57391974D01*
X57005150Y-57422084D01*
X57015092Y-57457470D01*
X57012958Y-57495988D01*
X57011031Y-57503769D01*
X56995185Y-57537965D01*
X56968550Y-57564907D01*
X56939457Y-57581505D01*
X56927249Y-57586463D01*
X56915175Y-57589639D01*
X56900526Y-57591155D01*
X56880594Y-57591137D01*
X56852670Y-57589707D01*
X56816124Y-57587143D01*
X56709794Y-57577638D01*
X56605513Y-57565102D01*
X56505096Y-57549880D01*
X56410355Y-57532314D01*
X56323103Y-57512747D01*
X56245155Y-57491522D01*
X56178323Y-57468982D01*
X56166112Y-57464211D01*
X56109340Y-57441416D01*
X54975214Y-57931554D01*
X54858144Y-57982145D01*
X54744266Y-58031350D01*
X54634190Y-58078906D01*
X54528528Y-58124547D01*
X54427892Y-58168012D01*
X54332893Y-58209035D01*
X54244143Y-58247352D01*
X54162253Y-58282701D01*
X54087835Y-58314816D01*
X54021499Y-58343434D01*
X53963858Y-58368291D01*
X53915522Y-58389124D01*
X53877104Y-58405667D01*
X53849215Y-58417658D01*
X53832465Y-58424832D01*
X53827502Y-58426925D01*
X53824128Y-58427396D01*
X53820357Y-58425597D01*
X53815721Y-58420559D01*
X53809751Y-58411310D01*
X53801981Y-58396882D01*
X53791940Y-58376305D01*
X53779162Y-58348608D01*
X53763178Y-58312822D01*
X53743521Y-58267977D01*
X53719721Y-58213103D01*
X53691311Y-58147231D01*
X53681538Y-58124527D01*
X53655651Y-58064384D01*
X53631399Y-58008075D01*
X53609285Y-57956763D01*
X53589812Y-57911612D01*
X53573481Y-57873786D01*
X53560794Y-57844448D01*
X53552255Y-57824764D01*
X53548365Y-57815895D01*
X53548181Y-57815508D01*
X53541751Y-57816203D01*
X53525995Y-57819403D01*
X53507478Y-57823668D01*
X53479770Y-57828959D01*
X53444224Y-57833740D01*
X53403679Y-57837840D01*
X53360979Y-57841089D01*
X53318962Y-57843316D01*
X53280470Y-57844352D01*
X53248343Y-57844026D01*
X53225423Y-57842169D01*
X53219334Y-57840922D01*
X53185751Y-57825705D01*
X53157930Y-57801847D01*
X53137770Y-57772076D01*
X53127173Y-57739122D01*
X53127408Y-57708850D01*
X53139940Y-57670431D01*
X53162039Y-57641142D01*
X53193817Y-57620906D01*
X53235382Y-57609645D01*
X53273018Y-57607042D01*
X53371703Y-57601869D01*
X53384371Y-57599743D01*
X53929855Y-57599743D01*
X53970613Y-57891653D01*
X53980987Y-57965911D01*
X53989697Y-58028044D01*
X53996921Y-58079132D01*
X54002834Y-58120257D01*
X54007615Y-58152498D01*
X54011439Y-58176937D01*
X54014483Y-58194653D01*
X54016924Y-58206729D01*
X54018939Y-58214243D01*
X54020704Y-58218278D01*
X54022397Y-58219912D01*
X54024194Y-58220228D01*
X54024364Y-58220229D01*
X54032077Y-58217706D01*
X54049820Y-58210733D01*
X54075404Y-58200204D01*
X54106644Y-58187014D01*
X54128834Y-58177487D01*
X54176667Y-58156772D01*
X54213609Y-58140532D01*
X54241016Y-58127974D01*
X54260245Y-58118307D01*
X54272653Y-58110738D01*
X54279598Y-58104473D01*
X54282435Y-58098722D01*
X54282522Y-58092690D01*
X54281736Y-58088190D01*
X54278921Y-58072063D01*
X54274919Y-58046396D01*
X54270014Y-58013285D01*
X54264494Y-57974828D01*
X54258643Y-57933121D01*
X54252749Y-57890260D01*
X54247096Y-57848343D01*
X54241972Y-57809467D01*
X54237662Y-57775727D01*
X54234452Y-57749221D01*
X54232629Y-57732046D01*
X54232379Y-57726359D01*
X54236612Y-57729952D01*
X54247570Y-57743139D01*
X54264272Y-57764632D01*
X54285740Y-57793142D01*
X54310993Y-57827382D01*
X54339052Y-57866061D01*
X54346526Y-57876463D01*
X54458610Y-58032757D01*
X54513183Y-58009413D01*
X54544601Y-57996021D01*
X54577603Y-57982032D01*
X54605783Y-57970157D01*
X54609422Y-57968633D01*
X54632746Y-57957934D01*
X54645711Y-57949132D01*
X54650747Y-57940364D01*
X54651089Y-57936720D01*
X54650164Y-57926519D01*
X54647553Y-57904970D01*
X54643503Y-57873914D01*
X54638260Y-57835196D01*
X54632069Y-57790659D01*
X54625176Y-57742146D01*
X54624409Y-57736805D01*
X54617582Y-57688744D01*
X54611560Y-57645154D01*
X54606562Y-57607727D01*
X54602809Y-57578157D01*
X54600520Y-57558134D01*
X54599916Y-57549354D01*
X54599986Y-57549109D01*
X54604615Y-57553482D01*
X54616639Y-57566943D01*
X54635010Y-57588260D01*
X54658681Y-57616202D01*
X54686604Y-57649538D01*
X54717732Y-57687035D01*
X54730927Y-57703023D01*
X54767781Y-57747612D01*
X54797227Y-57782834D01*
X54820226Y-57809702D01*
X54837736Y-57829229D01*
X54850717Y-57842429D01*
X54860131Y-57850314D01*
X54866936Y-57853899D01*
X54872093Y-57854196D01*
X54873682Y-57853712D01*
X54884261Y-57849320D01*
X54904741Y-57840589D01*
X54932807Y-57828515D01*
X54966142Y-57814095D01*
X54994422Y-57801810D01*
X55028577Y-57786959D01*
X55072265Y-57767980D01*
X55122786Y-57746047D01*
X55177438Y-57722331D01*
X55233520Y-57698006D01*
X55288331Y-57674243D01*
X55297755Y-57670159D01*
X55347426Y-57648420D01*
X55394649Y-57627352D01*
X55437622Y-57607789D01*
X55474544Y-57590566D01*
X55503613Y-57576516D01*
X55523029Y-57566473D01*
X55528153Y-57563473D01*
X55570925Y-57528663D01*
X55603809Y-57485588D01*
X55626004Y-57435740D01*
X55636710Y-57380612D01*
X55637597Y-57359606D01*
X55636451Y-57329618D01*
X55632256Y-57300919D01*
X55624173Y-57270648D01*
X55611363Y-57235942D01*
X55592989Y-57193938D01*
X55582444Y-57171394D01*
X55550697Y-57116259D01*
X55513104Y-57072914D01*
X55469054Y-57040886D01*
X55417933Y-57019701D01*
X55374407Y-57010621D01*
X55353559Y-57008949D01*
X55332103Y-57010049D01*
X55308067Y-57014469D01*
X55279485Y-57022759D01*
X55244385Y-57035468D01*
X55200800Y-57053145D01*
X55161089Y-57070109D01*
X55115727Y-57089670D01*
X55080813Y-57104351D01*
X55054595Y-57114645D01*
X55035319Y-57121050D01*
X55021231Y-57124058D01*
X55010580Y-57124167D01*
X55001611Y-57121870D01*
X54992614Y-57117685D01*
X54973570Y-57101177D01*
X54964258Y-57078779D01*
X54965474Y-57054494D01*
X54976089Y-57034497D01*
X54983825Y-57028814D01*
X55000552Y-57019679D01*
X55026676Y-57006911D01*
X55062602Y-56990331D01*
X55108739Y-56969756D01*
X55165492Y-56945007D01*
X55233268Y-56915904D01*
X55312473Y-56882265D01*
X55403515Y-56843910D01*
X55436493Y-56830075D01*
X55545232Y-56784500D01*
X55566493Y-56796930D01*
X55579773Y-56804882D01*
X55601697Y-56818218D01*
X55629578Y-56835294D01*
X55660727Y-56854467D01*
X55671954Y-56861400D01*
X55756153Y-56913441D01*
X55746758Y-56958502D01*
X55743245Y-56975231D01*
X55737333Y-57003244D01*
X55729395Y-57040782D01*
X55719803Y-57086086D01*
X55708929Y-57137398D01*
X55697146Y-57192958D01*
X55684826Y-57251009D01*
X55683829Y-57255705D01*
X55671973Y-57312000D01*
X55661134Y-57364349D01*
X55651600Y-57411288D01*
X55643663Y-57451349D01*
X55637611Y-57483067D01*
X55633733Y-57504977D01*
X55632319Y-57515613D01*
X55632358Y-57516259D01*
X55639040Y-57516754D01*
X55657443Y-57511375D01*
X55687619Y-57500103D01*
X55729623Y-57482916D01*
X55779340Y-57461612D01*
X55825063Y-57441670D01*
X55860071Y-57426157D01*
X55885884Y-57414198D01*
X55904021Y-57404920D01*
X55916001Y-57397448D01*
X55923343Y-57390908D01*
X55927568Y-57384428D01*
X55930193Y-57377132D01*
X55930969Y-57374391D01*
X55935567Y-57354857D01*
X55935455Y-57340358D01*
X55929089Y-57327506D01*
X55914929Y-57312913D01*
X55895534Y-57296544D01*
X55853793Y-57256492D01*
X55816896Y-57209798D01*
X55787599Y-57160362D01*
X55771223Y-57120648D01*
X55763184Y-57092880D01*
X55759183Y-57069403D01*
X55758557Y-57044043D01*
X55760113Y-57017293D01*
X55772465Y-56938024D01*
X55796710Y-56864570D01*
X55832549Y-56797348D01*
X55879683Y-56736774D01*
X55937815Y-56683264D01*
X56006645Y-56637235D01*
X56048148Y-56615641D01*
X56070950Y-56604407D01*
X56088223Y-56595126D01*
X56097133Y-56589349D01*
X56097755Y-56588486D01*
X56099087Y-56581262D01*
X56102840Y-56562743D01*
X56108650Y-56534674D01*
X56116156Y-56498798D01*
X56124993Y-56456859D01*
X56134422Y-56412374D01*
X56144231Y-56365880D01*
X56153050Y-56323425D01*
X56160512Y-56286829D01*
X56166250Y-56257914D01*
X56169896Y-56238499D01*
X56171089Y-56230533D01*
X56165783Y-56229488D01*
X56149675Y-56233869D01*
X56122481Y-56243782D01*
X56083913Y-56259332D01*
X56033688Y-56280623D01*
X56026937Y-56283538D01*
X55986025Y-56301368D01*
X55949216Y-56317679D01*
X55918280Y-56331663D01*
X55894985Y-56342517D01*
X55881099Y-56349434D01*
X55878000Y-56351381D01*
X55875265Y-56359300D01*
X55870361Y-56378270D01*
X55863757Y-56406275D01*
X55855927Y-56441297D01*
X55847341Y-56481320D01*
X55844779Y-56493563D01*
X55836218Y-56534377D01*
X55828504Y-56570530D01*
X55822064Y-56600071D01*
X55817324Y-56621049D01*
X55814713Y-56631516D01*
X55814404Y-56632318D01*
X55808424Y-56629610D01*
X55792804Y-56620851D01*
X55769227Y-56607035D01*
X55739379Y-56589152D01*
X55704941Y-56568192D01*
X55692664Y-56560652D01*
X55656499Y-56538661D01*
X55623778Y-56519283D01*
X55596327Y-56503556D01*
X55575971Y-56492521D01*
X55564535Y-56487215D01*
X55563108Y-56486896D01*
X55554461Y-56489463D01*
X55535434Y-56496668D01*
X55507847Y-56507772D01*
X55473522Y-56522032D01*
X55434278Y-56538707D01*
X55407221Y-56550391D01*
X55362347Y-56569870D01*
X55308402Y-56593254D01*
X55248559Y-56619170D01*
X55185992Y-56646244D01*
X55123874Y-56673102D01*
X55065378Y-56698372D01*
X55057755Y-56701664D01*
X55007279Y-56723654D01*
X54959272Y-56744945D01*
X54915497Y-56764727D01*
X54877716Y-56782190D01*
X54847693Y-56796523D01*
X54827191Y-56806916D01*
X54820502Y-56810727D01*
X54776755Y-56845753D01*
X54741914Y-56889253D01*
X54716825Y-56939080D01*
X54702337Y-56993087D01*
X54699297Y-57049124D01*
X54706846Y-57098725D01*
X54719115Y-57137572D01*
X54736332Y-57179928D01*
X54756721Y-57222291D01*
X54778506Y-57261157D01*
X54799911Y-57293023D01*
X54813427Y-57308991D01*
X54857902Y-57345568D01*
X54908580Y-57370427D01*
X54965727Y-57383684D01*
X54992322Y-57385844D01*
X55050223Y-57388190D01*
X55168989Y-57337930D01*
X55206451Y-57322229D01*
X55240112Y-57308409D01*
X55267894Y-57297299D01*
X55287718Y-57289730D01*
X55297507Y-57286531D01*
X55297755Y-57286493D01*
X55322633Y-57288798D01*
X55342107Y-57300144D01*
X55354643Y-57317620D01*
X55358704Y-57338312D01*
X55352752Y-57359310D01*
X55342755Y-57371773D01*
X55331751Y-57378881D01*
X55310758Y-57389802D01*
X55282162Y-57403392D01*
X55248351Y-57418504D01*
X55221089Y-57430116D01*
X55178216Y-57448017D01*
X55132222Y-57467265D01*
X55087618Y-57485968D01*
X55048915Y-57502237D01*
X55035471Y-57507904D01*
X55005790Y-57520215D01*
X54980921Y-57530128D01*
X54963217Y-57536734D01*
X54955029Y-57539126D01*
X54954758Y-57539056D01*
X54950188Y-57533538D01*
X54938292Y-57519191D01*
X54920257Y-57497446D01*
X54897271Y-57469734D01*
X54870520Y-57437489D01*
X54850375Y-57413208D01*
X54818374Y-57374243D01*
X54780557Y-57327554D01*
X54739214Y-57276008D01*
X54696633Y-57222468D01*
X54655103Y-57169801D01*
X54617755Y-57121958D01*
X54585821Y-57081045D01*
X54556317Y-57043718D01*
X54530270Y-57011242D01*
X54508707Y-56984877D01*
X54492656Y-56965885D01*
X54483143Y-56955530D01*
X54481089Y-56953974D01*
X54471461Y-56956318D01*
X54452671Y-56963198D01*
X54427044Y-56973571D01*
X54396904Y-56986395D01*
X54364575Y-57000629D01*
X54332381Y-57015228D01*
X54302647Y-57029151D01*
X54277697Y-57041357D01*
X54259855Y-57050801D01*
X54251445Y-57056443D01*
X54251089Y-57057120D01*
X54252006Y-57065843D01*
X54254572Y-57085704D01*
X54258505Y-57114649D01*
X54263525Y-57150624D01*
X54269350Y-57191575D01*
X54271493Y-57206460D01*
X54277425Y-57248431D01*
X54282485Y-57285939D01*
X54286423Y-57316983D01*
X54288988Y-57339559D01*
X54289930Y-57351664D01*
X54289826Y-57353069D01*
X54285570Y-57349424D01*
X54274779Y-57336313D01*
X54258562Y-57315197D01*
X54238029Y-57287534D01*
X54214288Y-57254783D01*
X54201089Y-57236291D01*
X54175743Y-57201048D01*
X54152637Y-57169763D01*
X54132969Y-57143992D01*
X54117940Y-57125292D01*
X54108749Y-57115220D01*
X54106748Y-57113906D01*
X54094545Y-57116315D01*
X54076074Y-57123108D01*
X54054840Y-57132575D01*
X54034348Y-57143007D01*
X54018105Y-57152693D01*
X54009615Y-57159924D01*
X54009119Y-57161528D01*
X54011977Y-57172110D01*
X54018022Y-57190798D01*
X54024508Y-57209478D01*
X54039843Y-57271548D01*
X54043387Y-57336488D01*
X54035582Y-57401868D01*
X54016871Y-57465255D01*
X53987697Y-57524218D01*
X53960185Y-57562902D01*
X53929855Y-57599743D01*
X53384371Y-57599743D01*
X53462438Y-57586642D01*
X53546506Y-57560924D01*
X53625191Y-57524280D01*
X53699776Y-57476276D01*
X53731713Y-57451369D01*
X53765217Y-57420645D01*
X53787477Y-57391851D01*
X53799810Y-57362449D01*
X53803535Y-57329905D01*
X53802834Y-57314503D01*
X53800302Y-57293324D01*
X53795247Y-57278554D01*
X53785004Y-57265256D01*
X53767463Y-57248983D01*
X53740523Y-57227733D01*
X53710978Y-57209684D01*
X53677493Y-57194536D01*
X53638735Y-57181990D01*
X53593371Y-57171746D01*
X53540067Y-57163505D01*
X53477489Y-57156966D01*
X53404305Y-57151831D01*
X53319179Y-57147799D01*
X53316760Y-57147705D01*
X53272918Y-57145927D01*
X53240217Y-57144260D01*
X53216469Y-57142380D01*
X53199489Y-57139963D01*
X53187090Y-57136685D01*
X53177086Y-57132221D01*
X53167290Y-57126248D01*
X53165901Y-57125333D01*
X53141465Y-57102639D01*
X53122725Y-57072752D01*
X53112405Y-57040600D01*
X53111235Y-57026458D01*
X53115391Y-57000721D01*
X53125841Y-56972738D01*
X53139993Y-56948567D01*
X53148724Y-56938817D01*
X53166339Y-56926655D01*
X53189203Y-56917439D01*
X53218498Y-56911089D01*
X53255407Y-56907526D01*
X53301111Y-56906669D01*
X53356793Y-56908439D01*
X53423635Y-56912756D01*
X53473753Y-56916901D01*
X53552387Y-56924810D01*
X53619680Y-56933911D01*
X53677610Y-56944751D01*
X53728155Y-56957877D01*
X53773293Y-56973835D01*
X53814999Y-56993173D01*
X53855253Y-57016436D01*
X53871089Y-57026761D01*
X53907755Y-57051365D01*
X55107340Y-56532844D01*
X55227600Y-56480882D01*
X55344593Y-56430373D01*
X55457730Y-56381569D01*
X55566425Y-56334722D01*
X55670088Y-56290083D01*
X55768134Y-56247906D01*
X55859974Y-56208441D01*
X55945021Y-56171940D01*
X56022688Y-56138656D01*
X56092387Y-56108840D01*
X56153530Y-56082745D01*
X56205531Y-56060621D01*
X56247801Y-56042722D01*
X56279753Y-56029299D01*
X56300799Y-56020603D01*
X56310353Y-56016888D01*
X56310884Y-56016769D01*
X56314288Y-56023223D01*
G37*
G36*
X56937355Y-53436196D02*
G01*
X56981089Y-53439900D01*
X57078259Y-53456444D01*
X57168155Y-53482432D01*
X57250046Y-53517484D01*
X57323205Y-53561219D01*
X57386902Y-53613258D01*
X57440408Y-53673219D01*
X57448062Y-53683644D01*
X57489430Y-53751761D01*
X57517895Y-53821438D01*
X57533709Y-53892058D01*
X57537123Y-53963000D01*
X57528387Y-54033648D01*
X57507754Y-54103382D01*
X57475475Y-54171585D01*
X57431801Y-54237636D01*
X57376984Y-54300919D01*
X57311274Y-54360814D01*
X57234922Y-54416703D01*
X57148182Y-54467967D01*
X57124414Y-54480233D01*
X57096948Y-54493385D01*
X57060117Y-54510103D01*
X57016961Y-54529058D01*
X56970518Y-54548921D01*
X56923826Y-54568362D01*
X56910932Y-54573626D01*
X56832144Y-54606279D01*
X56763946Y-54636262D01*
X56704224Y-54664953D01*
X56650864Y-54693729D01*
X56601751Y-54723967D01*
X56554772Y-54757043D01*
X56507812Y-54794334D01*
X56458757Y-54837218D01*
X56405492Y-54887072D01*
X56356743Y-54934560D01*
X56309115Y-54981532D01*
X56398435Y-55027954D01*
X56470598Y-55067318D01*
X56537553Y-55108039D01*
X56600578Y-55151299D01*
X56660953Y-55198280D01*
X56719956Y-55250165D01*
X56778866Y-55308137D01*
X56838962Y-55373376D01*
X56901522Y-55447067D01*
X56967824Y-55530392D01*
X57029309Y-55611321D01*
X57153473Y-55784668D01*
X57265361Y-55955927D01*
X57365607Y-56126344D01*
X57454845Y-56297165D01*
X57533709Y-56469636D01*
X57602833Y-56645000D01*
X57662852Y-56824504D01*
X57684706Y-56898642D01*
X57706740Y-56981043D01*
X57727631Y-57068367D01*
X57747010Y-57158447D01*
X57764511Y-57249121D01*
X57779766Y-57338221D01*
X57792407Y-57423583D01*
X57802067Y-57503043D01*
X57808378Y-57574435D01*
X57810972Y-57635594D01*
X57811017Y-57642625D01*
X57811089Y-57688355D01*
X57836089Y-57684175D01*
X57879686Y-57678756D01*
X57928219Y-57675787D01*
X57977446Y-57675287D01*
X58023128Y-57677270D01*
X58061025Y-57681754D01*
X58068831Y-57683277D01*
X58138955Y-57704393D01*
X58205678Y-57735938D01*
X58266993Y-57776433D01*
X58320893Y-57824401D01*
X58365369Y-57878361D01*
X58390500Y-57920229D01*
X58408722Y-57958236D01*
X58421220Y-57991329D01*
X58428974Y-58023856D01*
X58432966Y-58060161D01*
X58434179Y-58104591D01*
X58434178Y-58113563D01*
X58432820Y-58164455D01*
X58428381Y-58207474D01*
X58419827Y-58246959D01*
X58406126Y-58287252D01*
X58386242Y-58332694D01*
X58377821Y-58350229D01*
X58342363Y-58413990D01*
X58301954Y-58468473D01*
X58253471Y-58517607D01*
X58227363Y-58539685D01*
X58161377Y-58586508D01*
X58094718Y-58620770D01*
X58025422Y-58643179D01*
X57951523Y-58654445D01*
X57904422Y-58656150D01*
X57868171Y-58655649D01*
X57840365Y-58653830D01*
X57816128Y-58649954D01*
X57790582Y-58643283D01*
X57764422Y-58634937D01*
X57729415Y-58622256D01*
X57691911Y-58607010D01*
X57658525Y-58591929D01*
X57649998Y-58587691D01*
X57598908Y-58561495D01*
X57567431Y-58612529D01*
X57505736Y-58701862D01*
X57431218Y-58790800D01*
X57344391Y-58878827D01*
X57245764Y-58965426D01*
X57135851Y-59050081D01*
X57130427Y-59053995D01*
X57084780Y-59086057D01*
X57040614Y-59115225D01*
X56996727Y-59141977D01*
X56951918Y-59166791D01*
X56904984Y-59190145D01*
X56854725Y-59212516D01*
X56799939Y-59234383D01*
X56739423Y-59256224D01*
X56671976Y-59278517D01*
X56596398Y-59301738D01*
X56511485Y-59326367D01*
X56416036Y-59352882D01*
X56308850Y-59381760D01*
X56301176Y-59383802D01*
X56229736Y-59402681D01*
X56169252Y-59418353D01*
X56117852Y-59431250D01*
X56073664Y-59441800D01*
X56034817Y-59450434D01*
X55999439Y-59457583D01*
X55965658Y-59463677D01*
X55931602Y-59469146D01*
X55926727Y-59469883D01*
X55877383Y-59476462D01*
X55817159Y-59483115D01*
X55748506Y-59489628D01*
X55673875Y-59495786D01*
X55595715Y-59501376D01*
X55516478Y-59506185D01*
X55501089Y-59507014D01*
X55467457Y-59508511D01*
X55424902Y-59509970D01*
X55375042Y-59511368D01*
X55319495Y-59512685D01*
X55259882Y-59513901D01*
X55197819Y-59514993D01*
X55134927Y-59515942D01*
X55072823Y-59516726D01*
X55013126Y-59517324D01*
X54957456Y-59517716D01*
X54907430Y-59517880D01*
X54864667Y-59517796D01*
X54830786Y-59517442D01*
X54807406Y-59516798D01*
X54797755Y-59516114D01*
X54667324Y-59498744D01*
X54543372Y-59480916D01*
X54427047Y-59462826D01*
X54319498Y-59444665D01*
X54221876Y-59426628D01*
X54135328Y-59408909D01*
X54064422Y-59392549D01*
X54015127Y-59379522D01*
X53956700Y-59362703D01*
X53892428Y-59343141D01*
X53825601Y-59321886D01*
X53759509Y-59299988D01*
X53697440Y-59278499D01*
X53642685Y-59258467D01*
X53633555Y-59254980D01*
X53541133Y-59217292D01*
X53455829Y-59177762D01*
X53375855Y-59135150D01*
X53299422Y-59088216D01*
X53224738Y-59035722D01*
X53150016Y-58976429D01*
X53073466Y-58909096D01*
X52993298Y-58832485D01*
X52927755Y-58766162D01*
X52841909Y-58673566D01*
X52768173Y-58585642D01*
X52706617Y-58502482D01*
X52657310Y-58424179D01*
X52634100Y-58380511D01*
X52610710Y-58326827D01*
X52587743Y-58262325D01*
X52565911Y-58189518D01*
X52545929Y-58110920D01*
X52528508Y-58029043D01*
X52518618Y-57973563D01*
X52509550Y-57916432D01*
X52502410Y-57866344D01*
X52496981Y-57820339D01*
X52493043Y-57775457D01*
X52490377Y-57728738D01*
X52488766Y-57677222D01*
X52487989Y-57617949D01*
X52487822Y-57556896D01*
X52487915Y-57517541D01*
X52720173Y-57517541D01*
X52720477Y-57597224D01*
X52724649Y-57682068D01*
X52732365Y-57769973D01*
X52743302Y-57858837D01*
X52757136Y-57946559D01*
X52773544Y-58031038D01*
X52792202Y-58110173D01*
X52812788Y-58181862D01*
X52834977Y-58244004D01*
X52853269Y-58284652D01*
X52879987Y-58331025D01*
X52915957Y-58383806D01*
X52959776Y-58441386D01*
X53010041Y-58502160D01*
X53065346Y-58564520D01*
X53124290Y-58626859D01*
X53185468Y-58687571D01*
X53247476Y-58745049D01*
X53281089Y-58774413D01*
X53345676Y-58827529D01*
X53406744Y-58873050D01*
X53467344Y-58912773D01*
X53530528Y-58948496D01*
X53599347Y-58982015D01*
X53676854Y-59015129D01*
X53716391Y-59030768D01*
X53765965Y-59049218D01*
X53823466Y-59069361D01*
X53885582Y-59090137D01*
X53948999Y-59110486D01*
X54010407Y-59129351D01*
X54066493Y-59145669D01*
X54113946Y-59158384D01*
X54119986Y-59159883D01*
X54178506Y-59173292D01*
X54248178Y-59187673D01*
X54326887Y-59202662D01*
X54412518Y-59217898D01*
X54502958Y-59233017D01*
X54596090Y-59247658D01*
X54689802Y-59261457D01*
X54781977Y-59274052D01*
X54797755Y-59276101D01*
X54812190Y-59276978D01*
X54838346Y-59277556D01*
X54874617Y-59277853D01*
X54919395Y-59277891D01*
X54971073Y-59277690D01*
X55028043Y-59277271D01*
X55088699Y-59276655D01*
X55151431Y-59275861D01*
X55214634Y-59274912D01*
X55276700Y-59273827D01*
X55336020Y-59272627D01*
X55390989Y-59271332D01*
X55439998Y-59269964D01*
X55481439Y-59268543D01*
X55513707Y-59267089D01*
X55517755Y-59266864D01*
X55597987Y-59261789D01*
X55675541Y-59255998D01*
X55748299Y-59249689D01*
X55814143Y-59243061D01*
X55870954Y-59236311D01*
X55916614Y-59229639D01*
X55917755Y-59229447D01*
X55960233Y-59221389D01*
X56014319Y-59209611D01*
X56078898Y-59194389D01*
X56152858Y-59175996D01*
X56235083Y-59154706D01*
X56324461Y-59130793D01*
X56374422Y-59117130D01*
X56472153Y-59089609D01*
X56558402Y-59063846D01*
X56634783Y-59039097D01*
X56702908Y-59014614D01*
X56764392Y-58989653D01*
X56820849Y-58963466D01*
X56873892Y-58935309D01*
X56925134Y-58904435D01*
X56976190Y-58870099D01*
X57028673Y-58831554D01*
X57081299Y-58790378D01*
X57163233Y-58721086D01*
X57233955Y-58652874D01*
X57295168Y-58583507D01*
X57348575Y-58510750D01*
X57395879Y-58432368D01*
X57438784Y-58346125D01*
X57444612Y-58332596D01*
X57708895Y-58332596D01*
X57710308Y-58342020D01*
X57717618Y-58350842D01*
X57733162Y-58361184D01*
X57751089Y-58370934D01*
X57806818Y-58396827D01*
X57856557Y-58412641D01*
X57902545Y-58418784D01*
X57947025Y-58415665D01*
X57969515Y-58410729D01*
X58023313Y-58389766D01*
X58072470Y-58357776D01*
X58115527Y-58316683D01*
X58151023Y-58268409D01*
X58177497Y-58214876D01*
X58193489Y-58158007D01*
X58197755Y-58110328D01*
X58191394Y-58063407D01*
X58172666Y-58020595D01*
X58142110Y-57982637D01*
X58100260Y-57950277D01*
X58071089Y-57934398D01*
X58053064Y-57926466D01*
X58036449Y-57921349D01*
X58017475Y-57918449D01*
X57992370Y-57917165D01*
X57961089Y-57916896D01*
X57927556Y-57917192D01*
X57903567Y-57918507D01*
X57885337Y-57921478D01*
X57869081Y-57926743D01*
X57851014Y-57934940D01*
X57849426Y-57935717D01*
X57823820Y-57950441D01*
X57810588Y-57963552D01*
X57808474Y-57969051D01*
X57797769Y-58025156D01*
X57787098Y-58073337D01*
X57775087Y-58118927D01*
X57760360Y-58167262D01*
X57747020Y-58207599D01*
X57734751Y-58244550D01*
X57724066Y-58278049D01*
X57715706Y-58305665D01*
X57710413Y-58324968D01*
X57708895Y-58332596D01*
X57444612Y-58332596D01*
X57463534Y-58288674D01*
X57482031Y-58241644D01*
X57500930Y-58190255D01*
X57519253Y-58137461D01*
X57536021Y-58086216D01*
X57550259Y-58039474D01*
X57560989Y-58000190D01*
X57565583Y-57980229D01*
X57569072Y-57954590D01*
X57571648Y-57917960D01*
X57573329Y-57872651D01*
X57574136Y-57820973D01*
X57574086Y-57765236D01*
X57573199Y-57707751D01*
X57571493Y-57650828D01*
X57568988Y-57596778D01*
X57565703Y-57547912D01*
X57561699Y-57506896D01*
X57532353Y-57305935D01*
X57492879Y-57111007D01*
X57442911Y-56921235D01*
X57382084Y-56735740D01*
X57310035Y-56553644D01*
X57226398Y-56374069D01*
X57130808Y-56196136D01*
X57022903Y-56018967D01*
X56902316Y-55841684D01*
X56828992Y-55741870D01*
X56763473Y-55656700D01*
X56703012Y-55582060D01*
X56646337Y-55516744D01*
X56592178Y-55459548D01*
X56539261Y-55409268D01*
X56486315Y-55364698D01*
X56432067Y-55324634D01*
X56375246Y-55287871D01*
X56314580Y-55253204D01*
X56311089Y-55251324D01*
X56255371Y-55223174D01*
X56200658Y-55199487D01*
X56143965Y-55179289D01*
X56082306Y-55161603D01*
X56012697Y-55145454D01*
X55949021Y-55132937D01*
X55909591Y-55119936D01*
X55878652Y-55098170D01*
X55857183Y-55069480D01*
X55846160Y-55035707D01*
X55846561Y-54998693D01*
X55858395Y-54962240D01*
X55878830Y-54933499D01*
X55902264Y-54915854D01*
X55916413Y-54908005D01*
X55928743Y-54903164D01*
X55942753Y-54900869D01*
X55961937Y-54900659D01*
X55989794Y-54902073D01*
X56001186Y-54902797D01*
X56070212Y-54907260D01*
X56110342Y-54854543D01*
X56130520Y-54830276D01*
X56158823Y-54799352D01*
X56193219Y-54763750D01*
X56231673Y-54725450D01*
X56272152Y-54686429D01*
X56312624Y-54648666D01*
X56351053Y-54614140D01*
X56385409Y-54584830D01*
X56397755Y-54574851D01*
X56439441Y-54543537D01*
X56483622Y-54513926D01*
X56531961Y-54485140D01*
X56586121Y-54456306D01*
X56647763Y-54426546D01*
X56718550Y-54394985D01*
X56800144Y-54360747D01*
X56817912Y-54353499D01*
X56891007Y-54323340D01*
X56953021Y-54296597D01*
X57005498Y-54272398D01*
X57049981Y-54249873D01*
X57088016Y-54228151D01*
X57121145Y-54206362D01*
X57150914Y-54183634D01*
X57178866Y-54159098D01*
X57201089Y-54137449D01*
X57225627Y-54110371D01*
X57249015Y-54080689D01*
X57267376Y-54053417D01*
X57271089Y-54046896D01*
X57282783Y-54023993D01*
X57289756Y-54005543D01*
X57293209Y-53986392D01*
X57294346Y-53961388D01*
X57294422Y-53946896D01*
X57293882Y-53917182D01*
X57291578Y-53895978D01*
X57286485Y-53878482D01*
X57277579Y-53859892D01*
X57274741Y-53854699D01*
X57252190Y-53822192D01*
X57221234Y-53788657D01*
X57185877Y-53757939D01*
X57150124Y-53733885D01*
X57147261Y-53732307D01*
X57109992Y-53715589D01*
X57064116Y-53700255D01*
X57014360Y-53687599D01*
X56965451Y-53678915D01*
X56943266Y-53676503D01*
X56894134Y-53676331D01*
X56836629Y-53682469D01*
X56773712Y-53694205D01*
X56708340Y-53710821D01*
X56643474Y-53731605D01*
X56582072Y-53755840D01*
X56547249Y-53772180D01*
X56495878Y-53800389D01*
X56438020Y-53836170D01*
X56376490Y-53877541D01*
X56314101Y-53922518D01*
X56253667Y-53969121D01*
X56198003Y-54015366D01*
X56181712Y-54029716D01*
X56130399Y-54078599D01*
X56076303Y-54135436D01*
X56021205Y-54197969D01*
X55966888Y-54263940D01*
X55915131Y-54331091D01*
X55867717Y-54397163D01*
X55826426Y-54459898D01*
X55793040Y-54517038D01*
X55784644Y-54533122D01*
X55770952Y-54563259D01*
X55757097Y-54599094D01*
X55743592Y-54638630D01*
X55730949Y-54679874D01*
X55719681Y-54720830D01*
X55710301Y-54759503D01*
X55703320Y-54793899D01*
X55699253Y-54822022D01*
X55698611Y-54841878D01*
X55701908Y-54851471D01*
X55702730Y-54851887D01*
X55722356Y-54862227D01*
X55744341Y-54879256D01*
X55763464Y-54898700D01*
X55769263Y-54906374D01*
X55780063Y-54928542D01*
X55784233Y-54955595D01*
X55784422Y-54964879D01*
X55780756Y-55000602D01*
X55768513Y-55029237D01*
X55746684Y-55054425D01*
X55731204Y-55067144D01*
X55715071Y-55076017D01*
X55695986Y-55081347D01*
X55671647Y-55083437D01*
X55639755Y-55082589D01*
X55598008Y-55079107D01*
X55576297Y-55076858D01*
X55540757Y-55073671D01*
X55495100Y-55070537D01*
X55442538Y-55067620D01*
X55386288Y-55065086D01*
X55329562Y-55063101D01*
X55290455Y-55062110D01*
X55190190Y-55060986D01*
X55100315Y-55062184D01*
X55018051Y-55065937D01*
X54940619Y-55072482D01*
X54865239Y-55082053D01*
X54789133Y-55094885D01*
X54709521Y-55111215D01*
X54708969Y-55111337D01*
X54673895Y-55118777D01*
X54648758Y-55123156D01*
X54630588Y-55124748D01*
X54616411Y-55123826D01*
X54604269Y-55120971D01*
X54567639Y-55103743D01*
X54540402Y-55077465D01*
X54523470Y-55043378D01*
X54517755Y-55003446D01*
X54522152Y-54969396D01*
X54536487Y-54940531D01*
X54559925Y-54915478D01*
X54576472Y-54896628D01*
X54589120Y-54874788D01*
X54591127Y-54869488D01*
X54607156Y-54828790D01*
X54630422Y-54782028D01*
X54658939Y-54732768D01*
X54690720Y-54684576D01*
X54705272Y-54664566D01*
X54767005Y-54590061D01*
X54841736Y-54513498D01*
X54929311Y-54435005D01*
X55029577Y-54354710D01*
X55142378Y-54272740D01*
X55267561Y-54189222D01*
X55324422Y-54153322D01*
X55403312Y-54102710D01*
X55470324Y-54056240D01*
X55526076Y-54013402D01*
X55571186Y-53973684D01*
X55606271Y-53936576D01*
X55631948Y-53901567D01*
X55635035Y-53896452D01*
X55645247Y-53878109D01*
X55649177Y-53866051D01*
X55647515Y-53855197D01*
X55642266Y-53843216D01*
X55622184Y-53815583D01*
X55590670Y-53790929D01*
X55549388Y-53769727D01*
X55500004Y-53752452D01*
X55444182Y-53739580D01*
X55383586Y-53731584D01*
X55319880Y-53728940D01*
X55254730Y-53732123D01*
X55253314Y-53732260D01*
X55138765Y-53750053D01*
X55024771Y-53780714D01*
X54912277Y-53823782D01*
X54802228Y-53878799D01*
X54695571Y-53945304D01*
X54593251Y-54022838D01*
X54518125Y-54089661D01*
X54434865Y-54173693D01*
X54363287Y-54256107D01*
X54303714Y-54336473D01*
X54256469Y-54414362D01*
X54226289Y-54478189D01*
X54206324Y-54536748D01*
X54189354Y-54606222D01*
X54175697Y-54684465D01*
X54165670Y-54769332D01*
X54159590Y-54858677D01*
X54157755Y-54941832D01*
X54158073Y-54975064D01*
X54159334Y-54997991D01*
X54161996Y-55013634D01*
X54166518Y-55025014D01*
X54171586Y-55032809D01*
X54185386Y-55061942D01*
X54189243Y-55095588D01*
X54183688Y-55130013D01*
X54169253Y-55161483D01*
X54150135Y-55183342D01*
X54136376Y-55192952D01*
X54113802Y-55206593D01*
X54085574Y-55222429D01*
X54055614Y-55238237D01*
X53941699Y-55303196D01*
X53828774Y-55381045D01*
X53717277Y-55471353D01*
X53607650Y-55573689D01*
X53500331Y-55687620D01*
X53395760Y-55812715D01*
X53294377Y-55948543D01*
X53219130Y-56059603D01*
X53140230Y-56186798D01*
X53065883Y-56318219D01*
X52997262Y-56451459D01*
X52935540Y-56584109D01*
X52881890Y-56713759D01*
X52837484Y-56838003D01*
X52832474Y-56853563D01*
X52818107Y-56903572D01*
X52803155Y-56964286D01*
X52788090Y-57033117D01*
X52773387Y-57107477D01*
X52759521Y-57184780D01*
X52746964Y-57262438D01*
X52736192Y-57337865D01*
X52727679Y-57408472D01*
X52724059Y-57445120D01*
X52720173Y-57517541D01*
X52487915Y-57517541D01*
X52487963Y-57497361D01*
X52488423Y-57448801D01*
X52489326Y-57408859D01*
X52490798Y-57375177D01*
X52492960Y-57345400D01*
X52495939Y-57317169D01*
X52499857Y-57288128D01*
X52503093Y-57266896D01*
X52517571Y-57178824D01*
X52533050Y-57091882D01*
X52548838Y-57009761D01*
X52564247Y-56936150D01*
X52568551Y-56916896D01*
X52598872Y-56802283D01*
X52638908Y-56681055D01*
X52687839Y-56554769D01*
X52744844Y-56424980D01*
X52809103Y-56293246D01*
X52879793Y-56161122D01*
X52956095Y-56030163D01*
X53037187Y-55901927D01*
X53122249Y-55777970D01*
X53210459Y-55659847D01*
X53271894Y-55583563D01*
X53305794Y-55544520D01*
X53346874Y-55499953D01*
X53392851Y-55452118D01*
X53441446Y-55403274D01*
X53490377Y-55355680D01*
X53537362Y-55311592D01*
X53580122Y-55273269D01*
X53614422Y-55244520D01*
X53656581Y-55211905D01*
X53703542Y-55177316D01*
X53752279Y-55142853D01*
X53799764Y-55110614D01*
X53842971Y-55082698D01*
X53878360Y-55061494D01*
X53915632Y-55040465D01*
X53919964Y-54902014D01*
X53924965Y-54792540D01*
X53933102Y-54694382D01*
X53944940Y-54605773D01*
X53961040Y-54524945D01*
X53981966Y-54450132D01*
X54008281Y-54379567D01*
X54040548Y-54311483D01*
X54079331Y-54244112D01*
X54125193Y-54175688D01*
X54171034Y-54114256D01*
X54240193Y-54031838D01*
X54318953Y-53949559D01*
X54403939Y-53870619D01*
X54491774Y-53798214D01*
X54549859Y-53755426D01*
X54652621Y-53689378D01*
X54759353Y-53631925D01*
X54868576Y-53583527D01*
X54978810Y-53544646D01*
X55088578Y-53515745D01*
X55196400Y-53497286D01*
X55300799Y-53489729D01*
X55391089Y-53492674D01*
X55489575Y-53505491D01*
X55577160Y-53525766D01*
X55654067Y-53553606D01*
X55720518Y-53589117D01*
X55776735Y-53632405D01*
X55822943Y-53683579D01*
X55839532Y-53707628D01*
X55863228Y-53749230D01*
X55878145Y-53787253D01*
X55885772Y-53826628D01*
X55887634Y-53866896D01*
X55886915Y-53897520D01*
X55884117Y-53920489D01*
X55878041Y-53941454D01*
X55867489Y-53966063D01*
X55865870Y-53969519D01*
X55838047Y-54021106D01*
X55803833Y-54070105D01*
X55761017Y-54119444D01*
X55726895Y-54153693D01*
X55694664Y-54183527D01*
X55661287Y-54211930D01*
X55624826Y-54240322D01*
X55583339Y-54270127D01*
X55534886Y-54302768D01*
X55477528Y-54339666D01*
X55447755Y-54358375D01*
X55334357Y-54431296D01*
X55233200Y-54500780D01*
X55143763Y-54567253D01*
X55065525Y-54631139D01*
X54997964Y-54692860D01*
X54940559Y-54752843D01*
X54895765Y-54807525D01*
X54884935Y-54822537D01*
X54878514Y-54832601D01*
X54877755Y-54834465D01*
X54883877Y-54835129D01*
X54900254Y-54834385D01*
X54923898Y-54832401D01*
X54936089Y-54831153D01*
X54956885Y-54829623D01*
X54988945Y-54828188D01*
X55030202Y-54826899D01*
X55078586Y-54825803D01*
X55132028Y-54824952D01*
X55188460Y-54824394D01*
X55225747Y-54824212D01*
X55287358Y-54824016D01*
X55336961Y-54823758D01*
X55375885Y-54823359D01*
X55405454Y-54822739D01*
X55426996Y-54821821D01*
X55441837Y-54820524D01*
X55451304Y-54818770D01*
X55456723Y-54816481D01*
X55459420Y-54813576D01*
X55460656Y-54810229D01*
X55463608Y-54792638D01*
X55464391Y-54780229D01*
X55466193Y-54763993D01*
X55470945Y-54737923D01*
X55477950Y-54705010D01*
X55486510Y-54668246D01*
X55495928Y-54630622D01*
X55505507Y-54595129D01*
X55514548Y-54564758D01*
X55514890Y-54563688D01*
X55543147Y-54489604D01*
X55581637Y-54410255D01*
X55629153Y-54327218D01*
X55684486Y-54242072D01*
X55746426Y-54156395D01*
X55813765Y-54071765D01*
X55885293Y-53989760D01*
X55959802Y-53911957D01*
X56036083Y-53839935D01*
X56112926Y-53775271D01*
X56127755Y-53763744D01*
X56213998Y-53699574D01*
X56293663Y-53644685D01*
X56368706Y-53598108D01*
X56441082Y-53558877D01*
X56512744Y-53526026D01*
X56585649Y-53498588D01*
X56661750Y-53475597D01*
X56743001Y-53456085D01*
X56754985Y-53453558D01*
X56821437Y-53441817D01*
X56880707Y-53436121D01*
X56937355Y-53436196D01*
G37*
X81015000Y-78107000D02*
X81330000Y-78107000D01*
X81015000Y-78107000D02*
X81015000Y-72867000D01*
X83440000Y-78107000D02*
X83755000Y-78107000D01*
X83755000Y-78107000D02*
X83755000Y-72867000D01*
X81015000Y-72867000D02*
X81330000Y-72867000D01*
X83440000Y-72867000D02*
X83755000Y-72867000D01*
X138452000Y-82529000D02*
X118012000Y-82529000D01*
X118012000Y-82529000D02*
X118012000Y-87829000D01*
X138452000Y-84179000D02*
X138452000Y-82529000D01*
X138452000Y-87829000D02*
X138452000Y-86179000D01*
X118012000Y-87829000D02*
X138452000Y-87829000D01*
X138452000Y-84179000D02*
G75*
G03*
X138452000Y-86179000I0J-1000000D01*
G01*
X81574000Y-87474225D02*
X81574000Y-87974225D01*
X81824000Y-87724225D02*
X81324000Y-87724225D01*
X82679000Y-90279000D02*
X77519000Y-90279000D01*
X82679000Y-90319000D02*
X77519000Y-90319000D01*
X82678000Y-90359000D02*
X77520000Y-90359000D01*
X82677000Y-90399000D02*
X77521000Y-90399000D01*
X82675000Y-90439000D02*
X77523000Y-90439000D01*
X82672000Y-90479000D02*
X77526000Y-90479000D01*
X82668000Y-90519000D02*
X81139000Y-90519000D01*
X79059000Y-90519000D02*
X77530000Y-90519000D01*
X82664000Y-90559000D02*
X81139000Y-90559000D01*
X79059000Y-90559000D02*
X77534000Y-90559000D01*
X82660000Y-90599000D02*
X81139000Y-90599000D01*
X79059000Y-90599000D02*
X77538000Y-90599000D01*
X82655000Y-90639000D02*
X81139000Y-90639000D01*
X79059000Y-90639000D02*
X77543000Y-90639000D01*
X82649000Y-90679000D02*
X81139000Y-90679000D01*
X79059000Y-90679000D02*
X77549000Y-90679000D01*
X82642000Y-90719000D02*
X81139000Y-90719000D01*
X79059000Y-90719000D02*
X77556000Y-90719000D01*
X82635000Y-90759000D02*
X81139000Y-90759000D01*
X79059000Y-90759000D02*
X77563000Y-90759000D01*
X82627000Y-90799000D02*
X81139000Y-90799000D01*
X79059000Y-90799000D02*
X77571000Y-90799000D01*
X82619000Y-90839000D02*
X81139000Y-90839000D01*
X79059000Y-90839000D02*
X77579000Y-90839000D01*
X82610000Y-90879000D02*
X81139000Y-90879000D01*
X79059000Y-90879000D02*
X77588000Y-90879000D01*
X82600000Y-90919000D02*
X81139000Y-90919000D01*
X79059000Y-90919000D02*
X77598000Y-90919000D01*
X82590000Y-90959000D02*
X81139000Y-90959000D01*
X79059000Y-90959000D02*
X77608000Y-90959000D01*
X82579000Y-91000000D02*
X81139000Y-91000000D01*
X79059000Y-91000000D02*
X77619000Y-91000000D01*
X82567000Y-91040000D02*
X81139000Y-91040000D01*
X79059000Y-91040000D02*
X77631000Y-91040000D01*
X82554000Y-91080000D02*
X81139000Y-91080000D01*
X79059000Y-91080000D02*
X77644000Y-91080000D01*
X82541000Y-91120000D02*
X81139000Y-91120000D01*
X79059000Y-91120000D02*
X77657000Y-91120000D01*
X82527000Y-91160000D02*
X81139000Y-91160000D01*
X79059000Y-91160000D02*
X77671000Y-91160000D01*
X82513000Y-91200000D02*
X81139000Y-91200000D01*
X79059000Y-91200000D02*
X77685000Y-91200000D01*
X82497000Y-91240000D02*
X81139000Y-91240000D01*
X79059000Y-91240000D02*
X77701000Y-91240000D01*
X82481000Y-91280000D02*
X81139000Y-91280000D01*
X79059000Y-91280000D02*
X77717000Y-91280000D01*
X82464000Y-91320000D02*
X81139000Y-91320000D01*
X79059000Y-91320000D02*
X77734000Y-91320000D01*
X82447000Y-91360000D02*
X81139000Y-91360000D01*
X79059000Y-91360000D02*
X77751000Y-91360000D01*
X82428000Y-91400000D02*
X81139000Y-91400000D01*
X79059000Y-91400000D02*
X77770000Y-91400000D01*
X82409000Y-91440000D02*
X81139000Y-91440000D01*
X79059000Y-91440000D02*
X77789000Y-91440000D01*
X82389000Y-91480000D02*
X81139000Y-91480000D01*
X79059000Y-91480000D02*
X77809000Y-91480000D01*
X82367000Y-91520000D02*
X81139000Y-91520000D01*
X79059000Y-91520000D02*
X77831000Y-91520000D01*
X82346000Y-91560000D02*
X81139000Y-91560000D01*
X79059000Y-91560000D02*
X77852000Y-91560000D01*
X82323000Y-91600000D02*
X81139000Y-91600000D01*
X79059000Y-91600000D02*
X77875000Y-91600000D01*
X82299000Y-91640000D02*
X81139000Y-91640000D01*
X79059000Y-91640000D02*
X77899000Y-91640000D01*
X82274000Y-91680000D02*
X81139000Y-91680000D01*
X79059000Y-91680000D02*
X77924000Y-91680000D01*
X82248000Y-91720000D02*
X81139000Y-91720000D01*
X79059000Y-91720000D02*
X77950000Y-91720000D01*
X82221000Y-91760000D02*
X81139000Y-91760000D01*
X79059000Y-91760000D02*
X77977000Y-91760000D01*
X82194000Y-91800000D02*
X81139000Y-91800000D01*
X79059000Y-91800000D02*
X78004000Y-91800000D01*
X82164000Y-91840000D02*
X81139000Y-91840000D01*
X79059000Y-91840000D02*
X78034000Y-91840000D01*
X82134000Y-91880000D02*
X81139000Y-91880000D01*
X79059000Y-91880000D02*
X78064000Y-91880000D01*
X82103000Y-91920000D02*
X81139000Y-91920000D01*
X79059000Y-91920000D02*
X78095000Y-91920000D01*
X82070000Y-91960000D02*
X81139000Y-91960000D01*
X79059000Y-91960000D02*
X78128000Y-91960000D01*
X82036000Y-92000000D02*
X81139000Y-92000000D01*
X79059000Y-92000000D02*
X78162000Y-92000000D01*
X82000000Y-92040000D02*
X81139000Y-92040000D01*
X79059000Y-92040000D02*
X78198000Y-92040000D01*
X81963000Y-92080000D02*
X81139000Y-92080000D01*
X79059000Y-92080000D02*
X78235000Y-92080000D01*
X81925000Y-92120000D02*
X81139000Y-92120000D01*
X79059000Y-92120000D02*
X78273000Y-92120000D01*
X81884000Y-92160000D02*
X81139000Y-92160000D01*
X79059000Y-92160000D02*
X78314000Y-92160000D01*
X81842000Y-92200000D02*
X81139000Y-92200000D01*
X79059000Y-92200000D02*
X78356000Y-92200000D01*
X81798000Y-92240000D02*
X81139000Y-92240000D01*
X79059000Y-92240000D02*
X78400000Y-92240000D01*
X81752000Y-92280000D02*
X81139000Y-92280000D01*
X79059000Y-92280000D02*
X78446000Y-92280000D01*
X81704000Y-92320000D02*
X81139000Y-92320000D01*
X79059000Y-92320000D02*
X78494000Y-92320000D01*
X81653000Y-92360000D02*
X81139000Y-92360000D01*
X79059000Y-92360000D02*
X78545000Y-92360000D01*
X81599000Y-92400000D02*
X81139000Y-92400000D01*
X79059000Y-92400000D02*
X78599000Y-92400000D01*
X81542000Y-92440000D02*
X81139000Y-92440000D01*
X79059000Y-92440000D02*
X78656000Y-92440000D01*
X81482000Y-92480000D02*
X81139000Y-92480000D01*
X79059000Y-92480000D02*
X78716000Y-92480000D01*
X81418000Y-92520000D02*
X81139000Y-92520000D01*
X79059000Y-92520000D02*
X78780000Y-92520000D01*
X81350000Y-92560000D02*
X81139000Y-92560000D01*
X79059000Y-92560000D02*
X78848000Y-92560000D01*
X81277000Y-92600000D02*
X78921000Y-92600000D01*
X81197000Y-92640000D02*
X79001000Y-92640000D01*
X81110000Y-92680000D02*
X79088000Y-92680000D01*
X81014000Y-92720000D02*
X79184000Y-92720000D01*
X80904000Y-92760000D02*
X79294000Y-92760000D01*
X80776000Y-92800000D02*
X79422000Y-92800000D01*
X80617000Y-92840000D02*
X79581000Y-92840000D01*
X80383000Y-92880000D02*
X79815000Y-92880000D01*
X82719000Y-90279000D02*
G75*
G03*
X77479000Y-90279000I-2620000J0D01*
G01*
X77479000Y-90279000D02*
G75*
G03*
X82719000Y-90279000I2620000J0D01*
G01*
X75496000Y-86845000D02*
X75496000Y-83005000D01*
X77336000Y-86845000D02*
X77336000Y-83005000D01*
X67876000Y-86845000D02*
X67876000Y-83005000D01*
X69716000Y-86845000D02*
X69716000Y-83005000D01*
X70416000Y-86845000D02*
X70416000Y-83005000D01*
X72256000Y-86845000D02*
X72256000Y-83005000D01*
G36*
X66938133Y-58211300D02*
G01*
X67167232Y-58226125D01*
X67426968Y-58666588D01*
X67686703Y-59107050D01*
X67528127Y-59123137D01*
X67378773Y-59109637D01*
X67313056Y-59061962D01*
X67234429Y-59017615D01*
X67095709Y-58989970D01*
X66927141Y-58979177D01*
X66758974Y-58985388D01*
X66621454Y-59008754D01*
X66544828Y-59049424D01*
X66540018Y-59058110D01*
X66468697Y-59113675D01*
X66334350Y-59131520D01*
X66156851Y-59131520D01*
X66315563Y-58850114D01*
X66390556Y-58717831D01*
X66753478Y-58717831D01*
X66796564Y-58732492D01*
X66902490Y-58739810D01*
X66924769Y-58739998D01*
X67038059Y-58734422D01*
X67094607Y-58720714D01*
X67096060Y-58717831D01*
X67071563Y-58633087D01*
X67015345Y-58533627D01*
X66953313Y-58460512D01*
X66924769Y-58446356D01*
X66871298Y-58485180D01*
X66808542Y-58574279D01*
X66762409Y-58672591D01*
X66753478Y-58717831D01*
X66390556Y-58717831D01*
X66456604Y-58601327D01*
X66561306Y-58425478D01*
X66641582Y-58310344D01*
X66709344Y-58243700D01*
X66776505Y-58213325D01*
X66854977Y-58206993D01*
X66938133Y-58211300D01*
G37*
G36*
X62422264Y-58495297D02*
G01*
X62507104Y-58635255D01*
X62578847Y-58732591D01*
X62618025Y-58764468D01*
X62663709Y-58724955D01*
X62737654Y-58621971D01*
X62813786Y-58495297D01*
X62964130Y-58226125D01*
X63207070Y-58226125D01*
X63450009Y-58226125D01*
X63464081Y-58678823D01*
X63478153Y-59131520D01*
X63329495Y-59131520D01*
X63244513Y-59127139D01*
X63200280Y-59097933D01*
X63183491Y-59019808D01*
X63180838Y-58868669D01*
X63180838Y-58862349D01*
X63173382Y-58714934D01*
X63154150Y-58617164D01*
X63135489Y-58593177D01*
X63089482Y-58632479D01*
X63014456Y-58734961D01*
X62936137Y-58862349D01*
X62845586Y-59011191D01*
X62774870Y-59092318D01*
X62700365Y-59125720D01*
X62618025Y-59131520D01*
X62522220Y-59122677D01*
X62449955Y-59082820D01*
X62377606Y-58991961D01*
X62299913Y-58862349D01*
X62213413Y-58722735D01*
X62140480Y-58625439D01*
X62100560Y-58593177D01*
X62075725Y-58637432D01*
X62059253Y-58751589D01*
X62055212Y-58862349D01*
X62052792Y-59016225D01*
X62036662Y-59096317D01*
X61993516Y-59126717D01*
X61910045Y-59131520D01*
X61906554Y-59131520D01*
X61757897Y-59131520D01*
X61771969Y-58678823D01*
X61786040Y-58226125D01*
X62028980Y-58226125D01*
X62271919Y-58226125D01*
X62422264Y-58495297D01*
G37*
G36*
X71818796Y-58495297D02*
G01*
X71903636Y-58635255D01*
X71975378Y-58732591D01*
X72014557Y-58764468D01*
X72060241Y-58724955D01*
X72134186Y-58621971D01*
X72210318Y-58495297D01*
X72360662Y-58226125D01*
X72603602Y-58226125D01*
X72846541Y-58226125D01*
X72860613Y-58678823D01*
X72874684Y-59131520D01*
X72726027Y-59131520D01*
X72641044Y-59127139D01*
X72596812Y-59097933D01*
X72580023Y-59019808D01*
X72577370Y-58868669D01*
X72577370Y-58862349D01*
X72569914Y-58714934D01*
X72550681Y-58617164D01*
X72532021Y-58593177D01*
X72486014Y-58632479D01*
X72410988Y-58734961D01*
X72332668Y-58862349D01*
X72242118Y-59011191D01*
X72171402Y-59092318D01*
X72096897Y-59125720D01*
X72014557Y-59131520D01*
X71918751Y-59122677D01*
X71846486Y-59082820D01*
X71774138Y-58991961D01*
X71696445Y-58862349D01*
X71609945Y-58722735D01*
X71537012Y-58625439D01*
X71497092Y-58593177D01*
X71472256Y-58637432D01*
X71455785Y-58751589D01*
X71451744Y-58862349D01*
X71449324Y-59016225D01*
X71433194Y-59096317D01*
X71390047Y-59126717D01*
X71306577Y-59131520D01*
X71303086Y-59131520D01*
X71154429Y-59131520D01*
X71168500Y-58678823D01*
X71182572Y-58226125D01*
X71425511Y-58226125D01*
X71668451Y-58226125D01*
X71818796Y-58495297D01*
G37*
G36*
X70660502Y-58203076D02*
G01*
X70818871Y-58209687D01*
X70918834Y-58225012D01*
X70980123Y-58252576D01*
X71022467Y-58295903D01*
X71032976Y-58310425D01*
X71082474Y-58434991D01*
X71107718Y-58612394D01*
X71109162Y-58666588D01*
X71092563Y-58851016D01*
X71049031Y-58995142D01*
X71032976Y-59022750D01*
X70992342Y-59070829D01*
X70937975Y-59102215D01*
X70850146Y-59120431D01*
X70709124Y-59129002D01*
X70495178Y-59131451D01*
X70423998Y-59131520D01*
X70187493Y-59130100D01*
X70029125Y-59123489D01*
X69929162Y-59108163D01*
X69867873Y-59080599D01*
X69825529Y-59037272D01*
X69815020Y-59022750D01*
X69765522Y-58898184D01*
X69744791Y-58752499D01*
X70083689Y-58752499D01*
X70116893Y-58836175D01*
X70206998Y-58874023D01*
X70371388Y-58879493D01*
X70435599Y-58876935D01*
X70742110Y-58862349D01*
X70742110Y-58666588D01*
X70742110Y-58470826D01*
X70423998Y-58470826D01*
X70252824Y-58472796D01*
X70156237Y-58485153D01*
X70110946Y-58517571D01*
X70093660Y-58579723D01*
X70090001Y-58609546D01*
X70083689Y-58752499D01*
X69744791Y-58752499D01*
X69740278Y-58720781D01*
X69738834Y-58666588D01*
X69755432Y-58482159D01*
X69798965Y-58338033D01*
X69815020Y-58310425D01*
X69855654Y-58262346D01*
X69910020Y-58230960D01*
X69997850Y-58212744D01*
X70138872Y-58204173D01*
X70352817Y-58201724D01*
X70423998Y-58201655D01*
X70660502Y-58203076D01*
G37*
G36*
X69338832Y-58212960D02*
G01*
X69448094Y-58228642D01*
X69518637Y-58257403D01*
X69549552Y-58280929D01*
X69621022Y-58397278D01*
X69636941Y-58538690D01*
X69595285Y-58661332D01*
X69568443Y-58690311D01*
X69521928Y-58745965D01*
X69540293Y-58811401D01*
X69568443Y-58854014D01*
X69637385Y-58991901D01*
X69625828Y-59086507D01*
X69535718Y-59129704D01*
X69501988Y-59131520D01*
X69376400Y-59099902D01*
X69307277Y-59009169D01*
X69263765Y-58937988D01*
X69197566Y-58901306D01*
X69079275Y-58888087D01*
X68981309Y-58886819D01*
X68826774Y-58889966D01*
X68746174Y-58906625D01*
X68715601Y-58947620D01*
X68711088Y-59009169D01*
X68695510Y-59096287D01*
X68629025Y-59128425D01*
X68562732Y-59131520D01*
X68450081Y-59112094D01*
X68389240Y-59066019D01*
X68379052Y-58988261D01*
X68374797Y-58841548D01*
X68377154Y-58654663D01*
X68378541Y-58613321D01*
X68386765Y-58392745D01*
X68711088Y-58392745D01*
X68711088Y-58544237D01*
X68711088Y-58695728D01*
X69016965Y-58681158D01*
X69184001Y-58670549D01*
X69275667Y-58652233D01*
X69314443Y-58616145D01*
X69322812Y-58552221D01*
X69322842Y-58544237D01*
X69316213Y-58477107D01*
X69281337Y-58438779D01*
X69195734Y-58419191D01*
X69036922Y-58408278D01*
X69016965Y-58407316D01*
X68711088Y-58392745D01*
X68386765Y-58392745D01*
X68392977Y-58226125D01*
X68925564Y-58212169D01*
X69171204Y-58208190D01*
X69338832Y-58212960D01*
G37*
G36*
X64555673Y-58208551D02*
G01*
X64643665Y-58219049D01*
X64685218Y-58241402D01*
X64697458Y-58278330D01*
X64697986Y-58295821D01*
X64688558Y-58345475D01*
X64647035Y-58376286D01*
X64553559Y-58394108D01*
X64388273Y-58404791D01*
X64318699Y-58407593D01*
X64119653Y-58419174D01*
X64001639Y-58438027D01*
X63947867Y-58468036D01*
X63939412Y-58495297D01*
X63960492Y-58534616D01*
X64034923Y-58560263D01*
X64179496Y-58576118D01*
X64318699Y-58583001D01*
X64521083Y-58595250D01*
X64640732Y-58615458D01*
X64692681Y-58646937D01*
X64697986Y-58666588D01*
X64672685Y-58704515D01*
X64586756Y-58729612D01*
X64425165Y-58745193D01*
X64318699Y-58750174D01*
X64119653Y-58761755D01*
X64001639Y-58780609D01*
X63947867Y-58810617D01*
X63939412Y-58837879D01*
X63960492Y-58877198D01*
X64034923Y-58902844D01*
X64179496Y-58918700D01*
X64318699Y-58925583D01*
X64510715Y-58935316D01*
X64624643Y-58950433D01*
X64680273Y-58976680D01*
X64697397Y-59019803D01*
X64697986Y-59035698D01*
X64691099Y-59078422D01*
X64658939Y-59106157D01*
X64584265Y-59122107D01*
X64449831Y-59129481D01*
X64238395Y-59131482D01*
X64182577Y-59131520D01*
X63933599Y-59128011D01*
X63769113Y-59116420D01*
X63675947Y-59095150D01*
X63642033Y-59066019D01*
X63631846Y-58988261D01*
X63627591Y-58841548D01*
X63629947Y-58654663D01*
X63631334Y-58613321D01*
X63645770Y-58226125D01*
X64171878Y-58212234D01*
X64404119Y-58207186D01*
X64555673Y-58208551D01*
G37*
G36*
X72455704Y-51971265D02*
G01*
X72577958Y-52065450D01*
X72743263Y-52208290D01*
X72939939Y-52388223D01*
X73156303Y-52593684D01*
X73380674Y-52813109D01*
X73601373Y-53034934D01*
X73806716Y-53247595D01*
X73985024Y-53439528D01*
X74124615Y-53599170D01*
X74213808Y-53714956D01*
X74241339Y-53771863D01*
X74206835Y-53832024D01*
X74106434Y-53954975D01*
X73944799Y-54135671D01*
X73726596Y-54369067D01*
X73456488Y-54650117D01*
X73139140Y-54973777D01*
X73005597Y-55108435D01*
X72465391Y-55649358D01*
X71990107Y-56120527D01*
X71577847Y-56523710D01*
X71226713Y-56860678D01*
X70934808Y-57133198D01*
X70700233Y-57343041D01*
X70521091Y-57491977D01*
X70395484Y-57581774D01*
X70321514Y-57614203D01*
X70317858Y-57614372D01*
X70253361Y-57588389D01*
X70142988Y-57507798D01*
X69982271Y-57368638D01*
X69766745Y-57166947D01*
X69491939Y-56898763D01*
X69336585Y-56744174D01*
X69073819Y-56477780D01*
X68849008Y-56242603D01*
X68669447Y-56046710D01*
X68542431Y-55898172D01*
X68475255Y-55805058D01*
X68466387Y-55781661D01*
X68500880Y-55718761D01*
X68599097Y-55596881D01*
X68753142Y-55423760D01*
X68955120Y-55207137D01*
X69197136Y-54954752D01*
X69471296Y-54674344D01*
X69769703Y-54373651D01*
X70084464Y-54060413D01*
X70407684Y-53742370D01*
X70731466Y-53427259D01*
X71047917Y-53122820D01*
X71349140Y-52836793D01*
X71627242Y-52576917D01*
X71874327Y-52350930D01*
X72082501Y-52166572D01*
X72243867Y-52031581D01*
X72350532Y-51953698D01*
X72388183Y-51937300D01*
X72455704Y-51971265D01*
G37*
G36*
X65718259Y-58202771D02*
G01*
X65875718Y-58208700D01*
X65974807Y-58223314D01*
X66035280Y-58250485D01*
X66076889Y-58294085D01*
X66095874Y-58321853D01*
X66142797Y-58423880D01*
X66143054Y-58493144D01*
X66068428Y-58535683D01*
X65955322Y-58539571D01*
X65855157Y-58504871D01*
X65840665Y-58492773D01*
X65766944Y-58467746D01*
X65626479Y-58454950D01*
X65476060Y-58456068D01*
X65162919Y-58470826D01*
X65162919Y-58666588D01*
X65162919Y-58862349D01*
X65476060Y-58877108D01*
X65649318Y-58877271D01*
X65782181Y-58862551D01*
X65840665Y-58840402D01*
X65840795Y-58807630D01*
X65753814Y-58791428D01*
X65658521Y-58788938D01*
X65516900Y-58783365D01*
X65451189Y-58760959D01*
X65439770Y-58713193D01*
X65441407Y-58703293D01*
X65465380Y-58657362D01*
X65529194Y-58631159D01*
X65653898Y-58619655D01*
X65799813Y-58617647D01*
X65978718Y-58619283D01*
X66082124Y-58629934D01*
X66132408Y-58658220D01*
X66151952Y-58712759D01*
X66157515Y-58755396D01*
X66142251Y-58901237D01*
X66095212Y-59012333D01*
X66055788Y-59064721D01*
X66006573Y-59098977D01*
X65927830Y-59118941D01*
X65799824Y-59128451D01*
X65602821Y-59131350D01*
X65482677Y-59131520D01*
X65245766Y-59130109D01*
X65087029Y-59123539D01*
X64986776Y-59108300D01*
X64925314Y-59080887D01*
X64882952Y-59037790D01*
X64872052Y-59022750D01*
X64822554Y-58898184D01*
X64797310Y-58720781D01*
X64795867Y-58666588D01*
X64812465Y-58482159D01*
X64855998Y-58338033D01*
X64872052Y-58310425D01*
X64912616Y-58262409D01*
X64966873Y-58231040D01*
X65054516Y-58212808D01*
X65195237Y-58204207D01*
X65408727Y-58201729D01*
X65482677Y-58201655D01*
X65718259Y-58202771D01*
G37*
G36*
X63979662Y-51955319D02*
G01*
X64048435Y-51998275D01*
X64170348Y-52100020D01*
X64333860Y-52248861D01*
X64527427Y-52433106D01*
X64739507Y-52641063D01*
X64958556Y-52861038D01*
X65173031Y-53081339D01*
X65371390Y-53290273D01*
X65542089Y-53476148D01*
X65673586Y-53627271D01*
X65754337Y-53731950D01*
X65774672Y-53773605D01*
X65740477Y-53832902D01*
X65643117Y-53951719D01*
X65490436Y-54122289D01*
X65290273Y-54336846D01*
X65050471Y-54587624D01*
X64778870Y-54866855D01*
X64483313Y-55166774D01*
X64171640Y-55479615D01*
X63851693Y-55797610D01*
X63531313Y-56112994D01*
X63218342Y-56418000D01*
X62920620Y-56704862D01*
X62645990Y-56965813D01*
X62402292Y-57193087D01*
X62197368Y-57378918D01*
X62039060Y-57515538D01*
X61935208Y-57595182D01*
X61898341Y-57612884D01*
X61806221Y-57589501D01*
X61737100Y-57558131D01*
X61675086Y-57509238D01*
X61555295Y-57401607D01*
X61389003Y-57245871D01*
X61187486Y-57052663D01*
X60962021Y-56832615D01*
X60843940Y-56715956D01*
X60584588Y-56457257D01*
X60387600Y-56256497D01*
X60244710Y-56103855D01*
X60147647Y-55989510D01*
X60088144Y-55903641D01*
X60057933Y-55836427D01*
X60048743Y-55778047D01*
X60048661Y-55771348D01*
X60053950Y-55731503D01*
X60073479Y-55683179D01*
X60112737Y-55620520D01*
X60177214Y-55537670D01*
X60272402Y-55428772D01*
X60403790Y-55287970D01*
X60576869Y-55109409D01*
X60797128Y-54887232D01*
X61070059Y-54615582D01*
X61401152Y-54288605D01*
X61795896Y-53900442D01*
X61881288Y-53816600D01*
X62234504Y-53470481D01*
X62568323Y-53144573D01*
X62875932Y-52845446D01*
X63150519Y-52579667D01*
X63385271Y-52353804D01*
X63573376Y-52174427D01*
X63708020Y-52048102D01*
X63782391Y-51981398D01*
X63793503Y-51973009D01*
X63904276Y-51948022D01*
X63979662Y-51955319D01*
G37*
G36*
X68183482Y-51959686D02*
G01*
X68256414Y-51991884D01*
X68351024Y-52056513D01*
X68476295Y-52160628D01*
X68641211Y-52311285D01*
X68854755Y-52515539D01*
X69125910Y-52780446D01*
X69205934Y-52859123D01*
X69465828Y-53116651D01*
X69662545Y-53316632D01*
X69804222Y-53468563D01*
X69898996Y-53581942D01*
X69955003Y-53666266D01*
X69980380Y-53731032D01*
X69984303Y-53767650D01*
X69984519Y-53797378D01*
X69982242Y-53825342D01*
X69972557Y-53856695D01*
X69950552Y-53896591D01*
X69911312Y-53950184D01*
X69849924Y-54022629D01*
X69761475Y-54119078D01*
X69641050Y-54244687D01*
X69483737Y-54404610D01*
X69284621Y-54603999D01*
X69038789Y-54848010D01*
X68741327Y-55141797D01*
X68387323Y-55490513D01*
X67971861Y-55899313D01*
X67653377Y-56212631D01*
X67250294Y-56607089D01*
X66912432Y-56933043D01*
X66637357Y-57192722D01*
X66422634Y-57388354D01*
X66265826Y-57522170D01*
X66164499Y-57596396D01*
X66121746Y-57614372D01*
X66043873Y-57578515D01*
X65900062Y-57470894D01*
X65690226Y-57291437D01*
X65414278Y-57040070D01*
X65160049Y-56800665D01*
X64919081Y-56567833D01*
X64702041Y-56351533D01*
X64519195Y-56162532D01*
X64380809Y-56011599D01*
X64297148Y-55909502D01*
X64276953Y-55874332D01*
X64266847Y-55741860D01*
X64279320Y-55665185D01*
X64320681Y-55609921D01*
X64424895Y-55495054D01*
X64583908Y-55328455D01*
X64789665Y-55117994D01*
X65034111Y-54871544D01*
X65309192Y-54596973D01*
X65606852Y-54302154D01*
X65919037Y-53994955D01*
X66237692Y-53683249D01*
X66554763Y-53374906D01*
X66862194Y-53077796D01*
X67151932Y-52799789D01*
X67415920Y-52548758D01*
X67646105Y-52332572D01*
X67834431Y-52159102D01*
X67972844Y-52036218D01*
X68053289Y-51971792D01*
X68066720Y-51964356D01*
X68123245Y-51952861D01*
X68183482Y-51959686D01*
G37*
G36*
X74561675Y-51519084D02*
G01*
X74681801Y-51639210D01*
X74681801Y-55485470D01*
X74681801Y-59331730D01*
X74561675Y-59451856D01*
X74441549Y-59571983D01*
X67169470Y-59571983D01*
X59897391Y-59571983D01*
X59777265Y-59451856D01*
X59657139Y-59331730D01*
X59657139Y-59282790D01*
X59706079Y-59282790D01*
X59826205Y-59402916D01*
X59946331Y-59523042D01*
X67169470Y-59523042D01*
X74392609Y-59523042D01*
X74512735Y-59402916D01*
X74632861Y-59282790D01*
X74632861Y-55485470D01*
X74632861Y-51688150D01*
X74512735Y-51568024D01*
X74392609Y-51447898D01*
X67147224Y-51447898D01*
X66163880Y-51447914D01*
X65273708Y-51448006D01*
X64472002Y-51448235D01*
X63754054Y-51448664D01*
X63115156Y-51449357D01*
X62550601Y-51450375D01*
X62055682Y-51451782D01*
X61625691Y-51453640D01*
X61255920Y-51456013D01*
X60941661Y-51458962D01*
X60678209Y-51462551D01*
X60460853Y-51466842D01*
X60284889Y-51471899D01*
X60145607Y-51477783D01*
X60038300Y-51484558D01*
X59958261Y-51492286D01*
X59900782Y-51501030D01*
X59861156Y-51510854D01*
X59834675Y-51521818D01*
X59816632Y-51533987D01*
X59803959Y-51545778D01*
X59785989Y-51565681D01*
X59770364Y-51591368D01*
X59756921Y-51629403D01*
X59745495Y-51686346D01*
X59735923Y-51768761D01*
X59728041Y-51883209D01*
X59721684Y-52036253D01*
X59716689Y-52234454D01*
X59712892Y-52484375D01*
X59710128Y-52792578D01*
X59708234Y-53165625D01*
X59707047Y-53610078D01*
X59706401Y-54132499D01*
X59706133Y-54739450D01*
X59706079Y-55437494D01*
X59706079Y-55463224D01*
X59706079Y-59282790D01*
X59657139Y-59282790D01*
X59657139Y-55463224D01*
X59657187Y-54757158D01*
X59657439Y-54142454D01*
X59658057Y-53612594D01*
X59659200Y-53161059D01*
X59661030Y-52781331D01*
X59663708Y-52466892D01*
X59667394Y-52211222D01*
X59672249Y-52007805D01*
X59678434Y-51850121D01*
X59686111Y-51731652D01*
X59695439Y-51645880D01*
X59706580Y-51586285D01*
X59719694Y-51546351D01*
X59734943Y-51519558D01*
X59752487Y-51499388D01*
X59755019Y-51496838D01*
X59769478Y-51483596D01*
X59788206Y-51471606D01*
X59815895Y-51460805D01*
X59857236Y-51451132D01*
X59916920Y-51442523D01*
X59999639Y-51434918D01*
X60110083Y-51428254D01*
X60252945Y-51422468D01*
X60432915Y-51417499D01*
X60654684Y-51413284D01*
X60922944Y-51409762D01*
X61242386Y-51406870D01*
X61617702Y-51404546D01*
X62053583Y-51402729D01*
X62554719Y-51401355D01*
X63125803Y-51400363D01*
X63771525Y-51399691D01*
X64496577Y-51399277D01*
X65305650Y-51399058D01*
X66203436Y-51398972D01*
X67147224Y-51398958D01*
X74441549Y-51398958D01*
X74561675Y-51519084D01*
G37*
X72956000Y-86845000D02*
X72956000Y-83005000D01*
X74796000Y-86845000D02*
X74796000Y-83005000D01*
X134736000Y-70567000D02*
X135051000Y-70567000D01*
X134736000Y-70567000D02*
X134736000Y-65327000D01*
X137161000Y-70567000D02*
X137476000Y-70567000D01*
X137476000Y-70567000D02*
X137476000Y-65327000D01*
X134736000Y-65327000D02*
X135051000Y-65327000D01*
X137161000Y-65327000D02*
X137476000Y-65327000D01*
X65336000Y-86845000D02*
X65336000Y-83005000D01*
X67176000Y-86845000D02*
X67176000Y-83005000D01*
G36*
X108377902Y-92689615D02*
G01*
X108377902Y-95507922D01*
X100935808Y-95507922D01*
X93493713Y-95507922D01*
X93493713Y-94957472D01*
X94771080Y-94957472D01*
X94775711Y-94963926D01*
X94796841Y-94968996D01*
X94837470Y-94972795D01*
X94900602Y-94975437D01*
X94989237Y-94977038D01*
X95106378Y-94977712D01*
X95255026Y-94977571D01*
X95295341Y-94977431D01*
X95435118Y-94976534D01*
X95568957Y-94975008D01*
X95691262Y-94972968D01*
X95796437Y-94970529D01*
X95878886Y-94967805D01*
X95933012Y-94964910D01*
X95940990Y-94964220D01*
X96054356Y-94953068D01*
X96300505Y-94050215D01*
X96347352Y-93878754D01*
X96391441Y-93718113D01*
X96431905Y-93571393D01*
X96467880Y-93441697D01*
X96498501Y-93332127D01*
X96522902Y-93245786D01*
X96540219Y-93185776D01*
X96549586Y-93155199D01*
X96550998Y-93151880D01*
X96555477Y-93169445D01*
X96566728Y-93218222D01*
X96584038Y-93294998D01*
X96606694Y-93396559D01*
X96633982Y-93519693D01*
X96665190Y-93661186D01*
X96699603Y-93817826D01*
X96736508Y-93986400D01*
X96751217Y-94053740D01*
X96789021Y-94226275D01*
X96824792Y-94388278D01*
X96857798Y-94536509D01*
X96887302Y-94667729D01*
X96912571Y-94778700D01*
X96932870Y-94866181D01*
X96947466Y-94926934D01*
X96955623Y-94957719D01*
X96956878Y-94960882D01*
X96976438Y-94963753D01*
X97026451Y-94966767D01*
X97102145Y-94969761D01*
X97198744Y-94972571D01*
X97311475Y-94975033D01*
X97421648Y-94976802D01*
X97560256Y-94978533D01*
X97667774Y-94979391D01*
X97748333Y-94979142D01*
X97806064Y-94977554D01*
X97845100Y-94974398D01*
X97869574Y-94969440D01*
X97883616Y-94962449D01*
X97891358Y-94953193D01*
X97892853Y-94950380D01*
X97900461Y-94927548D01*
X97916322Y-94873980D01*
X97939521Y-94792955D01*
X97969142Y-94687751D01*
X98004268Y-94561647D01*
X98043985Y-94417921D01*
X98087377Y-94259852D01*
X98133527Y-94090718D01*
X98153888Y-94015787D01*
X98200560Y-93844969D01*
X98244737Y-93685506D01*
X98285536Y-93540430D01*
X98322077Y-93412773D01*
X98353476Y-93305566D01*
X98378852Y-93221840D01*
X98397323Y-93164626D01*
X98408007Y-93136957D01*
X98410114Y-93135066D01*
X98417068Y-93155618D01*
X98432844Y-93206814D01*
X98456494Y-93285448D01*
X98487072Y-93388318D01*
X98523630Y-93512219D01*
X98565222Y-93653946D01*
X98610900Y-93810296D01*
X98659717Y-93978065D01*
X98682724Y-94057354D01*
X98943918Y-94958311D01*
X99023913Y-94968841D01*
X99053225Y-94970299D01*
X99115083Y-94971477D01*
X99206807Y-94972373D01*
X99325716Y-94972986D01*
X99469129Y-94973316D01*
X99634364Y-94973360D01*
X99818741Y-94973119D01*
X100019579Y-94972590D01*
X100234196Y-94971774D01*
X100459912Y-94970668D01*
X100662784Y-94969473D01*
X100943421Y-94967696D01*
X101191189Y-94966042D01*
X101408447Y-94964356D01*
X101597555Y-94962482D01*
X101760872Y-94960265D01*
X101900757Y-94957549D01*
X102019569Y-94954179D01*
X102119666Y-94949998D01*
X102203409Y-94944852D01*
X102273157Y-94938584D01*
X102331267Y-94931040D01*
X102380100Y-94922063D01*
X102422015Y-94911497D01*
X102459371Y-94899188D01*
X102494526Y-94884979D01*
X102529840Y-94868716D01*
X102567673Y-94850241D01*
X102582756Y-94842827D01*
X102717685Y-94760279D01*
X102846160Y-94651068D01*
X102959824Y-94523708D01*
X103050321Y-94386713D01*
X103072002Y-94344381D01*
X103107463Y-94267441D01*
X103135086Y-94199338D01*
X103155832Y-94133985D01*
X103170661Y-94065294D01*
X103180534Y-93987180D01*
X103186412Y-93893555D01*
X103189257Y-93778331D01*
X103190028Y-93635422D01*
X103190011Y-93596757D01*
X103189412Y-93457982D01*
X103187727Y-93348896D01*
X103184614Y-93263969D01*
X103179729Y-93197670D01*
X103172732Y-93144467D01*
X103163280Y-93098829D01*
X103157958Y-93078657D01*
X103088311Y-92891586D01*
X102990064Y-92721665D01*
X102865981Y-92572324D01*
X102718824Y-92446994D01*
X102582727Y-92364471D01*
X102524495Y-92335089D01*
X102473105Y-92310870D01*
X102424417Y-92291258D01*
X102374288Y-92275696D01*
X102318577Y-92263627D01*
X102253143Y-92254495D01*
X102173845Y-92247741D01*
X102076540Y-92242810D01*
X101957088Y-92239145D01*
X101811347Y-92236189D01*
X101635175Y-92233385D01*
X101604320Y-92232920D01*
X101431284Y-92230193D01*
X101289965Y-92227596D01*
X101176849Y-92224925D01*
X101088428Y-92221976D01*
X101021188Y-92218543D01*
X100971619Y-92214423D01*
X100936209Y-92209411D01*
X100911447Y-92203301D01*
X100893822Y-92195890D01*
X100885691Y-92191050D01*
X100819473Y-92128874D01*
X100780451Y-92052165D01*
X100768246Y-91968314D01*
X100782478Y-91884710D01*
X100822765Y-91808743D01*
X100888729Y-91747802D01*
X100909111Y-91735822D01*
X100921718Y-91729858D01*
X100937160Y-91724667D01*
X100957823Y-91720196D01*
X100986092Y-91716391D01*
X101024353Y-91713198D01*
X101074990Y-91710565D01*
X101140389Y-91708438D01*
X101222935Y-91706763D01*
X101325013Y-91705487D01*
X101449009Y-91704556D01*
X101597308Y-91703917D01*
X101772295Y-91703516D01*
X101976356Y-91703301D01*
X102211876Y-91703216D01*
X102363975Y-91703207D01*
X102618924Y-91703243D01*
X102840962Y-91703387D01*
X103032409Y-91703688D01*
X103195582Y-91704197D01*
X103332800Y-91704964D01*
X103446382Y-91706039D01*
X103538645Y-91707472D01*
X103611908Y-91709314D01*
X103668490Y-91711616D01*
X103710709Y-91714427D01*
X103740883Y-91717798D01*
X103761331Y-91721779D01*
X103774372Y-91726420D01*
X103782323Y-91731772D01*
X103784518Y-91734032D01*
X103800721Y-91755282D01*
X103833978Y-91800971D01*
X103881156Y-91866670D01*
X103939121Y-91947950D01*
X104004737Y-92040380D01*
X104074871Y-92139530D01*
X104146388Y-92240971D01*
X104216153Y-92340273D01*
X104281033Y-92433006D01*
X104337891Y-92514741D01*
X104375372Y-92569051D01*
X104431671Y-92651054D01*
X103760003Y-93599495D01*
X103640020Y-93768909D01*
X103522311Y-93935092D01*
X103409079Y-94094934D01*
X103302528Y-94245325D01*
X103204862Y-94383155D01*
X103118285Y-94505314D01*
X103045001Y-94608692D01*
X102987214Y-94690179D01*
X102947126Y-94746665D01*
X102941272Y-94754906D01*
X102794208Y-94961875D01*
X103514845Y-94961875D01*
X104235481Y-94961875D01*
X104689488Y-94319963D01*
X104783667Y-94187346D01*
X104871780Y-94064310D01*
X104951733Y-93953704D01*
X105021431Y-93858378D01*
X105078782Y-93781180D01*
X105121690Y-93724958D01*
X105148062Y-93692563D01*
X105155761Y-93685632D01*
X105168147Y-93701191D01*
X105198634Y-93742643D01*
X105245111Y-93807028D01*
X105305465Y-93891388D01*
X105377583Y-93992763D01*
X105459353Y-94108195D01*
X105548663Y-94234723D01*
X105613996Y-94327544D01*
X106059964Y-94961875D01*
X106780118Y-94961875D01*
X107500273Y-94961875D01*
X107422309Y-94851785D01*
X107216412Y-94560697D01*
X107022686Y-94286115D01*
X106841809Y-94029018D01*
X106674457Y-93790385D01*
X106521307Y-93571197D01*
X106383036Y-93372432D01*
X106260321Y-93195070D01*
X106153839Y-93040091D01*
X106064267Y-92908474D01*
X105992282Y-92801198D01*
X105938560Y-92719243D01*
X105903778Y-92663589D01*
X105888614Y-92635214D01*
X105888105Y-92631836D01*
X105900185Y-92614233D01*
X105930983Y-92570233D01*
X105978845Y-92502176D01*
X106042116Y-92412405D01*
X106119143Y-92303264D01*
X106208273Y-92177094D01*
X106307850Y-92036238D01*
X106416221Y-91883039D01*
X106531732Y-91719840D01*
X106626734Y-91585681D01*
X106746664Y-91416323D01*
X106860731Y-91255180D01*
X106967285Y-91104587D01*
X107064677Y-90966879D01*
X107151255Y-90844390D01*
X107225370Y-90739458D01*
X107285371Y-90654416D01*
X107329608Y-90591601D01*
X107356431Y-90553347D01*
X107364225Y-90542026D01*
X107355008Y-90536865D01*
X107319458Y-90532585D01*
X107256140Y-90529149D01*
X107163615Y-90526518D01*
X107040447Y-90524653D01*
X106885200Y-90523515D01*
X106696437Y-90523066D01*
X106657131Y-90523056D01*
X105938304Y-90523071D01*
X105552162Y-91069103D01*
X105465432Y-91191353D01*
X105384937Y-91304062D01*
X105312954Y-91404098D01*
X105251763Y-91488324D01*
X105203645Y-91553607D01*
X105170877Y-91596812D01*
X105155739Y-91614804D01*
X105155125Y-91615135D01*
X105142907Y-91601215D01*
X105112796Y-91561550D01*
X105067064Y-91499285D01*
X105007982Y-91417564D01*
X104937819Y-91319530D01*
X104858849Y-91208326D01*
X104773340Y-91087097D01*
X104760360Y-91068627D01*
X104376490Y-90522119D01*
X102506426Y-90526983D01*
X100636362Y-90531848D01*
X100513061Y-90573038D01*
X100351034Y-90638360D01*
X100207754Y-90721907D01*
X100072398Y-90830447D01*
X100017837Y-90882587D01*
X99945963Y-90957206D01*
X99892618Y-91021603D01*
X99849089Y-91087889D01*
X99806662Y-91168178D01*
X99794952Y-91192388D01*
X99756262Y-91275718D01*
X99726269Y-91348309D01*
X99703877Y-91416604D01*
X99687991Y-91487042D01*
X99677513Y-91566062D01*
X99671349Y-91660106D01*
X99668402Y-91775613D01*
X99667577Y-91919024D01*
X99667569Y-91941001D01*
X99668190Y-92088697D01*
X99670784Y-92207615D01*
X99676447Y-92304196D01*
X99686275Y-92384878D01*
X99701363Y-92456104D01*
X99722807Y-92524311D01*
X99751704Y-92595942D01*
X99789149Y-92677435D01*
X99794952Y-92689615D01*
X99894814Y-92858536D01*
X100022582Y-93008757D01*
X100174523Y-93137059D01*
X100346902Y-93240229D01*
X100513061Y-93307845D01*
X100548394Y-93318736D01*
X100583296Y-93327576D01*
X100622032Y-93334659D01*
X100668870Y-93340282D01*
X100728074Y-93344738D01*
X100803913Y-93348323D01*
X100900650Y-93351332D01*
X101022554Y-93354059D01*
X101173889Y-93356801D01*
X101236088Y-93357843D01*
X101399555Y-93360707D01*
X101531513Y-93363481D01*
X101635677Y-93366402D01*
X101715766Y-93369705D01*
X101775496Y-93373624D01*
X101818585Y-93378397D01*
X101848749Y-93384257D01*
X101869707Y-93391442D01*
X101883173Y-93398840D01*
X101949063Y-93460570D01*
X101986519Y-93535823D01*
X101995594Y-93617406D01*
X101976346Y-93698122D01*
X101928829Y-93770775D01*
X101879978Y-93812183D01*
X101820126Y-93852167D01*
X100858341Y-93852143D01*
X99896556Y-93852119D01*
X99765725Y-93398571D01*
X99727398Y-93266440D01*
X99688918Y-93135115D01*
X99652356Y-93011562D01*
X99619781Y-92902747D01*
X99593263Y-92815636D01*
X99578640Y-92768879D01*
X99563925Y-92719702D01*
X99541342Y-92640058D01*
X99511873Y-92533581D01*
X99476499Y-92403903D01*
X99436201Y-92254657D01*
X99391962Y-92089477D01*
X99344762Y-91911994D01*
X99295582Y-91725842D01*
X99251496Y-91557933D01*
X98980606Y-90523130D01*
X98413220Y-90523085D01*
X97845834Y-90523040D01*
X97825890Y-90597902D01*
X97816766Y-90631736D01*
X97799536Y-90695246D01*
X97775371Y-90784119D01*
X97745446Y-90894047D01*
X97710933Y-91020720D01*
X97673006Y-91159827D01*
X97632839Y-91307059D01*
X97631452Y-91312141D01*
X97592187Y-91456294D01*
X97556008Y-91589657D01*
X97523933Y-91708438D01*
X97496979Y-91808844D01*
X97476164Y-91887084D01*
X97462505Y-91939365D01*
X97457019Y-91961895D01*
X97456959Y-91962406D01*
X97455386Y-91972430D01*
X97450344Y-91963686D01*
X97441346Y-91934145D01*
X97427905Y-91881775D01*
X97409534Y-91804544D01*
X97385746Y-91700422D01*
X97356055Y-91567378D01*
X97319975Y-91403380D01*
X97289092Y-91261895D01*
X97255858Y-91109516D01*
X97224698Y-90967138D01*
X97196463Y-90838611D01*
X97172004Y-90727784D01*
X97152171Y-90638509D01*
X97137814Y-90574635D01*
X97129784Y-90540011D01*
X97128637Y-90535555D01*
X97124252Y-90526827D01*
X97114315Y-90519935D01*
X97095180Y-90514710D01*
X97063205Y-90510983D01*
X97014747Y-90508586D01*
X96946162Y-90507349D01*
X96853807Y-90507103D01*
X96734039Y-90507680D01*
X96583215Y-90508911D01*
X96558660Y-90509133D01*
X96421547Y-90510690D01*
X96295926Y-90512713D01*
X96186080Y-90515085D01*
X96096291Y-90517691D01*
X96030841Y-90520415D01*
X95994014Y-90523140D01*
X95987529Y-90524579D01*
X95981716Y-90542535D01*
X95967229Y-90592475D01*
X95944620Y-90672388D01*
X95914445Y-90780260D01*
X95877260Y-90914078D01*
X95833618Y-91071830D01*
X95784075Y-91251502D01*
X95729186Y-91451081D01*
X95669505Y-91668554D01*
X95605587Y-91901909D01*
X95537988Y-92149132D01*
X95467262Y-92408211D01*
X95393964Y-92677132D01*
X95378154Y-92735189D01*
X95304362Y-93006165D01*
X95233061Y-93267884D01*
X95164804Y-93518319D01*
X95100145Y-93755444D01*
X95039638Y-93977232D01*
X94983836Y-94181657D01*
X94933293Y-94366691D01*
X94888563Y-94530307D01*
X94850199Y-94670480D01*
X94818755Y-94785182D01*
X94794785Y-94872387D01*
X94778842Y-94930067D01*
X94771480Y-94956196D01*
X94771080Y-94957472D01*
X93493713Y-94957472D01*
X93493713Y-92689615D01*
X93493713Y-89871307D01*
X100935808Y-89871307D01*
X108377902Y-89871307D01*
X108377902Y-92689615D01*
G37*
X144675000Y-59204000D02*
X143345000Y-59204000D01*
X144675000Y-57874000D02*
X144675000Y-59204000D01*
X144675000Y-56604000D02*
X144675000Y-51464000D01*
X144675000Y-56604000D02*
X142015000Y-56604000D01*
X144675000Y-51464000D02*
X142015000Y-51464000D01*
X142015000Y-56604000D02*
X142015000Y-51464000D01*
X80286000Y-71607000D02*
X54766000Y-71607000D01*
X54766000Y-71607000D02*
X54766000Y-76907000D01*
X80286000Y-73257000D02*
X80286000Y-71607000D01*
X80286000Y-76907000D02*
X80286000Y-75257000D01*
X54766000Y-76907000D02*
X80286000Y-76907000D01*
X80286000Y-73257000D02*
G75*
G03*
X80286000Y-75257000I0J-1000000D01*
G01*
M02*
