G04 #@! TF.GenerationSoftware,KiCad,Pcbnew,7.0.10*
G04 #@! TF.CreationDate,2024-06-01T12:23:42+09:00*
G04 #@! TF.ProjectId,simple_megarom_cartridge,73696d70-6c65-45f6-9d65-6761726f6d5f,rev?*
G04 #@! TF.SameCoordinates,Original*
G04 #@! TF.FileFunction,Copper,L1,Top*
G04 #@! TF.FilePolarity,Positive*
%FSLAX46Y46*%
G04 Gerber Fmt 4.6, Leading zero omitted, Abs format (unit mm)*
G04 Created by KiCad (PCBNEW 7.0.10) date 2024-06-01 12:23:42*
%MOMM*%
%LPD*%
G01*
G04 APERTURE LIST*
G04 Aperture macros list*
%AMFreePoly0*
4,1,18,0.123607,0.380423,0.235114,0.323607,0.323607,0.235114,0.380423,0.123607,0.400000,0.000000,0.400000,-1.500000,0.850000,-1.500000,0.850000,-10.500000,-0.850000,-10.500000,-0.850000,-1.500000,-0.400000,-1.500000,-0.400000,0.000000,-0.380423,0.123607,-0.323607,0.235114,-0.235114,0.323607,-0.123607,0.380423,0.000000,0.400000,0.123607,0.380423,0.123607,0.380423,$1*%
%AMFreePoly1*
4,1,18,0.123607,0.380423,0.235114,0.323607,0.323607,0.235114,0.380423,0.123607,0.400000,0.000000,0.400000,-1.500000,0.850000,-1.500000,0.850000,-9.000000,-0.850000,-9.000000,-0.850000,-1.500000,-0.400000,-1.500000,-0.400000,0.000000,-0.380423,0.123607,-0.323607,0.235114,-0.235114,0.323607,-0.123607,0.380423,0.000000,0.400000,0.123607,0.380423,0.123607,0.380423,$1*%
G04 Aperture macros list end*
G04 #@! TA.AperFunction,ComponentPad*
%ADD10C,1.600000*%
G04 #@! TD*
G04 #@! TA.AperFunction,ComponentPad*
%ADD11R,1.600000X1.600000*%
G04 #@! TD*
G04 #@! TA.AperFunction,ComponentPad*
%ADD12O,1.600000X1.600000*%
G04 #@! TD*
G04 #@! TA.AperFunction,SMDPad,CuDef*
%ADD13FreePoly0,0.000000*%
G04 #@! TD*
G04 #@! TA.AperFunction,SMDPad,CuDef*
%ADD14FreePoly1,0.000000*%
G04 #@! TD*
G04 #@! TA.AperFunction,ComponentPad*
%ADD15C,1.400000*%
G04 #@! TD*
G04 #@! TA.AperFunction,ComponentPad*
%ADD16O,1.400000X1.400000*%
G04 #@! TD*
G04 #@! TA.AperFunction,ComponentPad*
%ADD17R,1.700000X1.700000*%
G04 #@! TD*
G04 #@! TA.AperFunction,ComponentPad*
%ADD18O,1.700000X1.700000*%
G04 #@! TD*
G04 #@! TA.AperFunction,ViaPad*
%ADD19C,0.800000*%
G04 #@! TD*
G04 #@! TA.AperFunction,Conductor*
%ADD20C,0.800000*%
G04 #@! TD*
G04 #@! TA.AperFunction,Conductor*
%ADD21C,0.250000*%
G04 #@! TD*
G04 APERTURE END LIST*
D10*
X140932000Y-88989000D03*
X140932000Y-83989000D03*
D11*
X132169000Y-55207000D03*
D12*
X129629000Y-55207000D03*
X127089000Y-55207000D03*
X124549000Y-55207000D03*
X122009000Y-55207000D03*
X119469000Y-55207000D03*
X116929000Y-55207000D03*
X114389000Y-55207000D03*
X111849000Y-55207000D03*
X109309000Y-55207000D03*
X106769000Y-55207000D03*
X104229000Y-55207000D03*
X101689000Y-55207000D03*
X99149000Y-55207000D03*
X96609000Y-55207000D03*
X94069000Y-55207000D03*
X94069000Y-70447000D03*
X96609000Y-70447000D03*
X99149000Y-70447000D03*
X101689000Y-70447000D03*
X104229000Y-70447000D03*
X106769000Y-70447000D03*
X109309000Y-70447000D03*
X111849000Y-70447000D03*
X114389000Y-70447000D03*
X116929000Y-70447000D03*
X119469000Y-70447000D03*
X122009000Y-70447000D03*
X124549000Y-70447000D03*
X127089000Y-70447000D03*
X129629000Y-70447000D03*
X132169000Y-70447000D03*
D13*
X130894600Y-104325600D03*
X128354600Y-104325600D03*
X125814600Y-104325600D03*
X123274600Y-104325600D03*
X120734600Y-104325600D03*
X118194600Y-104325600D03*
X115654600Y-104325600D03*
X113114600Y-104325600D03*
X110574600Y-104325600D03*
X108034600Y-104325600D03*
X105494600Y-104325600D03*
X102954600Y-104325600D03*
X100414600Y-104325600D03*
X97874600Y-104325600D03*
X95334600Y-104325600D03*
X92794600Y-104325600D03*
X90254600Y-104325600D03*
X87714600Y-104325600D03*
X85174600Y-104325600D03*
X82634600Y-104325600D03*
X80094600Y-104325600D03*
D14*
X77554600Y-104325600D03*
D13*
X75014600Y-104325600D03*
X72474600Y-104325600D03*
X69934600Y-104325600D03*
D10*
X82385000Y-77987000D03*
X82385000Y-72987000D03*
D11*
X137122000Y-81369000D03*
D12*
X134582000Y-81369000D03*
X132042000Y-81369000D03*
X129502000Y-81369000D03*
X126962000Y-81369000D03*
X124422000Y-81369000D03*
X121882000Y-81369000D03*
X119342000Y-81369000D03*
X119342000Y-88989000D03*
X121882000Y-88989000D03*
X124422000Y-88989000D03*
X126962000Y-88989000D03*
X129502000Y-88989000D03*
X132042000Y-88989000D03*
X134582000Y-88989000D03*
X137122000Y-88989000D03*
D11*
X80099000Y-89029000D03*
D10*
X80099000Y-91529000D03*
D15*
X76416000Y-87465000D03*
D16*
X76416000Y-82385000D03*
D15*
X68796000Y-87465000D03*
D16*
X68796000Y-82385000D03*
D15*
X71336000Y-87465000D03*
D16*
X71336000Y-82385000D03*
D15*
X73876000Y-87465000D03*
D16*
X73876000Y-82385000D03*
D10*
X136106000Y-70447000D03*
X136106000Y-65447000D03*
D15*
X66256000Y-87465000D03*
D16*
X66256000Y-82385000D03*
D17*
X143345000Y-57874000D03*
D18*
X143345000Y-55334000D03*
X143345000Y-52794000D03*
D11*
X78956000Y-70447000D03*
D12*
X76416000Y-70447000D03*
X73876000Y-70447000D03*
X71336000Y-70447000D03*
X68796000Y-70447000D03*
X66256000Y-70447000D03*
X63716000Y-70447000D03*
X61176000Y-70447000D03*
X58636000Y-70447000D03*
X56096000Y-70447000D03*
X56096000Y-78067000D03*
X58636000Y-78067000D03*
X61176000Y-78067000D03*
X63716000Y-78067000D03*
X66256000Y-78067000D03*
X68796000Y-78067000D03*
X71336000Y-78067000D03*
X73876000Y-78067000D03*
X76416000Y-78067000D03*
X78956000Y-78067000D03*
D19*
X84925000Y-69304000D03*
X88798495Y-65430505D03*
X76669992Y-96609008D03*
X88989000Y-77178000D03*
X119596000Y-68034000D03*
X128232000Y-72352000D03*
X127343000Y-102832000D03*
X70828000Y-102705000D03*
X66129000Y-89624000D03*
X89751000Y-101943000D03*
X135852000Y-79464000D03*
X50889000Y-72098000D03*
X132169000Y-102578000D03*
X131915000Y-98514000D03*
X141186000Y-68796000D03*
X83274000Y-99022000D03*
X84290000Y-51270000D03*
X140805000Y-51016000D03*
X128994000Y-68034000D03*
X141186000Y-64859000D03*
X111595000Y-51143000D03*
X51270000Y-51143000D03*
X57620000Y-102197000D03*
X116929000Y-101308000D03*
X51397000Y-89243000D03*
X54953000Y-68288000D03*
X72479000Y-91021000D03*
X95466000Y-72225000D03*
X134328000Y-57112000D03*
X129629000Y-57112000D03*
X132423000Y-72352000D03*
X143472000Y-99530000D03*
X119342000Y-102832000D03*
X87465000Y-69304000D03*
X136487000Y-77051000D03*
X139027000Y-62192000D03*
X124930000Y-62192000D03*
X96736000Y-87465000D03*
X81750000Y-82385000D03*
X93792300Y-60287000D03*
X83147000Y-63335000D03*
X81750000Y-84036000D03*
X106625200Y-63438100D03*
X135344000Y-93561000D03*
X111976000Y-92672000D03*
X109326800Y-92672000D03*
X111341000Y-98260000D03*
X112484000Y-97117000D03*
X108601700Y-72708400D03*
X117241000Y-91401990D03*
X140805000Y-61049000D03*
X130899000Y-91910000D03*
X104392100Y-71875300D03*
X108582600Y-69085000D03*
X107426400Y-87465000D03*
X102959000Y-59017000D03*
X101181000Y-59017000D03*
X100419000Y-87464998D03*
X98133000Y-59017000D03*
X77940000Y-58382000D03*
X86156200Y-78498900D03*
X84531000Y-81242000D03*
X85306002Y-79234600D03*
X82606500Y-102911300D03*
X81750000Y-86451600D03*
D20*
X82385000Y-78067000D02*
X79972000Y-78067000D01*
X80099000Y-78194000D02*
X79972000Y-78067000D01*
X132169000Y-67653000D02*
X129946505Y-65430505D01*
X132169000Y-70447000D02*
X132169000Y-67653000D01*
X141948000Y-88989000D02*
X143345000Y-87592000D01*
X143345000Y-87592000D02*
X143345000Y-70447000D01*
X140932000Y-88989000D02*
X141948000Y-88989000D01*
X82385000Y-77987000D02*
X84925000Y-75447000D01*
X79972000Y-78067000D02*
X78956000Y-78067000D01*
X76669992Y-92458008D02*
X76669992Y-96609008D01*
X137122000Y-88989000D02*
X140932000Y-88989000D01*
X143345000Y-70447000D02*
X143345000Y-57874000D01*
X129946505Y-65430505D02*
X88798495Y-65430505D01*
X80099000Y-89029000D02*
X80099000Y-78194000D01*
X136106000Y-70447000D02*
X132169000Y-70447000D01*
X84925000Y-75447000D02*
X84925000Y-69304000D01*
X84925000Y-69304000D02*
X84925000Y-69177000D01*
X143345000Y-70447000D02*
X136106000Y-70447000D01*
X80099000Y-89029000D02*
X76669992Y-92458008D01*
D21*
X124549000Y-70447000D02*
X112611000Y-82385000D01*
X112611000Y-82385000D02*
X81750000Y-82385000D01*
X77686000Y-74257000D02*
X77686000Y-68796000D01*
X122009000Y-60287000D02*
X93792300Y-60287000D01*
X73876000Y-78067000D02*
X77686000Y-74257000D01*
X127089000Y-55207000D02*
X122009000Y-60287000D01*
X77686000Y-68796000D02*
X83147000Y-63335000D01*
X129629000Y-55207000D02*
X123232900Y-61603100D01*
X71336000Y-75908000D02*
X71336000Y-78067000D01*
X80687900Y-61603100D02*
X75146000Y-67145000D01*
X123232900Y-61603100D02*
X80687900Y-61603100D01*
X75146000Y-72098000D02*
X71336000Y-75908000D01*
X75146000Y-67145000D02*
X75146000Y-72098000D01*
X113500000Y-84036000D02*
X81750000Y-84036000D01*
X127089000Y-70447000D02*
X113500000Y-84036000D01*
X64986000Y-76797000D02*
X64986000Y-67018000D01*
X130391000Y-52032000D02*
X132169000Y-53810000D01*
X132169000Y-53810000D02*
X132169000Y-55207000D01*
X79972000Y-52032000D02*
X130391000Y-52032000D01*
X66256000Y-78067000D02*
X66256000Y-82385000D01*
X66256000Y-78067000D02*
X64986000Y-76797000D01*
X64986000Y-67018000D02*
X79972000Y-52032000D01*
X141694000Y-62446000D02*
X140701900Y-63438100D01*
X143345000Y-55334000D02*
X142583000Y-55334000D01*
X140701900Y-63438100D02*
X106625200Y-63438100D01*
X142583000Y-55334000D02*
X141694000Y-56223000D01*
X141694000Y-56223000D02*
X141694000Y-62446000D01*
X133179700Y-83631800D02*
X133179700Y-99500500D01*
X132042000Y-82494100D02*
X133179700Y-83631800D01*
X132042000Y-81369000D02*
X132042000Y-82494100D01*
X133179700Y-99500500D02*
X128354600Y-104325600D01*
X135344000Y-93561000D02*
X135852000Y-93053000D01*
X135852000Y-93053000D02*
X135852000Y-82639000D01*
X135852000Y-82639000D02*
X137122000Y-81369000D01*
X115654600Y-96350600D02*
X111976000Y-92672000D01*
X115654600Y-104325600D02*
X115654600Y-96350600D01*
X113576501Y-96939501D02*
X109326800Y-92689800D01*
X108034600Y-104325600D02*
X108034600Y-103217400D01*
X108034600Y-103217400D02*
X113576501Y-97675499D01*
X113576501Y-97675499D02*
X113576501Y-96939501D01*
X109326800Y-92689800D02*
X109326800Y-92672000D01*
X105494600Y-103471400D02*
X110706000Y-98260000D01*
X105494600Y-104325600D02*
X105494600Y-103471400D01*
X110706000Y-98260000D02*
X111341000Y-98260000D01*
X102954600Y-103471400D02*
X109309000Y-97117000D01*
X109309000Y-97117000D02*
X112484000Y-97117000D01*
X102954600Y-104325600D02*
X102954600Y-103471400D01*
X110455400Y-70970600D02*
X108717600Y-72708400D01*
X130075700Y-69275000D02*
X110455400Y-69275000D01*
X134582000Y-80243900D02*
X130899000Y-76560900D01*
X108717600Y-72708400D02*
X108601700Y-72708400D01*
X130899000Y-70098300D02*
X130075700Y-69275000D01*
X82131000Y-67272000D02*
X78956000Y-70447000D01*
X108452400Y-67272000D02*
X82131000Y-67272000D01*
X110455400Y-69275000D02*
X108452400Y-67272000D01*
X130899000Y-76560900D02*
X130899000Y-70098300D01*
X134582000Y-81369000D02*
X134582000Y-80243900D01*
X110455400Y-69275000D02*
X110455400Y-70970600D01*
X106769000Y-91910000D02*
X116732990Y-91910000D01*
X100414600Y-98264400D02*
X106769000Y-91910000D01*
X116732990Y-91910000D02*
X117241000Y-91401990D01*
X100414600Y-104325600D02*
X100414600Y-98264400D01*
X107150000Y-90386000D02*
X129375000Y-90386000D01*
X130899000Y-54318000D02*
X130899000Y-56223000D01*
X106769000Y-52667000D02*
X129248000Y-52667000D01*
X129375000Y-90386000D02*
X130899000Y-91910000D01*
X97874600Y-104325600D02*
X97874600Y-99661400D01*
X135725000Y-61049000D02*
X140805000Y-61049000D01*
X129248000Y-52667000D02*
X130899000Y-54318000D01*
X130899000Y-56223000D02*
X135725000Y-61049000D01*
X104229000Y-55207000D02*
X106769000Y-52667000D01*
X97874600Y-99661400D02*
X107150000Y-90386000D01*
X106486100Y-69085000D02*
X108582600Y-69085000D01*
X105354200Y-70216900D02*
X106486100Y-69085000D01*
X104392100Y-71875300D02*
X105354200Y-70913200D01*
X105354200Y-70913200D02*
X105354200Y-70216900D01*
X95334600Y-104325600D02*
X95334600Y-99556800D01*
X95334600Y-99556800D02*
X107426400Y-87465000D01*
X102959000Y-59017000D02*
X113119000Y-59017000D01*
X113119000Y-59017000D02*
X116929000Y-55207000D01*
X92794600Y-95089398D02*
X100419000Y-87464998D01*
X111341000Y-58255000D02*
X101943000Y-58255000D01*
X114389000Y-55207000D02*
X111341000Y-58255000D01*
X101943000Y-58255000D02*
X101181000Y-59017000D01*
X92794600Y-104325600D02*
X92794600Y-95089398D01*
X75391000Y-87889569D02*
X75391000Y-85414700D01*
X98133000Y-58763000D02*
X98133000Y-59017000D01*
X90254600Y-104325600D02*
X86172200Y-100243200D01*
X75391000Y-85414700D02*
X72606000Y-82629700D01*
X72606000Y-75654000D02*
X76416000Y-71844000D01*
X86172200Y-100243200D02*
X75781000Y-100243200D01*
X75781000Y-100243200D02*
X75781000Y-88279569D01*
X76416000Y-71844000D02*
X76416000Y-70447000D01*
X101689000Y-55207000D02*
X98133000Y-58763000D01*
X75781000Y-88279569D02*
X75391000Y-87889569D01*
X72606000Y-82629700D02*
X72606000Y-75654000D01*
X69177000Y-90767000D02*
X69177000Y-97244000D01*
X84082400Y-100693400D02*
X87714600Y-104325600D01*
X71336000Y-70447000D02*
X71336000Y-64986000D01*
X69177000Y-97244000D02*
X72626400Y-100693400D01*
X72626400Y-100693400D02*
X84082400Y-100693400D01*
X71336000Y-73495000D02*
X70066000Y-74765000D01*
X70066000Y-74765000D02*
X70066000Y-89878000D01*
X71336000Y-64986000D02*
X77940000Y-58382000D01*
X70066000Y-89878000D02*
X69177000Y-90767000D01*
X71336000Y-70447000D02*
X71336000Y-73495000D01*
X99149000Y-73114000D02*
X93764100Y-78498900D01*
X93764100Y-78498900D02*
X86156200Y-78498900D01*
X99149000Y-70447000D02*
X99149000Y-73114000D01*
X72256600Y-101593600D02*
X82442600Y-101593600D01*
X67526000Y-96863000D02*
X72256600Y-101593600D01*
X67526000Y-72842100D02*
X67526000Y-96863000D01*
X82442600Y-101593600D02*
X85174600Y-104325600D01*
X66256000Y-71572100D02*
X67526000Y-72842100D01*
X66256000Y-70447000D02*
X66256000Y-71572100D01*
X104229000Y-70447000D02*
X93434000Y-81242000D01*
X93434000Y-81242000D02*
X84531000Y-81242000D01*
X101689000Y-71844000D02*
X94298400Y-79234600D01*
X82634600Y-102939400D02*
X82634600Y-104325600D01*
X94298400Y-79234600D02*
X85306002Y-79234600D01*
X82606500Y-102911300D02*
X82634600Y-102939400D01*
X101689000Y-70447000D02*
X101689000Y-71844000D01*
D20*
X75781000Y-102451000D02*
X76797000Y-102451000D01*
X77554600Y-103209000D02*
X77554600Y-104325600D01*
X75014600Y-104325600D02*
X75014600Y-103217000D01*
X76797000Y-102451000D02*
X77554600Y-103209000D01*
X75014600Y-103217000D02*
X75781000Y-102451000D01*
D21*
X121879400Y-86451600D02*
X81750000Y-86451600D01*
X126962000Y-81369000D02*
X121879400Y-86451600D01*
X129502000Y-80243900D02*
X129629000Y-80116900D01*
X129629000Y-80116900D02*
X129629000Y-70447000D01*
X129502000Y-81369000D02*
X129502000Y-80243900D01*
G04 #@! TA.AperFunction,Conductor*
G36*
X144615595Y-50273684D02*
G01*
X144651871Y-50309307D01*
X144848174Y-50603761D01*
X144868982Y-50670460D01*
X144869000Y-50672544D01*
X144869000Y-52321837D01*
X144849315Y-52388876D01*
X144796511Y-52434631D01*
X144727353Y-52444575D01*
X144663797Y-52415550D01*
X144626023Y-52356772D01*
X144625225Y-52353930D01*
X144618905Y-52330344D01*
X144618904Y-52330343D01*
X144618903Y-52330337D01*
X144519035Y-52116171D01*
X144383495Y-51922599D01*
X144383494Y-51922597D01*
X144216402Y-51755506D01*
X144216395Y-51755501D01*
X144022834Y-51619967D01*
X144022830Y-51619965D01*
X144011531Y-51614696D01*
X143808663Y-51520097D01*
X143808659Y-51520096D01*
X143808655Y-51520094D01*
X143580413Y-51458938D01*
X143580403Y-51458936D01*
X143345001Y-51438341D01*
X143344999Y-51438341D01*
X143109596Y-51458936D01*
X143109586Y-51458938D01*
X142881344Y-51520094D01*
X142881337Y-51520096D01*
X142881337Y-51520097D01*
X142877393Y-51521936D01*
X142667171Y-51619964D01*
X142667169Y-51619965D01*
X142473597Y-51755505D01*
X142306505Y-51922597D01*
X142170965Y-52116169D01*
X142170964Y-52116171D01*
X142071098Y-52330335D01*
X142071094Y-52330344D01*
X142009938Y-52558586D01*
X142009936Y-52558596D01*
X141989341Y-52793999D01*
X141989341Y-52794000D01*
X142009936Y-53029403D01*
X142009938Y-53029413D01*
X142071094Y-53257655D01*
X142071096Y-53257659D01*
X142071097Y-53257663D01*
X142127403Y-53378411D01*
X142170965Y-53471830D01*
X142170967Y-53471834D01*
X142306501Y-53665395D01*
X142306506Y-53665402D01*
X142473597Y-53832493D01*
X142473603Y-53832498D01*
X142659158Y-53962425D01*
X142702783Y-54017002D01*
X142709977Y-54086500D01*
X142678454Y-54148855D01*
X142659158Y-54165575D01*
X142473597Y-54295505D01*
X142306505Y-54462597D01*
X142170965Y-54656169D01*
X142170964Y-54656171D01*
X142071098Y-54870335D01*
X142071095Y-54870341D01*
X142046397Y-54962518D01*
X142014303Y-55018105D01*
X141310208Y-55722199D01*
X141297951Y-55732020D01*
X141298134Y-55732241D01*
X141292122Y-55737214D01*
X141246098Y-55786223D01*
X141243391Y-55789016D01*
X141223889Y-55808517D01*
X141223875Y-55808534D01*
X141221407Y-55811715D01*
X141213843Y-55820570D01*
X141183937Y-55852418D01*
X141183936Y-55852420D01*
X141174284Y-55869976D01*
X141163610Y-55886226D01*
X141151329Y-55902061D01*
X141151324Y-55902068D01*
X141133975Y-55942158D01*
X141128838Y-55952644D01*
X141107803Y-55990906D01*
X141102822Y-56010307D01*
X141096521Y-56028710D01*
X141088562Y-56047102D01*
X141088561Y-56047105D01*
X141081728Y-56090243D01*
X141079360Y-56101674D01*
X141068501Y-56143971D01*
X141068500Y-56143982D01*
X141068500Y-56164016D01*
X141066973Y-56183413D01*
X141063840Y-56203196D01*
X141064167Y-56206657D01*
X141067950Y-56246674D01*
X141068500Y-56258343D01*
X141068500Y-60031263D01*
X141048815Y-60098302D01*
X140996011Y-60144057D01*
X140926853Y-60154001D01*
X140918720Y-60152554D01*
X140899646Y-60148500D01*
X140710354Y-60148500D01*
X140684474Y-60154001D01*
X140525197Y-60187855D01*
X140525192Y-60187857D01*
X140352270Y-60264848D01*
X140352265Y-60264851D01*
X140199130Y-60376110D01*
X140199126Y-60376114D01*
X140193400Y-60382474D01*
X140133913Y-60419121D01*
X140101252Y-60423500D01*
X136035452Y-60423500D01*
X135968413Y-60403815D01*
X135947771Y-60387181D01*
X132279771Y-56719180D01*
X132246286Y-56657857D01*
X132251270Y-56588165D01*
X132293142Y-56532232D01*
X132358606Y-56507815D01*
X132367452Y-56507499D01*
X133016871Y-56507499D01*
X133016872Y-56507499D01*
X133076483Y-56501091D01*
X133211331Y-56450796D01*
X133326546Y-56364546D01*
X133412796Y-56249331D01*
X133463091Y-56114483D01*
X133469500Y-56054873D01*
X133469499Y-54359128D01*
X133463091Y-54299517D01*
X133428567Y-54206954D01*
X133412797Y-54164671D01*
X133412793Y-54164664D01*
X133326547Y-54049455D01*
X133326544Y-54049452D01*
X133211335Y-53963206D01*
X133211328Y-53963202D01*
X133076482Y-53912908D01*
X133076483Y-53912908D01*
X133016883Y-53906501D01*
X133016881Y-53906500D01*
X133016873Y-53906500D01*
X133016865Y-53906500D01*
X132918500Y-53906500D01*
X132851461Y-53886815D01*
X132805706Y-53834011D01*
X132794500Y-53782500D01*
X132794500Y-53770656D01*
X132794500Y-53770650D01*
X132793996Y-53766668D01*
X132793081Y-53755029D01*
X132792105Y-53723963D01*
X132791710Y-53711373D01*
X132786119Y-53692130D01*
X132782173Y-53673078D01*
X132779664Y-53653208D01*
X132763579Y-53612583D01*
X132759806Y-53601562D01*
X132747618Y-53559610D01*
X132747617Y-53559609D01*
X132747617Y-53559607D01*
X132747616Y-53559606D01*
X132737423Y-53542371D01*
X132728861Y-53524894D01*
X132721487Y-53506269D01*
X132695816Y-53470937D01*
X132689405Y-53461177D01*
X132667170Y-53423580D01*
X132667168Y-53423578D01*
X132667165Y-53423574D01*
X132653006Y-53409415D01*
X132640368Y-53394619D01*
X132628594Y-53378413D01*
X132594940Y-53350572D01*
X132586299Y-53342709D01*
X130891803Y-51648212D01*
X130881980Y-51635950D01*
X130881759Y-51636134D01*
X130876786Y-51630122D01*
X130827776Y-51584099D01*
X130824977Y-51581386D01*
X130805477Y-51561885D01*
X130805471Y-51561880D01*
X130802286Y-51559409D01*
X130793434Y-51551848D01*
X130761582Y-51521938D01*
X130761580Y-51521936D01*
X130761577Y-51521935D01*
X130744029Y-51512288D01*
X130727763Y-51501604D01*
X130711932Y-51489324D01*
X130671849Y-51471978D01*
X130661363Y-51466841D01*
X130623094Y-51445803D01*
X130623092Y-51445802D01*
X130603693Y-51440822D01*
X130585281Y-51434518D01*
X130566898Y-51426562D01*
X130566892Y-51426560D01*
X130523760Y-51419729D01*
X130512322Y-51417361D01*
X130470020Y-51406500D01*
X130470019Y-51406500D01*
X130449984Y-51406500D01*
X130430586Y-51404973D01*
X130423162Y-51403797D01*
X130410805Y-51401840D01*
X130410804Y-51401840D01*
X130367325Y-51405950D01*
X130355656Y-51406500D01*
X80054737Y-51406500D01*
X80039120Y-51404776D01*
X80039093Y-51405062D01*
X80031331Y-51404327D01*
X79964144Y-51406439D01*
X79960250Y-51406500D01*
X79932650Y-51406500D01*
X79928962Y-51406965D01*
X79928649Y-51407005D01*
X79917031Y-51407918D01*
X79873372Y-51409290D01*
X79873369Y-51409291D01*
X79854126Y-51414881D01*
X79835083Y-51418825D01*
X79815204Y-51421336D01*
X79815203Y-51421337D01*
X79774593Y-51437415D01*
X79763548Y-51441197D01*
X79721608Y-51453383D01*
X79721604Y-51453385D01*
X79704365Y-51463580D01*
X79686898Y-51472137D01*
X79668269Y-51479512D01*
X79668267Y-51479514D01*
X79632926Y-51505189D01*
X79623168Y-51511599D01*
X79585580Y-51533828D01*
X79571408Y-51548000D01*
X79556623Y-51560628D01*
X79540412Y-51572407D01*
X79512571Y-51606059D01*
X79504711Y-51614696D01*
X64602208Y-66517199D01*
X64589951Y-66527020D01*
X64590134Y-66527241D01*
X64584122Y-66532214D01*
X64538098Y-66581223D01*
X64535391Y-66584016D01*
X64515889Y-66603517D01*
X64515875Y-66603534D01*
X64513407Y-66606715D01*
X64505843Y-66615570D01*
X64475937Y-66647418D01*
X64475936Y-66647420D01*
X64466284Y-66664976D01*
X64455610Y-66681226D01*
X64443329Y-66697061D01*
X64443324Y-66697068D01*
X64425975Y-66737158D01*
X64420838Y-66747644D01*
X64399803Y-66785906D01*
X64394822Y-66805307D01*
X64388521Y-66823710D01*
X64380562Y-66842102D01*
X64380561Y-66842105D01*
X64373728Y-66885243D01*
X64371360Y-66896674D01*
X64360501Y-66938971D01*
X64360500Y-66938982D01*
X64360500Y-66959016D01*
X64358973Y-66978413D01*
X64358704Y-66980112D01*
X64355840Y-66998194D01*
X64355840Y-66998195D01*
X64359950Y-67041674D01*
X64360500Y-67053343D01*
X64360500Y-69117950D01*
X64340815Y-69184989D01*
X64288011Y-69230744D01*
X64218853Y-69240688D01*
X64184099Y-69230334D01*
X64162498Y-69220262D01*
X64162488Y-69220258D01*
X63942697Y-69161366D01*
X63942693Y-69161365D01*
X63942692Y-69161365D01*
X63942691Y-69161364D01*
X63942686Y-69161364D01*
X63716002Y-69141532D01*
X63715998Y-69141532D01*
X63489313Y-69161364D01*
X63489302Y-69161366D01*
X63269511Y-69220258D01*
X63269502Y-69220261D01*
X63063267Y-69316431D01*
X63063265Y-69316432D01*
X62876858Y-69446954D01*
X62715954Y-69607858D01*
X62585432Y-69794265D01*
X62585431Y-69794267D01*
X62558382Y-69852275D01*
X62512209Y-69904714D01*
X62445016Y-69923866D01*
X62378135Y-69903650D01*
X62333618Y-69852275D01*
X62306686Y-69794520D01*
X62306568Y-69794266D01*
X62176047Y-69607861D01*
X62176045Y-69607858D01*
X62015141Y-69446954D01*
X61828734Y-69316432D01*
X61828732Y-69316431D01*
X61622497Y-69220261D01*
X61622488Y-69220258D01*
X61402697Y-69161366D01*
X61402693Y-69161365D01*
X61402692Y-69161365D01*
X61402691Y-69161364D01*
X61402686Y-69161364D01*
X61176002Y-69141532D01*
X61175998Y-69141532D01*
X60949313Y-69161364D01*
X60949302Y-69161366D01*
X60729511Y-69220258D01*
X60729502Y-69220261D01*
X60523267Y-69316431D01*
X60523265Y-69316432D01*
X60336858Y-69446954D01*
X60175954Y-69607858D01*
X60045432Y-69794265D01*
X60045431Y-69794267D01*
X60018382Y-69852275D01*
X59972209Y-69904714D01*
X59905016Y-69923866D01*
X59838135Y-69903650D01*
X59793618Y-69852275D01*
X59766686Y-69794520D01*
X59766568Y-69794266D01*
X59636047Y-69607861D01*
X59636045Y-69607858D01*
X59475141Y-69446954D01*
X59288734Y-69316432D01*
X59288732Y-69316431D01*
X59082497Y-69220261D01*
X59082488Y-69220258D01*
X58862697Y-69161366D01*
X58862693Y-69161365D01*
X58862692Y-69161365D01*
X58862691Y-69161364D01*
X58862686Y-69161364D01*
X58636002Y-69141532D01*
X58635998Y-69141532D01*
X58409313Y-69161364D01*
X58409302Y-69161366D01*
X58189511Y-69220258D01*
X58189502Y-69220261D01*
X57983267Y-69316431D01*
X57983265Y-69316432D01*
X57796858Y-69446954D01*
X57635954Y-69607858D01*
X57505433Y-69794264D01*
X57505432Y-69794266D01*
X57505315Y-69794518D01*
X57478106Y-69852867D01*
X57431933Y-69905306D01*
X57364739Y-69924457D01*
X57297858Y-69904241D01*
X57253342Y-69852865D01*
X57226135Y-69794520D01*
X57226134Y-69794518D01*
X57095657Y-69608179D01*
X56934820Y-69447342D01*
X56748482Y-69316865D01*
X56542328Y-69220734D01*
X56346000Y-69168127D01*
X56346000Y-70131314D01*
X56334045Y-70119359D01*
X56221148Y-70061835D01*
X56127481Y-70047000D01*
X56064519Y-70047000D01*
X55970852Y-70061835D01*
X55857955Y-70119359D01*
X55846000Y-70131314D01*
X55846000Y-69168127D01*
X55649671Y-69220734D01*
X55443517Y-69316865D01*
X55257179Y-69447342D01*
X55096342Y-69608179D01*
X54965865Y-69794517D01*
X54869734Y-70000673D01*
X54869730Y-70000682D01*
X54817127Y-70196999D01*
X54817128Y-70197000D01*
X55780314Y-70197000D01*
X55768359Y-70208955D01*
X55710835Y-70321852D01*
X55691014Y-70447000D01*
X55710835Y-70572148D01*
X55768359Y-70685045D01*
X55780314Y-70697000D01*
X54817128Y-70697000D01*
X54869730Y-70893317D01*
X54869734Y-70893326D01*
X54965865Y-71099482D01*
X55096342Y-71285820D01*
X55257179Y-71446657D01*
X55443517Y-71577134D01*
X55649673Y-71673265D01*
X55649682Y-71673269D01*
X55845999Y-71725872D01*
X55846000Y-71725871D01*
X55846000Y-70762686D01*
X55857955Y-70774641D01*
X55970852Y-70832165D01*
X56064519Y-70847000D01*
X56127481Y-70847000D01*
X56221148Y-70832165D01*
X56334045Y-70774641D01*
X56346000Y-70762686D01*
X56346000Y-71725872D01*
X56542317Y-71673269D01*
X56542326Y-71673265D01*
X56748482Y-71577134D01*
X56934820Y-71446657D01*
X57095657Y-71285820D01*
X57226132Y-71099484D01*
X57253341Y-71041134D01*
X57299513Y-70988695D01*
X57366707Y-70969542D01*
X57433588Y-70989757D01*
X57478106Y-71041133D01*
X57505431Y-71099732D01*
X57505432Y-71099734D01*
X57635954Y-71286141D01*
X57796858Y-71447045D01*
X57817312Y-71461367D01*
X57983266Y-71577568D01*
X58189504Y-71673739D01*
X58189509Y-71673740D01*
X58189511Y-71673741D01*
X58242415Y-71687916D01*
X58409308Y-71732635D01*
X58566780Y-71746412D01*
X58635998Y-71752468D01*
X58636000Y-71752468D01*
X58636002Y-71752468D01*
X58705220Y-71746412D01*
X58862692Y-71732635D01*
X59082496Y-71673739D01*
X59288734Y-71577568D01*
X59475139Y-71447047D01*
X59636047Y-71286139D01*
X59766568Y-71099734D01*
X59793618Y-71041724D01*
X59839790Y-70989285D01*
X59906983Y-70970133D01*
X59973865Y-70990348D01*
X60018382Y-71041725D01*
X60045429Y-71099728D01*
X60045432Y-71099734D01*
X60175954Y-71286141D01*
X60336858Y-71447045D01*
X60357312Y-71461367D01*
X60523266Y-71577568D01*
X60729504Y-71673739D01*
X60729509Y-71673740D01*
X60729511Y-71673741D01*
X60782415Y-71687916D01*
X60949308Y-71732635D01*
X61106780Y-71746412D01*
X61175998Y-71752468D01*
X61176000Y-71752468D01*
X61176002Y-71752468D01*
X61245220Y-71746412D01*
X61402692Y-71732635D01*
X61622496Y-71673739D01*
X61828734Y-71577568D01*
X62015139Y-71447047D01*
X62176047Y-71286139D01*
X62306568Y-71099734D01*
X62333618Y-71041724D01*
X62379790Y-70989285D01*
X62446983Y-70970133D01*
X62513865Y-70990348D01*
X62558382Y-71041725D01*
X62585429Y-71099728D01*
X62585432Y-71099734D01*
X62715954Y-71286141D01*
X62876858Y-71447045D01*
X62897312Y-71461367D01*
X63063266Y-71577568D01*
X63269504Y-71673739D01*
X63269509Y-71673740D01*
X63269511Y-71673741D01*
X63322415Y-71687916D01*
X63489308Y-71732635D01*
X63646780Y-71746412D01*
X63715998Y-71752468D01*
X63716000Y-71752468D01*
X63716002Y-71752468D01*
X63785220Y-71746412D01*
X63942692Y-71732635D01*
X64162496Y-71673739D01*
X64184093Y-71663667D01*
X64253169Y-71653173D01*
X64316954Y-71681691D01*
X64355195Y-71740167D01*
X64360500Y-71776048D01*
X64360500Y-76714255D01*
X64358775Y-76729872D01*
X64359061Y-76729899D01*
X64357593Y-76745432D01*
X64355016Y-76745188D01*
X64340602Y-76800641D01*
X64289255Y-76848025D01*
X64220441Y-76860127D01*
X64181838Y-76849280D01*
X64162498Y-76840262D01*
X64162488Y-76840258D01*
X63942697Y-76781366D01*
X63942693Y-76781365D01*
X63942692Y-76781365D01*
X63942691Y-76781364D01*
X63942686Y-76781364D01*
X63716002Y-76761532D01*
X63715998Y-76761532D01*
X63489313Y-76781364D01*
X63489302Y-76781366D01*
X63269511Y-76840258D01*
X63269502Y-76840261D01*
X63063267Y-76936431D01*
X63063265Y-76936432D01*
X62876858Y-77066954D01*
X62715954Y-77227858D01*
X62585432Y-77414265D01*
X62585431Y-77414267D01*
X62558382Y-77472275D01*
X62512209Y-77524714D01*
X62445016Y-77543866D01*
X62378135Y-77523650D01*
X62333618Y-77472275D01*
X62306568Y-77414267D01*
X62306567Y-77414265D01*
X62176045Y-77227858D01*
X62015141Y-77066954D01*
X61828734Y-76936432D01*
X61828732Y-76936431D01*
X61622497Y-76840261D01*
X61622488Y-76840258D01*
X61402697Y-76781366D01*
X61402693Y-76781365D01*
X61402692Y-76781365D01*
X61402691Y-76781364D01*
X61402686Y-76781364D01*
X61176002Y-76761532D01*
X61175998Y-76761532D01*
X60949313Y-76781364D01*
X60949302Y-76781366D01*
X60729511Y-76840258D01*
X60729502Y-76840261D01*
X60523267Y-76936431D01*
X60523265Y-76936432D01*
X60336858Y-77066954D01*
X60175954Y-77227858D01*
X60045432Y-77414265D01*
X60045431Y-77414267D01*
X60018382Y-77472275D01*
X59972209Y-77524714D01*
X59905016Y-77543866D01*
X59838135Y-77523650D01*
X59793618Y-77472275D01*
X59766568Y-77414267D01*
X59766567Y-77414265D01*
X59636045Y-77227858D01*
X59475141Y-77066954D01*
X59288734Y-76936432D01*
X59288732Y-76936431D01*
X59082497Y-76840261D01*
X59082488Y-76840258D01*
X58862697Y-76781366D01*
X58862693Y-76781365D01*
X58862692Y-76781365D01*
X58862691Y-76781364D01*
X58862686Y-76781364D01*
X58636002Y-76761532D01*
X58635998Y-76761532D01*
X58409313Y-76781364D01*
X58409302Y-76781366D01*
X58189511Y-76840258D01*
X58189502Y-76840261D01*
X57983267Y-76936431D01*
X57983265Y-76936432D01*
X57796858Y-77066954D01*
X57635954Y-77227858D01*
X57505432Y-77414265D01*
X57505431Y-77414267D01*
X57478382Y-77472275D01*
X57432209Y-77524714D01*
X57365016Y-77543866D01*
X57298135Y-77523650D01*
X57253618Y-77472275D01*
X57226568Y-77414267D01*
X57226567Y-77414265D01*
X57096045Y-77227858D01*
X56935141Y-77066954D01*
X56748734Y-76936432D01*
X56748732Y-76936431D01*
X56542497Y-76840261D01*
X56542488Y-76840258D01*
X56322697Y-76781366D01*
X56322693Y-76781365D01*
X56322692Y-76781365D01*
X56322691Y-76781364D01*
X56322686Y-76781364D01*
X56096002Y-76761532D01*
X56095998Y-76761532D01*
X55869313Y-76781364D01*
X55869302Y-76781366D01*
X55649511Y-76840258D01*
X55649502Y-76840261D01*
X55443267Y-76936431D01*
X55443265Y-76936432D01*
X55256858Y-77066954D01*
X55095954Y-77227858D01*
X54965432Y-77414265D01*
X54965431Y-77414267D01*
X54869261Y-77620502D01*
X54869258Y-77620511D01*
X54810366Y-77840302D01*
X54810364Y-77840313D01*
X54790532Y-78066998D01*
X54790532Y-78067001D01*
X54810364Y-78293686D01*
X54810366Y-78293697D01*
X54869258Y-78513488D01*
X54869261Y-78513497D01*
X54965431Y-78719732D01*
X54965432Y-78719734D01*
X55095954Y-78906141D01*
X55256858Y-79067045D01*
X55256861Y-79067047D01*
X55443266Y-79197568D01*
X55649504Y-79293739D01*
X55869308Y-79352635D01*
X56031230Y-79366801D01*
X56095998Y-79372468D01*
X56096000Y-79372468D01*
X56096002Y-79372468D01*
X56152673Y-79367509D01*
X56322692Y-79352635D01*
X56542496Y-79293739D01*
X56748734Y-79197568D01*
X56935139Y-79067047D01*
X57096047Y-78906139D01*
X57226568Y-78719734D01*
X57253618Y-78661724D01*
X57299790Y-78609285D01*
X57366983Y-78590133D01*
X57433865Y-78610348D01*
X57478382Y-78661725D01*
X57505429Y-78719728D01*
X57505432Y-78719734D01*
X57635954Y-78906141D01*
X57796858Y-79067045D01*
X57796861Y-79067047D01*
X57983266Y-79197568D01*
X58189504Y-79293739D01*
X58409308Y-79352635D01*
X58571230Y-79366801D01*
X58635998Y-79372468D01*
X58636000Y-79372468D01*
X58636002Y-79372468D01*
X58692673Y-79367509D01*
X58862692Y-79352635D01*
X59082496Y-79293739D01*
X59288734Y-79197568D01*
X59475139Y-79067047D01*
X59636047Y-78906139D01*
X59766568Y-78719734D01*
X59793618Y-78661724D01*
X59839790Y-78609285D01*
X59906983Y-78590133D01*
X59973865Y-78610348D01*
X60018382Y-78661725D01*
X60045429Y-78719728D01*
X60045432Y-78719734D01*
X60175954Y-78906141D01*
X60336858Y-79067045D01*
X60336861Y-79067047D01*
X60523266Y-79197568D01*
X60729504Y-79293739D01*
X60949308Y-79352635D01*
X61111230Y-79366801D01*
X61175998Y-79372468D01*
X61176000Y-79372468D01*
X61176002Y-79372468D01*
X61232673Y-79367509D01*
X61402692Y-79352635D01*
X61622496Y-79293739D01*
X61828734Y-79197568D01*
X62015139Y-79067047D01*
X62176047Y-78906139D01*
X62306568Y-78719734D01*
X62333618Y-78661724D01*
X62379790Y-78609285D01*
X62446983Y-78590133D01*
X62513865Y-78610348D01*
X62558382Y-78661725D01*
X62585429Y-78719728D01*
X62585432Y-78719734D01*
X62715954Y-78906141D01*
X62876858Y-79067045D01*
X62876861Y-79067047D01*
X63063266Y-79197568D01*
X63269504Y-79293739D01*
X63489308Y-79352635D01*
X63651230Y-79366801D01*
X63715998Y-79372468D01*
X63716000Y-79372468D01*
X63716002Y-79372468D01*
X63772673Y-79367509D01*
X63942692Y-79352635D01*
X64162496Y-79293739D01*
X64368734Y-79197568D01*
X64555139Y-79067047D01*
X64716047Y-78906139D01*
X64846568Y-78719734D01*
X64873618Y-78661724D01*
X64919790Y-78609285D01*
X64986983Y-78590133D01*
X65053865Y-78610348D01*
X65098382Y-78661725D01*
X65125429Y-78719728D01*
X65125432Y-78719734D01*
X65255954Y-78906141D01*
X65416858Y-79067045D01*
X65577623Y-79179613D01*
X65621248Y-79234189D01*
X65630500Y-79281188D01*
X65630500Y-81291233D01*
X65610815Y-81358272D01*
X65571778Y-81396660D01*
X65529436Y-81422877D01*
X65365020Y-81572761D01*
X65230943Y-81750308D01*
X65230938Y-81750316D01*
X65131775Y-81949461D01*
X65131769Y-81949476D01*
X65070885Y-82163462D01*
X65070884Y-82163464D01*
X65050357Y-82384999D01*
X65050357Y-82385000D01*
X65070884Y-82606535D01*
X65070885Y-82606537D01*
X65131769Y-82820523D01*
X65131775Y-82820538D01*
X65230938Y-83019683D01*
X65230943Y-83019691D01*
X65365020Y-83197238D01*
X65529437Y-83347123D01*
X65529439Y-83347125D01*
X65718595Y-83464245D01*
X65718596Y-83464245D01*
X65718599Y-83464247D01*
X65926060Y-83544618D01*
X66144757Y-83585500D01*
X66144759Y-83585500D01*
X66367241Y-83585500D01*
X66367243Y-83585500D01*
X66585940Y-83544618D01*
X66731708Y-83488146D01*
X66801329Y-83482285D01*
X66863070Y-83514995D01*
X66897325Y-83575891D01*
X66900500Y-83603774D01*
X66900500Y-86246760D01*
X66880815Y-86313799D01*
X66828011Y-86359554D01*
X66758853Y-86369498D01*
X66731706Y-86362387D01*
X66585805Y-86305865D01*
X66367193Y-86265000D01*
X66144807Y-86265000D01*
X65926195Y-86305865D01*
X65718824Y-86386200D01*
X65718823Y-86386201D01*
X65602671Y-86458119D01*
X66256000Y-87111447D01*
X66259553Y-87115000D01*
X66226995Y-87115000D01*
X66140784Y-87129386D01*
X66038053Y-87184981D01*
X65958940Y-87270921D01*
X65912018Y-87377892D01*
X65902372Y-87494302D01*
X65931047Y-87607538D01*
X65994936Y-87705327D01*
X66087115Y-87777072D01*
X66197595Y-87815000D01*
X66259551Y-87815000D01*
X65602672Y-88471879D01*
X65602672Y-88471880D01*
X65718821Y-88543797D01*
X65718822Y-88543798D01*
X65926195Y-88624134D01*
X66144807Y-88665000D01*
X66367193Y-88665000D01*
X66585809Y-88624133D01*
X66731706Y-88567613D01*
X66801329Y-88561750D01*
X66863069Y-88594460D01*
X66897324Y-88655356D01*
X66900500Y-88683239D01*
X66900500Y-96780255D01*
X66898775Y-96795872D01*
X66899061Y-96795899D01*
X66898326Y-96803665D01*
X66900439Y-96870872D01*
X66900500Y-96874767D01*
X66900500Y-96902357D01*
X66901003Y-96906335D01*
X66901918Y-96917967D01*
X66903290Y-96961624D01*
X66903291Y-96961627D01*
X66908880Y-96980867D01*
X66912824Y-96999911D01*
X66913917Y-97008555D01*
X66915336Y-97019792D01*
X66931414Y-97060403D01*
X66935197Y-97071452D01*
X66947381Y-97113388D01*
X66957580Y-97130634D01*
X66966138Y-97148103D01*
X66973514Y-97166732D01*
X66999181Y-97202060D01*
X67005593Y-97211821D01*
X67027828Y-97249417D01*
X67027833Y-97249424D01*
X67041990Y-97263580D01*
X67054628Y-97278376D01*
X67066405Y-97294586D01*
X67066406Y-97294587D01*
X67100057Y-97322425D01*
X67108698Y-97330288D01*
X71755794Y-101977384D01*
X71765619Y-101989648D01*
X71765840Y-101989466D01*
X71770810Y-101995474D01*
X71819839Y-102041515D01*
X71822636Y-102044226D01*
X71842130Y-102063720D01*
X71845295Y-102066175D01*
X71854171Y-102073756D01*
X71886018Y-102103662D01*
X71886022Y-102103664D01*
X71903573Y-102113313D01*
X71919831Y-102123992D01*
X71935664Y-102136274D01*
X71971010Y-102151568D01*
X71975755Y-102153622D01*
X71986235Y-102158755D01*
X72024508Y-102179797D01*
X72043912Y-102184779D01*
X72062310Y-102191078D01*
X72080705Y-102199038D01*
X72123854Y-102205871D01*
X72135280Y-102208238D01*
X72177581Y-102219100D01*
X72197616Y-102219100D01*
X72217013Y-102220626D01*
X72236796Y-102223760D01*
X72280275Y-102219650D01*
X72291944Y-102219100D01*
X74439716Y-102219100D01*
X74506755Y-102238785D01*
X74552510Y-102291589D01*
X74562454Y-102360747D01*
X74533429Y-102424303D01*
X74527387Y-102430791D01*
X74470829Y-102487319D01*
X74434949Y-102523180D01*
X74420182Y-102535789D01*
X74408733Y-102544107D01*
X74363439Y-102594411D01*
X74358950Y-102599139D01*
X74344641Y-102613440D01*
X74331726Y-102629380D01*
X74327547Y-102634272D01*
X74310111Y-102653638D01*
X74282062Y-102684789D01*
X74275117Y-102696818D01*
X74264087Y-102712863D01*
X74255345Y-102723653D01*
X74224482Y-102784185D01*
X74221402Y-102789856D01*
X74187422Y-102848713D01*
X74187421Y-102848715D01*
X74183130Y-102861922D01*
X74175672Y-102879919D01*
X74169365Y-102892289D01*
X74151761Y-102957920D01*
X74149926Y-102964112D01*
X74128926Y-103028743D01*
X74127473Y-103042559D01*
X74123921Y-103061705D01*
X74120323Y-103075120D01*
X74120323Y-103075123D01*
X74116750Y-103142974D01*
X74116243Y-103149409D01*
X74114100Y-103169800D01*
X74114100Y-103190049D01*
X74113928Y-103196571D01*
X74110369Y-103264144D01*
X74110369Y-103264155D01*
X74112578Y-103278120D01*
X74114100Y-103297488D01*
X74114100Y-103470000D01*
X74094415Y-103537039D01*
X74041611Y-103582794D01*
X73990100Y-103594000D01*
X73047588Y-103594000D01*
X72980549Y-103574315D01*
X72976143Y-103571349D01*
X72951766Y-103554165D01*
X72942205Y-103547424D01*
X72829315Y-103489904D01*
X72829307Y-103489900D01*
X72816346Y-103483528D01*
X72678847Y-103441013D01*
X72678844Y-103441012D01*
X72678832Y-103441009D01*
X72553753Y-103421199D01*
X72539405Y-103419136D01*
X72395507Y-103421191D01*
X72270378Y-103441009D01*
X72270353Y-103441013D01*
X72256122Y-103443476D01*
X72119893Y-103489900D01*
X72017785Y-103541927D01*
X72006951Y-103547447D01*
X71994232Y-103554158D01*
X71994220Y-103554165D01*
X71982620Y-103562849D01*
X71974048Y-103569266D01*
X71908586Y-103593684D01*
X71899738Y-103594000D01*
X70507588Y-103594000D01*
X70440549Y-103574315D01*
X70436143Y-103571349D01*
X70411766Y-103554165D01*
X70402205Y-103547424D01*
X70289315Y-103489904D01*
X70289307Y-103489900D01*
X70276346Y-103483528D01*
X70138847Y-103441013D01*
X70138844Y-103441012D01*
X70138832Y-103441009D01*
X70013753Y-103421199D01*
X69999405Y-103419136D01*
X69855507Y-103421191D01*
X69730378Y-103441009D01*
X69730353Y-103441013D01*
X69716122Y-103443476D01*
X69579893Y-103489900D01*
X69477785Y-103541927D01*
X69466951Y-103547447D01*
X69454232Y-103554158D01*
X69454220Y-103554165D01*
X69442620Y-103562849D01*
X69434048Y-103569266D01*
X69368586Y-103593684D01*
X69359738Y-103594000D01*
X68085362Y-103594000D01*
X68018323Y-103574315D01*
X67997681Y-103557681D01*
X67526000Y-103086000D01*
X57036362Y-103086000D01*
X56969323Y-103066315D01*
X56948681Y-103049681D01*
X56640319Y-102741319D01*
X56606834Y-102679996D01*
X56604000Y-102653638D01*
X56604000Y-90894000D01*
X55969000Y-90259000D01*
X50686362Y-90259000D01*
X50619323Y-90239315D01*
X50598681Y-90222681D01*
X50290319Y-89914319D01*
X50256834Y-89852996D01*
X50254000Y-89826638D01*
X50254000Y-87465000D01*
X65050859Y-87465000D01*
X65071378Y-87686439D01*
X65132240Y-87900350D01*
X65231369Y-88099428D01*
X65247137Y-88120308D01*
X65247138Y-88120308D01*
X65902447Y-87465000D01*
X65247138Y-86809691D01*
X65247137Y-86809691D01*
X65231368Y-86830574D01*
X65132240Y-87029649D01*
X65071378Y-87243560D01*
X65050859Y-87464999D01*
X65050859Y-87465000D01*
X50254000Y-87465000D01*
X50254000Y-51067362D01*
X50273685Y-51000323D01*
X50290319Y-50979681D01*
X50852752Y-50417247D01*
X50914073Y-50383764D01*
X50940257Y-50380930D01*
X144548529Y-50254090D01*
X144615595Y-50273684D01*
G37*
G04 #@! TD.AperFunction*
G04 #@! TA.AperFunction,Conductor*
G36*
X99494561Y-87096785D02*
G01*
X99540316Y-87149589D01*
X99550260Y-87218747D01*
X99545453Y-87239417D01*
X99533327Y-87276736D01*
X99515678Y-87444649D01*
X99489093Y-87509264D01*
X99480038Y-87519368D01*
X92410808Y-94588597D01*
X92398551Y-94598418D01*
X92398734Y-94598639D01*
X92392722Y-94603612D01*
X92346698Y-94652621D01*
X92343991Y-94655414D01*
X92324489Y-94674915D01*
X92324475Y-94674932D01*
X92322007Y-94678113D01*
X92314443Y-94686968D01*
X92284537Y-94718816D01*
X92284536Y-94718818D01*
X92274884Y-94736374D01*
X92264210Y-94752624D01*
X92251929Y-94768459D01*
X92251924Y-94768466D01*
X92234575Y-94808556D01*
X92229438Y-94819042D01*
X92208403Y-94857304D01*
X92203422Y-94876705D01*
X92197121Y-94895108D01*
X92189162Y-94913500D01*
X92189161Y-94913503D01*
X92182328Y-94956641D01*
X92179960Y-94968072D01*
X92169101Y-95010369D01*
X92169100Y-95010380D01*
X92169100Y-95030414D01*
X92167573Y-95049813D01*
X92164440Y-95069592D01*
X92164440Y-95069593D01*
X92168550Y-95113072D01*
X92169100Y-95124741D01*
X92169100Y-103470000D01*
X92149415Y-103537039D01*
X92096611Y-103582794D01*
X92045100Y-103594000D01*
X90827588Y-103594000D01*
X90760549Y-103574315D01*
X90756143Y-103571349D01*
X90731766Y-103554165D01*
X90722205Y-103547424D01*
X90609315Y-103489904D01*
X90609307Y-103489900D01*
X90596346Y-103483528D01*
X90458847Y-103441013D01*
X90458844Y-103441012D01*
X90458832Y-103441009D01*
X90333753Y-103421199D01*
X90319404Y-103419136D01*
X90286342Y-103419608D01*
X90219029Y-103400882D01*
X90196893Y-103383302D01*
X86673003Y-99859412D01*
X86663180Y-99847150D01*
X86662959Y-99847334D01*
X86657986Y-99841322D01*
X86608976Y-99795299D01*
X86606177Y-99792586D01*
X86586677Y-99773085D01*
X86586671Y-99773080D01*
X86583486Y-99770609D01*
X86574634Y-99763048D01*
X86542782Y-99733138D01*
X86542780Y-99733136D01*
X86542777Y-99733135D01*
X86525229Y-99723488D01*
X86508963Y-99712804D01*
X86493132Y-99700524D01*
X86453049Y-99683178D01*
X86442563Y-99678041D01*
X86404294Y-99657003D01*
X86404292Y-99657002D01*
X86384893Y-99652022D01*
X86366481Y-99645718D01*
X86348098Y-99637762D01*
X86348092Y-99637760D01*
X86304960Y-99630929D01*
X86293522Y-99628561D01*
X86251220Y-99617700D01*
X86251219Y-99617700D01*
X86231184Y-99617700D01*
X86211786Y-99616173D01*
X86204362Y-99614997D01*
X86192005Y-99613040D01*
X86192004Y-99613040D01*
X86148525Y-99617150D01*
X86136856Y-99617700D01*
X76530500Y-99617700D01*
X76463461Y-99598015D01*
X76417706Y-99545211D01*
X76406500Y-99493700D01*
X76406500Y-97626745D01*
X76426185Y-97559706D01*
X76478989Y-97513951D01*
X76548147Y-97504007D01*
X76556250Y-97505448D01*
X76575346Y-97509508D01*
X76575350Y-97509508D01*
X76764636Y-97509508D01*
X76764638Y-97509508D01*
X76949795Y-97470152D01*
X77122722Y-97393159D01*
X77275863Y-97281896D01*
X77402525Y-97141224D01*
X77497171Y-96977292D01*
X77555666Y-96797264D01*
X77575452Y-96609008D01*
X77571171Y-96568274D01*
X77570492Y-96555314D01*
X77570492Y-92882368D01*
X77590177Y-92815329D01*
X77606806Y-92794692D01*
X78626499Y-91774999D01*
X78687818Y-91741517D01*
X78757510Y-91746501D01*
X78813443Y-91788373D01*
X78833951Y-91830589D01*
X78872731Y-91975320D01*
X78872735Y-91975331D01*
X78968863Y-92181478D01*
X79019974Y-92254472D01*
X79701046Y-91573399D01*
X79713835Y-91654148D01*
X79771359Y-91767045D01*
X79860955Y-91856641D01*
X79973852Y-91914165D01*
X80054599Y-91926953D01*
X79373526Y-92608025D01*
X79446513Y-92659132D01*
X79446521Y-92659136D01*
X79652668Y-92755264D01*
X79652682Y-92755269D01*
X79872389Y-92814139D01*
X79872400Y-92814141D01*
X80098998Y-92833966D01*
X80099002Y-92833966D01*
X80325599Y-92814141D01*
X80325610Y-92814139D01*
X80545317Y-92755269D01*
X80545331Y-92755264D01*
X80751478Y-92659136D01*
X80824471Y-92608024D01*
X80143400Y-91926953D01*
X80224148Y-91914165D01*
X80337045Y-91856641D01*
X80426641Y-91767045D01*
X80484165Y-91654148D01*
X80496953Y-91573400D01*
X81178024Y-92254471D01*
X81229136Y-92181478D01*
X81325264Y-91975331D01*
X81325269Y-91975317D01*
X81384139Y-91755610D01*
X81384141Y-91755599D01*
X81403966Y-91529002D01*
X81403966Y-91528997D01*
X81384141Y-91302400D01*
X81384139Y-91302389D01*
X81325269Y-91082682D01*
X81325264Y-91082668D01*
X81229136Y-90876521D01*
X81229132Y-90876513D01*
X81178025Y-90803526D01*
X80496953Y-91484598D01*
X80484165Y-91403852D01*
X80426641Y-91290955D01*
X80337045Y-91201359D01*
X80224148Y-91143835D01*
X80143399Y-91131046D01*
X80829645Y-90444801D01*
X80839492Y-90395807D01*
X80888107Y-90345624D01*
X80943633Y-90330981D01*
X80943576Y-90329900D01*
X80943571Y-90329854D01*
X80943573Y-90329853D01*
X80943564Y-90329676D01*
X80946857Y-90329499D01*
X80946872Y-90329499D01*
X81006483Y-90323091D01*
X81141331Y-90272796D01*
X81256546Y-90186546D01*
X81342796Y-90071331D01*
X81393091Y-89936483D01*
X81399500Y-89876873D01*
X81399499Y-88181128D01*
X81393381Y-88124212D01*
X81393091Y-88121516D01*
X81342797Y-87986671D01*
X81342793Y-87986664D01*
X81256547Y-87871455D01*
X81256544Y-87871452D01*
X81141335Y-87785206D01*
X81141328Y-87785202D01*
X81080167Y-87762391D01*
X81024233Y-87720520D01*
X80999816Y-87655056D01*
X80999500Y-87646209D01*
X80999500Y-87262772D01*
X81019185Y-87195733D01*
X81071989Y-87149978D01*
X81141147Y-87140034D01*
X81196383Y-87162453D01*
X81295792Y-87234677D01*
X81297270Y-87235751D01*
X81470192Y-87312742D01*
X81470197Y-87312744D01*
X81655354Y-87352100D01*
X81655355Y-87352100D01*
X81844644Y-87352100D01*
X81844646Y-87352100D01*
X82029803Y-87312744D01*
X82202730Y-87235751D01*
X82355871Y-87124488D01*
X82358788Y-87121247D01*
X82361600Y-87118126D01*
X82421087Y-87081479D01*
X82453748Y-87077100D01*
X99427522Y-87077100D01*
X99494561Y-87096785D01*
G37*
G04 #@! TD.AperFunction*
G04 #@! TA.AperFunction,Conductor*
G36*
X130839865Y-81912348D02*
G01*
X130884382Y-81963725D01*
X130911429Y-82021728D01*
X130911432Y-82021734D01*
X131041954Y-82208141D01*
X131202858Y-82369045D01*
X131366107Y-82483352D01*
X131409732Y-82537928D01*
X131418923Y-82581030D01*
X131419290Y-82592724D01*
X131419291Y-82592727D01*
X131424880Y-82611967D01*
X131428824Y-82631011D01*
X131429495Y-82636318D01*
X131431336Y-82650892D01*
X131447414Y-82691503D01*
X131451197Y-82702552D01*
X131463381Y-82744488D01*
X131473580Y-82761734D01*
X131482138Y-82779203D01*
X131489514Y-82797832D01*
X131515181Y-82833160D01*
X131521593Y-82842921D01*
X131543828Y-82880517D01*
X131543833Y-82880524D01*
X131557990Y-82894680D01*
X131570628Y-82909476D01*
X131582405Y-82925686D01*
X131582406Y-82925687D01*
X131616057Y-82953525D01*
X131624698Y-82961388D01*
X132517881Y-83854571D01*
X132551366Y-83915894D01*
X132554200Y-83942252D01*
X132554200Y-87618783D01*
X132534515Y-87685822D01*
X132481711Y-87731577D01*
X132412553Y-87741521D01*
X132398106Y-87738558D01*
X132292000Y-87710126D01*
X132292000Y-88673314D01*
X132280045Y-88661359D01*
X132167148Y-88603835D01*
X132073481Y-88589000D01*
X132010519Y-88589000D01*
X131916852Y-88603835D01*
X131803955Y-88661359D01*
X131792000Y-88673314D01*
X131792000Y-87710127D01*
X131595671Y-87762734D01*
X131389517Y-87858865D01*
X131203179Y-87989342D01*
X131042342Y-88150179D01*
X130911865Y-88336517D01*
X130884382Y-88395457D01*
X130838210Y-88447896D01*
X130771016Y-88467048D01*
X130704135Y-88446832D01*
X130659618Y-88395457D01*
X130632134Y-88336517D01*
X130501657Y-88150179D01*
X130340820Y-87989342D01*
X130154482Y-87858865D01*
X129948328Y-87762734D01*
X129752000Y-87710127D01*
X129752000Y-88673314D01*
X129740045Y-88661359D01*
X129627148Y-88603835D01*
X129533481Y-88589000D01*
X129470519Y-88589000D01*
X129376852Y-88603835D01*
X129263955Y-88661359D01*
X129252000Y-88673314D01*
X129252000Y-87710127D01*
X129055671Y-87762734D01*
X128849517Y-87858865D01*
X128663179Y-87989342D01*
X128502342Y-88150179D01*
X128371867Y-88336515D01*
X128344657Y-88394867D01*
X128298484Y-88447306D01*
X128231290Y-88466457D01*
X128164409Y-88446241D01*
X128119893Y-88394865D01*
X128107521Y-88368334D01*
X128092568Y-88336266D01*
X127983940Y-88181128D01*
X127962045Y-88149858D01*
X127801141Y-87988954D01*
X127614734Y-87858432D01*
X127614732Y-87858431D01*
X127408497Y-87762261D01*
X127408488Y-87762258D01*
X127188697Y-87703366D01*
X127188693Y-87703365D01*
X127188692Y-87703365D01*
X127188691Y-87703364D01*
X127188686Y-87703364D01*
X126962002Y-87683532D01*
X126961998Y-87683532D01*
X126735313Y-87703364D01*
X126735302Y-87703366D01*
X126515511Y-87762258D01*
X126515502Y-87762261D01*
X126309267Y-87858431D01*
X126309265Y-87858432D01*
X126122858Y-87988954D01*
X125961954Y-88149858D01*
X125831432Y-88336265D01*
X125831431Y-88336267D01*
X125804382Y-88394275D01*
X125758209Y-88446714D01*
X125691016Y-88465866D01*
X125624135Y-88445650D01*
X125579618Y-88394275D01*
X125552568Y-88336266D01*
X125443940Y-88181128D01*
X125422045Y-88149858D01*
X125261141Y-87988954D01*
X125074734Y-87858432D01*
X125074732Y-87858431D01*
X124868497Y-87762261D01*
X124868488Y-87762258D01*
X124648697Y-87703366D01*
X124648693Y-87703365D01*
X124648692Y-87703365D01*
X124648691Y-87703364D01*
X124648686Y-87703364D01*
X124422002Y-87683532D01*
X124421998Y-87683532D01*
X124195313Y-87703364D01*
X124195302Y-87703366D01*
X123975511Y-87762258D01*
X123975502Y-87762261D01*
X123769267Y-87858431D01*
X123769265Y-87858432D01*
X123582858Y-87988954D01*
X123421954Y-88149858D01*
X123291432Y-88336265D01*
X123291431Y-88336267D01*
X123264382Y-88394275D01*
X123218209Y-88446714D01*
X123151016Y-88465866D01*
X123084135Y-88445650D01*
X123039618Y-88394275D01*
X123012568Y-88336266D01*
X122903940Y-88181128D01*
X122882045Y-88149858D01*
X122721141Y-87988954D01*
X122534734Y-87858432D01*
X122534732Y-87858431D01*
X122328497Y-87762261D01*
X122328488Y-87762258D01*
X122108697Y-87703366D01*
X122108693Y-87703365D01*
X122108692Y-87703365D01*
X122108691Y-87703364D01*
X122108686Y-87703364D01*
X121882002Y-87683532D01*
X121881998Y-87683532D01*
X121655313Y-87703364D01*
X121655302Y-87703366D01*
X121435511Y-87762258D01*
X121435502Y-87762261D01*
X121229267Y-87858431D01*
X121229265Y-87858432D01*
X121042858Y-87988954D01*
X120881954Y-88149858D01*
X120751432Y-88336265D01*
X120751431Y-88336267D01*
X120724382Y-88394275D01*
X120678209Y-88446714D01*
X120611016Y-88465866D01*
X120544135Y-88445650D01*
X120499618Y-88394275D01*
X120472568Y-88336266D01*
X120363940Y-88181128D01*
X120342045Y-88149858D01*
X120181141Y-87988954D01*
X119994734Y-87858432D01*
X119994732Y-87858431D01*
X119788497Y-87762261D01*
X119788488Y-87762258D01*
X119568697Y-87703366D01*
X119568693Y-87703365D01*
X119568692Y-87703365D01*
X119568691Y-87703364D01*
X119568686Y-87703364D01*
X119342002Y-87683532D01*
X119341998Y-87683532D01*
X119115313Y-87703364D01*
X119115302Y-87703366D01*
X118895511Y-87762258D01*
X118895502Y-87762261D01*
X118689267Y-87858431D01*
X118689265Y-87858432D01*
X118502858Y-87988954D01*
X118341954Y-88149858D01*
X118211432Y-88336265D01*
X118211431Y-88336267D01*
X118115261Y-88542502D01*
X118115258Y-88542511D01*
X118056366Y-88762302D01*
X118056364Y-88762313D01*
X118036532Y-88988998D01*
X118036532Y-88989001D01*
X118056364Y-89215686D01*
X118056366Y-89215697D01*
X118115258Y-89435488D01*
X118115261Y-89435496D01*
X118184555Y-89584097D01*
X118195047Y-89653172D01*
X118166528Y-89716956D01*
X118108051Y-89755196D01*
X118072173Y-89760500D01*
X107232737Y-89760500D01*
X107217120Y-89758776D01*
X107217093Y-89759062D01*
X107209331Y-89758327D01*
X107142144Y-89760439D01*
X107138250Y-89760500D01*
X107110650Y-89760500D01*
X107106962Y-89760965D01*
X107106649Y-89761005D01*
X107095031Y-89761918D01*
X107051372Y-89763290D01*
X107051369Y-89763291D01*
X107032126Y-89768881D01*
X107013083Y-89772825D01*
X106993204Y-89775336D01*
X106993203Y-89775337D01*
X106952593Y-89791415D01*
X106941548Y-89795197D01*
X106899608Y-89807383D01*
X106899604Y-89807385D01*
X106882365Y-89817580D01*
X106864898Y-89826137D01*
X106846269Y-89833512D01*
X106846267Y-89833514D01*
X106810926Y-89859189D01*
X106801168Y-89865599D01*
X106763580Y-89887828D01*
X106749408Y-89902000D01*
X106734623Y-89914628D01*
X106718412Y-89926407D01*
X106690571Y-89960059D01*
X106682711Y-89968696D01*
X97490808Y-99160599D01*
X97478551Y-99170420D01*
X97478734Y-99170641D01*
X97472722Y-99175614D01*
X97426698Y-99224623D01*
X97423991Y-99227416D01*
X97404489Y-99246917D01*
X97404475Y-99246934D01*
X97402007Y-99250115D01*
X97394443Y-99258970D01*
X97364537Y-99290818D01*
X97364536Y-99290820D01*
X97354884Y-99308376D01*
X97344210Y-99324626D01*
X97331929Y-99340461D01*
X97331924Y-99340468D01*
X97314575Y-99380558D01*
X97309438Y-99391044D01*
X97288403Y-99429306D01*
X97283422Y-99448707D01*
X97277121Y-99467110D01*
X97269162Y-99485502D01*
X97269161Y-99485505D01*
X97262328Y-99528643D01*
X97259960Y-99540074D01*
X97249101Y-99582371D01*
X97249100Y-99582382D01*
X97249100Y-99602416D01*
X97247573Y-99621815D01*
X97244440Y-99641594D01*
X97244440Y-99641595D01*
X97248550Y-99685074D01*
X97249100Y-99696743D01*
X97249100Y-103470000D01*
X97229415Y-103537039D01*
X97176611Y-103582794D01*
X97125100Y-103594000D01*
X96084100Y-103594000D01*
X96017061Y-103574315D01*
X95971306Y-103521511D01*
X95960100Y-103470000D01*
X95960100Y-99867252D01*
X95979785Y-99800213D01*
X95996419Y-99779571D01*
X107374171Y-88401819D01*
X107435494Y-88368334D01*
X107461852Y-88365500D01*
X107521044Y-88365500D01*
X107521046Y-88365500D01*
X107706203Y-88326144D01*
X107879130Y-88249151D01*
X108032271Y-88137888D01*
X108158933Y-87997216D01*
X108253579Y-87833284D01*
X108312074Y-87653256D01*
X108331860Y-87465000D01*
X108312074Y-87276744D01*
X108299946Y-87239417D01*
X108297951Y-87169577D01*
X108334031Y-87109744D01*
X108396732Y-87078916D01*
X108417877Y-87077100D01*
X121796657Y-87077100D01*
X121812277Y-87078824D01*
X121812304Y-87078539D01*
X121820060Y-87079271D01*
X121820067Y-87079273D01*
X121887273Y-87077161D01*
X121891168Y-87077100D01*
X121918746Y-87077100D01*
X121918750Y-87077100D01*
X121922724Y-87076597D01*
X121934363Y-87075680D01*
X121978027Y-87074309D01*
X121997269Y-87068717D01*
X122016312Y-87064774D01*
X122036192Y-87062264D01*
X122076801Y-87046185D01*
X122087844Y-87042403D01*
X122129790Y-87030218D01*
X122147029Y-87020022D01*
X122164503Y-87011462D01*
X122183127Y-87004088D01*
X122183127Y-87004087D01*
X122183132Y-87004086D01*
X122218483Y-86978400D01*
X122228214Y-86972008D01*
X122265820Y-86949770D01*
X122279989Y-86935599D01*
X122294779Y-86922968D01*
X122310987Y-86911194D01*
X122338838Y-86877526D01*
X122346679Y-86868909D01*
X126547179Y-82668410D01*
X126608500Y-82634927D01*
X126666947Y-82636317D01*
X126735308Y-82654635D01*
X126891248Y-82668278D01*
X126961998Y-82674468D01*
X126962000Y-82674468D01*
X126962002Y-82674468D01*
X127031220Y-82668412D01*
X127188692Y-82654635D01*
X127408496Y-82595739D01*
X127614734Y-82499568D01*
X127801139Y-82369047D01*
X127962047Y-82208139D01*
X128092568Y-82021734D01*
X128119618Y-81963724D01*
X128165790Y-81911285D01*
X128232983Y-81892133D01*
X128299865Y-81912348D01*
X128344382Y-81963725D01*
X128371429Y-82021728D01*
X128371432Y-82021734D01*
X128501954Y-82208141D01*
X128662858Y-82369045D01*
X128662861Y-82369047D01*
X128849266Y-82499568D01*
X129055504Y-82595739D01*
X129275308Y-82654635D01*
X129431248Y-82668278D01*
X129501998Y-82674468D01*
X129502000Y-82674468D01*
X129502002Y-82674468D01*
X129571220Y-82668412D01*
X129728692Y-82654635D01*
X129948496Y-82595739D01*
X130154734Y-82499568D01*
X130341139Y-82369047D01*
X130502047Y-82208139D01*
X130632568Y-82021734D01*
X130659618Y-81963724D01*
X130705790Y-81911285D01*
X130772983Y-81892133D01*
X130839865Y-81912348D01*
G37*
G04 #@! TD.AperFunction*
G04 #@! TA.AperFunction,Conductor*
G36*
X132292000Y-90267871D02*
G01*
X132398106Y-90239441D01*
X132467956Y-90241104D01*
X132525819Y-90280266D01*
X132553323Y-90344495D01*
X132554200Y-90359216D01*
X132554200Y-99190047D01*
X132534515Y-99257086D01*
X132517881Y-99277728D01*
X131100181Y-100695427D01*
X131038858Y-100728912D01*
X130969166Y-100723928D01*
X130913233Y-100682056D01*
X130888816Y-100616592D01*
X130899424Y-100556857D01*
X130956463Y-100430123D01*
X131055456Y-100112441D01*
X131115436Y-99785142D01*
X131135527Y-99453000D01*
X131115436Y-99120858D01*
X131055456Y-98793559D01*
X130966415Y-98507813D01*
X130956469Y-98475895D01*
X130956467Y-98475890D01*
X130956463Y-98475877D01*
X130819898Y-98172443D01*
X130647754Y-97887682D01*
X130647751Y-97887678D01*
X130647748Y-97887673D01*
X130442539Y-97625744D01*
X130207255Y-97390460D01*
X129945326Y-97185251D01*
X129914692Y-97166732D01*
X129660557Y-97013102D01*
X129357123Y-96876537D01*
X129357116Y-96876534D01*
X129357104Y-96876530D01*
X129039449Y-96777546D01*
X129039445Y-96777545D01*
X129039441Y-96777544D01*
X128712142Y-96717564D01*
X128712141Y-96717563D01*
X128712136Y-96717563D01*
X128463114Y-96702500D01*
X128463106Y-96702500D01*
X128296894Y-96702500D01*
X128296885Y-96702500D01*
X128047863Y-96717563D01*
X128047858Y-96717564D01*
X127720559Y-96777544D01*
X127720556Y-96777544D01*
X127720550Y-96777546D01*
X127402895Y-96876530D01*
X127402879Y-96876536D01*
X127402877Y-96876537D01*
X127262095Y-96939898D01*
X127113839Y-97006623D01*
X127099443Y-97013102D01*
X127086001Y-97021228D01*
X126814673Y-97185251D01*
X126552744Y-97390460D01*
X126317460Y-97625744D01*
X126112251Y-97887673D01*
X126027100Y-98028531D01*
X125943708Y-98166479D01*
X125940101Y-98172445D01*
X125940100Y-98172447D01*
X125803536Y-98475880D01*
X125803530Y-98475895D01*
X125704546Y-98793550D01*
X125704544Y-98793556D01*
X125704544Y-98793559D01*
X125693002Y-98856542D01*
X125644563Y-99120863D01*
X125624473Y-99453000D01*
X125644563Y-99785136D01*
X125644563Y-99785141D01*
X125644564Y-99785142D01*
X125704544Y-100112441D01*
X125704545Y-100112445D01*
X125704546Y-100112449D01*
X125803530Y-100430104D01*
X125803534Y-100430116D01*
X125803537Y-100430123D01*
X125940102Y-100733557D01*
X126070563Y-100949366D01*
X126112251Y-101018326D01*
X126317460Y-101280255D01*
X126552744Y-101515539D01*
X126814673Y-101720748D01*
X126814678Y-101720751D01*
X126814682Y-101720754D01*
X127099443Y-101892898D01*
X127402877Y-102029463D01*
X127402890Y-102029467D01*
X127402895Y-102029469D01*
X127532192Y-102069759D01*
X127720559Y-102128456D01*
X128047858Y-102188436D01*
X128296894Y-102203500D01*
X128296907Y-102203500D01*
X128463093Y-102203500D01*
X128463106Y-102203500D01*
X128712142Y-102188436D01*
X129039441Y-102128456D01*
X129314191Y-102042841D01*
X129357104Y-102029469D01*
X129357104Y-102029468D01*
X129357123Y-102029463D01*
X129483856Y-101972424D01*
X129553066Y-101962861D01*
X129616462Y-101992234D01*
X129653913Y-102051219D01*
X129653530Y-102121087D01*
X129622427Y-102173181D01*
X128411437Y-103384171D01*
X128350114Y-103417656D01*
X128325527Y-103420477D01*
X128275507Y-103421191D01*
X128150378Y-103441009D01*
X128150353Y-103441013D01*
X128136122Y-103443476D01*
X127999893Y-103489900D01*
X127897785Y-103541927D01*
X127886951Y-103547447D01*
X127874232Y-103554158D01*
X127874220Y-103554165D01*
X127862620Y-103562849D01*
X127854048Y-103569266D01*
X127788586Y-103593684D01*
X127779738Y-103594000D01*
X126387588Y-103594000D01*
X126320549Y-103574315D01*
X126316143Y-103571349D01*
X126291766Y-103554165D01*
X126282205Y-103547424D01*
X126169315Y-103489904D01*
X126169307Y-103489900D01*
X126156346Y-103483528D01*
X126018847Y-103441013D01*
X126018844Y-103441012D01*
X126018832Y-103441009D01*
X125893753Y-103421199D01*
X125879405Y-103419136D01*
X125735507Y-103421191D01*
X125610378Y-103441009D01*
X125610353Y-103441013D01*
X125596122Y-103443476D01*
X125459893Y-103489900D01*
X125357785Y-103541927D01*
X125346951Y-103547447D01*
X125334232Y-103554158D01*
X125334220Y-103554165D01*
X125322620Y-103562849D01*
X125314048Y-103569266D01*
X125248586Y-103593684D01*
X125239738Y-103594000D01*
X123847588Y-103594000D01*
X123780549Y-103574315D01*
X123776143Y-103571349D01*
X123751766Y-103554165D01*
X123742205Y-103547424D01*
X123629315Y-103489904D01*
X123629307Y-103489900D01*
X123616346Y-103483528D01*
X123478847Y-103441013D01*
X123478844Y-103441012D01*
X123478832Y-103441009D01*
X123353753Y-103421199D01*
X123339405Y-103419136D01*
X123195507Y-103421191D01*
X123070378Y-103441009D01*
X123070353Y-103441013D01*
X123056122Y-103443476D01*
X122919893Y-103489900D01*
X122817785Y-103541927D01*
X122806951Y-103547447D01*
X122794232Y-103554158D01*
X122794220Y-103554165D01*
X122782620Y-103562849D01*
X122774048Y-103569266D01*
X122708586Y-103593684D01*
X122699738Y-103594000D01*
X121307588Y-103594000D01*
X121240549Y-103574315D01*
X121236143Y-103571349D01*
X121211766Y-103554165D01*
X121202205Y-103547424D01*
X121089315Y-103489904D01*
X121089307Y-103489900D01*
X121076346Y-103483528D01*
X120938847Y-103441013D01*
X120938844Y-103441012D01*
X120938832Y-103441009D01*
X120813753Y-103421199D01*
X120799405Y-103419136D01*
X120655507Y-103421191D01*
X120530378Y-103441009D01*
X120530353Y-103441013D01*
X120516122Y-103443476D01*
X120379893Y-103489900D01*
X120277785Y-103541927D01*
X120266951Y-103547447D01*
X120254232Y-103554158D01*
X120254220Y-103554165D01*
X120242620Y-103562849D01*
X120234048Y-103569266D01*
X120168586Y-103593684D01*
X120159738Y-103594000D01*
X118767588Y-103594000D01*
X118700549Y-103574315D01*
X118696143Y-103571349D01*
X118671766Y-103554165D01*
X118662205Y-103547424D01*
X118549315Y-103489904D01*
X118549307Y-103489900D01*
X118536346Y-103483528D01*
X118398847Y-103441013D01*
X118398844Y-103441012D01*
X118398832Y-103441009D01*
X118273753Y-103421199D01*
X118259405Y-103419136D01*
X118115507Y-103421191D01*
X117990378Y-103441009D01*
X117990353Y-103441013D01*
X117976122Y-103443476D01*
X117839893Y-103489900D01*
X117737785Y-103541927D01*
X117726951Y-103547447D01*
X117714232Y-103554158D01*
X117714220Y-103554165D01*
X117702620Y-103562849D01*
X117694048Y-103569266D01*
X117628586Y-103593684D01*
X117619738Y-103594000D01*
X116404100Y-103594000D01*
X116337061Y-103574315D01*
X116291306Y-103521511D01*
X116280100Y-103470000D01*
X116280100Y-96433342D01*
X116281824Y-96417722D01*
X116281539Y-96417696D01*
X116282271Y-96409940D01*
X116282273Y-96409933D01*
X116280161Y-96342726D01*
X116280100Y-96338831D01*
X116280100Y-96311254D01*
X116280100Y-96311250D01*
X116279596Y-96307265D01*
X116278680Y-96295621D01*
X116277837Y-96268791D01*
X116277309Y-96251973D01*
X116271722Y-96232744D01*
X116267774Y-96213684D01*
X116265263Y-96193804D01*
X116249188Y-96153204D01*
X116245404Y-96142152D01*
X116233218Y-96100209D01*
X116233216Y-96100206D01*
X116223023Y-96082971D01*
X116214461Y-96065494D01*
X116207087Y-96046869D01*
X116181416Y-96011537D01*
X116175005Y-96001777D01*
X116152770Y-95964180D01*
X116152768Y-95964178D01*
X116152765Y-95964174D01*
X116138606Y-95950015D01*
X116125968Y-95935219D01*
X116114194Y-95919013D01*
X116080540Y-95891172D01*
X116071899Y-95883309D01*
X112935772Y-92747181D01*
X112902287Y-92685858D01*
X112907271Y-92616166D01*
X112949143Y-92560233D01*
X113014607Y-92535816D01*
X113023453Y-92535500D01*
X116650247Y-92535500D01*
X116665867Y-92537224D01*
X116665894Y-92536939D01*
X116673650Y-92537671D01*
X116673657Y-92537673D01*
X116740863Y-92535561D01*
X116744758Y-92535500D01*
X116772336Y-92535500D01*
X116772340Y-92535500D01*
X116776314Y-92534997D01*
X116787953Y-92534080D01*
X116831617Y-92532709D01*
X116850859Y-92527117D01*
X116869902Y-92523174D01*
X116889782Y-92520664D01*
X116930391Y-92504585D01*
X116941434Y-92500803D01*
X116983380Y-92488618D01*
X117000619Y-92478422D01*
X117018093Y-92469862D01*
X117036717Y-92462488D01*
X117036717Y-92462487D01*
X117036722Y-92462486D01*
X117072073Y-92436800D01*
X117081804Y-92430408D01*
X117119410Y-92408170D01*
X117133579Y-92393999D01*
X117148369Y-92381368D01*
X117164577Y-92369594D01*
X117182895Y-92347451D01*
X117240794Y-92308343D01*
X117278440Y-92302490D01*
X117335644Y-92302490D01*
X117335646Y-92302490D01*
X117520803Y-92263134D01*
X117693730Y-92186141D01*
X117846871Y-92074878D01*
X117973533Y-91934206D01*
X118068179Y-91770274D01*
X118126674Y-91590246D01*
X118146460Y-91401990D01*
X118126674Y-91213734D01*
X118113703Y-91173816D01*
X118111708Y-91103978D01*
X118147788Y-91044145D01*
X118210489Y-91013316D01*
X118231635Y-91011500D01*
X129064548Y-91011500D01*
X129131587Y-91031185D01*
X129152229Y-91047819D01*
X129960038Y-91855629D01*
X129993523Y-91916952D01*
X129995678Y-91930348D01*
X129996084Y-91934206D01*
X130013326Y-92098256D01*
X130013327Y-92098259D01*
X130071818Y-92278277D01*
X130071821Y-92278284D01*
X130166467Y-92442216D01*
X130268185Y-92555185D01*
X130293129Y-92582888D01*
X130446265Y-92694148D01*
X130446270Y-92694151D01*
X130619192Y-92771142D01*
X130619197Y-92771144D01*
X130804354Y-92810500D01*
X130804355Y-92810500D01*
X130993644Y-92810500D01*
X130993646Y-92810500D01*
X131178803Y-92771144D01*
X131351730Y-92694151D01*
X131504871Y-92582888D01*
X131631533Y-92442216D01*
X131726179Y-92278284D01*
X131784674Y-92098256D01*
X131804460Y-91910000D01*
X131784674Y-91721744D01*
X131726179Y-91541716D01*
X131631533Y-91377784D01*
X131504871Y-91237112D01*
X131504870Y-91237111D01*
X131351734Y-91125851D01*
X131351729Y-91125848D01*
X131178807Y-91048857D01*
X131178802Y-91048855D01*
X131016388Y-91014334D01*
X130993646Y-91009500D01*
X130993645Y-91009500D01*
X130934453Y-91009500D01*
X130867414Y-90989815D01*
X130846772Y-90973181D01*
X130163837Y-90290246D01*
X130130352Y-90228923D01*
X130135336Y-90159231D01*
X130177208Y-90103298D01*
X130180394Y-90100990D01*
X130340820Y-89988657D01*
X130501657Y-89827820D01*
X130632134Y-89641481D01*
X130632135Y-89641479D01*
X130659618Y-89582543D01*
X130705790Y-89530103D01*
X130772983Y-89510951D01*
X130839864Y-89531166D01*
X130884382Y-89582543D01*
X130911864Y-89641479D01*
X130911865Y-89641481D01*
X131042342Y-89827820D01*
X131203179Y-89988657D01*
X131389517Y-90119134D01*
X131595673Y-90215265D01*
X131595682Y-90215269D01*
X131791999Y-90267872D01*
X131792000Y-90267871D01*
X131792000Y-89304686D01*
X131803955Y-89316641D01*
X131916852Y-89374165D01*
X132010519Y-89389000D01*
X132073481Y-89389000D01*
X132167148Y-89374165D01*
X132280045Y-89316641D01*
X132292000Y-89304686D01*
X132292000Y-90267871D01*
G37*
G04 #@! TD.AperFunction*
G04 #@! TA.AperFunction,Conductor*
G36*
X144819303Y-58931298D02*
G01*
X144861179Y-58987229D01*
X144869000Y-59030571D01*
X144869000Y-102399638D01*
X144849315Y-102466677D01*
X144832681Y-102487319D01*
X144397319Y-102922681D01*
X144335996Y-102956166D01*
X144309638Y-102959000D01*
X133311999Y-102959000D01*
X132713319Y-103557681D01*
X132651996Y-103591166D01*
X132625638Y-103594000D01*
X131467588Y-103594000D01*
X131400549Y-103574315D01*
X131396143Y-103571349D01*
X131371766Y-103554165D01*
X131362205Y-103547424D01*
X131249315Y-103489904D01*
X131249307Y-103489900D01*
X131236346Y-103483528D01*
X131098847Y-103441013D01*
X131098844Y-103441012D01*
X131098832Y-103441009D01*
X130973753Y-103421199D01*
X130959405Y-103419136D01*
X130815507Y-103421191D01*
X130690378Y-103441009D01*
X130690353Y-103441013D01*
X130676122Y-103443476D01*
X130539893Y-103489900D01*
X130437785Y-103541927D01*
X130426951Y-103547447D01*
X130414232Y-103554158D01*
X130414220Y-103554165D01*
X130402620Y-103562849D01*
X130394048Y-103569266D01*
X130328586Y-103593684D01*
X130319738Y-103594000D01*
X130270152Y-103594000D01*
X130203113Y-103574315D01*
X130157358Y-103521511D01*
X130147414Y-103452353D01*
X130176439Y-103388797D01*
X130182471Y-103382319D01*
X131844042Y-101720748D01*
X133563488Y-100001301D01*
X133575742Y-99991486D01*
X133575559Y-99991264D01*
X133581568Y-99986291D01*
X133581577Y-99986286D01*
X133627649Y-99937222D01*
X133630266Y-99934523D01*
X133649820Y-99914971D01*
X133652276Y-99911803D01*
X133659856Y-99902927D01*
X133689762Y-99871082D01*
X133699415Y-99853520D01*
X133710089Y-99837270D01*
X133722373Y-99821436D01*
X133739719Y-99781350D01*
X133744857Y-99770862D01*
X133744993Y-99770616D01*
X133765897Y-99732592D01*
X133770877Y-99713191D01*
X133777178Y-99694788D01*
X133785138Y-99676396D01*
X133791972Y-99633241D01*
X133794335Y-99621831D01*
X133805200Y-99579519D01*
X133805200Y-99559483D01*
X133806727Y-99540082D01*
X133809860Y-99520304D01*
X133806204Y-99481632D01*
X133805750Y-99476824D01*
X133805200Y-99465155D01*
X133805200Y-90255804D01*
X133824885Y-90188765D01*
X133877689Y-90143010D01*
X133946847Y-90133066D01*
X133981605Y-90143422D01*
X134135673Y-90215266D01*
X134135682Y-90215269D01*
X134331999Y-90267872D01*
X134332000Y-90267871D01*
X134332000Y-89304686D01*
X134343955Y-89316641D01*
X134456852Y-89374165D01*
X134550519Y-89389000D01*
X134613481Y-89389000D01*
X134707148Y-89374165D01*
X134820045Y-89316641D01*
X134832000Y-89304686D01*
X134832000Y-90267872D01*
X135028317Y-90215269D01*
X135028321Y-90215267D01*
X135050094Y-90205115D01*
X135119172Y-90194623D01*
X135182956Y-90223142D01*
X135221196Y-90281618D01*
X135226500Y-90317497D01*
X135226500Y-92564944D01*
X135206815Y-92631983D01*
X135154011Y-92677738D01*
X135128282Y-92686234D01*
X135064196Y-92699856D01*
X135064192Y-92699857D01*
X134891270Y-92776848D01*
X134891265Y-92776851D01*
X134738129Y-92888111D01*
X134611466Y-93028785D01*
X134516821Y-93192715D01*
X134516818Y-93192722D01*
X134469564Y-93338157D01*
X134458326Y-93372744D01*
X134438540Y-93561000D01*
X134458326Y-93749256D01*
X134458327Y-93749259D01*
X134516818Y-93929277D01*
X134516821Y-93929284D01*
X134611467Y-94093216D01*
X134738129Y-94233888D01*
X134891265Y-94345148D01*
X134891270Y-94345151D01*
X135064192Y-94422142D01*
X135064197Y-94422144D01*
X135249354Y-94461500D01*
X135249355Y-94461500D01*
X135438644Y-94461500D01*
X135438646Y-94461500D01*
X135623803Y-94422144D01*
X135796730Y-94345151D01*
X135949871Y-94233888D01*
X136076533Y-94093216D01*
X136171179Y-93929284D01*
X136229674Y-93749256D01*
X136247170Y-93582782D01*
X136273754Y-93518169D01*
X136280097Y-93510864D01*
X136299920Y-93489754D01*
X136302566Y-93487023D01*
X136322120Y-93467471D01*
X136324576Y-93464303D01*
X136332156Y-93455427D01*
X136362062Y-93423582D01*
X136371713Y-93406024D01*
X136382396Y-93389761D01*
X136394673Y-93373936D01*
X136412021Y-93333844D01*
X136417151Y-93323371D01*
X136438197Y-93285092D01*
X136443180Y-93265680D01*
X136449481Y-93247280D01*
X136457437Y-93228896D01*
X136464270Y-93185748D01*
X136466633Y-93174338D01*
X136477500Y-93132019D01*
X136477500Y-93111983D01*
X136479027Y-93092582D01*
X136482160Y-93072804D01*
X136478049Y-93029327D01*
X136477500Y-93017658D01*
X136477500Y-90318048D01*
X136497185Y-90251009D01*
X136549989Y-90205254D01*
X136619147Y-90195310D01*
X136653905Y-90205667D01*
X136675504Y-90215739D01*
X136675509Y-90215740D01*
X136675511Y-90215741D01*
X136724708Y-90228923D01*
X136895308Y-90274635D01*
X137057230Y-90288801D01*
X137121998Y-90294468D01*
X137122000Y-90294468D01*
X137122002Y-90294468D01*
X137180899Y-90289315D01*
X137348692Y-90274635D01*
X137568496Y-90215739D01*
X137774734Y-90119568D01*
X137961139Y-89989047D01*
X138024368Y-89925817D01*
X138085689Y-89892334D01*
X138112048Y-89889500D01*
X139941952Y-89889500D01*
X140008991Y-89909185D01*
X140029628Y-89925814D01*
X140092861Y-89989047D01*
X140279266Y-90119568D01*
X140485504Y-90215739D01*
X140485509Y-90215740D01*
X140485511Y-90215741D01*
X140534708Y-90228923D01*
X140705308Y-90274635D01*
X140867230Y-90288801D01*
X140931998Y-90294468D01*
X140932000Y-90294468D01*
X140932002Y-90294468D01*
X140990899Y-90289315D01*
X141158692Y-90274635D01*
X141378496Y-90215739D01*
X141584734Y-90119568D01*
X141771139Y-89989047D01*
X141831450Y-89928735D01*
X141892769Y-89895252D01*
X141912633Y-89892589D01*
X141963831Y-89889906D01*
X141968338Y-89889670D01*
X141974826Y-89889500D01*
X141995191Y-89889500D01*
X141995192Y-89889500D01*
X142006393Y-89888322D01*
X142015448Y-89887371D01*
X142021906Y-89886862D01*
X142089646Y-89883313D01*
X142103187Y-89879683D01*
X142122313Y-89876138D01*
X142136256Y-89874674D01*
X142200786Y-89853706D01*
X142206951Y-89851880D01*
X142272488Y-89834320D01*
X142284976Y-89827956D01*
X142302950Y-89820510D01*
X142316284Y-89816179D01*
X142375051Y-89782248D01*
X142380693Y-89779185D01*
X142441149Y-89748383D01*
X142452031Y-89739569D01*
X142468083Y-89728537D01*
X142480216Y-89721533D01*
X142530654Y-89676117D01*
X142535540Y-89671945D01*
X142551380Y-89659119D01*
X142565801Y-89644696D01*
X142570472Y-89640264D01*
X142620888Y-89594871D01*
X142629130Y-89583525D01*
X142641760Y-89568737D01*
X143924737Y-88285760D01*
X143939525Y-88273130D01*
X143950871Y-88264888D01*
X143996264Y-88214472D01*
X144000696Y-88209801D01*
X144015119Y-88195380D01*
X144027945Y-88179540D01*
X144032117Y-88174654D01*
X144077533Y-88124216D01*
X144084538Y-88112080D01*
X144095570Y-88096031D01*
X144101669Y-88088500D01*
X144104383Y-88085149D01*
X144135185Y-88024693D01*
X144138248Y-88019051D01*
X144172179Y-87960284D01*
X144176509Y-87946956D01*
X144183960Y-87928969D01*
X144190319Y-87916490D01*
X144190319Y-87916489D01*
X144190320Y-87916488D01*
X144207880Y-87850947D01*
X144209699Y-87844804D01*
X144230674Y-87780256D01*
X144232139Y-87766307D01*
X144235684Y-87747183D01*
X144239312Y-87733646D01*
X144242862Y-87665906D01*
X144243370Y-87659455D01*
X144243410Y-87659079D01*
X144245500Y-87639192D01*
X144245500Y-87618819D01*
X144245670Y-87612329D01*
X144245921Y-87607538D01*
X144249219Y-87544612D01*
X144247027Y-87530772D01*
X144245500Y-87511373D01*
X144245500Y-59325439D01*
X144265185Y-59258400D01*
X144317989Y-59212645D01*
X144326168Y-59209257D01*
X144437326Y-59167798D01*
X144437326Y-59167797D01*
X144437331Y-59167796D01*
X144552546Y-59081546D01*
X144623152Y-58987229D01*
X144644112Y-58959231D01*
X144646382Y-58960930D01*
X144685565Y-58921743D01*
X144753837Y-58906886D01*
X144819303Y-58931298D01*
G37*
G04 #@! TD.AperFunction*
G04 #@! TA.AperFunction,Conductor*
G36*
X72304087Y-83225030D02*
G01*
X72343116Y-83251406D01*
X74729181Y-85637471D01*
X74762666Y-85698794D01*
X74765500Y-85725152D01*
X74765500Y-86381727D01*
X74745815Y-86448766D01*
X74693011Y-86494521D01*
X74623853Y-86504465D01*
X74576223Y-86487154D01*
X74413184Y-86386205D01*
X74413177Y-86386201D01*
X74205804Y-86305865D01*
X73987193Y-86265000D01*
X73764807Y-86265000D01*
X73546195Y-86305865D01*
X73338824Y-86386200D01*
X73338823Y-86386201D01*
X73222671Y-86458119D01*
X73876000Y-87111447D01*
X73879553Y-87115000D01*
X73846995Y-87115000D01*
X73760784Y-87129386D01*
X73658053Y-87184981D01*
X73578940Y-87270921D01*
X73532018Y-87377892D01*
X73522372Y-87494302D01*
X73551047Y-87607538D01*
X73614936Y-87705327D01*
X73707115Y-87777072D01*
X73817595Y-87815000D01*
X73905005Y-87815000D01*
X73991216Y-87800614D01*
X74093947Y-87745019D01*
X74173060Y-87659079D01*
X74219982Y-87552108D01*
X74227380Y-87462827D01*
X74745893Y-87981340D01*
X74777406Y-88039052D01*
X74778394Y-88038799D01*
X74780335Y-88046359D01*
X74796414Y-88086972D01*
X74800197Y-88098021D01*
X74811779Y-88137886D01*
X74812382Y-88139959D01*
X74819701Y-88152336D01*
X74822580Y-88157203D01*
X74831136Y-88174669D01*
X74833697Y-88181135D01*
X74838514Y-88193301D01*
X74864181Y-88228629D01*
X74870593Y-88238390D01*
X74892828Y-88275986D01*
X74892833Y-88275993D01*
X74906990Y-88290149D01*
X74919627Y-88304944D01*
X74931406Y-88321156D01*
X74952856Y-88338901D01*
X74965056Y-88348994D01*
X74973685Y-88356845D01*
X75119182Y-88502341D01*
X75152666Y-88563662D01*
X75155500Y-88590021D01*
X75155500Y-93131283D01*
X75135815Y-93198322D01*
X75083011Y-93244077D01*
X75013853Y-93254021D01*
X74950297Y-93224996D01*
X74925383Y-93195433D01*
X74767754Y-92934682D01*
X74767751Y-92934678D01*
X74767748Y-92934673D01*
X74562539Y-92672744D01*
X74327255Y-92437460D01*
X74065326Y-92232251D01*
X74065318Y-92232246D01*
X73780557Y-92060102D01*
X73477123Y-91923537D01*
X73477116Y-91923534D01*
X73477104Y-91923530D01*
X73159449Y-91824546D01*
X73159445Y-91824545D01*
X73159441Y-91824544D01*
X72832142Y-91764564D01*
X72832141Y-91764563D01*
X72832136Y-91764563D01*
X72583114Y-91749500D01*
X72583106Y-91749500D01*
X72416894Y-91749500D01*
X72416885Y-91749500D01*
X72167863Y-91764563D01*
X72110900Y-91775002D01*
X71840559Y-91824544D01*
X71840556Y-91824544D01*
X71840550Y-91824546D01*
X71522895Y-91923530D01*
X71522879Y-91923536D01*
X71522877Y-91923537D01*
X71407796Y-91975331D01*
X71219447Y-92060100D01*
X71219445Y-92060101D01*
X70934673Y-92232251D01*
X70672744Y-92437460D01*
X70437460Y-92672744D01*
X70232251Y-92934673D01*
X70168407Y-93040284D01*
X70076256Y-93192722D01*
X70060101Y-93219445D01*
X70060099Y-93219447D01*
X70039576Y-93265050D01*
X69994111Y-93318105D01*
X69927181Y-93338157D01*
X69860034Y-93318841D01*
X69813990Y-93266289D01*
X69802500Y-93214159D01*
X69802500Y-91077452D01*
X69822185Y-91010413D01*
X69838819Y-90989771D01*
X70140619Y-90687971D01*
X70449788Y-90378801D01*
X70462042Y-90368986D01*
X70461859Y-90368764D01*
X70467868Y-90363791D01*
X70467877Y-90363786D01*
X70513949Y-90314722D01*
X70516566Y-90312023D01*
X70536120Y-90292471D01*
X70538576Y-90289303D01*
X70546156Y-90280427D01*
X70576062Y-90248582D01*
X70585715Y-90231020D01*
X70596389Y-90214770D01*
X70608673Y-90198936D01*
X70626019Y-90158850D01*
X70631157Y-90148362D01*
X70634100Y-90143010D01*
X70652197Y-90110092D01*
X70657177Y-90090691D01*
X70663478Y-90072288D01*
X70671438Y-90053896D01*
X70678272Y-90010741D01*
X70680635Y-89999331D01*
X70691500Y-89957019D01*
X70691500Y-89936983D01*
X70693027Y-89917582D01*
X70694357Y-89909185D01*
X70696160Y-89897804D01*
X70692050Y-89854324D01*
X70691500Y-89842655D01*
X70691500Y-88683239D01*
X70711185Y-88616200D01*
X70763989Y-88570445D01*
X70833147Y-88560501D01*
X70860294Y-88567613D01*
X71006190Y-88624133D01*
X71224807Y-88665000D01*
X71447193Y-88665000D01*
X71665809Y-88624133D01*
X71873168Y-88543801D01*
X71873181Y-88543795D01*
X71989324Y-88471880D01*
X73222672Y-88471880D01*
X73338821Y-88543797D01*
X73338822Y-88543798D01*
X73546195Y-88624134D01*
X73764807Y-88665000D01*
X73987193Y-88665000D01*
X74205809Y-88624133D01*
X74413168Y-88543801D01*
X74413181Y-88543795D01*
X74529326Y-88471879D01*
X73876001Y-87818553D01*
X73876000Y-87818553D01*
X73222672Y-88471879D01*
X73222672Y-88471880D01*
X71989324Y-88471880D01*
X71989326Y-88471879D01*
X71332447Y-87815000D01*
X71365005Y-87815000D01*
X71451216Y-87800614D01*
X71553947Y-87745019D01*
X71633060Y-87659079D01*
X71679982Y-87552108D01*
X71687200Y-87465000D01*
X71689553Y-87465000D01*
X72344861Y-88120308D01*
X72360631Y-88099425D01*
X72360633Y-88099422D01*
X72459760Y-87900349D01*
X72486733Y-87805548D01*
X72524012Y-87746454D01*
X72587322Y-87716896D01*
X72656561Y-87726258D01*
X72709748Y-87771567D01*
X72725267Y-87805548D01*
X72752239Y-87900349D01*
X72851369Y-88099428D01*
X72867137Y-88120308D01*
X72867138Y-88120308D01*
X73522447Y-87465000D01*
X72867138Y-86809691D01*
X72867137Y-86809691D01*
X72851368Y-86830574D01*
X72752240Y-87029649D01*
X72725267Y-87124452D01*
X72687987Y-87183545D01*
X72624678Y-87213103D01*
X72555438Y-87203741D01*
X72502252Y-87158432D01*
X72486733Y-87124452D01*
X72459759Y-87029649D01*
X72360635Y-86830580D01*
X72360630Y-86830572D01*
X72344860Y-86809690D01*
X71689553Y-87464999D01*
X71689553Y-87465000D01*
X71687200Y-87465000D01*
X71689628Y-87435698D01*
X71660953Y-87322462D01*
X71597064Y-87224673D01*
X71504885Y-87152928D01*
X71394405Y-87115000D01*
X71332447Y-87115000D01*
X71989327Y-86458119D01*
X71873178Y-86386202D01*
X71873177Y-86386201D01*
X71665804Y-86305865D01*
X71447193Y-86265000D01*
X71224807Y-86265000D01*
X71006194Y-86305865D01*
X70860294Y-86362387D01*
X70790670Y-86368249D01*
X70728930Y-86335539D01*
X70694675Y-86274642D01*
X70691500Y-86246760D01*
X70691500Y-83603774D01*
X70711185Y-83536735D01*
X70763989Y-83490980D01*
X70833147Y-83481036D01*
X70860287Y-83488145D01*
X71006060Y-83544618D01*
X71224757Y-83585500D01*
X71224759Y-83585500D01*
X71447241Y-83585500D01*
X71447243Y-83585500D01*
X71665940Y-83544618D01*
X71873401Y-83464247D01*
X72062562Y-83347124D01*
X72171900Y-83247449D01*
X72234700Y-83216833D01*
X72304087Y-83225030D01*
G37*
G04 #@! TD.AperFunction*
G04 #@! TA.AperFunction,Conductor*
G36*
X77753865Y-78610348D02*
G01*
X77798382Y-78661725D01*
X77825429Y-78719728D01*
X77825432Y-78719734D01*
X77955954Y-78906141D01*
X78116858Y-79067045D01*
X78116861Y-79067047D01*
X78303266Y-79197568D01*
X78509504Y-79293739D01*
X78729308Y-79352635D01*
X78891230Y-79366801D01*
X78955998Y-79372468D01*
X78956000Y-79372468D01*
X78956001Y-79372468D01*
X78993856Y-79369155D01*
X79063692Y-79363046D01*
X79132192Y-79376813D01*
X79182375Y-79425428D01*
X79198500Y-79486574D01*
X79198500Y-87646209D01*
X79178815Y-87713248D01*
X79126011Y-87759003D01*
X79117833Y-87762391D01*
X79056671Y-87785202D01*
X79056664Y-87785206D01*
X78941455Y-87871452D01*
X78941452Y-87871455D01*
X78855206Y-87986664D01*
X78855202Y-87986671D01*
X78804908Y-88121517D01*
X78801827Y-88150179D01*
X78798501Y-88181123D01*
X78798500Y-88181135D01*
X78798500Y-89004637D01*
X78778815Y-89071676D01*
X78762181Y-89092318D01*
X76618181Y-91236318D01*
X76556858Y-91269803D01*
X76487166Y-91264819D01*
X76431233Y-91222947D01*
X76406816Y-91157483D01*
X76406500Y-91148637D01*
X76406500Y-88789000D01*
X76426185Y-88721961D01*
X76478989Y-88676206D01*
X76521616Y-88666932D01*
X76521486Y-88665529D01*
X76527192Y-88665000D01*
X76745809Y-88624133D01*
X76953168Y-88543801D01*
X76953181Y-88543795D01*
X77069326Y-88471879D01*
X76412447Y-87815000D01*
X76445005Y-87815000D01*
X76531216Y-87800614D01*
X76633947Y-87745019D01*
X76713060Y-87659079D01*
X76759982Y-87552108D01*
X76767200Y-87465000D01*
X76769553Y-87465000D01*
X77424861Y-88120308D01*
X77440631Y-88099425D01*
X77440633Y-88099422D01*
X77539759Y-87900350D01*
X77600621Y-87686439D01*
X77621141Y-87465000D01*
X77621141Y-87464999D01*
X77600621Y-87243560D01*
X77539759Y-87029649D01*
X77440635Y-86830580D01*
X77440630Y-86830572D01*
X77424860Y-86809690D01*
X76769553Y-87464999D01*
X76769553Y-87465000D01*
X76767200Y-87465000D01*
X76769628Y-87435698D01*
X76740953Y-87322462D01*
X76677064Y-87224673D01*
X76584885Y-87152928D01*
X76474405Y-87115000D01*
X76412447Y-87115000D01*
X77069327Y-86458119D01*
X76953178Y-86386202D01*
X76953177Y-86386201D01*
X76745804Y-86305865D01*
X76527193Y-86265000D01*
X76304806Y-86265000D01*
X76163284Y-86291454D01*
X76093769Y-86284422D01*
X76039091Y-86240925D01*
X76016609Y-86174771D01*
X76016500Y-86169565D01*
X76016500Y-85497442D01*
X76018224Y-85481822D01*
X76017939Y-85481795D01*
X76018673Y-85474033D01*
X76016561Y-85406812D01*
X76016500Y-85402918D01*
X76016500Y-85375356D01*
X76016500Y-85375350D01*
X76015996Y-85371368D01*
X76015081Y-85359729D01*
X76013710Y-85316073D01*
X76008119Y-85296830D01*
X76004173Y-85277778D01*
X76001664Y-85257908D01*
X75985579Y-85217283D01*
X75981806Y-85206262D01*
X75969618Y-85164310D01*
X75969617Y-85164309D01*
X75969617Y-85164307D01*
X75969616Y-85164306D01*
X75959423Y-85147071D01*
X75950861Y-85129594D01*
X75943487Y-85110969D01*
X75917816Y-85075637D01*
X75911405Y-85065877D01*
X75889170Y-85028280D01*
X75889168Y-85028278D01*
X75889165Y-85028274D01*
X75875006Y-85014115D01*
X75862368Y-84999319D01*
X75850594Y-84983113D01*
X75816940Y-84955272D01*
X75808299Y-84947409D01*
X74469586Y-83608695D01*
X74436101Y-83547372D01*
X74441085Y-83477680D01*
X74482957Y-83421747D01*
X74491990Y-83415587D01*
X74602560Y-83347125D01*
X74602559Y-83347125D01*
X74602562Y-83347124D01*
X74752431Y-83210500D01*
X74766979Y-83197238D01*
X74788190Y-83169151D01*
X74901058Y-83019689D01*
X75000229Y-82820528D01*
X75026734Y-82727371D01*
X75064013Y-82668278D01*
X75127323Y-82638721D01*
X75196562Y-82648083D01*
X75249749Y-82693393D01*
X75265266Y-82727372D01*
X75291769Y-82820523D01*
X75291775Y-82820538D01*
X75390938Y-83019683D01*
X75390943Y-83019691D01*
X75525020Y-83197238D01*
X75689437Y-83347123D01*
X75689439Y-83347125D01*
X75878595Y-83464245D01*
X75878596Y-83464245D01*
X75878599Y-83464247D01*
X76086060Y-83544618D01*
X76304757Y-83585500D01*
X76304759Y-83585500D01*
X76527241Y-83585500D01*
X76527243Y-83585500D01*
X76745940Y-83544618D01*
X76953401Y-83464247D01*
X77142562Y-83347124D01*
X77292431Y-83210500D01*
X77306979Y-83197238D01*
X77328190Y-83169151D01*
X77441058Y-83019689D01*
X77540229Y-82820528D01*
X77601115Y-82606536D01*
X77621643Y-82385000D01*
X77611587Y-82276482D01*
X77601115Y-82163464D01*
X77601114Y-82163462D01*
X77589293Y-82121916D01*
X77540229Y-81949472D01*
X77540224Y-81949461D01*
X77441061Y-81750316D01*
X77441056Y-81750308D01*
X77306979Y-81572761D01*
X77142562Y-81422876D01*
X77142560Y-81422874D01*
X76953404Y-81305754D01*
X76953398Y-81305752D01*
X76745940Y-81225382D01*
X76527243Y-81184500D01*
X76304757Y-81184500D01*
X76086060Y-81225382D01*
X76038384Y-81243852D01*
X75878601Y-81305752D01*
X75878595Y-81305754D01*
X75689439Y-81422874D01*
X75689437Y-81422876D01*
X75525020Y-81572761D01*
X75390943Y-81750308D01*
X75390938Y-81750316D01*
X75291775Y-81949461D01*
X75291769Y-81949476D01*
X75265266Y-82042627D01*
X75227987Y-82101721D01*
X75164677Y-82131278D01*
X75095438Y-82121916D01*
X75042251Y-82076606D01*
X75026734Y-82042627D01*
X75000230Y-81949476D01*
X75000229Y-81949472D01*
X75000224Y-81949461D01*
X74901061Y-81750316D01*
X74901056Y-81750308D01*
X74766979Y-81572761D01*
X74602562Y-81422876D01*
X74602560Y-81422874D01*
X74413404Y-81305754D01*
X74413398Y-81305752D01*
X74205940Y-81225382D01*
X73987243Y-81184500D01*
X73764757Y-81184500D01*
X73546060Y-81225382D01*
X73546057Y-81225382D01*
X73546057Y-81225383D01*
X73400293Y-81281852D01*
X73330670Y-81287714D01*
X73268930Y-81255003D01*
X73234675Y-81194107D01*
X73231500Y-81166225D01*
X73231500Y-79396048D01*
X73251185Y-79329009D01*
X73303989Y-79283254D01*
X73373147Y-79273310D01*
X73407905Y-79283667D01*
X73429504Y-79293739D01*
X73649308Y-79352635D01*
X73811230Y-79366801D01*
X73875998Y-79372468D01*
X73876000Y-79372468D01*
X73876002Y-79372468D01*
X73932673Y-79367509D01*
X74102692Y-79352635D01*
X74322496Y-79293739D01*
X74528734Y-79197568D01*
X74715139Y-79067047D01*
X74876047Y-78906139D01*
X75006568Y-78719734D01*
X75033618Y-78661724D01*
X75079790Y-78609285D01*
X75146983Y-78590133D01*
X75213865Y-78610348D01*
X75258382Y-78661725D01*
X75285429Y-78719728D01*
X75285432Y-78719734D01*
X75415954Y-78906141D01*
X75576858Y-79067045D01*
X75576861Y-79067047D01*
X75763266Y-79197568D01*
X75969504Y-79293739D01*
X76189308Y-79352635D01*
X76351230Y-79366801D01*
X76415998Y-79372468D01*
X76416000Y-79372468D01*
X76416002Y-79372468D01*
X76472673Y-79367509D01*
X76642692Y-79352635D01*
X76862496Y-79293739D01*
X77068734Y-79197568D01*
X77255139Y-79067047D01*
X77416047Y-78906139D01*
X77546568Y-78719734D01*
X77573618Y-78661724D01*
X77619790Y-78609285D01*
X77686983Y-78590133D01*
X77753865Y-78610348D01*
G37*
G04 #@! TD.AperFunction*
G04 #@! TA.AperFunction,Conductor*
G36*
X131714359Y-88750955D02*
G01*
X131656835Y-88863852D01*
X131637014Y-88989000D01*
X131656835Y-89114148D01*
X131714359Y-89227045D01*
X131726314Y-89239000D01*
X129817686Y-89239000D01*
X129829641Y-89227045D01*
X129887165Y-89114148D01*
X129906986Y-88989000D01*
X129887165Y-88863852D01*
X129829641Y-88750955D01*
X129817686Y-88739000D01*
X131726314Y-88739000D01*
X131714359Y-88750955D01*
G37*
G04 #@! TD.AperFunction*
G04 #@! TA.AperFunction,Conductor*
G36*
X132497239Y-88758685D02*
G01*
X132542994Y-88811489D01*
X132554200Y-88863000D01*
X132554200Y-89115000D01*
X132534515Y-89182039D01*
X132481711Y-89227794D01*
X132430200Y-89239000D01*
X132357686Y-89239000D01*
X132369641Y-89227045D01*
X132427165Y-89114148D01*
X132446986Y-88989000D01*
X132427165Y-88863852D01*
X132369641Y-88750955D01*
X132357686Y-88739000D01*
X132430200Y-88739000D01*
X132497239Y-88758685D01*
G37*
G04 #@! TD.AperFunction*
G04 #@! TA.AperFunction,Conductor*
G36*
X134254359Y-88750955D02*
G01*
X134196835Y-88863852D01*
X134177014Y-88989000D01*
X134196835Y-89114148D01*
X134254359Y-89227045D01*
X134266314Y-89239000D01*
X133929200Y-89239000D01*
X133862161Y-89219315D01*
X133816406Y-89166511D01*
X133805200Y-89115000D01*
X133805200Y-88863000D01*
X133824885Y-88795961D01*
X133877689Y-88750206D01*
X133929200Y-88739000D01*
X134266314Y-88739000D01*
X134254359Y-88750955D01*
G37*
G04 #@! TD.AperFunction*
G04 #@! TA.AperFunction,Conductor*
G36*
X133379865Y-81912348D02*
G01*
X133424382Y-81963725D01*
X133451429Y-82021728D01*
X133451432Y-82021734D01*
X133581954Y-82208141D01*
X133742858Y-82369045D01*
X133742861Y-82369047D01*
X133929266Y-82499568D01*
X134135504Y-82595739D01*
X134355308Y-82654635D01*
X134511248Y-82668278D01*
X134581998Y-82674468D01*
X134582000Y-82674468D01*
X134582002Y-82674468D01*
X134651220Y-82668412D01*
X134808692Y-82654635D01*
X135028496Y-82595739D01*
X135050093Y-82585667D01*
X135119169Y-82575173D01*
X135182954Y-82603691D01*
X135221195Y-82662167D01*
X135226500Y-82698048D01*
X135226500Y-87660502D01*
X135206815Y-87727541D01*
X135154011Y-87773296D01*
X135084853Y-87783240D01*
X135050098Y-87772885D01*
X135028331Y-87762735D01*
X134832000Y-87710127D01*
X134832000Y-88673314D01*
X134820045Y-88661359D01*
X134707148Y-88603835D01*
X134613481Y-88589000D01*
X134550519Y-88589000D01*
X134456852Y-88603835D01*
X134343955Y-88661359D01*
X134332000Y-88673314D01*
X134332000Y-87710127D01*
X134135671Y-87762734D01*
X133981605Y-87834577D01*
X133912527Y-87845069D01*
X133848743Y-87816549D01*
X133810504Y-87758072D01*
X133805200Y-87722195D01*
X133805200Y-83714542D01*
X133806924Y-83698922D01*
X133806639Y-83698895D01*
X133807373Y-83691133D01*
X133805261Y-83623912D01*
X133805200Y-83620018D01*
X133805200Y-83592456D01*
X133805200Y-83592450D01*
X133804696Y-83588468D01*
X133803781Y-83576829D01*
X133803752Y-83575891D01*
X133802410Y-83533173D01*
X133796819Y-83513930D01*
X133792873Y-83494878D01*
X133790364Y-83475008D01*
X133774279Y-83434383D01*
X133770506Y-83423362D01*
X133758318Y-83381410D01*
X133758317Y-83381409D01*
X133758317Y-83381407D01*
X133758316Y-83381406D01*
X133748123Y-83364171D01*
X133739561Y-83346694D01*
X133732187Y-83328069D01*
X133706516Y-83292737D01*
X133700105Y-83282977D01*
X133677870Y-83245380D01*
X133677868Y-83245378D01*
X133677865Y-83245374D01*
X133663706Y-83231215D01*
X133651068Y-83216419D01*
X133646768Y-83210500D01*
X133639294Y-83200213D01*
X133635695Y-83197236D01*
X133605640Y-83172372D01*
X133596999Y-83164509D01*
X133230322Y-82797832D01*
X132929017Y-82496527D01*
X132895534Y-82435206D01*
X132900518Y-82365514D01*
X132929017Y-82321168D01*
X133042047Y-82208139D01*
X133172568Y-82021734D01*
X133199618Y-81963724D01*
X133245790Y-81911285D01*
X133312983Y-81892133D01*
X133379865Y-81912348D01*
G37*
G04 #@! TD.AperFunction*
G04 #@! TA.AperFunction,Conductor*
G36*
X135182991Y-71367185D02*
G01*
X135203628Y-71383814D01*
X135239803Y-71419989D01*
X135266862Y-71447048D01*
X135301784Y-71471500D01*
X135453266Y-71577568D01*
X135659504Y-71673739D01*
X135659509Y-71673740D01*
X135659511Y-71673741D01*
X135712415Y-71687916D01*
X135879308Y-71732635D01*
X136036780Y-71746412D01*
X136105998Y-71752468D01*
X136106000Y-71752468D01*
X136106002Y-71752468D01*
X136175220Y-71746412D01*
X136332692Y-71732635D01*
X136552496Y-71673739D01*
X136758734Y-71577568D01*
X136945139Y-71447047D01*
X137008368Y-71383817D01*
X137069689Y-71350334D01*
X137096048Y-71347500D01*
X142320500Y-71347500D01*
X142387539Y-71367185D01*
X142433294Y-71419989D01*
X142444500Y-71471500D01*
X142444500Y-83669036D01*
X142424815Y-83736075D01*
X142372011Y-83781830D01*
X142302853Y-83791774D01*
X142239297Y-83762749D01*
X142201523Y-83703971D01*
X142200725Y-83701130D01*
X142158268Y-83542679D01*
X142158264Y-83542668D01*
X142062136Y-83336521D01*
X142062132Y-83336513D01*
X142011025Y-83263526D01*
X141329953Y-83944598D01*
X141317165Y-83863852D01*
X141259641Y-83750955D01*
X141170045Y-83661359D01*
X141057148Y-83603835D01*
X140976401Y-83591046D01*
X141657472Y-82909974D01*
X141584478Y-82858863D01*
X141378331Y-82762735D01*
X141378317Y-82762730D01*
X141158610Y-82703860D01*
X141158599Y-82703858D01*
X140932002Y-82684034D01*
X140931998Y-82684034D01*
X140705400Y-82703858D01*
X140705389Y-82703860D01*
X140485682Y-82762730D01*
X140485673Y-82762734D01*
X140279516Y-82858866D01*
X140279512Y-82858868D01*
X140206526Y-82909973D01*
X140206526Y-82909974D01*
X140887599Y-83591046D01*
X140806852Y-83603835D01*
X140693955Y-83661359D01*
X140604359Y-83750955D01*
X140546835Y-83863852D01*
X140534046Y-83944598D01*
X139852974Y-83263526D01*
X139852973Y-83263526D01*
X139801868Y-83336512D01*
X139801866Y-83336516D01*
X139705734Y-83542673D01*
X139705730Y-83542682D01*
X139646860Y-83762389D01*
X139646858Y-83762400D01*
X139627034Y-83988997D01*
X139627034Y-83989002D01*
X139646858Y-84215599D01*
X139646860Y-84215610D01*
X139705730Y-84435317D01*
X139705735Y-84435331D01*
X139801863Y-84641478D01*
X139852974Y-84714472D01*
X140534046Y-84033400D01*
X140546835Y-84114148D01*
X140604359Y-84227045D01*
X140693955Y-84316641D01*
X140806852Y-84374165D01*
X140887599Y-84386953D01*
X140206526Y-85068025D01*
X140279513Y-85119132D01*
X140279521Y-85119136D01*
X140485668Y-85215264D01*
X140485682Y-85215269D01*
X140705389Y-85274139D01*
X140705400Y-85274141D01*
X140931998Y-85293966D01*
X140932002Y-85293966D01*
X141158599Y-85274141D01*
X141158610Y-85274139D01*
X141378317Y-85215269D01*
X141378331Y-85215264D01*
X141584478Y-85119136D01*
X141657471Y-85068024D01*
X140976400Y-84386953D01*
X141057148Y-84374165D01*
X141170045Y-84316641D01*
X141259641Y-84227045D01*
X141317165Y-84114148D01*
X141329953Y-84033400D01*
X142011024Y-84714471D01*
X142062136Y-84641478D01*
X142158264Y-84435331D01*
X142158269Y-84435317D01*
X142200725Y-84276870D01*
X142237090Y-84217209D01*
X142299937Y-84186680D01*
X142369312Y-84194975D01*
X142423190Y-84239460D01*
X142444465Y-84306012D01*
X142444500Y-84308963D01*
X142444500Y-87167638D01*
X142424815Y-87234677D01*
X142408181Y-87255319D01*
X141787899Y-87875600D01*
X141726576Y-87909085D01*
X141656884Y-87904101D01*
X141629097Y-87889495D01*
X141584734Y-87858432D01*
X141533577Y-87834577D01*
X141378497Y-87762261D01*
X141378488Y-87762258D01*
X141158697Y-87703366D01*
X141158693Y-87703365D01*
X141158692Y-87703365D01*
X141158691Y-87703364D01*
X141158686Y-87703364D01*
X140932002Y-87683532D01*
X140931998Y-87683532D01*
X140705313Y-87703364D01*
X140705302Y-87703366D01*
X140485511Y-87762258D01*
X140485502Y-87762261D01*
X140279267Y-87858431D01*
X140279265Y-87858432D01*
X140092862Y-87988951D01*
X140065012Y-88016802D01*
X140029631Y-88052182D01*
X139968311Y-88085666D01*
X139941952Y-88088500D01*
X138112048Y-88088500D01*
X138045009Y-88068815D01*
X138024371Y-88052185D01*
X137961139Y-87988953D01*
X137961138Y-87988952D01*
X137961137Y-87988951D01*
X137774734Y-87858432D01*
X137774732Y-87858431D01*
X137568497Y-87762261D01*
X137568488Y-87762258D01*
X137348697Y-87703366D01*
X137348693Y-87703365D01*
X137348692Y-87703365D01*
X137348691Y-87703364D01*
X137348686Y-87703364D01*
X137122002Y-87683532D01*
X137121998Y-87683532D01*
X136895313Y-87703364D01*
X136895302Y-87703366D01*
X136675511Y-87762258D01*
X136675501Y-87762262D01*
X136653901Y-87772334D01*
X136584824Y-87782824D01*
X136521040Y-87754302D01*
X136482803Y-87695824D01*
X136477500Y-87659950D01*
X136477500Y-82949451D01*
X136497185Y-82882412D01*
X136513815Y-82861774D01*
X136669771Y-82705817D01*
X136731094Y-82672333D01*
X136757452Y-82669499D01*
X137969871Y-82669499D01*
X137969872Y-82669499D01*
X138029483Y-82663091D01*
X138164331Y-82612796D01*
X138279546Y-82526546D01*
X138365796Y-82411331D01*
X138416091Y-82276483D01*
X138422500Y-82216873D01*
X138422499Y-80521128D01*
X138416091Y-80461517D01*
X138386006Y-80380856D01*
X138365797Y-80326671D01*
X138365793Y-80326664D01*
X138279547Y-80211455D01*
X138279544Y-80211452D01*
X138164335Y-80125206D01*
X138164328Y-80125202D01*
X138029482Y-80074908D01*
X138029483Y-80074908D01*
X137969883Y-80068501D01*
X137969881Y-80068500D01*
X137969873Y-80068500D01*
X137969864Y-80068500D01*
X136274129Y-80068500D01*
X136274123Y-80068501D01*
X136214516Y-80074908D01*
X136079671Y-80125202D01*
X136079664Y-80125206D01*
X135964455Y-80211452D01*
X135964452Y-80211455D01*
X135878206Y-80326664D01*
X135878202Y-80326671D01*
X135827908Y-80461516D01*
X135824137Y-80496596D01*
X135797398Y-80561146D01*
X135740006Y-80600994D01*
X135670180Y-80603487D01*
X135610092Y-80567834D01*
X135599273Y-80554462D01*
X135582045Y-80529858D01*
X135421140Y-80368953D01*
X135257893Y-80254647D01*
X135214268Y-80200070D01*
X135205077Y-80156964D01*
X135205062Y-80156482D01*
X135204710Y-80145273D01*
X135199119Y-80126030D01*
X135195173Y-80106978D01*
X135192664Y-80087108D01*
X135176579Y-80046483D01*
X135172806Y-80035462D01*
X135160618Y-79993510D01*
X135160617Y-79993509D01*
X135160617Y-79993507D01*
X135160616Y-79993506D01*
X135150423Y-79976271D01*
X135141861Y-79958794D01*
X135134487Y-79940169D01*
X135121989Y-79922968D01*
X135108811Y-79904830D01*
X135102405Y-79895077D01*
X135082255Y-79861005D01*
X135080172Y-79857483D01*
X135080165Y-79857474D01*
X135066006Y-79843315D01*
X135053368Y-79828519D01*
X135047505Y-79820449D01*
X135041594Y-79812313D01*
X135007940Y-79784472D01*
X134999299Y-79776609D01*
X131560819Y-76338128D01*
X131527334Y-76276805D01*
X131524500Y-76250447D01*
X131524500Y-71776048D01*
X131544185Y-71709009D01*
X131596989Y-71663254D01*
X131666147Y-71653310D01*
X131700905Y-71663667D01*
X131722504Y-71673739D01*
X131722509Y-71673740D01*
X131722511Y-71673741D01*
X131775415Y-71687916D01*
X131942308Y-71732635D01*
X132099780Y-71746412D01*
X132168998Y-71752468D01*
X132169000Y-71752468D01*
X132169002Y-71752468D01*
X132238220Y-71746412D01*
X132395692Y-71732635D01*
X132615496Y-71673739D01*
X132821734Y-71577568D01*
X133008139Y-71447047D01*
X133071368Y-71383817D01*
X133132689Y-71350334D01*
X133159048Y-71347500D01*
X135115952Y-71347500D01*
X135182991Y-71367185D01*
G37*
G04 #@! TD.AperFunction*
G04 #@! TA.AperFunction,Conductor*
G36*
X128426865Y-70990348D02*
G01*
X128471382Y-71041725D01*
X128498429Y-71099728D01*
X128498432Y-71099734D01*
X128628954Y-71286141D01*
X128789858Y-71447045D01*
X128950623Y-71559613D01*
X128994248Y-71614189D01*
X129003500Y-71661188D01*
X129003500Y-79820449D01*
X128988160Y-79880190D01*
X128982286Y-79890874D01*
X128971609Y-79907128D01*
X128959329Y-79922960D01*
X128959324Y-79922968D01*
X128941975Y-79963058D01*
X128936838Y-79973544D01*
X128915803Y-80011806D01*
X128910822Y-80031207D01*
X128904521Y-80049610D01*
X128896562Y-80068002D01*
X128896561Y-80068005D01*
X128889728Y-80111143D01*
X128887360Y-80122574D01*
X128876499Y-80164878D01*
X128875836Y-80170132D01*
X128847905Y-80234176D01*
X128823937Y-80256166D01*
X128662859Y-80368953D01*
X128501954Y-80529858D01*
X128371432Y-80716265D01*
X128371431Y-80716267D01*
X128344382Y-80774275D01*
X128298209Y-80826714D01*
X128231016Y-80845866D01*
X128164135Y-80825650D01*
X128119618Y-80774275D01*
X128092686Y-80716520D01*
X128092568Y-80716266D01*
X127962047Y-80529861D01*
X127962045Y-80529858D01*
X127801141Y-80368954D01*
X127614734Y-80238432D01*
X127614732Y-80238431D01*
X127408497Y-80142261D01*
X127408488Y-80142258D01*
X127188697Y-80083366D01*
X127188693Y-80083365D01*
X127188692Y-80083365D01*
X127188691Y-80083364D01*
X127188686Y-80083364D01*
X126962002Y-80063532D01*
X126961998Y-80063532D01*
X126735313Y-80083364D01*
X126735302Y-80083366D01*
X126515511Y-80142258D01*
X126515502Y-80142261D01*
X126309267Y-80238431D01*
X126309265Y-80238432D01*
X126122858Y-80368954D01*
X125961954Y-80529858D01*
X125831432Y-80716265D01*
X125831431Y-80716267D01*
X125804382Y-80774275D01*
X125758209Y-80826714D01*
X125691016Y-80845866D01*
X125624135Y-80825650D01*
X125579618Y-80774275D01*
X125552686Y-80716520D01*
X125552568Y-80716266D01*
X125422047Y-80529861D01*
X125422045Y-80529858D01*
X125261141Y-80368954D01*
X125074734Y-80238432D01*
X125074732Y-80238431D01*
X124868497Y-80142261D01*
X124868488Y-80142258D01*
X124648697Y-80083366D01*
X124648693Y-80083365D01*
X124648692Y-80083365D01*
X124648691Y-80083364D01*
X124648686Y-80083364D01*
X124422002Y-80063532D01*
X124421998Y-80063532D01*
X124195313Y-80083364D01*
X124195302Y-80083366D01*
X123975511Y-80142258D01*
X123975502Y-80142261D01*
X123769267Y-80238431D01*
X123769265Y-80238432D01*
X123582858Y-80368954D01*
X123421954Y-80529858D01*
X123291432Y-80716265D01*
X123291431Y-80716267D01*
X123264382Y-80774275D01*
X123218209Y-80826714D01*
X123151016Y-80845866D01*
X123084135Y-80825650D01*
X123039618Y-80774275D01*
X123012686Y-80716520D01*
X123012568Y-80716266D01*
X122882047Y-80529861D01*
X122882045Y-80529858D01*
X122721141Y-80368954D01*
X122534734Y-80238432D01*
X122534732Y-80238431D01*
X122328497Y-80142261D01*
X122328488Y-80142258D01*
X122108697Y-80083366D01*
X122108693Y-80083365D01*
X122108692Y-80083365D01*
X122108691Y-80083364D01*
X122108686Y-80083364D01*
X121882002Y-80063532D01*
X121881998Y-80063532D01*
X121655313Y-80083364D01*
X121655302Y-80083366D01*
X121435511Y-80142258D01*
X121435502Y-80142261D01*
X121229267Y-80238431D01*
X121229265Y-80238432D01*
X121042858Y-80368954D01*
X120881954Y-80529858D01*
X120755970Y-80709785D01*
X120751432Y-80716266D01*
X120751315Y-80716518D01*
X120724106Y-80774867D01*
X120677933Y-80827306D01*
X120610739Y-80846457D01*
X120543858Y-80826241D01*
X120499342Y-80774865D01*
X120472135Y-80716520D01*
X120472134Y-80716518D01*
X120341657Y-80530179D01*
X120180820Y-80369342D01*
X119994482Y-80238865D01*
X119788328Y-80142734D01*
X119592000Y-80090127D01*
X119592000Y-81053314D01*
X119580045Y-81041359D01*
X119467148Y-80983835D01*
X119373481Y-80969000D01*
X119310519Y-80969000D01*
X119216852Y-80983835D01*
X119103955Y-81041359D01*
X119092000Y-81053314D01*
X119092000Y-80090127D01*
X118895671Y-80142734D01*
X118689517Y-80238865D01*
X118503179Y-80369342D01*
X118342342Y-80530179D01*
X118211865Y-80716517D01*
X118115734Y-80922673D01*
X118115730Y-80922682D01*
X118063127Y-81118999D01*
X118063128Y-81119000D01*
X119026314Y-81119000D01*
X119014359Y-81130955D01*
X118956835Y-81243852D01*
X118937014Y-81369000D01*
X118956835Y-81494148D01*
X119014359Y-81607045D01*
X119026314Y-81619000D01*
X118063128Y-81619000D01*
X118115730Y-81815317D01*
X118115734Y-81815326D01*
X118211865Y-82021482D01*
X118342342Y-82207820D01*
X118503179Y-82368657D01*
X118689517Y-82499134D01*
X118895673Y-82595265D01*
X118895682Y-82595269D01*
X119091999Y-82647872D01*
X119092000Y-82647871D01*
X119092000Y-81684686D01*
X119103955Y-81696641D01*
X119216852Y-81754165D01*
X119310519Y-81769000D01*
X119373481Y-81769000D01*
X119467148Y-81754165D01*
X119580045Y-81696641D01*
X119592000Y-81684686D01*
X119592000Y-82647872D01*
X119788317Y-82595269D01*
X119788326Y-82595265D01*
X119994482Y-82499134D01*
X120180820Y-82368657D01*
X120341657Y-82207820D01*
X120472132Y-82021484D01*
X120499341Y-81963134D01*
X120545513Y-81910695D01*
X120612707Y-81891542D01*
X120679588Y-81911757D01*
X120724106Y-81963133D01*
X120751431Y-82021732D01*
X120751432Y-82021734D01*
X120881954Y-82208141D01*
X121042858Y-82369045D01*
X121042861Y-82369047D01*
X121229266Y-82499568D01*
X121435504Y-82595739D01*
X121655308Y-82654635D01*
X121811248Y-82668278D01*
X121881998Y-82674468D01*
X121882000Y-82674468D01*
X121882002Y-82674468D01*
X121951220Y-82668412D01*
X122108692Y-82654635D01*
X122328496Y-82595739D01*
X122534734Y-82499568D01*
X122721139Y-82369047D01*
X122882047Y-82208139D01*
X123012568Y-82021734D01*
X123039618Y-81963724D01*
X123085790Y-81911285D01*
X123152983Y-81892133D01*
X123219865Y-81912348D01*
X123264382Y-81963725D01*
X123291429Y-82021728D01*
X123291432Y-82021734D01*
X123421954Y-82208141D01*
X123582858Y-82369045D01*
X123582861Y-82369047D01*
X123769266Y-82499568D01*
X123975504Y-82595739D01*
X124195308Y-82654635D01*
X124351248Y-82668278D01*
X124421998Y-82674468D01*
X124421999Y-82674468D01*
X124421999Y-82674467D01*
X124422000Y-82674468D01*
X124466102Y-82670609D01*
X124534600Y-82684375D01*
X124584784Y-82732989D01*
X124600718Y-82801018D01*
X124577344Y-82866862D01*
X124564590Y-82881818D01*
X121656628Y-85789781D01*
X121595305Y-85823266D01*
X121568947Y-85826100D01*
X82453748Y-85826100D01*
X82386709Y-85806415D01*
X82361600Y-85785074D01*
X82355873Y-85778714D01*
X82355869Y-85778710D01*
X82202734Y-85667451D01*
X82202729Y-85667448D01*
X82029807Y-85590457D01*
X82029802Y-85590455D01*
X81884001Y-85559465D01*
X81844646Y-85551100D01*
X81655354Y-85551100D01*
X81622897Y-85557998D01*
X81470197Y-85590455D01*
X81470192Y-85590457D01*
X81297270Y-85667448D01*
X81297265Y-85667451D01*
X81196385Y-85740745D01*
X81130578Y-85764225D01*
X81062525Y-85748399D01*
X81013830Y-85698293D01*
X80999500Y-85640427D01*
X80999500Y-84847172D01*
X81019185Y-84780133D01*
X81071989Y-84734378D01*
X81141147Y-84724434D01*
X81196383Y-84746853D01*
X81242190Y-84780133D01*
X81297270Y-84820151D01*
X81470192Y-84897142D01*
X81470197Y-84897144D01*
X81655354Y-84936500D01*
X81655355Y-84936500D01*
X81844644Y-84936500D01*
X81844646Y-84936500D01*
X82029803Y-84897144D01*
X82202730Y-84820151D01*
X82355871Y-84708888D01*
X82358788Y-84705647D01*
X82361600Y-84702526D01*
X82421087Y-84665879D01*
X82453748Y-84661500D01*
X113417257Y-84661500D01*
X113432877Y-84663224D01*
X113432904Y-84662939D01*
X113440660Y-84663671D01*
X113440667Y-84663673D01*
X113507873Y-84661561D01*
X113511768Y-84661500D01*
X113539346Y-84661500D01*
X113539350Y-84661500D01*
X113543324Y-84660997D01*
X113554963Y-84660080D01*
X113598627Y-84658709D01*
X113617869Y-84653117D01*
X113636912Y-84649174D01*
X113656792Y-84646664D01*
X113697401Y-84630585D01*
X113708444Y-84626803D01*
X113750390Y-84614618D01*
X113767629Y-84604422D01*
X113785103Y-84595862D01*
X113803727Y-84588488D01*
X113803727Y-84588487D01*
X113803732Y-84588486D01*
X113839083Y-84562800D01*
X113848814Y-84556408D01*
X113886420Y-84534170D01*
X113900589Y-84519999D01*
X113915379Y-84507368D01*
X113931587Y-84495594D01*
X113959438Y-84461926D01*
X113967279Y-84453309D01*
X126674179Y-71746410D01*
X126735500Y-71712927D01*
X126793947Y-71714317D01*
X126862308Y-71732635D01*
X127019780Y-71746412D01*
X127088998Y-71752468D01*
X127089000Y-71752468D01*
X127089002Y-71752468D01*
X127158220Y-71746412D01*
X127315692Y-71732635D01*
X127535496Y-71673739D01*
X127741734Y-71577568D01*
X127928139Y-71447047D01*
X128089047Y-71286139D01*
X128219568Y-71099734D01*
X128246618Y-71041724D01*
X128292790Y-70989285D01*
X128359983Y-70970133D01*
X128426865Y-70990348D01*
G37*
G04 #@! TD.AperFunction*
G04 #@! TA.AperFunction,Conductor*
G36*
X108208987Y-67917185D02*
G01*
X108229629Y-67933819D01*
X108325278Y-68029468D01*
X108358763Y-68090791D01*
X108353779Y-68160483D01*
X108311907Y-68216416D01*
X108288034Y-68230428D01*
X108129867Y-68300850D01*
X108129865Y-68300851D01*
X107976730Y-68412110D01*
X107976726Y-68412114D01*
X107971000Y-68418474D01*
X107911513Y-68455121D01*
X107878852Y-68459500D01*
X106568837Y-68459500D01*
X106553220Y-68457776D01*
X106553193Y-68458062D01*
X106545431Y-68457327D01*
X106478244Y-68459439D01*
X106474350Y-68459500D01*
X106446750Y-68459500D01*
X106443062Y-68459965D01*
X106442749Y-68460005D01*
X106431131Y-68460918D01*
X106387477Y-68462290D01*
X106387467Y-68462292D01*
X106368234Y-68467879D01*
X106349194Y-68471822D01*
X106329317Y-68474334D01*
X106329310Y-68474335D01*
X106329308Y-68474336D01*
X106329306Y-68474336D01*
X106329305Y-68474337D01*
X106288684Y-68490419D01*
X106277637Y-68494201D01*
X106235711Y-68506382D01*
X106235708Y-68506383D01*
X106218463Y-68516581D01*
X106201001Y-68525135D01*
X106182372Y-68532511D01*
X106182367Y-68532514D01*
X106147026Y-68558189D01*
X106137268Y-68564599D01*
X106099680Y-68586828D01*
X106085508Y-68601000D01*
X106070723Y-68613628D01*
X106054512Y-68625407D01*
X106026671Y-68659059D01*
X106018811Y-68667696D01*
X105241528Y-69444979D01*
X105180205Y-69478464D01*
X105110513Y-69473480D01*
X105073117Y-69449446D01*
X105072289Y-69450434D01*
X105068144Y-69446956D01*
X104881734Y-69316432D01*
X104881732Y-69316431D01*
X104675497Y-69220261D01*
X104675488Y-69220258D01*
X104455697Y-69161366D01*
X104455693Y-69161365D01*
X104455692Y-69161365D01*
X104455691Y-69161364D01*
X104455686Y-69161364D01*
X104229002Y-69141532D01*
X104228998Y-69141532D01*
X104002313Y-69161364D01*
X104002302Y-69161366D01*
X103782511Y-69220258D01*
X103782502Y-69220261D01*
X103576267Y-69316431D01*
X103576265Y-69316432D01*
X103389858Y-69446954D01*
X103228954Y-69607858D01*
X103098432Y-69794265D01*
X103098431Y-69794267D01*
X103071382Y-69852275D01*
X103025209Y-69904714D01*
X102958016Y-69923866D01*
X102891135Y-69903650D01*
X102846618Y-69852275D01*
X102819686Y-69794520D01*
X102819568Y-69794266D01*
X102689047Y-69607861D01*
X102689045Y-69607858D01*
X102528141Y-69446954D01*
X102341734Y-69316432D01*
X102341732Y-69316431D01*
X102135497Y-69220261D01*
X102135488Y-69220258D01*
X101915697Y-69161366D01*
X101915693Y-69161365D01*
X101915692Y-69161365D01*
X101915691Y-69161364D01*
X101915686Y-69161364D01*
X101689002Y-69141532D01*
X101688998Y-69141532D01*
X101462313Y-69161364D01*
X101462302Y-69161366D01*
X101242511Y-69220258D01*
X101242502Y-69220261D01*
X101036267Y-69316431D01*
X101036265Y-69316432D01*
X100849858Y-69446954D01*
X100688954Y-69607858D01*
X100558432Y-69794265D01*
X100558431Y-69794267D01*
X100531382Y-69852275D01*
X100485209Y-69904714D01*
X100418016Y-69923866D01*
X100351135Y-69903650D01*
X100306618Y-69852275D01*
X100279686Y-69794520D01*
X100279568Y-69794266D01*
X100149047Y-69607861D01*
X100149045Y-69607858D01*
X99988141Y-69446954D01*
X99801734Y-69316432D01*
X99801732Y-69316431D01*
X99595497Y-69220261D01*
X99595488Y-69220258D01*
X99375697Y-69161366D01*
X99375693Y-69161365D01*
X99375692Y-69161365D01*
X99375691Y-69161364D01*
X99375686Y-69161364D01*
X99149002Y-69141532D01*
X99148998Y-69141532D01*
X98922313Y-69161364D01*
X98922302Y-69161366D01*
X98702511Y-69220258D01*
X98702502Y-69220261D01*
X98496267Y-69316431D01*
X98496265Y-69316432D01*
X98309858Y-69446954D01*
X98148954Y-69607858D01*
X98018432Y-69794265D01*
X98018431Y-69794267D01*
X97991382Y-69852275D01*
X97945209Y-69904714D01*
X97878016Y-69923866D01*
X97811135Y-69903650D01*
X97766618Y-69852275D01*
X97739686Y-69794520D01*
X97739568Y-69794266D01*
X97609047Y-69607861D01*
X97609045Y-69607858D01*
X97448141Y-69446954D01*
X97261734Y-69316432D01*
X97261732Y-69316431D01*
X97055497Y-69220261D01*
X97055488Y-69220258D01*
X96835697Y-69161366D01*
X96835693Y-69161365D01*
X96835692Y-69161365D01*
X96835691Y-69161364D01*
X96835686Y-69161364D01*
X96609002Y-69141532D01*
X96608998Y-69141532D01*
X96382313Y-69161364D01*
X96382302Y-69161366D01*
X96162511Y-69220258D01*
X96162502Y-69220261D01*
X95956267Y-69316431D01*
X95956265Y-69316432D01*
X95769858Y-69446954D01*
X95608954Y-69607858D01*
X95478432Y-69794265D01*
X95478431Y-69794267D01*
X95451382Y-69852275D01*
X95405209Y-69904714D01*
X95338016Y-69923866D01*
X95271135Y-69903650D01*
X95226618Y-69852275D01*
X95199686Y-69794520D01*
X95199568Y-69794266D01*
X95069047Y-69607861D01*
X95069045Y-69607858D01*
X94908141Y-69446954D01*
X94721734Y-69316432D01*
X94721732Y-69316431D01*
X94515497Y-69220261D01*
X94515488Y-69220258D01*
X94295697Y-69161366D01*
X94295693Y-69161365D01*
X94295692Y-69161365D01*
X94295691Y-69161364D01*
X94295686Y-69161364D01*
X94069002Y-69141532D01*
X94068998Y-69141532D01*
X93842313Y-69161364D01*
X93842302Y-69161366D01*
X93622511Y-69220258D01*
X93622502Y-69220261D01*
X93416267Y-69316431D01*
X93416265Y-69316432D01*
X93229858Y-69446954D01*
X93068954Y-69607858D01*
X92938432Y-69794265D01*
X92938431Y-69794267D01*
X92842261Y-70000502D01*
X92842258Y-70000511D01*
X92783366Y-70220302D01*
X92783364Y-70220313D01*
X92763532Y-70446998D01*
X92763532Y-70447001D01*
X92783364Y-70673686D01*
X92783366Y-70673697D01*
X92842258Y-70893488D01*
X92842261Y-70893497D01*
X92938431Y-71099732D01*
X92938432Y-71099734D01*
X93068954Y-71286141D01*
X93229858Y-71447045D01*
X93250312Y-71461367D01*
X93416266Y-71577568D01*
X93622504Y-71673739D01*
X93622509Y-71673740D01*
X93622511Y-71673741D01*
X93675415Y-71687916D01*
X93842308Y-71732635D01*
X93999780Y-71746412D01*
X94068998Y-71752468D01*
X94069000Y-71752468D01*
X94069002Y-71752468D01*
X94138220Y-71746412D01*
X94295692Y-71732635D01*
X94515496Y-71673739D01*
X94721734Y-71577568D01*
X94908139Y-71447047D01*
X95069047Y-71286139D01*
X95199568Y-71099734D01*
X95226618Y-71041724D01*
X95272790Y-70989285D01*
X95339983Y-70970133D01*
X95406865Y-70990348D01*
X95451382Y-71041725D01*
X95478429Y-71099728D01*
X95478432Y-71099734D01*
X95608954Y-71286141D01*
X95769858Y-71447045D01*
X95790312Y-71461367D01*
X95956266Y-71577568D01*
X96162504Y-71673739D01*
X96162509Y-71673740D01*
X96162511Y-71673741D01*
X96215415Y-71687916D01*
X96382308Y-71732635D01*
X96539780Y-71746412D01*
X96608998Y-71752468D01*
X96609000Y-71752468D01*
X96609002Y-71752468D01*
X96678220Y-71746412D01*
X96835692Y-71732635D01*
X97055496Y-71673739D01*
X97261734Y-71577568D01*
X97448139Y-71447047D01*
X97609047Y-71286139D01*
X97739568Y-71099734D01*
X97766618Y-71041724D01*
X97812790Y-70989285D01*
X97879983Y-70970133D01*
X97946865Y-70990348D01*
X97991382Y-71041725D01*
X98018429Y-71099728D01*
X98018432Y-71099734D01*
X98148954Y-71286141D01*
X98309858Y-71447045D01*
X98470623Y-71559613D01*
X98514248Y-71614189D01*
X98523500Y-71661188D01*
X98523500Y-72803547D01*
X98503815Y-72870586D01*
X98487181Y-72891228D01*
X93541328Y-77837081D01*
X93480005Y-77870566D01*
X93453647Y-77873400D01*
X86859948Y-77873400D01*
X86792909Y-77853715D01*
X86767800Y-77832374D01*
X86762073Y-77826014D01*
X86762069Y-77826010D01*
X86608934Y-77714751D01*
X86608929Y-77714748D01*
X86436007Y-77637757D01*
X86436002Y-77637755D01*
X86290201Y-77606765D01*
X86250846Y-77598400D01*
X86061554Y-77598400D01*
X86029097Y-77605298D01*
X85876397Y-77637755D01*
X85876392Y-77637757D01*
X85703470Y-77714748D01*
X85703465Y-77714751D01*
X85550329Y-77826011D01*
X85423666Y-77966685D01*
X85329021Y-78130615D01*
X85329018Y-78130622D01*
X85288852Y-78254242D01*
X85249414Y-78311918D01*
X85196702Y-78337214D01*
X85026199Y-78373455D01*
X85026194Y-78373457D01*
X84853272Y-78450448D01*
X84853267Y-78450451D01*
X84700131Y-78561711D01*
X84573468Y-78702385D01*
X84478823Y-78866315D01*
X84478820Y-78866322D01*
X84427438Y-79024461D01*
X84420328Y-79046344D01*
X84400542Y-79234600D01*
X84420328Y-79422856D01*
X84420329Y-79422859D01*
X84478820Y-79602877D01*
X84478823Y-79602884D01*
X84573469Y-79766816D01*
X84694403Y-79901126D01*
X84700131Y-79907488D01*
X84853267Y-80018748D01*
X84853272Y-80018751D01*
X85026194Y-80095742D01*
X85026199Y-80095744D01*
X85211356Y-80135100D01*
X85211357Y-80135100D01*
X85400646Y-80135100D01*
X85400648Y-80135100D01*
X85585805Y-80095744D01*
X85758732Y-80018751D01*
X85911873Y-79907488D01*
X85914790Y-79904247D01*
X85917602Y-79901126D01*
X85977089Y-79864479D01*
X86009750Y-79860100D01*
X93631947Y-79860100D01*
X93698986Y-79879785D01*
X93744741Y-79932589D01*
X93754685Y-80001747D01*
X93725660Y-80065303D01*
X93719628Y-80071781D01*
X93211228Y-80580181D01*
X93149905Y-80613666D01*
X93123547Y-80616500D01*
X85234748Y-80616500D01*
X85167709Y-80596815D01*
X85142600Y-80575474D01*
X85136873Y-80569114D01*
X85136869Y-80569110D01*
X84983734Y-80457851D01*
X84983729Y-80457848D01*
X84810807Y-80380857D01*
X84810802Y-80380855D01*
X84665001Y-80349865D01*
X84625646Y-80341500D01*
X84436354Y-80341500D01*
X84403897Y-80348398D01*
X84251197Y-80380855D01*
X84251192Y-80380857D01*
X84078270Y-80457848D01*
X84078265Y-80457851D01*
X83925129Y-80569111D01*
X83798466Y-80709785D01*
X83703821Y-80873715D01*
X83703818Y-80873722D01*
X83649350Y-81041359D01*
X83645326Y-81053744D01*
X83625540Y-81242000D01*
X83645326Y-81430256D01*
X83645327Y-81430259D01*
X83699564Y-81597182D01*
X83701559Y-81667023D01*
X83665479Y-81726856D01*
X83602778Y-81757684D01*
X83581633Y-81759500D01*
X82453748Y-81759500D01*
X82386709Y-81739815D01*
X82361600Y-81718474D01*
X82355873Y-81712114D01*
X82355869Y-81712110D01*
X82202734Y-81600851D01*
X82202729Y-81600848D01*
X82029807Y-81523857D01*
X82029802Y-81523855D01*
X81884001Y-81492865D01*
X81844646Y-81484500D01*
X81655354Y-81484500D01*
X81622897Y-81491398D01*
X81470197Y-81523855D01*
X81470192Y-81523857D01*
X81297270Y-81600848D01*
X81297265Y-81600851D01*
X81196385Y-81674145D01*
X81130578Y-81697625D01*
X81062525Y-81681799D01*
X81013830Y-81631693D01*
X80999500Y-81573827D01*
X80999500Y-79091500D01*
X81019185Y-79024461D01*
X81071989Y-78978706D01*
X81123500Y-78967500D01*
X81478848Y-78967500D01*
X81545887Y-78987185D01*
X81549971Y-78989925D01*
X81732266Y-79117568D01*
X81938504Y-79213739D01*
X82158308Y-79272635D01*
X82320230Y-79286801D01*
X82384998Y-79292468D01*
X82385000Y-79292468D01*
X82385002Y-79292468D01*
X82441673Y-79287509D01*
X82611692Y-79272635D01*
X82831496Y-79213739D01*
X83037734Y-79117568D01*
X83224139Y-78987047D01*
X83385047Y-78826139D01*
X83515568Y-78639734D01*
X83611739Y-78433496D01*
X83670635Y-78213692D01*
X83689599Y-77996922D01*
X83715051Y-77931856D01*
X83725438Y-77920059D01*
X85504737Y-76140760D01*
X85519525Y-76128130D01*
X85530871Y-76119888D01*
X85576264Y-76069472D01*
X85580696Y-76064801D01*
X85595119Y-76050380D01*
X85607945Y-76034540D01*
X85612117Y-76029654D01*
X85657533Y-75979216D01*
X85664538Y-75967080D01*
X85675570Y-75951031D01*
X85684381Y-75940151D01*
X85684383Y-75940149D01*
X85715185Y-75879693D01*
X85718248Y-75874051D01*
X85752179Y-75815284D01*
X85756509Y-75801956D01*
X85763960Y-75783969D01*
X85770319Y-75771490D01*
X85770319Y-75771489D01*
X85770320Y-75771488D01*
X85787880Y-75705947D01*
X85789699Y-75699804D01*
X85810674Y-75635256D01*
X85812139Y-75621307D01*
X85815684Y-75602183D01*
X85819312Y-75588646D01*
X85822862Y-75520906D01*
X85823370Y-75514455D01*
X85825499Y-75494197D01*
X85825500Y-75494191D01*
X85825500Y-75473819D01*
X85825670Y-75467329D01*
X85826459Y-75452278D01*
X85829219Y-75399612D01*
X85827027Y-75385772D01*
X85825500Y-75366373D01*
X85825500Y-69357692D01*
X85826179Y-69344731D01*
X85827266Y-69334386D01*
X85830460Y-69304000D01*
X85826179Y-69263266D01*
X85825500Y-69250306D01*
X85825500Y-69129811D01*
X85825185Y-69126815D01*
X85810674Y-68988744D01*
X85752179Y-68808716D01*
X85657533Y-68644784D01*
X85530871Y-68504112D01*
X85517230Y-68494201D01*
X85377734Y-68392851D01*
X85377729Y-68392848D01*
X85204807Y-68315857D01*
X85204802Y-68315855D01*
X85059001Y-68284865D01*
X85019646Y-68276500D01*
X84830354Y-68276500D01*
X84797897Y-68283398D01*
X84645197Y-68315855D01*
X84645192Y-68315857D01*
X84472270Y-68392848D01*
X84472265Y-68392851D01*
X84319129Y-68504111D01*
X84192466Y-68644785D01*
X84097821Y-68808715D01*
X84097818Y-68808722D01*
X84039327Y-68988740D01*
X84039326Y-68988744D01*
X84024815Y-69126815D01*
X84024500Y-69129811D01*
X84024500Y-69250306D01*
X84023821Y-69263266D01*
X84019540Y-69303999D01*
X84023821Y-69344731D01*
X84024500Y-69357692D01*
X84024500Y-75022638D01*
X84004815Y-75089677D01*
X83988181Y-75110319D01*
X82451946Y-76646553D01*
X82390623Y-76680038D01*
X82375073Y-76682400D01*
X82158312Y-76701364D01*
X82158302Y-76701366D01*
X81938511Y-76760258D01*
X81938502Y-76760261D01*
X81732267Y-76856431D01*
X81732265Y-76856432D01*
X81545858Y-76986954D01*
X81402632Y-77130181D01*
X81341309Y-77163666D01*
X81314951Y-77166500D01*
X79998826Y-77166500D01*
X79992337Y-77166330D01*
X79983408Y-77165862D01*
X79936639Y-77163411D01*
X79870722Y-77140245D01*
X79855453Y-77127267D01*
X79795139Y-77066953D01*
X79795138Y-77066952D01*
X79795137Y-77066951D01*
X79608734Y-76936432D01*
X79608732Y-76936431D01*
X79402497Y-76840261D01*
X79402488Y-76840258D01*
X79182697Y-76781366D01*
X79182693Y-76781365D01*
X79182692Y-76781365D01*
X79182691Y-76781364D01*
X79182686Y-76781364D01*
X78956002Y-76761532D01*
X78955998Y-76761532D01*
X78729313Y-76781364D01*
X78729302Y-76781366D01*
X78509511Y-76840258D01*
X78509502Y-76840261D01*
X78303267Y-76936431D01*
X78303265Y-76936432D01*
X78116858Y-77066954D01*
X77955954Y-77227858D01*
X77825432Y-77414265D01*
X77825431Y-77414267D01*
X77798382Y-77472275D01*
X77752209Y-77524714D01*
X77685016Y-77543866D01*
X77618135Y-77523650D01*
X77573618Y-77472275D01*
X77546568Y-77414267D01*
X77546567Y-77414265D01*
X77416045Y-77227858D01*
X77255141Y-77066954D01*
X77068734Y-76936432D01*
X77068732Y-76936431D01*
X76862497Y-76840261D01*
X76862488Y-76840258D01*
X76642697Y-76781366D01*
X76642693Y-76781365D01*
X76642692Y-76781365D01*
X76642691Y-76781364D01*
X76642686Y-76781364D01*
X76416002Y-76761532D01*
X76415996Y-76761532D01*
X76371894Y-76765390D01*
X76303394Y-76751623D01*
X76253212Y-76703007D01*
X76237279Y-76634978D01*
X76260655Y-76569135D01*
X76273401Y-76554187D01*
X78069786Y-74757802D01*
X78082048Y-74747980D01*
X78081865Y-74747759D01*
X78087868Y-74742791D01*
X78087877Y-74742786D01*
X78133934Y-74693739D01*
X78136582Y-74691006D01*
X78156120Y-74671470D01*
X78158570Y-74668310D01*
X78166154Y-74659429D01*
X78196062Y-74627582D01*
X78205714Y-74610023D01*
X78216389Y-74593772D01*
X78228674Y-74577936D01*
X78246030Y-74537825D01*
X78251161Y-74527354D01*
X78272194Y-74489098D01*
X78272194Y-74489097D01*
X78272197Y-74489092D01*
X78277180Y-74469680D01*
X78283477Y-74451291D01*
X78291438Y-74432895D01*
X78298270Y-74389748D01*
X78300639Y-74378316D01*
X78311499Y-74336022D01*
X78311500Y-74336017D01*
X78311500Y-74315983D01*
X78313027Y-74296582D01*
X78316160Y-74276804D01*
X78312050Y-74233324D01*
X78311500Y-74221655D01*
X78311500Y-72987002D01*
X81080034Y-72987002D01*
X81099858Y-73213599D01*
X81099860Y-73213610D01*
X81158730Y-73433317D01*
X81158735Y-73433331D01*
X81254863Y-73639478D01*
X81305974Y-73712472D01*
X81987046Y-73031400D01*
X81999835Y-73112148D01*
X82057359Y-73225045D01*
X82146955Y-73314641D01*
X82259852Y-73372165D01*
X82340599Y-73384953D01*
X81659526Y-74066025D01*
X81732513Y-74117132D01*
X81732521Y-74117136D01*
X81938668Y-74213264D01*
X81938682Y-74213269D01*
X82158389Y-74272139D01*
X82158400Y-74272141D01*
X82384998Y-74291966D01*
X82385002Y-74291966D01*
X82611599Y-74272141D01*
X82611610Y-74272139D01*
X82831317Y-74213269D01*
X82831331Y-74213264D01*
X83037478Y-74117136D01*
X83110471Y-74066024D01*
X82429400Y-73384953D01*
X82510148Y-73372165D01*
X82623045Y-73314641D01*
X82712641Y-73225045D01*
X82770165Y-73112148D01*
X82782953Y-73031400D01*
X83464024Y-73712471D01*
X83515136Y-73639478D01*
X83611264Y-73433331D01*
X83611269Y-73433317D01*
X83670139Y-73213610D01*
X83670141Y-73213599D01*
X83689966Y-72987002D01*
X83689966Y-72986997D01*
X83670141Y-72760400D01*
X83670139Y-72760389D01*
X83611269Y-72540682D01*
X83611264Y-72540668D01*
X83515136Y-72334521D01*
X83515132Y-72334513D01*
X83464025Y-72261526D01*
X82782953Y-72942598D01*
X82770165Y-72861852D01*
X82712641Y-72748955D01*
X82623045Y-72659359D01*
X82510148Y-72601835D01*
X82429401Y-72589046D01*
X83110472Y-71907974D01*
X83037478Y-71856863D01*
X82831331Y-71760735D01*
X82831317Y-71760730D01*
X82611610Y-71701860D01*
X82611599Y-71701858D01*
X82385002Y-71682034D01*
X82384998Y-71682034D01*
X82158400Y-71701858D01*
X82158389Y-71701860D01*
X81938682Y-71760730D01*
X81938673Y-71760734D01*
X81732516Y-71856866D01*
X81732512Y-71856868D01*
X81659526Y-71907973D01*
X81659526Y-71907974D01*
X82340599Y-72589046D01*
X82259852Y-72601835D01*
X82146955Y-72659359D01*
X82057359Y-72748955D01*
X81999835Y-72861852D01*
X81987046Y-72942598D01*
X81305974Y-72261526D01*
X81305973Y-72261526D01*
X81254868Y-72334512D01*
X81254866Y-72334516D01*
X81158734Y-72540673D01*
X81158730Y-72540682D01*
X81099860Y-72760389D01*
X81099858Y-72760400D01*
X81080034Y-72986997D01*
X81080034Y-72987002D01*
X78311500Y-72987002D01*
X78311500Y-71871499D01*
X78331185Y-71804460D01*
X78383989Y-71758705D01*
X78435500Y-71747499D01*
X79803871Y-71747499D01*
X79803872Y-71747499D01*
X79863483Y-71741091D01*
X79998331Y-71690796D01*
X80113546Y-71604546D01*
X80199796Y-71489331D01*
X80250091Y-71354483D01*
X80256500Y-71294873D01*
X80256499Y-70082451D01*
X80276184Y-70015413D01*
X80292813Y-69994776D01*
X82353772Y-67933819D01*
X82415095Y-67900334D01*
X82441453Y-67897500D01*
X108141948Y-67897500D01*
X108208987Y-67917185D01*
G37*
G04 #@! TD.AperFunction*
G04 #@! TA.AperFunction,Conductor*
G36*
X105661586Y-52677185D02*
G01*
X105707341Y-52729989D01*
X105717285Y-52799147D01*
X105688260Y-52862703D01*
X105682228Y-52869181D01*
X104643821Y-53907586D01*
X104582498Y-53941071D01*
X104524048Y-53939680D01*
X104455697Y-53921366D01*
X104455693Y-53921365D01*
X104455692Y-53921365D01*
X104336202Y-53910911D01*
X104229001Y-53901532D01*
X104228998Y-53901532D01*
X104002313Y-53921364D01*
X104002302Y-53921366D01*
X103782511Y-53980258D01*
X103782502Y-53980261D01*
X103576267Y-54076431D01*
X103576265Y-54076432D01*
X103389858Y-54206954D01*
X103228954Y-54367858D01*
X103098432Y-54554265D01*
X103098431Y-54554267D01*
X103071382Y-54612275D01*
X103025209Y-54664714D01*
X102958016Y-54683866D01*
X102891135Y-54663650D01*
X102846618Y-54612275D01*
X102819686Y-54554520D01*
X102819568Y-54554266D01*
X102689047Y-54367861D01*
X102689045Y-54367858D01*
X102528141Y-54206954D01*
X102341734Y-54076432D01*
X102341732Y-54076431D01*
X102135497Y-53980261D01*
X102135488Y-53980258D01*
X101915697Y-53921366D01*
X101915693Y-53921365D01*
X101915692Y-53921365D01*
X101915691Y-53921364D01*
X101915686Y-53921364D01*
X101689002Y-53901532D01*
X101688998Y-53901532D01*
X101462313Y-53921364D01*
X101462302Y-53921366D01*
X101242511Y-53980258D01*
X101242502Y-53980261D01*
X101036267Y-54076431D01*
X101036265Y-54076432D01*
X100849858Y-54206954D01*
X100688954Y-54367858D01*
X100558432Y-54554265D01*
X100558431Y-54554267D01*
X100531382Y-54612275D01*
X100485209Y-54664714D01*
X100418016Y-54683866D01*
X100351135Y-54663650D01*
X100306618Y-54612275D01*
X100279686Y-54554520D01*
X100279568Y-54554266D01*
X100149047Y-54367861D01*
X100149045Y-54367858D01*
X99988141Y-54206954D01*
X99801734Y-54076432D01*
X99801732Y-54076431D01*
X99595497Y-53980261D01*
X99595488Y-53980258D01*
X99375697Y-53921366D01*
X99375693Y-53921365D01*
X99375692Y-53921365D01*
X99375691Y-53921364D01*
X99375686Y-53921364D01*
X99149002Y-53901532D01*
X99148998Y-53901532D01*
X98922313Y-53921364D01*
X98922302Y-53921366D01*
X98702511Y-53980258D01*
X98702502Y-53980261D01*
X98496267Y-54076431D01*
X98496265Y-54076432D01*
X98309858Y-54206954D01*
X98148954Y-54367858D01*
X98018432Y-54554265D01*
X98018431Y-54554267D01*
X97991382Y-54612275D01*
X97945209Y-54664714D01*
X97878016Y-54683866D01*
X97811135Y-54663650D01*
X97766618Y-54612275D01*
X97739686Y-54554520D01*
X97739568Y-54554266D01*
X97609047Y-54367861D01*
X97609045Y-54367858D01*
X97448141Y-54206954D01*
X97261734Y-54076432D01*
X97261732Y-54076431D01*
X97055497Y-53980261D01*
X97055488Y-53980258D01*
X96835697Y-53921366D01*
X96835693Y-53921365D01*
X96835692Y-53921365D01*
X96835691Y-53921364D01*
X96835686Y-53921364D01*
X96609002Y-53901532D01*
X96608998Y-53901532D01*
X96382313Y-53921364D01*
X96382302Y-53921366D01*
X96162511Y-53980258D01*
X96162502Y-53980261D01*
X95956267Y-54076431D01*
X95956265Y-54076432D01*
X95769858Y-54206954D01*
X95608954Y-54367858D01*
X95542617Y-54462599D01*
X95478432Y-54554266D01*
X95478315Y-54554518D01*
X95451106Y-54612867D01*
X95404933Y-54665306D01*
X95337739Y-54684457D01*
X95270858Y-54664241D01*
X95226342Y-54612865D01*
X95199135Y-54554520D01*
X95199134Y-54554518D01*
X95068657Y-54368179D01*
X94907820Y-54207342D01*
X94721482Y-54076865D01*
X94515328Y-53980734D01*
X94319000Y-53928127D01*
X94319000Y-54891314D01*
X94307045Y-54879359D01*
X94194148Y-54821835D01*
X94100481Y-54807000D01*
X94037519Y-54807000D01*
X93943852Y-54821835D01*
X93830955Y-54879359D01*
X93819000Y-54891314D01*
X93819000Y-53928127D01*
X93622671Y-53980734D01*
X93416517Y-54076865D01*
X93230179Y-54207342D01*
X93069342Y-54368179D01*
X92938865Y-54554517D01*
X92842734Y-54760673D01*
X92842730Y-54760682D01*
X92790127Y-54956999D01*
X92790128Y-54957000D01*
X93753314Y-54957000D01*
X93741359Y-54968955D01*
X93683835Y-55081852D01*
X93664014Y-55207000D01*
X93683835Y-55332148D01*
X93741359Y-55445045D01*
X93753314Y-55457000D01*
X92790128Y-55457000D01*
X92842730Y-55653317D01*
X92842734Y-55653326D01*
X92938865Y-55859482D01*
X93069342Y-56045820D01*
X93230179Y-56206657D01*
X93416517Y-56337134D01*
X93622673Y-56433265D01*
X93622682Y-56433269D01*
X93818999Y-56485872D01*
X93819000Y-56485871D01*
X93819000Y-55522686D01*
X93830955Y-55534641D01*
X93943852Y-55592165D01*
X94037519Y-55607000D01*
X94100481Y-55607000D01*
X94194148Y-55592165D01*
X94307045Y-55534641D01*
X94319000Y-55522686D01*
X94319000Y-56485872D01*
X94515317Y-56433269D01*
X94515326Y-56433265D01*
X94721482Y-56337134D01*
X94907820Y-56206657D01*
X95068657Y-56045820D01*
X95199132Y-55859484D01*
X95226341Y-55801134D01*
X95272513Y-55748695D01*
X95339707Y-55729542D01*
X95406588Y-55749757D01*
X95451105Y-55801132D01*
X95473088Y-55848275D01*
X95478431Y-55859732D01*
X95478432Y-55859734D01*
X95608954Y-56046141D01*
X95769858Y-56207045D01*
X95769861Y-56207047D01*
X95956266Y-56337568D01*
X96162504Y-56433739D01*
X96382308Y-56492635D01*
X96539780Y-56506412D01*
X96608998Y-56512468D01*
X96609000Y-56512468D01*
X96609002Y-56512468D01*
X96678220Y-56506412D01*
X96835692Y-56492635D01*
X97055496Y-56433739D01*
X97261734Y-56337568D01*
X97448139Y-56207047D01*
X97609047Y-56046139D01*
X97739568Y-55859734D01*
X97766618Y-55801724D01*
X97812790Y-55749285D01*
X97879983Y-55730133D01*
X97946865Y-55750348D01*
X97991382Y-55801725D01*
X98018429Y-55859728D01*
X98018432Y-55859734D01*
X98148954Y-56046141D01*
X98309858Y-56207045D01*
X98309861Y-56207047D01*
X98496266Y-56337568D01*
X98702504Y-56433739D01*
X98922308Y-56492635D01*
X99079780Y-56506412D01*
X99148998Y-56512468D01*
X99148999Y-56512468D01*
X99148999Y-56512467D01*
X99149000Y-56512468D01*
X99193101Y-56508609D01*
X99261599Y-56522375D01*
X99311783Y-56570989D01*
X99327717Y-56639018D01*
X99304343Y-56704861D01*
X99291589Y-56719818D01*
X97873693Y-58137714D01*
X97836449Y-58163312D01*
X97680267Y-58232850D01*
X97680265Y-58232851D01*
X97527129Y-58344111D01*
X97400466Y-58484785D01*
X97305821Y-58648715D01*
X97305818Y-58648722D01*
X97247327Y-58828740D01*
X97247326Y-58828744D01*
X97227540Y-59017000D01*
X97247326Y-59205256D01*
X97247327Y-59205259D01*
X97305818Y-59385277D01*
X97305821Y-59385284D01*
X97357907Y-59475500D01*
X97374380Y-59543401D01*
X97351527Y-59609427D01*
X97296606Y-59652618D01*
X97250520Y-59661500D01*
X94496048Y-59661500D01*
X94429009Y-59641815D01*
X94403900Y-59620474D01*
X94398173Y-59614114D01*
X94398169Y-59614110D01*
X94245034Y-59502851D01*
X94245029Y-59502848D01*
X94072107Y-59425857D01*
X94072102Y-59425855D01*
X93926301Y-59394865D01*
X93886946Y-59386500D01*
X93697654Y-59386500D01*
X93665197Y-59393398D01*
X93512497Y-59425855D01*
X93512492Y-59425857D01*
X93339570Y-59502848D01*
X93339565Y-59502851D01*
X93186429Y-59614111D01*
X93059766Y-59754785D01*
X92965121Y-59918715D01*
X92965118Y-59918722D01*
X92906627Y-60098740D01*
X92906626Y-60098744D01*
X92886840Y-60287000D01*
X92906626Y-60475256D01*
X92906627Y-60475259D01*
X92965118Y-60655277D01*
X92965121Y-60655284D01*
X93043823Y-60791600D01*
X93060296Y-60859500D01*
X93037443Y-60925527D01*
X92982522Y-60968718D01*
X92936436Y-60977600D01*
X80770638Y-60977600D01*
X80755021Y-60975876D01*
X80754994Y-60976162D01*
X80747232Y-60975427D01*
X80680045Y-60977539D01*
X80676151Y-60977600D01*
X80648550Y-60977600D01*
X80644862Y-60978065D01*
X80644549Y-60978105D01*
X80632931Y-60979018D01*
X80589273Y-60980390D01*
X80589272Y-60980390D01*
X80570029Y-60985981D01*
X80550979Y-60989925D01*
X80531111Y-60992434D01*
X80531110Y-60992435D01*
X80490500Y-61008513D01*
X80479453Y-61012295D01*
X80437510Y-61024481D01*
X80437509Y-61024482D01*
X80420267Y-61034679D01*
X80402799Y-61043237D01*
X80384169Y-61050613D01*
X80384166Y-61050615D01*
X80348839Y-61076281D01*
X80339080Y-61082692D01*
X80301479Y-61104930D01*
X80287308Y-61119100D01*
X80272523Y-61131728D01*
X80256312Y-61143507D01*
X80228471Y-61177159D01*
X80220611Y-61185796D01*
X74762208Y-66644199D01*
X74749951Y-66654020D01*
X74750134Y-66654241D01*
X74744122Y-66659214D01*
X74698098Y-66708223D01*
X74695391Y-66711016D01*
X74675889Y-66730517D01*
X74675875Y-66730534D01*
X74673407Y-66733715D01*
X74665843Y-66742570D01*
X74635937Y-66774418D01*
X74635936Y-66774420D01*
X74626284Y-66791976D01*
X74615610Y-66808226D01*
X74603329Y-66824061D01*
X74603324Y-66824068D01*
X74585975Y-66864158D01*
X74580838Y-66874644D01*
X74559803Y-66912906D01*
X74554822Y-66932307D01*
X74548521Y-66950710D01*
X74540562Y-66969102D01*
X74540561Y-66969105D01*
X74533728Y-67012243D01*
X74531360Y-67023674D01*
X74520501Y-67065971D01*
X74520500Y-67065982D01*
X74520500Y-67086016D01*
X74518973Y-67105415D01*
X74515840Y-67125194D01*
X74515840Y-67125195D01*
X74519950Y-67168674D01*
X74520500Y-67180343D01*
X74520500Y-69117950D01*
X74500815Y-69184989D01*
X74448011Y-69230744D01*
X74378853Y-69240688D01*
X74344099Y-69230334D01*
X74322498Y-69220262D01*
X74322488Y-69220258D01*
X74102697Y-69161366D01*
X74102693Y-69161365D01*
X74102692Y-69161365D01*
X74102691Y-69161364D01*
X74102686Y-69161364D01*
X73876002Y-69141532D01*
X73875998Y-69141532D01*
X73649313Y-69161364D01*
X73649302Y-69161366D01*
X73429511Y-69220258D01*
X73429502Y-69220261D01*
X73223267Y-69316431D01*
X73223265Y-69316432D01*
X73036858Y-69446954D01*
X72875954Y-69607858D01*
X72745432Y-69794265D01*
X72745431Y-69794267D01*
X72718382Y-69852275D01*
X72672209Y-69904714D01*
X72605016Y-69923866D01*
X72538135Y-69903650D01*
X72493618Y-69852275D01*
X72466686Y-69794520D01*
X72466568Y-69794266D01*
X72336047Y-69607861D01*
X72336045Y-69607858D01*
X72175140Y-69446953D01*
X72014377Y-69334386D01*
X71970752Y-69279809D01*
X71961500Y-69232811D01*
X71961500Y-65296452D01*
X71981185Y-65229413D01*
X71997819Y-65208771D01*
X77887772Y-59318819D01*
X77949095Y-59285334D01*
X77975453Y-59282500D01*
X78034644Y-59282500D01*
X78034646Y-59282500D01*
X78219803Y-59243144D01*
X78392730Y-59166151D01*
X78545871Y-59054888D01*
X78672533Y-58914216D01*
X78767179Y-58750284D01*
X78825674Y-58570256D01*
X78845460Y-58382000D01*
X78825674Y-58193744D01*
X78767179Y-58013716D01*
X78672533Y-57849784D01*
X78545871Y-57709112D01*
X78536790Y-57702514D01*
X78392734Y-57597851D01*
X78392729Y-57597848D01*
X78219807Y-57520857D01*
X78219802Y-57520855D01*
X78074001Y-57489865D01*
X78034646Y-57481500D01*
X77845354Y-57481500D01*
X77812897Y-57488398D01*
X77660197Y-57520855D01*
X77660192Y-57520857D01*
X77487270Y-57597848D01*
X77487265Y-57597851D01*
X77334129Y-57709111D01*
X77207466Y-57849785D01*
X77112821Y-58013715D01*
X77112818Y-58013722D01*
X77054327Y-58193740D01*
X77054326Y-58193744D01*
X77050216Y-58232849D01*
X77036679Y-58361649D01*
X77010094Y-58426263D01*
X77001039Y-58436368D01*
X70952208Y-64485199D01*
X70939951Y-64495020D01*
X70940134Y-64495241D01*
X70934122Y-64500214D01*
X70888098Y-64549223D01*
X70885391Y-64552016D01*
X70865889Y-64571517D01*
X70865875Y-64571534D01*
X70863407Y-64574715D01*
X70855843Y-64583570D01*
X70825937Y-64615418D01*
X70825936Y-64615420D01*
X70816284Y-64632976D01*
X70805610Y-64649226D01*
X70793329Y-64665061D01*
X70793324Y-64665068D01*
X70775975Y-64705158D01*
X70770838Y-64715644D01*
X70749803Y-64753906D01*
X70744822Y-64773307D01*
X70738521Y-64791710D01*
X70730562Y-64810102D01*
X70730561Y-64810105D01*
X70723728Y-64853243D01*
X70721360Y-64864674D01*
X70710501Y-64906971D01*
X70710500Y-64906982D01*
X70710500Y-64927016D01*
X70708973Y-64946415D01*
X70705840Y-64966194D01*
X70705840Y-64966195D01*
X70709950Y-65009674D01*
X70710500Y-65021343D01*
X70710500Y-69232811D01*
X70690815Y-69299850D01*
X70657623Y-69334386D01*
X70496859Y-69446953D01*
X70335954Y-69607858D01*
X70205432Y-69794265D01*
X70205431Y-69794267D01*
X70178382Y-69852275D01*
X70132209Y-69904714D01*
X70065016Y-69923866D01*
X69998135Y-69903650D01*
X69953618Y-69852275D01*
X69926686Y-69794520D01*
X69926568Y-69794266D01*
X69796047Y-69607861D01*
X69796045Y-69607858D01*
X69635141Y-69446954D01*
X69448734Y-69316432D01*
X69448732Y-69316431D01*
X69242497Y-69220261D01*
X69242488Y-69220258D01*
X69022697Y-69161366D01*
X69022693Y-69161365D01*
X69022692Y-69161365D01*
X69022691Y-69161364D01*
X69022686Y-69161364D01*
X68796002Y-69141532D01*
X68795998Y-69141532D01*
X68569313Y-69161364D01*
X68569302Y-69161366D01*
X68349511Y-69220258D01*
X68349502Y-69220261D01*
X68143267Y-69316431D01*
X68143265Y-69316432D01*
X67956858Y-69446954D01*
X67795954Y-69607858D01*
X67665432Y-69794265D01*
X67665431Y-69794267D01*
X67638382Y-69852275D01*
X67592209Y-69904714D01*
X67525016Y-69923866D01*
X67458135Y-69903650D01*
X67413618Y-69852275D01*
X67386686Y-69794520D01*
X67386568Y-69794266D01*
X67256047Y-69607861D01*
X67256045Y-69607858D01*
X67095141Y-69446954D01*
X66908734Y-69316432D01*
X66908732Y-69316431D01*
X66702497Y-69220261D01*
X66702488Y-69220258D01*
X66482697Y-69161366D01*
X66482693Y-69161365D01*
X66482692Y-69161365D01*
X66482691Y-69161364D01*
X66482686Y-69161364D01*
X66256002Y-69141532D01*
X66255998Y-69141532D01*
X66029313Y-69161364D01*
X66029302Y-69161366D01*
X65809511Y-69220258D01*
X65809501Y-69220262D01*
X65787901Y-69230334D01*
X65718824Y-69240824D01*
X65655040Y-69212302D01*
X65616803Y-69153824D01*
X65611500Y-69117950D01*
X65611500Y-67328452D01*
X65631185Y-67261413D01*
X65647819Y-67240771D01*
X80194772Y-52693819D01*
X80256095Y-52660334D01*
X80282453Y-52657500D01*
X105594547Y-52657500D01*
X105661586Y-52677185D01*
G37*
G04 #@! TD.AperFunction*
G04 #@! TA.AperFunction,Conductor*
G36*
X142395091Y-62763117D02*
G01*
X142436804Y-62819169D01*
X142444500Y-62862174D01*
X142444500Y-69422500D01*
X142424815Y-69489539D01*
X142372011Y-69535294D01*
X142320500Y-69546500D01*
X137096048Y-69546500D01*
X137029009Y-69526815D01*
X137008371Y-69510185D01*
X136945139Y-69446953D01*
X136945138Y-69446952D01*
X136945137Y-69446951D01*
X136758734Y-69316432D01*
X136758732Y-69316431D01*
X136552497Y-69220261D01*
X136552488Y-69220258D01*
X136332697Y-69161366D01*
X136332693Y-69161365D01*
X136332692Y-69161365D01*
X136332691Y-69161364D01*
X136332686Y-69161364D01*
X136106002Y-69141532D01*
X136105998Y-69141532D01*
X135879313Y-69161364D01*
X135879302Y-69161366D01*
X135659511Y-69220258D01*
X135659502Y-69220261D01*
X135453267Y-69316431D01*
X135453265Y-69316432D01*
X135266862Y-69446951D01*
X135240334Y-69473480D01*
X135203631Y-69510182D01*
X135142311Y-69543666D01*
X135115952Y-69546500D01*
X133193500Y-69546500D01*
X133126461Y-69526815D01*
X133080706Y-69474011D01*
X133069500Y-69422500D01*
X133069500Y-67733626D01*
X133071027Y-67714225D01*
X133073219Y-67700388D01*
X133069670Y-67632663D01*
X133069500Y-67626174D01*
X133069500Y-67605809D01*
X133069499Y-67605800D01*
X133067371Y-67585552D01*
X133066862Y-67579098D01*
X133063313Y-67511355D01*
X133059685Y-67497814D01*
X133056139Y-67478688D01*
X133054674Y-67464744D01*
X133033707Y-67400217D01*
X133031871Y-67394016D01*
X133024839Y-67367771D01*
X133014320Y-67328513D01*
X133007953Y-67316018D01*
X133000511Y-67298051D01*
X132996179Y-67284716D01*
X132962272Y-67225987D01*
X132959174Y-67220281D01*
X132928385Y-67159854D01*
X132919558Y-67148953D01*
X132908540Y-67132920D01*
X132901533Y-67120784D01*
X132856145Y-67070375D01*
X132851943Y-67065456D01*
X132839120Y-67049620D01*
X132824697Y-67035197D01*
X132820244Y-67030504D01*
X132774875Y-66980115D01*
X132774869Y-66980110D01*
X132763529Y-66971871D01*
X132748736Y-66959236D01*
X130640269Y-64850770D01*
X130627631Y-64835973D01*
X130619392Y-64824633D01*
X130568988Y-64779248D01*
X130564280Y-64774780D01*
X130549888Y-64760388D01*
X130534059Y-64747568D01*
X130529132Y-64743360D01*
X130478725Y-64697975D01*
X130478718Y-64697970D01*
X130466575Y-64690959D01*
X130450548Y-64679943D01*
X130439658Y-64671125D01*
X130439652Y-64671121D01*
X130379217Y-64640327D01*
X130373514Y-64637231D01*
X130314787Y-64603325D01*
X130301454Y-64598993D01*
X130283483Y-64591548D01*
X130271003Y-64585189D01*
X130270991Y-64585184D01*
X130205481Y-64567630D01*
X130199260Y-64565787D01*
X130134767Y-64544833D01*
X130134761Y-64544831D01*
X130134756Y-64544830D01*
X130134754Y-64544830D01*
X130120819Y-64543365D01*
X130101694Y-64539820D01*
X130088158Y-64536193D01*
X130088148Y-64536191D01*
X130020414Y-64532641D01*
X130013953Y-64532133D01*
X130004733Y-64531164D01*
X129993697Y-64530005D01*
X129993693Y-64530005D01*
X129973331Y-64530005D01*
X129966842Y-64529835D01*
X129899115Y-64526285D01*
X129885277Y-64528478D01*
X129865878Y-64530005D01*
X106970080Y-64530005D01*
X106903041Y-64510320D01*
X106857286Y-64457516D01*
X106847342Y-64388358D01*
X106876367Y-64324802D01*
X106919644Y-64292726D01*
X107041807Y-64238334D01*
X107077930Y-64222251D01*
X107231071Y-64110988D01*
X107233988Y-64107747D01*
X107236800Y-64104626D01*
X107296287Y-64067979D01*
X107328948Y-64063600D01*
X135437320Y-64063600D01*
X135504359Y-64083285D01*
X135550114Y-64136089D01*
X135560058Y-64205247D01*
X135531033Y-64268803D01*
X135489725Y-64299982D01*
X135453517Y-64316866D01*
X135453512Y-64316868D01*
X135380526Y-64367973D01*
X135380526Y-64367974D01*
X136061599Y-65049046D01*
X135980852Y-65061835D01*
X135867955Y-65119359D01*
X135778359Y-65208955D01*
X135720835Y-65321852D01*
X135708046Y-65402598D01*
X135026974Y-64721526D01*
X135026973Y-64721526D01*
X134975868Y-64794512D01*
X134975866Y-64794516D01*
X134879734Y-65000673D01*
X134879730Y-65000682D01*
X134820860Y-65220389D01*
X134820858Y-65220400D01*
X134801034Y-65446997D01*
X134801034Y-65447002D01*
X134820858Y-65673599D01*
X134820860Y-65673610D01*
X134879730Y-65893317D01*
X134879735Y-65893331D01*
X134975863Y-66099478D01*
X135026974Y-66172472D01*
X135708046Y-65491400D01*
X135720835Y-65572148D01*
X135778359Y-65685045D01*
X135867955Y-65774641D01*
X135980852Y-65832165D01*
X136061599Y-65844953D01*
X135380526Y-66526025D01*
X135453513Y-66577132D01*
X135453521Y-66577136D01*
X135659668Y-66673264D01*
X135659682Y-66673269D01*
X135879389Y-66732139D01*
X135879400Y-66732141D01*
X136105998Y-66751966D01*
X136106002Y-66751966D01*
X136332599Y-66732141D01*
X136332610Y-66732139D01*
X136552317Y-66673269D01*
X136552331Y-66673264D01*
X136758478Y-66577136D01*
X136831471Y-66526024D01*
X136150400Y-65844953D01*
X136231148Y-65832165D01*
X136344045Y-65774641D01*
X136433641Y-65685045D01*
X136491165Y-65572148D01*
X136503953Y-65491400D01*
X137185024Y-66172471D01*
X137236136Y-66099478D01*
X137332264Y-65893331D01*
X137332269Y-65893317D01*
X137391139Y-65673610D01*
X137391141Y-65673599D01*
X137410966Y-65447002D01*
X137410966Y-65446997D01*
X137391141Y-65220400D01*
X137391139Y-65220389D01*
X137332269Y-65000682D01*
X137332264Y-65000668D01*
X137236136Y-64794521D01*
X137236132Y-64794513D01*
X137185025Y-64721526D01*
X136503953Y-65402598D01*
X136491165Y-65321852D01*
X136433641Y-65208955D01*
X136344045Y-65119359D01*
X136231148Y-65061835D01*
X136150401Y-65049046D01*
X136831472Y-64367974D01*
X136758478Y-64316863D01*
X136722276Y-64299982D01*
X136669836Y-64253810D01*
X136650684Y-64186617D01*
X136670899Y-64119736D01*
X136724064Y-64074401D01*
X136774680Y-64063600D01*
X140619157Y-64063600D01*
X140634777Y-64065324D01*
X140634804Y-64065039D01*
X140642560Y-64065771D01*
X140642567Y-64065773D01*
X140709773Y-64063661D01*
X140713668Y-64063600D01*
X140741246Y-64063600D01*
X140741250Y-64063600D01*
X140745224Y-64063097D01*
X140756863Y-64062180D01*
X140800527Y-64060809D01*
X140819769Y-64055217D01*
X140838812Y-64051274D01*
X140858692Y-64048764D01*
X140899301Y-64032685D01*
X140910344Y-64028903D01*
X140952290Y-64016718D01*
X140969529Y-64006522D01*
X140987003Y-63997962D01*
X141005627Y-63990588D01*
X141005627Y-63990587D01*
X141005632Y-63990586D01*
X141040983Y-63964900D01*
X141050714Y-63958508D01*
X141088320Y-63936270D01*
X141102489Y-63922099D01*
X141117279Y-63909468D01*
X141133487Y-63897694D01*
X141161338Y-63864026D01*
X141169179Y-63855409D01*
X142077787Y-62946802D01*
X142090042Y-62936986D01*
X142089859Y-62936764D01*
X142095868Y-62931791D01*
X142095877Y-62931786D01*
X142141949Y-62882722D01*
X142144566Y-62880023D01*
X142164120Y-62860471D01*
X142166576Y-62857303D01*
X142174156Y-62848427D01*
X142204062Y-62816582D01*
X142211836Y-62802439D01*
X142261381Y-62753174D01*
X142329695Y-62738515D01*
X142395091Y-62763117D01*
G37*
G04 #@! TD.AperFunction*
G04 #@! TA.AperFunction,Conductor*
G36*
X130282760Y-56417070D02*
G01*
X130315431Y-56467031D01*
X130317283Y-56466230D01*
X130320379Y-56473385D01*
X130320382Y-56473390D01*
X130329801Y-56489318D01*
X130330580Y-56490634D01*
X130339138Y-56508103D01*
X130346514Y-56526732D01*
X130372181Y-56562060D01*
X130378593Y-56571821D01*
X130400828Y-56609417D01*
X130400833Y-56609424D01*
X130414990Y-56623580D01*
X130427627Y-56638375D01*
X130439406Y-56654587D01*
X130453748Y-56666452D01*
X130473057Y-56682425D01*
X130481698Y-56690288D01*
X135224194Y-61432784D01*
X135234019Y-61445048D01*
X135234240Y-61444866D01*
X135239210Y-61450874D01*
X135288239Y-61496915D01*
X135291036Y-61499626D01*
X135310530Y-61519120D01*
X135313695Y-61521575D01*
X135322571Y-61529156D01*
X135354418Y-61559062D01*
X135354422Y-61559064D01*
X135371973Y-61568713D01*
X135388231Y-61579392D01*
X135404064Y-61591674D01*
X135439410Y-61606968D01*
X135444155Y-61609022D01*
X135454635Y-61614155D01*
X135492908Y-61635197D01*
X135512312Y-61640179D01*
X135530710Y-61646478D01*
X135549105Y-61654438D01*
X135592254Y-61661271D01*
X135603680Y-61663638D01*
X135645981Y-61674500D01*
X135666016Y-61674500D01*
X135685413Y-61676026D01*
X135705196Y-61679160D01*
X135748675Y-61675050D01*
X135760344Y-61674500D01*
X140101252Y-61674500D01*
X140168291Y-61694185D01*
X140193400Y-61715526D01*
X140199126Y-61721885D01*
X140199130Y-61721889D01*
X140352265Y-61833148D01*
X140352270Y-61833151D01*
X140525192Y-61910142D01*
X140525197Y-61910144D01*
X140710354Y-61949500D01*
X140710355Y-61949500D01*
X140899641Y-61949500D01*
X140899646Y-61949500D01*
X140918721Y-61945445D01*
X140988383Y-61950760D01*
X141044118Y-61992895D01*
X141068225Y-62058475D01*
X141068500Y-62066735D01*
X141068500Y-62135547D01*
X141048815Y-62202586D01*
X141032181Y-62223228D01*
X140479128Y-62776281D01*
X140417805Y-62809766D01*
X140391447Y-62812600D01*
X107328948Y-62812600D01*
X107261909Y-62792915D01*
X107236800Y-62771574D01*
X107231073Y-62765214D01*
X107231069Y-62765210D01*
X107077934Y-62653951D01*
X107077929Y-62653948D01*
X106905007Y-62576957D01*
X106905002Y-62576955D01*
X106759201Y-62545965D01*
X106719846Y-62537600D01*
X106530554Y-62537600D01*
X106498097Y-62544498D01*
X106345397Y-62576955D01*
X106345392Y-62576957D01*
X106172470Y-62653948D01*
X106172465Y-62653951D01*
X106019329Y-62765211D01*
X105892666Y-62905885D01*
X105798021Y-63069815D01*
X105798018Y-63069822D01*
X105773025Y-63146744D01*
X105739526Y-63249844D01*
X105719740Y-63438100D01*
X105739526Y-63626356D01*
X105739527Y-63626359D01*
X105798018Y-63806377D01*
X105798021Y-63806384D01*
X105892667Y-63970316D01*
X105986386Y-64074401D01*
X106019329Y-64110988D01*
X106172465Y-64222248D01*
X106172470Y-64222251D01*
X106330756Y-64292726D01*
X106383993Y-64337976D01*
X106404314Y-64404826D01*
X106385268Y-64472049D01*
X106332902Y-64518304D01*
X106280320Y-64530005D01*
X88703846Y-64530005D01*
X88663788Y-64538518D01*
X88650978Y-64540547D01*
X88610238Y-64544830D01*
X88610237Y-64544831D01*
X88571288Y-64557486D01*
X88558754Y-64560845D01*
X88518690Y-64569361D01*
X88481275Y-64586019D01*
X88469163Y-64590668D01*
X88430215Y-64603324D01*
X88430212Y-64603325D01*
X88430211Y-64603326D01*
X88409267Y-64615418D01*
X88394736Y-64623807D01*
X88383177Y-64629696D01*
X88345762Y-64646355D01*
X88312632Y-64670424D01*
X88301754Y-64677488D01*
X88266284Y-64697968D01*
X88266280Y-64697970D01*
X88235842Y-64725377D01*
X88225758Y-64733543D01*
X88192620Y-64757620D01*
X88165217Y-64788053D01*
X88156043Y-64797227D01*
X88125610Y-64824630D01*
X88101533Y-64857768D01*
X88093367Y-64867852D01*
X88065960Y-64898290D01*
X88065958Y-64898294D01*
X88045478Y-64933764D01*
X88038414Y-64944642D01*
X88014345Y-64977772D01*
X87997686Y-65015187D01*
X87991797Y-65026746D01*
X87971314Y-65062225D01*
X87958658Y-65101173D01*
X87954009Y-65113285D01*
X87937351Y-65150700D01*
X87928835Y-65190764D01*
X87925476Y-65203298D01*
X87912821Y-65242247D01*
X87912820Y-65242248D01*
X87908537Y-65282988D01*
X87906508Y-65295798D01*
X87897995Y-65335855D01*
X87897995Y-65376811D01*
X87897316Y-65389771D01*
X87893035Y-65430504D01*
X87897316Y-65471236D01*
X87897995Y-65484197D01*
X87897995Y-65525151D01*
X87906509Y-65565210D01*
X87908538Y-65578024D01*
X87912820Y-65618760D01*
X87912821Y-65618762D01*
X87925477Y-65657714D01*
X87928836Y-65670249D01*
X87937351Y-65710308D01*
X87937350Y-65710308D01*
X87954007Y-65747717D01*
X87958659Y-65759836D01*
X87971313Y-65798782D01*
X87971315Y-65798786D01*
X87971316Y-65798789D01*
X87990586Y-65832165D01*
X87991796Y-65834261D01*
X87997687Y-65845823D01*
X88014345Y-65883237D01*
X88014348Y-65883241D01*
X88038412Y-65916363D01*
X88045480Y-65927247D01*
X88065959Y-65962716D01*
X88065966Y-65962727D01*
X88093372Y-65993164D01*
X88101540Y-66003251D01*
X88125605Y-66036373D01*
X88125606Y-66036375D01*
X88156037Y-66063775D01*
X88165214Y-66072952D01*
X88192623Y-66103392D01*
X88192624Y-66103393D01*
X88225753Y-66127462D01*
X88235843Y-66135633D01*
X88266272Y-66163033D01*
X88266276Y-66163036D01*
X88266279Y-66163038D01*
X88277591Y-66169569D01*
X88301753Y-66183520D01*
X88312637Y-66190588D01*
X88345761Y-66214654D01*
X88383173Y-66231311D01*
X88394737Y-66237203D01*
X88410522Y-66246316D01*
X88430211Y-66257684D01*
X88469167Y-66270341D01*
X88481273Y-66274988D01*
X88518688Y-66291647D01*
X88518692Y-66291649D01*
X88558762Y-66300165D01*
X88571287Y-66303522D01*
X88610239Y-66316179D01*
X88650980Y-66320460D01*
X88663792Y-66322490D01*
X88703849Y-66331005D01*
X88751303Y-66331005D01*
X129522144Y-66331005D01*
X129589183Y-66350690D01*
X129609825Y-66367324D01*
X131232181Y-67989680D01*
X131265666Y-68051003D01*
X131268500Y-68077361D01*
X131268500Y-69283847D01*
X131248815Y-69350886D01*
X131196011Y-69396641D01*
X131126853Y-69406585D01*
X131063297Y-69377560D01*
X131056819Y-69371528D01*
X130576503Y-68891212D01*
X130566680Y-68878950D01*
X130566459Y-68879134D01*
X130561486Y-68873122D01*
X130512476Y-68827099D01*
X130509677Y-68824386D01*
X130490177Y-68804885D01*
X130490171Y-68804880D01*
X130486986Y-68802409D01*
X130478134Y-68794848D01*
X130446282Y-68764938D01*
X130446280Y-68764936D01*
X130446277Y-68764935D01*
X130428729Y-68755288D01*
X130412463Y-68744604D01*
X130396632Y-68732324D01*
X130356549Y-68714978D01*
X130346063Y-68709841D01*
X130307794Y-68688803D01*
X130307792Y-68688802D01*
X130288393Y-68683822D01*
X130269981Y-68677518D01*
X130251598Y-68669562D01*
X130251592Y-68669560D01*
X130208460Y-68662729D01*
X130197022Y-68660361D01*
X130154720Y-68649500D01*
X130154719Y-68649500D01*
X130134684Y-68649500D01*
X130115286Y-68647973D01*
X130107862Y-68646797D01*
X130095505Y-68644840D01*
X130095504Y-68644840D01*
X130052025Y-68648950D01*
X130040356Y-68649500D01*
X110765852Y-68649500D01*
X110698813Y-68629815D01*
X110678171Y-68613181D01*
X108953203Y-66888212D01*
X108943380Y-66875950D01*
X108943159Y-66876134D01*
X108938186Y-66870122D01*
X108889176Y-66824099D01*
X108886377Y-66821386D01*
X108866877Y-66801885D01*
X108866871Y-66801880D01*
X108863686Y-66799409D01*
X108854834Y-66791848D01*
X108822982Y-66761938D01*
X108822980Y-66761936D01*
X108822977Y-66761935D01*
X108805429Y-66752288D01*
X108789163Y-66741604D01*
X108783431Y-66737158D01*
X108773336Y-66729327D01*
X108773335Y-66729326D01*
X108773332Y-66729324D01*
X108733249Y-66711978D01*
X108722763Y-66706841D01*
X108684494Y-66685803D01*
X108684492Y-66685802D01*
X108665093Y-66680822D01*
X108646681Y-66674518D01*
X108628298Y-66666562D01*
X108628292Y-66666560D01*
X108585160Y-66659729D01*
X108573722Y-66657361D01*
X108531420Y-66646500D01*
X108531419Y-66646500D01*
X108511384Y-66646500D01*
X108491986Y-66644973D01*
X108484562Y-66643797D01*
X108472205Y-66641840D01*
X108472204Y-66641840D01*
X108428725Y-66645950D01*
X108417056Y-66646500D01*
X82213738Y-66646500D01*
X82198121Y-66644776D01*
X82198094Y-66645062D01*
X82190332Y-66644327D01*
X82123145Y-66646439D01*
X82119251Y-66646500D01*
X82091650Y-66646500D01*
X82087962Y-66646965D01*
X82087649Y-66647005D01*
X82076031Y-66647918D01*
X82032373Y-66649290D01*
X82032372Y-66649290D01*
X82013129Y-66654881D01*
X81994079Y-66658825D01*
X81974211Y-66661334D01*
X81974210Y-66661334D01*
X81933599Y-66677413D01*
X81922554Y-66681194D01*
X81880614Y-66693379D01*
X81880610Y-66693381D01*
X81863366Y-66703579D01*
X81845905Y-66712133D01*
X81827274Y-66719510D01*
X81827262Y-66719517D01*
X81791933Y-66745185D01*
X81782173Y-66751596D01*
X81744580Y-66773829D01*
X81730414Y-66787995D01*
X81715624Y-66800627D01*
X81699414Y-66812404D01*
X81699411Y-66812407D01*
X81671573Y-66846058D01*
X81663711Y-66854697D01*
X79408228Y-69110181D01*
X79346905Y-69143666D01*
X79320547Y-69146500D01*
X78519452Y-69146500D01*
X78452413Y-69126815D01*
X78406658Y-69074011D01*
X78396714Y-69004853D01*
X78425739Y-68941297D01*
X78431771Y-68934819D01*
X80721529Y-66645062D01*
X83094772Y-64271819D01*
X83156095Y-64238334D01*
X83182453Y-64235500D01*
X83241644Y-64235500D01*
X83241646Y-64235500D01*
X83426803Y-64196144D01*
X83599730Y-64119151D01*
X83752871Y-64007888D01*
X83879533Y-63867216D01*
X83974179Y-63703284D01*
X84032674Y-63523256D01*
X84052460Y-63335000D01*
X84032674Y-63146744D01*
X83974179Y-62966716D01*
X83879533Y-62802784D01*
X83752871Y-62662112D01*
X83752870Y-62662111D01*
X83599734Y-62550851D01*
X83599729Y-62550848D01*
X83426807Y-62473857D01*
X83420626Y-62471849D01*
X83421007Y-62470674D01*
X83365482Y-62440698D01*
X83331706Y-62379535D01*
X83336358Y-62309820D01*
X83377963Y-62253688D01*
X83443310Y-62228959D01*
X83452745Y-62228600D01*
X123150157Y-62228600D01*
X123165777Y-62230324D01*
X123165804Y-62230039D01*
X123173560Y-62230771D01*
X123173567Y-62230773D01*
X123240773Y-62228661D01*
X123244668Y-62228600D01*
X123272246Y-62228600D01*
X123272250Y-62228600D01*
X123276224Y-62228097D01*
X123287863Y-62227180D01*
X123331527Y-62225809D01*
X123350769Y-62220217D01*
X123369812Y-62216274D01*
X123389692Y-62213764D01*
X123430301Y-62197685D01*
X123441344Y-62193903D01*
X123483290Y-62181718D01*
X123500529Y-62171522D01*
X123518003Y-62162962D01*
X123536627Y-62155588D01*
X123536627Y-62155587D01*
X123536632Y-62155586D01*
X123571983Y-62129900D01*
X123581714Y-62123508D01*
X123619320Y-62101270D01*
X123633489Y-62087099D01*
X123648279Y-62074468D01*
X123664487Y-62062694D01*
X123692338Y-62029026D01*
X123700179Y-62020409D01*
X129214179Y-56506410D01*
X129275500Y-56472927D01*
X129333947Y-56474317D01*
X129402308Y-56492635D01*
X129559780Y-56506412D01*
X129628998Y-56512468D01*
X129629000Y-56512468D01*
X129629002Y-56512468D01*
X129698220Y-56506412D01*
X129855692Y-56492635D01*
X130075496Y-56433739D01*
X130149902Y-56399042D01*
X130218975Y-56388551D01*
X130282760Y-56417070D01*
G37*
G04 #@! TD.AperFunction*
M02*
