M48
; DRILL file {KiCad 7.0.10} date Sat Jun  1 12:23:45 2024
; FORMAT={-:-/ absolute / metric / decimal}
; #@! TF.CreationDate,2024-06-01T12:23:45+09:00
; #@! TF.GenerationSoftware,Kicad,Pcbnew,7.0.10
; #@! TF.FileFunction,MixedPlating,1,2
FMAT,2
METRIC
; #@! TA.AperFunction,Plated,PTH,ViaDrill
T1C0.400
; #@! TA.AperFunction,Plated,PTH,ComponentDrill
T2C0.700
; #@! TA.AperFunction,Plated,PTH,ComponentDrill
T3C0.800
; #@! TA.AperFunction,Plated,PTH,ComponentDrill
T4C1.000
; #@! TA.AperFunction,NonPlated,NPTH,ComponentDrill
T5C5.000
%
G90
G05
T1
X50.889Y-72.098
X51.27Y-51.143
X51.397Y-89.243
X54.953Y-68.288
X57.62Y-102.197
X66.129Y-89.624
X70.828Y-102.705
X72.479Y-91.021
X76.67Y-96.609
X77.94Y-58.382
X81.75Y-82.385
X81.75Y-84.036
X81.75Y-86.452
X82.606Y-102.911
X83.147Y-63.335
X83.274Y-99.022
X84.29Y-51.27
X84.531Y-81.242
X84.925Y-69.304
X85.306Y-79.235
X86.156Y-78.499
X87.465Y-69.304
X88.798Y-65.431
X88.989Y-77.178
X89.751Y-101.943
X93.792Y-60.287
X95.466Y-72.225
X96.736Y-87.465
X98.133Y-59.017
X100.419Y-87.465
X101.181Y-59.017
X102.959Y-59.017
X104.392Y-71.875
X106.625Y-63.438
X107.426Y-87.465
X108.583Y-69.085
X108.602Y-72.708
X109.327Y-92.672
X111.341Y-98.26
X111.595Y-51.143
X111.976Y-92.672
X112.484Y-97.117
X116.929Y-101.308
X117.241Y-91.402
X119.342Y-102.832
X119.596Y-68.034
X124.93Y-62.192
X127.343Y-102.832
X128.232Y-72.352
X128.994Y-68.034
X129.629Y-57.112
X130.899Y-91.91
X131.915Y-98.514
X132.169Y-102.578
X132.423Y-72.352
X134.328Y-57.112
X135.344Y-93.561
X135.852Y-79.464
X136.487Y-77.051
X139.027Y-62.192
X140.805Y-51.016
X140.805Y-61.049
X141.186Y-64.859
X141.186Y-68.796
X143.472Y-99.53
T2
X66.256Y-82.385
X66.256Y-87.465
X68.796Y-82.385
X68.796Y-87.465
X71.336Y-82.385
X71.336Y-87.465
X73.876Y-82.385
X73.876Y-87.465
X76.416Y-82.385
X76.416Y-87.465
T3
X56.096Y-70.447
X56.096Y-78.067
X58.636Y-70.447
X58.636Y-78.067
X61.176Y-70.447
X61.176Y-78.067
X63.716Y-70.447
X63.716Y-78.067
X66.256Y-70.447
X66.256Y-78.067
X68.796Y-70.447
X68.796Y-78.067
X71.336Y-70.447
X71.336Y-78.067
X73.876Y-70.447
X73.876Y-78.067
X76.416Y-70.447
X76.416Y-78.067
X78.956Y-70.447
X78.956Y-78.067
X80.099Y-89.029
X80.099Y-91.529
X82.385Y-72.987
X82.385Y-77.987
X94.069Y-55.207
X94.069Y-70.447
X96.609Y-55.207
X96.609Y-70.447
X99.149Y-55.207
X99.149Y-70.447
X101.689Y-55.207
X101.689Y-70.447
X104.229Y-55.207
X104.229Y-70.447
X106.769Y-55.207
X106.769Y-70.447
X109.309Y-55.207
X109.309Y-70.447
X111.849Y-55.207
X111.849Y-70.447
X114.389Y-55.207
X114.389Y-70.447
X116.929Y-55.207
X116.929Y-70.447
X119.342Y-81.369
X119.342Y-88.989
X119.469Y-55.207
X119.469Y-70.447
X121.882Y-81.369
X121.882Y-88.989
X122.009Y-55.207
X122.009Y-70.447
X124.422Y-81.369
X124.422Y-88.989
X124.549Y-55.207
X124.549Y-70.447
X126.962Y-81.369
X126.962Y-88.989
X127.089Y-55.207
X127.089Y-70.447
X129.502Y-81.369
X129.502Y-88.989
X129.629Y-55.207
X129.629Y-70.447
X132.042Y-81.369
X132.042Y-88.989
X132.169Y-55.207
X132.169Y-70.447
X134.582Y-81.369
X134.582Y-88.989
X136.106Y-65.447
X136.106Y-70.447
X137.122Y-81.369
X137.122Y-88.989
X140.932Y-83.989
X140.932Y-88.989
T4
X143.345Y-52.794
X143.345Y-55.334
X143.345Y-57.874
T5
X72.5Y-94.5
X128.38Y-99.453
M30
